<svg width="241" height="241" viewBox="0 0 241 241" fill="none" xmlns="http://www.w3.org/2000/svg">
<mask id="mask0_436_1826" style="mask-type:luminance" maskUnits="userSpaceOnUse" x="0" y="0" width="241" height="241">
<path d="M0.5 0.100113H240.5V240.1H0.5V0.100113Z" fill="white"/>
</mask>
<g mask="url(#mask0_436_1826)">
<path d="M25.3027 189.506H33.0115V189.626H25.3027V189.506Z" fill="#E1E1E1"/>
<path d="M82.269 188.206H107.963V188.326H82.269V188.206Z" fill="#E1E1E1"/>
<path d="M33.4912 193.966H50.8912V194.086H33.4912V193.966Z" fill="#E1E1E1"/>
<path d="M182.109 188.143H202.84V188.263H182.109V188.143Z" fill="#E1E1E1"/>
<path d="M207.117 188.143H210.156V188.263H207.117V188.143Z" fill="#E1E1E1"/>
<path d="M152.282 191.134H178.149V191.254H152.282V191.134Z" fill="#E1E1E1"/>
<path d="M68.7023 86.5039H37.6094V27.8873H68.7023V86.5039Z" fill="#E7E7E7"/>
<path d="M67.177 86.5039H30.6538V27.8873H67.177V86.5039Z" fill="#F0F0F0"/>
<path d="M61.6081 81.2969H36.2046V33.0933H61.6081V81.2969Z" fill="white"/>
<path d="M47.7489 44.2555C46.4707 45.8846 45.466 47.6812 44.7921 49.6425C44.1143 51.6134 43.6771 53.8286 44.0078 55.9084C44.29 57.6816 45.3422 59.3985 47.0443 60.1104C48.874 60.876 50.7945 60.1459 52.2628 58.9756C53.6246 57.8904 55.3847 55.9968 54.9287 54.095C54.4526 52.1121 52.0852 51.7204 50.4518 52.3852C46.7006 53.9131 44.9212 58.222 44.6356 61.9944C44.3342 65.9832 44.9817 72.5582 49.9094 73.4448C50.8156 73.6075 51.2044 72.2198 50.2924 72.0561C46.7774 71.424 46.1687 67.1308 46.0449 64.2115C45.9076 60.9628 46.5715 57.4838 48.97 55.1174C49.9041 54.1953 51.5875 52.9276 52.9411 53.7172C54.5068 54.6307 52.7145 56.5948 51.9033 57.3796C50.8718 58.3785 49.3996 59.3107 47.9068 58.8955C46.5009 58.5043 45.6801 57.0926 45.4324 55.7376C45.095 53.8896 45.5563 51.8721 46.1476 50.1216C46.7371 48.3763 47.6294 46.7236 48.767 45.2736C49.3329 44.5526 48.3206 43.5268 47.7489 44.2555Z" fill="#F0F0F0"/>
<path d="M208.708 67.1523H182.177V33.1127H208.708V67.1523Z" fill="#E7E7E7"/>
<path d="M207.406 67.1523H176.241V33.1127H207.406V67.1523Z" fill="#F0F0F0"/>
<path d="M204.398 64.1289H179.115V36.1363H204.398V64.1289Z" fill="white"/>
<path d="M196.546 55.1851H187.42V45.0806H196.546V55.1851Z" fill="#F0F0F0"/>
<path d="M208.708 114.625H182.177V80.5858H208.708V114.625Z" fill="#E7E7E7"/>
<path d="M207.406 114.625H176.241V80.5858H207.406V114.625Z" fill="#F0F0F0"/>
<path d="M204.398 111.602H179.115V83.6094H204.398V111.602Z" fill="white"/>
<path d="M196.546 102.658H187.42V92.5537H196.546V102.658Z" fill="#F0F0F0"/>
<path d="M87.4794 176.564H23.9644V146.733H87.4794V176.564Z" fill="#ECECEC"/>
<path d="M29.157 175.153L23.9644 222.881H27.3061L37.3016 175.229L29.157 175.153Z" fill="#ECECEC"/>
<path d="M83.7452 175.153L88.9379 222.881H85.5961L75.6006 175.229L83.7452 175.153Z" fill="#ECECEC"/>
<path d="M40.0036 138.453L42.7915 146.733H37.6387L40.0036 138.453Z" fill="#E1E1E1"/>
<path d="M30.2812 146.733H40.0036L42.7915 133.21H33.0758L30.2812 146.733Z" fill="#E7E7E7"/>
<mask id="mask1_436_1826" style="mask-type:luminance" maskUnits="userSpaceOnUse" x="31" y="134" width="11" height="12">
<path d="M31.832 134.505H41.2404V145.439H31.832V134.505Z" fill="white"/>
</mask>
<g mask="url(#mask1_436_1826)">
<path d="M38.9845 145.439L41.2405 134.505H34.088L31.832 145.439H38.9845Z" fill="white"/>
</g>
<path d="M57.6839 137.862C56.6577 135.373 56.7499 132.563 57.9369 130.147C59.9731 126.352 60.5678 125.416 59.2017 124.633C57.8356 123.848 57.3172 127.693 57.3172 127.693C56.6697 125.957 56.6035 124.058 57.1276 122.28C58.0252 119.511 58.5945 114.995 57.3551 114.515C56.1158 114.034 57.1276 120.143 56.0903 122.229C55.546 120.763 55.1932 119.233 55.0406 117.676C54.9014 115.451 55.1289 111.909 54.1555 110.999C53.1815 110.088 52.5619 110.708 53.5103 115.615C54.0849 118.532 54.4022 121.495 54.4588 124.468C54.4588 124.468 52.3468 118.031 50.9303 117.841C49.5139 117.651 49.5139 119.738 50.7278 121.547C51.9422 123.355 54.2817 126.605 54.6739 128.262C54.6739 128.262 52.3468 123.418 50.2723 124.911C48.1982 126.403 52.0809 129.312 53.8137 130.374C55.5465 131.437 56.7604 138.064 56.7604 138.064L57.6839 137.862Z" fill="#E1E1E1"/>
<path d="M56.28 139.392C57.2731 136.894 57.1488 134.09 55.9387 131.69C53.8517 127.896 53.2569 126.998 54.5472 126.201C55.8374 125.404 56.4696 129.236 56.4696 129.236C57.0917 127.488 57.1363 125.586 56.5963 123.81C55.6603 121.053 55.0406 116.551 56.267 116.057C57.4939 115.564 56.5709 121.673 57.6585 123.747C58.1865 122.275 58.5225 120.74 58.6574 119.181C58.7717 116.956 58.5057 113.414 59.4672 112.491C60.4281 111.568 61.0608 112.175 60.1627 117.107C59.6256 120.028 59.3424 122.991 59.3155 125.96C59.3155 125.96 61.3517 119.498 62.7681 119.283C64.1846 119.068 64.2101 121.167 63.0086 122.988C61.8067 124.81 59.5176 128.047 59.2142 129.768C59.2142 129.768 61.4654 124.886 63.5649 126.34C65.6645 127.794 61.8067 130.779 60.0869 131.854C58.367 132.929 57.2285 139.594 57.2285 139.594L56.28 139.392Z" fill="#ECECEC"/>
<path d="M64.2735 136.61H49.9565L51.1201 146.854H63.1225L64.2735 136.61Z" fill="#E1E1E1"/>
<path d="M82.7999 144.547V146.534H83.1206V146.854H68.2708C67.545 146.854 66.957 146.266 66.957 145.541C66.957 144.815 67.545 144.226 68.2708 144.226H83.1206V144.547H82.7999Z" fill="#E1E1E1"/>
<mask id="mask2_436_1826" style="mask-type:luminance" maskUnits="userSpaceOnUse" x="74" y="144" width="10" height="3">
<path d="M74.3081 144.227H83.1204V146.854H74.3081V144.227Z" fill="white"/>
</mask>
<g mask="url(#mask2_436_1826)">
<g opacity="0.300003">
<path d="M82.7998 144.547V146.534H83.1204V146.854H75.6219C74.8961 146.854 74.3081 146.266 74.3081 145.541C74.3081 144.815 74.8961 144.226 75.6219 144.226H83.1204V144.547H82.7998Z" fill="white"/>
</g>
</g>
<mask id="mask3_436_1826" style="mask-type:luminance" maskUnits="userSpaceOnUse" x="74" y="144" width="9" height="3">
<path d="M74.603 144.547H82.8V146.534H74.603V144.547Z" fill="white"/>
</mask>
<g mask="url(#mask3_436_1826)">
<path d="M82.8 144.547V146.534H75.6221C75.0701 146.545 74.6136 146.106 74.6031 145.554C74.6031 145.55 74.6031 145.545 74.6031 145.541C74.5992 144.996 75.0384 144.551 75.5832 144.547H75.5962H82.8Z" fill="white"/>
</g>
<path d="M84.3961 141.919V143.906H84.7167V144.227H69.867C69.1412 144.227 68.5532 143.638 68.5532 142.913C68.5532 142.187 69.1412 141.599 69.867 141.599H84.7167V141.919H84.3961Z" fill="#E1E1E1"/>
<mask id="mask4_436_1826" style="mask-type:luminance" maskUnits="userSpaceOnUse" x="75" y="141" width="10" height="4">
<path d="M75.9043 141.599H84.7166V144.227H75.9043V141.599Z" fill="white"/>
</mask>
<g mask="url(#mask4_436_1826)">
<path d="M84.396 141.919V143.906H84.7166V144.227H77.218C76.4923 144.227 75.9038 143.638 75.9038 142.913C75.9038 142.187 76.4923 141.599 77.218 141.599H84.7166V141.919H84.396Z" fill="#E7E7E7"/>
</g>
<mask id="mask5_436_1826" style="mask-type:luminance" maskUnits="userSpaceOnUse" x="76" y="141" width="9" height="3">
<path d="M76.2241 141.92H84.3956V143.906H76.2241V141.92Z" fill="white"/>
</mask>
<g mask="url(#mask5_436_1826)">
<path d="M84.3957 141.92V143.906H77.2177C76.6705 143.903 76.2275 143.46 76.2241 142.913C76.2208 142.368 76.6595 141.923 77.2048 141.92C77.2091 141.92 77.2134 141.92 77.2177 141.92H84.3957Z" fill="white"/>
</g>
<path d="M82.3898 139.292V141.278H82.7104V141.599H67.8606C67.1349 141.599 66.5469 141.011 66.5469 140.285C66.5469 139.56 67.1349 138.971 67.8606 138.971H82.7104V139.292H82.3898Z" fill="#E1E1E1"/>
<mask id="mask6_436_1826" style="mask-type:luminance" maskUnits="userSpaceOnUse" x="73" y="138" width="10" height="4">
<path d="M73.9302 138.971H82.7425V141.599H73.9302V138.971Z" fill="white"/>
</mask>
<g mask="url(#mask6_436_1826)">
<path d="M82.3902 139.292V141.278H82.7108V141.599H75.2439C74.5187 141.599 73.9302 141.011 73.9302 140.285C73.9302 139.56 74.5187 138.971 75.2439 138.971H82.7425V139.292H82.3902Z" fill="#E7E7E7"/>
</g>
<mask id="mask7_436_1826" style="mask-type:luminance" maskUnits="userSpaceOnUse" x="74" y="139" width="9" height="3">
<path d="M74.2183 139.291H82.3898V141.279H74.2183V139.291Z" fill="white"/>
</mask>
<g mask="url(#mask7_436_1826)">
<path d="M82.3899 139.292V141.278H75.2436C74.6916 141.293 74.2328 140.857 74.2188 140.305C74.2184 140.3 74.2184 140.296 74.2184 140.292C74.2107 139.746 74.6465 139.298 75.1918 139.291C75.2091 139.291 75.2264 139.291 75.2436 139.292H82.3899Z" fill="white"/>
</g>
<path d="M84.0253 165.921H27.6724V150.655H84.0253V165.921Z" stroke="#E1E1E1" stroke-width="1.33333" stroke-miterlimit="10"/>
<path d="M58.7507 158.288C58.7507 159.191 58.0182 159.924 57.1148 159.924C56.211 159.924 55.4785 159.191 55.4785 158.288C55.4785 157.385 56.211 156.652 57.1148 156.652C58.0182 156.652 58.7507 157.385 58.7507 158.288Z" fill="#E1E1E1"/>
</g>
<mask id="mask8_436_1826" style="mask-type:luminance" maskUnits="userSpaceOnUse" x="0" y="0" width="241" height="241">
<path d="M0.5 0.100113H240.5V240.1H0.5V0.100113Z" fill="white"/>
</mask>
<g mask="url(#mask8_436_1826)">
<path d="M87.2112 49.2126C76.1861 50.668 65.5546 53.7664 56.1255 58.6269C45.0125 64.3552 33.6572 73.2794 37.0109 84.9525C43.2029 106.502 72.9058 106.895 66.9749 121.384C60.2573 137.797 64.7626 157.048 94.9056 162.402C152.159 172.571 221.369 113.073 201.931 80.379C189.829 60.0251 145.752 41.4851 87.2112 49.2126Z" fill="#8C845E"/>
<mask id="mask9_436_1826" style="mask-type:luminance" maskUnits="userSpaceOnUse" x="36" y="47" width="170" height="117">
<path d="M36.4131 47.4206H205.274V163.556H36.4131V47.4206Z" fill="white"/>
</mask>
<g mask="url(#mask9_436_1826)">
<g opacity="0.899994">
<path d="M87.2112 49.2126C76.1861 50.668 65.5546 53.7664 56.1255 58.6269C45.0125 64.3552 33.6572 73.2794 37.0109 84.9525C43.2029 106.502 72.9058 106.895 66.9749 121.384C60.2573 137.797 64.7626 157.048 94.9056 162.402C152.159 172.571 221.369 113.073 201.931 80.379C189.829 60.0251 145.752 41.4851 87.2112 49.2126Z" fill="white"/>
</g>
</g>
</g>
<mask id="mask10_436_1826" style="mask-type:luminance" maskUnits="userSpaceOnUse" x="0" y="0" width="241" height="241">
<path d="M0.5 0.100113H240.5V240.1H0.5V0.100113Z" fill="white"/>
</mask>
<g mask="url(#mask10_436_1826)">
<path d="M220.003 222.881C220.003 224.495 175.454 225.803 120.5 225.803C65.5464 225.803 20.9976 224.495 20.9976 222.881C20.9976 221.268 65.5464 219.96 120.5 219.96C175.454 219.96 220.003 221.268 220.003 222.881Z" fill="#F5F5F5"/>
</g>
<mask id="mask11_436_1826" style="mask-type:luminance" maskUnits="userSpaceOnUse" x="0" y="0" width="241" height="241">
<path d="M0.5 0.100113H240.5V240.1H0.5V0.100113Z" fill="white"/>
</mask>
<g mask="url(#mask11_436_1826)">
<path d="M67.2398 201.746C63.7723 201.746 60.7459 200.575 58.1591 198.233C55.5729 195.891 54.2798 192.616 54.2798 188.405C54.2798 184.67 55.5302 181.527 58.0315 178.978C60.5323 176.429 63.6019 175.153 67.2398 175.153C70.8206 175.153 73.8335 176.429 76.2777 178.978C78.7219 181.527 79.9439 184.67 79.9439 188.405C79.9439 192.556 78.6647 195.818 76.1068 198.188C73.5494 200.559 70.5935 201.746 67.2398 201.746Z" fill="#8C845E"/>
<path d="M27.3062 107.705C27.3062 102.219 28.9948 96.6611 32.3716 91.0312C35.7484 85.4008 40.6751 80.7381 47.1522 77.0421C53.6289 73.3475 61.1855 71.4986 69.8212 71.4986C77.8482 71.4986 84.934 73.0446 91.0789 76.1325C97.2234 79.2222 101.971 83.4232 105.32 88.7353C108.669 94.0494 110.343 99.8229 110.343 106.059C110.343 110.968 109.389 115.271 107.479 118.965C105.569 122.661 103.299 125.851 100.67 128.536C98.0404 131.222 93.321 135.74 86.5117 142.093C84.6297 143.883 83.121 145.457 81.9863 146.813C80.8516 148.17 80.0073 149.412 79.4538 150.538C78.8999 151.664 78.4708 152.79 78.1665 153.916C77.8621 155.042 77.4052 157.021 76.7966 159.849C75.7444 165.856 72.4506 168.857 66.9148 168.857C64.0362 168.857 61.6146 167.876 59.649 165.913C57.6839 163.95 56.7014 161.033 56.7014 157.164C56.7014 152.313 57.4209 148.112 58.8604 144.561C60.2994 141.01 62.2094 137.891 64.5897 135.206C66.9705 132.521 70.1812 129.331 74.2223 125.635C77.7652 122.401 80.3255 119.961 81.9033 118.316C83.481 116.67 84.8097 114.838 85.8892 112.816C86.9687 110.794 87.5082 108.601 87.5082 106.232C87.5082 101.613 85.8613 97.7152 82.5676 94.539C79.2738 91.3643 75.0249 89.775 69.8212 89.775C63.7319 89.775 59.2477 91.3773 56.3692 94.5822C53.4906 97.7872 51.0546 102.508 49.0622 108.745C47.1796 115.271 43.6094 118.532 38.35 118.532C35.2502 118.532 32.6346 117.393 30.503 115.111C28.3718 112.83 27.3062 110.361 27.3062 107.705Z" fill="#8C845E"/>
<mask id="mask12_436_1826" style="mask-type:luminance" maskUnits="userSpaceOnUse" x="27" y="71" width="84" height="131">
<path d="M27.3062 71.4983H110.344V201.746H27.3062V71.4983Z" fill="white"/>
</mask>
<g mask="url(#mask12_436_1826)">
<g opacity="0.300003">
<path d="M67.2398 201.746C63.7723 201.746 60.7459 200.575 58.1591 198.233C55.5729 195.891 54.2798 192.616 54.2798 188.405C54.2798 184.67 55.5302 181.527 58.0315 178.978C60.5323 176.429 63.6019 175.153 67.2398 175.153C70.8206 175.153 73.8335 176.429 76.2777 178.978C78.7219 181.527 79.9439 184.67 79.9439 188.405C79.9439 192.556 78.6647 195.818 76.1068 198.188C73.5494 200.559 70.5935 201.746 67.2398 201.746Z" fill="black"/>
<path d="M27.3062 107.705C27.3062 102.219 28.9948 96.6611 32.3716 91.0312C35.7484 85.4008 40.6751 80.7381 47.1522 77.0421C53.6289 73.3475 61.1855 71.4986 69.8212 71.4986C77.8482 71.4986 84.934 73.0446 91.0789 76.1325C97.2234 79.2222 101.971 83.4232 105.32 88.7353C108.669 94.0494 110.343 99.8229 110.343 106.059C110.343 110.968 109.389 115.271 107.479 118.965C105.569 122.661 103.299 125.851 100.67 128.536C98.0404 131.222 93.321 135.74 86.5117 142.093C84.6297 143.883 83.121 145.457 81.9863 146.813C80.8516 148.17 80.0073 149.412 79.4538 150.538C78.8999 151.664 78.4708 152.79 78.1665 153.916C77.8621 155.042 77.4052 157.021 76.7966 159.849C75.7444 165.856 72.4506 168.857 66.9148 168.857C64.0362 168.857 61.6146 167.876 59.649 165.913C57.6839 163.95 56.7014 161.033 56.7014 157.164C56.7014 152.313 57.4209 148.112 58.8604 144.561C60.2994 141.01 62.2094 137.891 64.5897 135.206C66.9705 132.521 70.1812 129.331 74.2223 125.635C77.7652 122.401 80.3255 119.961 81.9033 118.316C83.481 116.67 84.8097 114.838 85.8892 112.816C86.9687 110.794 87.5082 108.601 87.5082 106.232C87.5082 101.613 85.8613 97.7152 82.5676 94.539C79.2738 91.3643 75.0249 89.775 69.8212 89.775C63.7319 89.775 59.2477 91.3773 56.3692 94.5822C53.4906 97.7872 51.0546 102.508 49.0622 108.745C47.1796 115.271 43.6094 118.532 38.35 118.532C35.2502 118.532 32.6346 117.393 30.503 115.111C28.3718 112.83 27.3062 110.361 27.3062 107.705Z" fill="black"/>
</g>
</g>
<path d="M67.2398 198.252C63.7723 198.252 60.7459 197.081 58.1591 194.739C55.5729 192.397 54.2798 189.122 54.2798 184.911C54.2798 181.176 55.5302 178.033 58.0315 175.484C60.5323 172.936 63.6019 171.659 67.2398 171.659C70.8206 171.659 73.8335 172.936 76.2777 175.484C78.7219 178.033 79.9439 181.176 79.9439 184.911C79.9439 189.062 78.6647 192.324 76.1068 194.695C73.5494 197.065 70.5935 198.252 67.2398 198.252Z" fill="#8C845E"/>
<path d="M27.3062 104.211C27.3062 98.7254 28.9948 93.1675 32.3716 87.5375C35.7484 81.9071 40.6751 77.2444 47.1522 73.5484C53.6289 69.8539 61.1855 68.0049 69.8212 68.0049C77.8482 68.0049 84.934 69.551 91.0789 72.6388C97.2234 75.7281 101.971 79.9295 105.32 85.2417C108.669 90.5558 110.343 96.3292 110.343 102.565C110.343 107.474 109.389 111.777 107.479 115.472C105.569 119.168 103.299 122.358 100.67 125.043C98.0404 127.728 93.321 132.247 86.5117 138.599C84.6297 140.389 83.121 141.964 81.9863 143.319C80.8516 144.676 80.0073 145.918 79.4538 147.044C78.8999 148.17 78.4708 149.296 78.1665 150.422C77.8621 151.548 77.4052 153.527 76.7966 156.356C75.7444 162.362 72.4506 165.364 66.9148 165.364C64.0362 165.364 61.6146 164.382 59.649 162.419C57.6839 160.457 56.7014 157.539 56.7014 153.67C56.7014 148.82 57.4209 144.619 58.8604 141.067C60.2994 137.516 62.2094 134.398 64.5897 131.712C66.9705 129.027 70.1812 125.837 74.2223 122.141C77.7652 118.907 80.3255 116.468 81.9033 114.822C83.481 113.176 84.8097 111.344 85.8892 109.322C86.9687 107.301 87.5082 105.107 87.5082 102.739C87.5082 98.1191 85.8613 94.2215 82.5676 91.0454C79.2738 87.8707 75.0249 86.2814 69.8212 86.2814C63.7319 86.2814 59.2477 87.8836 56.3692 91.0886C53.4906 94.2935 51.0546 99.0143 49.0622 105.25C47.1796 111.777 43.6094 115.039 38.35 115.039C35.2502 115.039 32.6346 113.899 30.503 111.617C28.3718 109.336 27.3062 106.868 27.3062 104.211Z" fill="#8C845E"/>
</g>
<mask id="mask13_436_1826" style="mask-type:luminance" maskUnits="userSpaceOnUse" x="0" y="0" width="241" height="241">
<path d="M0.5 0.100113H240.5V240.1H0.5V0.100113Z" fill="white"/>
</mask>
<g mask="url(#mask13_436_1826)">
<path d="M184.365 41.2774C179.146 37.4259 171.792 38.5347 167.94 43.7547C164.967 47.7843 164.961 53.0801 167.51 57.0603L166.561 60.4582L170.267 60.0565C170.319 60.0963 170.365 60.1409 170.417 60.1798C175.637 64.0313 182.991 62.9225 186.843 57.7025C190.694 52.483 189.585 45.1289 184.365 41.2774Z" fill="#8C845E"/>
<mask id="mask14_436_1826" style="mask-type:luminance" maskUnits="userSpaceOnUse" x="165" y="38" width="25" height="25">
<path d="M165.651 38.982H189.138V62.4751H165.651V38.982Z" fill="white"/>
</mask>
<g mask="url(#mask14_436_1826)">
<g opacity="0.699997">
<path d="M184.365 41.2774C179.146 37.4259 171.792 38.5347 167.94 43.7547C164.967 47.7843 164.961 53.0801 167.51 57.0603L166.561 60.4582L170.267 60.0565C170.319 60.0963 170.365 60.1409 170.417 60.1798C175.637 64.0313 182.991 62.9225 186.843 57.7025C190.694 52.483 189.585 45.1289 184.365 41.2774Z" fill="white"/>
</g>
</g>
<path d="M185.627 40.5174C188.784 42.6669 190.731 46.4838 190.618 50.3008" stroke="#8C845E" stroke-width="0.666667" stroke-miterlimit="10" stroke-linecap="round" stroke-linejoin="round"/>
<path d="M190.504 52.0496C190.53 52.6313 190.435 53.2184 190.225 53.7622" stroke="#8C845E" stroke-width="0.666667" stroke-miterlimit="10" stroke-linecap="round" stroke-linejoin="round"/>
<path d="M176.427 55.8C176.196 55.5658 176.08 55.2802 176.08 54.9437C176.08 54.6077 176.194 54.3264 176.421 54.1008C176.648 53.8752 176.939 53.7624 177.291 53.7624C177.645 53.7624 177.935 53.8752 178.162 54.1008C178.39 54.3264 178.503 54.6077 178.503 54.9437C178.503 55.2802 178.388 55.5658 178.156 55.8C177.925 56.0342 177.637 56.1514 177.291 56.1514C176.947 56.1514 176.658 56.0342 176.427 55.8ZM176.629 51.3053C176.827 50.9693 177.115 50.5987 177.494 50.1931C177.771 49.8965 177.975 49.6469 178.106 49.4443C178.237 49.2422 178.301 49.0123 178.301 48.7546C178.301 48.3893 178.178 48.0998 177.929 47.8872C177.681 47.6746 177.35 47.5685 176.939 47.5685C176.543 47.5685 176.191 47.665 175.885 47.8579C175.577 48.0504 175.319 48.3202 175.108 48.6658L173.581 47.6131C173.935 46.9805 174.412 46.4909 175.014 46.1448C175.615 45.7987 176.329 45.6259 177.153 45.6259C178.12 45.6259 178.897 45.8683 179.481 46.3526C180.066 46.837 180.358 47.5094 180.358 48.3696C180.358 48.7747 180.302 49.1304 180.188 49.4371C180.074 49.7434 179.936 50.003 179.772 50.2152C179.608 50.4278 179.395 50.6726 179.135 50.9496C178.823 51.276 178.596 51.5501 178.453 51.7723C178.31 51.995 178.238 52.2643 178.238 52.5806H176.333C176.333 52.0666 176.431 51.6418 176.629 51.3053Z" fill="#8C845E"/>
</g>
<mask id="mask15_436_1826" style="mask-type:luminance" maskUnits="userSpaceOnUse" x="0" y="0" width="241" height="241">
<path d="M0.5 0.100113H240.5V240.1H0.5V0.100113Z" fill="white"/>
</mask>
<g mask="url(#mask15_436_1826)">
<path d="M73.946 39.2418C70.5159 44.7479 72.1983 51.9921 77.7044 55.4221C81.9548 58.0703 87.2348 57.6599 91.0028 54.8068L94.4645 55.4865L93.7733 51.8236C93.8089 51.7689 93.8497 51.7194 93.8847 51.6637C97.3148 46.1577 95.6319 38.9135 90.1263 35.4834C84.6202 32.0533 77.3761 33.7357 73.946 39.2418Z" fill="#8C845E"/>
<mask id="mask16_436_1826" style="mask-type:luminance" maskUnits="userSpaceOnUse" x="72" y="33" width="24" height="25">
<path d="M72.168 33.7055H95.6625V57.1953H72.168V33.7055Z" fill="white"/>
</mask>
<g mask="url(#mask16_436_1826)">
<g opacity="0.699997">
<path d="M73.946 39.2418C70.5159 44.7479 72.1983 51.9921 77.7044 55.4221C81.9548 58.0703 87.2348 57.6599 91.0028 54.8068L94.4645 55.4865L93.7733 51.8236C93.8089 51.7689 93.8497 51.7194 93.8847 51.6637C97.3148 46.1577 95.6319 38.9135 90.1263 35.4834C84.6202 32.0533 77.3761 33.7357 73.946 39.2418Z" fill="white"/>
</g>
</g>
<path d="M73.0894 38.0435C74.9844 34.7276 78.6367 32.487 82.4508 32.3003" stroke="#8C845E" stroke-width="0.666667" stroke-miterlimit="10" stroke-linecap="round" stroke-linejoin="round"/>
<path d="M84.2036 32.2764C84.7815 32.2049 85.3743 32.2543 85.9326 32.4204" stroke="#8C845E" stroke-width="0.666667" stroke-miterlimit="10" stroke-linecap="round" stroke-linejoin="round"/>
<path d="M83.3728 50.3615C83.1414 50.1273 83.0252 49.8417 83.0252 49.5052C83.0252 49.1692 83.139 48.8879 83.366 48.6623C83.5931 48.4367 83.884 48.3239 84.2368 48.3239C84.5905 48.3239 84.8804 48.4367 85.108 48.6623C85.335 48.8879 85.4483 49.1692 85.4483 49.5052C85.4483 49.8417 85.3331 50.1273 85.1017 50.3615C84.8699 50.5963 84.5819 50.7129 84.2368 50.7129C83.8921 50.7129 83.6036 50.5963 83.3728 50.3615ZM83.5744 45.8668C83.7721 45.5308 84.0606 45.1603 84.4388 44.7547C84.7168 44.458 84.9208 44.2084 85.0508 44.0059C85.1819 43.8038 85.2467 43.5739 85.2467 43.3161C85.2467 42.9508 85.1228 42.6614 84.8742 42.4487C84.626 42.2361 84.2958 42.13 83.884 42.13C83.488 42.13 83.1366 42.2265 82.8299 42.4195C82.5227 42.6119 82.264 42.8817 82.0537 43.2273L80.5264 42.1747C80.8801 41.542 81.3572 41.0524 81.9592 40.7063C82.5606 40.3603 83.2739 40.1875 84.098 40.1875C85.0657 40.1875 85.8419 40.4299 86.4265 40.9142C87.0112 41.3985 87.3035 42.0705 87.3035 42.9311C87.3035 43.3363 87.2468 43.6919 87.1331 43.9987C87.0198 44.3049 86.8811 44.5646 86.7169 44.7767C86.5532 44.9894 86.3401 45.2342 86.08 45.5111C85.7684 45.8375 85.5414 46.1116 85.3984 46.3339C85.2553 46.5566 85.1833 46.8259 85.1833 47.1422H83.2782C83.2782 46.6281 83.3766 46.2033 83.5744 45.8668Z" fill="#8C845E"/>
</g>
<mask id="mask17_436_1826" style="mask-type:luminance" maskUnits="userSpaceOnUse" x="0" y="0" width="241" height="241">
<path d="M0.5 0.100113H240.5V240.1H0.5V0.100113Z" fill="white"/>
</mask>
<g mask="url(#mask17_436_1826)">
<path d="M193.045 203.494C193.036 203.226 192.137 176.691 187.821 172.494C183.623 168.413 178.805 172.343 178.602 172.512L178.169 171.993C178.224 171.947 183.662 167.508 188.292 172.01C192.802 176.396 193.684 202.369 193.72 203.473L193.045 203.494Z" fill="black"/>
<path d="M193.415 208.708C193.384 208.391 190.466 176.853 201.983 163.635L202.493 164.078C191.165 177.077 194.057 208.329 194.087 208.643L193.415 208.708Z" fill="black"/>
<path d="M192.989 205.373L192.315 205.327C192.339 204.97 194.57 169.473 186.121 161.702L186.578 161.205C195.263 169.194 193.086 203.899 192.989 205.373Z" fill="black"/>
<path d="M194.089 205.353L193.414 205.347C193.422 204.369 193.692 181.37 200.226 177.627C201.678 176.793 203.1 176.655 204.453 177.214C208.403 178.848 210.36 185.879 210.442 186.177L209.79 186.355C209.771 186.285 207.839 179.345 204.194 177.838C203.045 177.364 201.823 177.49 200.561 178.212C194.362 181.765 194.091 205.117 194.089 205.353Z" fill="black"/>
<path d="M191.545 205.369L190.871 205.331C190.881 205.149 191.856 187.156 187 180.816C185.824 179.281 184.546 178.548 183.197 178.643C180.015 178.865 177.347 183.521 177.32 183.568L176.732 183.236C176.848 183.031 179.605 178.217 183.149 177.969C184.735 177.857 186.212 178.678 187.536 180.406C192.545 186.944 191.588 204.62 191.545 205.369Z" fill="black"/>
<path d="M192.61 207.817C192.478 206.071 189.436 164.986 194.788 157.747L195.331 158.148C190.127 165.188 193.252 207.341 193.284 207.766L192.61 207.817Z" fill="black"/>
<path d="M206.878 179.483C206.878 179.483 203.461 180.745 204.621 183.462C207.889 191.115 215.677 191.931 215.677 191.931C215.677 191.931 219.332 186.145 216.336 181.651C212.207 175.457 206.964 177.483 206.878 179.483Z" fill="#8C845E"/>
<path d="M191.948 176.058C191.948 176.058 195.368 175.915 195.562 178.862C195.757 181.809 188.155 189.962 188.155 189.962C188.155 189.962 182.729 188.001 183.895 180.647C185.06 173.293 191.099 174.245 191.948 176.058Z" fill="#8C845E"/>
<path d="M193.606 158.884C193.606 158.884 192.17 158.707 191.63 157.415C190.019 153.56 195.556 149.403 202.958 151.599C202.958 151.599 203.154 158.113 199.17 160.682C195.187 163.251 193.606 158.884 193.606 158.884Z" fill="#8C845E"/>
<path d="M180.921 179.085C180.921 179.085 182.112 177.451 180.312 177.291C178.511 177.131 170.716 180.623 172.766 188.619C172.766 188.619 182.792 185.349 183.139 182.001C183.487 178.654 180.921 179.085 180.921 179.085Z" fill="#8C845E"/>
<path d="M202.295 161.744C202.295 161.744 202.745 160.261 204.444 159.64C206.141 159.021 212.449 159.41 212.536 167.663C212.536 167.663 202.832 169.276 201.631 166.132C200.43 162.988 202.295 161.744 202.295 161.744Z" fill="#8C845E"/>
<path d="M197.057 168.602C197.057 168.602 197.71 167.471 198.956 168.076C200.203 168.682 203.879 172.464 200.374 177.029C200.374 177.029 193.861 173.113 194.393 170.365C194.884 167.832 197.057 168.602 197.057 168.602Z" fill="#8C845E"/>
<path d="M181.101 170.593C181.101 170.593 182.041 169.36 180.664 169.208C179.287 169.055 173.113 170.703 174.551 176.865C174.551 176.865 182.072 176.3 182.394 173.74C182.716 171.18 181.101 170.593 181.101 170.593Z" fill="#8C845E"/>
<path d="M202.604 221.836H184.223L182.24 202.816H204.587L202.604 221.836Z" fill="black"/>
<path d="M207.679 205.422H179.149V200.211H207.679V205.422Z" fill="black"/>
<mask id="mask18_436_1826" style="mask-type:luminance" maskUnits="userSpaceOnUse" x="187" y="175" width="6" height="13">
<path d="M187.269 175.938H192.068V187.366H187.269V175.938Z" fill="white"/>
</mask>
<g mask="url(#mask18_436_1826)">
<g opacity="0.300003">
<path d="M187.482 187.246C186.919 183.237 188.947 178.775 191.948 176.058" stroke="black" stroke-width="0.666667" stroke-miterlimit="10" stroke-linecap="round" stroke-linejoin="round"/>
</g>
</g>
<mask id="mask19_436_1826" style="mask-type:luminance" maskUnits="userSpaceOnUse" x="196" y="168" width="5" height="7">
<path d="M196.937 168.708H200.242V174.657H196.937V168.708Z" fill="white"/>
</mask>
<g mask="url(#mask19_436_1826)">
<g opacity="0.300003">
<path d="M197.057 168.828C198.612 170.373 199.693 172.388 200.122 174.537" stroke="black" stroke-width="0.666667" stroke-miterlimit="10" stroke-linecap="round" stroke-linejoin="round"/>
</g>
</g>
<mask id="mask20_436_1826" style="mask-type:luminance" maskUnits="userSpaceOnUse" x="206" y="179" width="9" height="8">
<path d="M206.757 179.363H214.503V186.945H206.757V179.363Z" fill="white"/>
</mask>
<g mask="url(#mask20_436_1826)">
<g opacity="0.300003">
<path d="M206.877 179.483C209.978 180.86 212.897 183.774 214.382 186.825" stroke="black" stroke-width="0.666667" stroke-miterlimit="10" stroke-linecap="round" stroke-linejoin="round"/>
</g>
</g>
<mask id="mask21_436_1826" style="mask-type:luminance" maskUnits="userSpaceOnUse" x="202" y="161" width="9" height="5">
<path d="M202.175 161.443H210.845V165.613H202.175V161.443Z" fill="white"/>
</mask>
<g mask="url(#mask21_436_1826)">
<g opacity="0.300003">
<path d="M202.295 161.744C203.901 161.284 205.352 161.776 206.913 162.372C208.474 162.967 209.833 164.08 210.725 165.493" stroke="black" stroke-width="0.666667" stroke-miterlimit="10" stroke-linecap="round" stroke-linejoin="round"/>
</g>
</g>
<path d="M188.685 163.135C188.685 163.135 190.961 163.407 191.093 162.012C191.225 160.618 183.567 155.191 177.283 159.677C177.283 159.677 179.217 165.901 183.82 167.033C188.423 168.167 188.685 163.135 188.685 163.135Z" fill="#8C845E"/>
<mask id="mask22_436_1826" style="mask-type:luminance" maskUnits="userSpaceOnUse" x="178" y="159" width="11" height="5">
<path d="M178.221 159.37H188.735V163.369H178.221V159.37Z" fill="white"/>
</mask>
<g mask="url(#mask22_436_1826)">
<g opacity="0.300003">
<path d="M188.614 163.249C186.22 160.031 180.342 158.985 178.341 159.71" stroke="black" stroke-width="0.666667" stroke-miterlimit="10" stroke-linecap="round" stroke-linejoin="round"/>
</g>
</g>
<mask id="mask23_436_1826" style="mask-type:luminance" maskUnits="userSpaceOnUse" x="175" y="170" width="7" height="5">
<path d="M175.925 170.585H181.29V174.583H175.925V170.585Z" fill="white"/>
</mask>
<g mask="url(#mask23_436_1826)">
<g opacity="0.300003">
<path d="M181.17 170.704C179.216 171.43 177.13 172.684 176.045 174.463" stroke="black" stroke-width="0.666667" stroke-miterlimit="10" stroke-linecap="round" stroke-linejoin="round"/>
</g>
</g>
<mask id="mask24_436_1826" style="mask-type:luminance" maskUnits="userSpaceOnUse" x="173" y="178" width="9" height="8">
<path d="M173.717 178.87H181.092V185.704H173.717V178.87Z" fill="white"/>
</mask>
<g mask="url(#mask24_436_1826)">
<g opacity="0.300003">
<path d="M173.837 185.584C175.365 182.656 177.932 180.282 180.972 178.99" stroke="black" stroke-width="0.666667" stroke-miterlimit="10" stroke-linecap="round" stroke-linejoin="round"/>
</g>
</g>
<mask id="mask25_436_1826" style="mask-type:luminance" maskUnits="userSpaceOnUse" x="193" y="153" width="8" height="6">
<path d="M193.788 153.084H200.328V158.849H193.788V153.084Z" fill="white"/>
</mask>
<g mask="url(#mask25_436_1826)">
<g opacity="0.300003">
<path d="M193.908 158.729C195.127 156.126 197.468 154.073 200.208 153.204" stroke="black" stroke-width="0.666667" stroke-miterlimit="10" stroke-linecap="round" stroke-linejoin="round"/>
</g>
</g>
<mask id="mask26_436_1826" style="mask-type:luminance" maskUnits="userSpaceOnUse" x="182" y="205" width="23" height="4">
<path d="M182.511 205.418H204.316V208.836H182.511V205.418Z" fill="white"/>
</mask>
<g mask="url(#mask26_436_1826)">
<g opacity="0.300003">
<path d="M182.511 205.422L182.867 208.836H203.96L204.316 205.418L182.511 205.422Z" fill="black"/>
</g>
</g>
</g>
<path d="M121.154 203.834L123.025 217.563L127.5 217.789L128.949 204.554L121.154 203.834Z" fill="black"/>
<path d="M131.309 223.937H121.301C121.301 223.937 121.083 223.517 121.333 222.398C121.37 222.223 121.42 222.031 121.485 221.823C121.489 221.812 121.49 221.802 121.494 221.791C121.587 221.482 121.695 221.101 121.809 220.69C122.268 219.014 122.807 216.825 122.807 216.825C122.807 216.825 124.472 213.26 126.42 214.15C128.129 214.931 127.724 217.166 127.724 217.166C127.724 217.166 127.891 218.477 129.187 219.634C129.988 220.349 130.785 220.902 131.169 221.791C131.24 221.957 131.297 222.135 131.337 222.326C131.341 222.349 131.346 222.374 131.35 222.398C131.429 222.826 131.425 223.328 131.309 223.937Z" fill="black"/>
<mask id="mask27_436_1826" style="mask-type:luminance" maskUnits="userSpaceOnUse" x="121" y="222" width="11" height="2">
<path d="M121.213 222.398H131.404V223.937H121.213V222.398Z" fill="white"/>
</mask>
<g mask="url(#mask27_436_1826)">
<g opacity="0.300003">
<path d="M121.333 222.398C121.083 223.517 121.301 223.937 121.301 223.937H131.309C131.425 223.328 131.43 222.826 131.35 222.398H121.333Z" fill="white"/>
</g>
</g>
<path d="M127.321 217.727C126.758 217.288 126.02 217.345 125.513 217.839C125.377 217.971 125.168 217.763 125.305 217.63C125.936 217.013 126.839 216.979 127.53 217.518C127.68 217.634 127.469 217.842 127.321 217.727Z" fill="#8C845E"/>
<path d="M127.604 218.661C127.041 218.222 126.303 218.28 125.796 218.774C125.66 218.906 125.451 218.698 125.587 218.565C126.219 217.948 127.121 217.914 127.813 218.452C127.962 218.569 127.752 218.776 127.604 218.661Z" fill="#8C845E"/>
<path d="M127.888 219.521C127.324 219.082 126.586 219.139 126.08 219.633C125.944 219.766 125.735 219.557 125.871 219.424C126.503 218.808 127.405 218.773 128.096 219.312C128.246 219.429 128.036 219.636 127.888 219.521Z" fill="#8C845E"/>
<path d="M102.37 202.975L100.499 216.704L96.0243 216.93L94.5757 203.695L102.37 202.975Z" fill="black"/>
<path d="M92.2145 223.078H102.222C102.222 223.078 102.441 222.657 102.191 221.538C102.153 221.364 102.103 221.172 102.039 220.963C102.035 220.953 102.033 220.943 102.03 220.932C101.936 220.622 101.829 220.241 101.715 219.83C101.256 218.155 100.717 215.965 100.717 215.965C100.717 215.965 99.0516 212.401 97.1038 213.291C95.3945 214.072 95.8001 216.306 95.8001 216.306C95.8001 216.306 95.6326 217.618 94.3371 218.775C93.5355 219.49 92.7387 220.043 92.3551 220.932C92.2836 221.098 92.227 221.275 92.1867 221.467C92.1823 221.49 92.1775 221.514 92.1742 221.538C92.0945 221.967 92.0988 222.469 92.2145 223.078Z" fill="black"/>
<mask id="mask28_436_1826" style="mask-type:luminance" maskUnits="userSpaceOnUse" x="92" y="221" width="11" height="3">
<path d="M92.1201 221.538H102.311V223.078H92.1201V221.538Z" fill="white"/>
</mask>
<g mask="url(#mask28_436_1826)">
<g opacity="0.300003">
<path d="M102.192 221.538C102.441 222.657 102.223 223.078 102.223 223.078H92.215C92.0993 222.469 92.095 221.967 92.1747 221.538H102.192Z" fill="white"/>
</g>
</g>
<path d="M96.2031 216.867C96.7662 216.429 97.5044 216.486 98.0108 216.98C98.1471 217.112 98.3559 216.904 98.2196 216.77C97.5879 216.154 96.6855 216.12 95.9943 216.658C95.8446 216.775 96.0548 216.983 96.2031 216.867Z" fill="#8C845E"/>
<path d="M95.9204 217.802C96.4835 217.364 97.2217 217.421 97.7281 217.915C97.8644 218.047 98.0732 217.839 97.9369 217.705C97.3052 217.089 96.4028 217.055 95.7116 217.594C95.5619 217.71 95.7721 217.918 95.9204 217.802Z" fill="#8C845E"/>
<path d="M95.6367 218.661C96.1998 218.222 96.938 218.28 97.4444 218.774C97.5807 218.906 97.7895 218.698 97.6532 218.564C97.0215 217.948 96.1191 217.914 95.4279 218.452C95.2782 218.569 95.4884 218.777 95.6367 218.661Z" fill="#8C845E"/>
<path d="M130.955 113.705L110.142 114.946L97.4093 112.747C97.4093 112.747 96.5448 127.288 95.4572 161.839C95.2196 169.374 93.2285 214.164 93.2285 214.164L104.421 215.305C104.421 215.305 109.981 168.849 110.83 164.793C111.341 162.353 113.249 144.033 114.766 135.275C115.501 142.578 116.107 160.206 116.662 164.948C116.662 164.948 119.44 203.071 119.834 213.885L130.267 213.367C131.554 198.521 131.991 144.44 131.991 144.44L131.989 144.439C132.711 133.113 130.955 113.705 130.955 113.705Z" fill="black"/>
<mask id="mask29_436_1826" style="mask-type:luminance" maskUnits="userSpaceOnUse" x="93" y="112" width="40" height="104">
<path d="M93.2285 112.747H132.163V215.305H93.2285V112.747Z" fill="white"/>
</mask>
<g mask="url(#mask29_436_1826)">
<g opacity="0.399994">
<path d="M130.955 113.706L110.141 114.946L97.4088 112.747C97.4088 112.747 96.5443 127.289 95.4567 161.84C95.2191 169.374 93.228 214.165 93.228 214.165L104.421 215.305C104.421 215.305 109.98 168.85 110.83 164.793C111.341 162.353 113.249 144.033 114.765 135.275C115.5 142.579 116.106 160.206 116.662 164.948C116.662 164.948 119.44 203.071 119.833 213.886L130.266 213.367C131.554 198.521 131.99 144.44 131.99 144.44L131.989 144.439C132.711 133.113 130.955 113.706 130.955 113.706Z" fill="white"/>
</g>
</g>
<path d="M105.737 64.7741C107.671 64.6541 112.639 63.637 119.78 64.3973C123.497 64.7928 126.533 64.7064 130.347 66.4575L132.232 112.231C132.261 116.014 131.653 116.543 131.653 116.543C131.653 116.543 131.763 118.691 131.771 118.757C119.22 123.608 104.764 123.291 96.7696 118.309C96.9582 118.341 96.7696 116.758 96.7696 116.758C96.7696 116.758 95.5648 115.537 95.9771 111.649C97.3542 98.6789 100.371 77.773 102.512 66.1085C102.568 65.8205 105.445 64.7924 105.737 64.7741Z" fill="#8C845E"/>
<mask id="mask30_436_1826" style="mask-type:luminance" maskUnits="userSpaceOnUse" x="95" y="64" width="38" height="59">
<path d="M95.8916 64.1178H132.233V122.226H95.8916V64.1178Z" fill="white"/>
</mask>
<g mask="url(#mask30_436_1826)">
<g opacity="0.300003">
<path d="M105.738 64.7741C107.671 64.6541 112.639 63.637 119.781 64.3973C123.498 64.7928 126.533 64.7064 130.347 66.4575L132.232 112.231C132.261 116.014 131.654 116.543 131.654 116.543C131.654 116.543 131.763 118.691 131.771 118.757C119.22 123.608 104.765 123.291 96.77 118.309C96.9587 118.341 96.77 116.758 96.77 116.758C96.77 116.758 95.5652 115.537 95.9776 111.649C97.3547 98.6789 100.372 77.773 102.512 66.1085C102.569 65.8205 105.445 64.7924 105.738 64.7741Z" fill="black"/>
</g>
</g>
<mask id="mask31_436_1826" style="mask-type:luminance" maskUnits="userSpaceOnUse" x="99" y="68" width="35" height="42">
<path d="M99.6646 68.9629H133.863V109.04H99.6646V68.9629Z" fill="white"/>
</mask>
<g mask="url(#mask31_436_1826)">
<g opacity="0.300003">
<path d="M128.975 68.963C128.479 68.963 126.464 73.6372 125.177 79.3051C123.89 84.9734 120.575 95.6409 120.575 95.6409L100.8 98.7609L99.665 108.188C99.665 108.188 126.056 110.605 129.126 107.298C132.196 103.992 131.358 103.356 132.472 97.4783C133.465 92.2372 133.992 79.0747 133.836 75.5812C133.613 70.5964 129.658 68.9764 128.975 68.963Z" fill="black"/>
</g>
</g>
<path d="M91.9306 98.7604C91.9306 98.7604 89.3934 102.598 91.0849 103.574C92.7764 104.55 99.1167 106.241 99.1167 106.241V99.0547L91.9306 98.7604Z" fill="#FFC58F"/>
<path d="M130.179 66.3823C129.684 66.3823 126.943 71.4693 125.655 77.1376C124.368 82.8055 121.694 96.3146 121.694 96.3146L99.1167 99.0544V107.179C99.1167 107.179 126.349 109.068 129.418 105.762C132.488 102.455 132.563 100.775 133.676 94.8976C134.67 89.6565 135.196 76.494 135.04 73.0005C134.818 68.0157 130.862 66.3957 130.179 66.3823Z" fill="#8C845E"/>
<mask id="mask32_436_1826" style="mask-type:luminance" maskUnits="userSpaceOnUse" x="99" y="66" width="37" height="42">
<path d="M99.1167 66.3826H135.068V107.716H99.1167V66.3826Z" fill="white"/>
</mask>
<g mask="url(#mask32_436_1826)">
<g opacity="0.300003">
<path d="M130.18 66.3823C129.685 66.3823 126.943 71.4693 125.656 77.1376C124.369 82.8055 121.695 96.3146 121.695 96.3146L99.1172 99.0544V107.179C99.1172 107.179 126.349 109.068 129.419 105.762C132.489 102.455 132.563 100.775 133.677 94.8976C134.67 89.6565 135.197 76.494 135.041 73.0005C134.818 68.0157 130.863 66.3957 130.18 66.3823Z" fill="black"/>
</g>
</g>
<mask id="mask33_436_1826" style="mask-type:luminance" maskUnits="userSpaceOnUse" x="125" y="67" width="7" height="6">
<path d="M125.404 67.3954H131.934V72.8237H125.404V67.3954Z" fill="white"/>
</mask>
<g mask="url(#mask33_436_1826)">
<g opacity="0.300003">
<path d="M125.759 72.6969C126.517 70.0276 128.992 67.9823 131.761 67.7562C131.991 67.7375 131.993 67.3775 131.761 67.3962C128.831 67.6353 126.216 69.7698 125.412 72.6013C125.348 72.8245 125.695 72.9196 125.759 72.6969Z" fill="black"/>
</g>
</g>
<path d="M107.265 63.4178C107.265 63.4178 107.624 64.516 107.366 64.8708C107.107 65.226 106.791 65.308 106.791 65.308C106.791 65.308 107.345 66.1308 107.125 66.652C107.125 66.652 107.956 67.5842 107.459 68.2149C106.964 68.8461 106.417 68.4895 106.245 68.2149C106.072 67.9408 105.325 69.8781 104.376 69.4581C103.427 69.0376 104.348 67.9135 104.635 67.5021L103.715 67.6394C103.715 67.6394 102.364 70.6562 101.358 70.793C100.352 70.9303 97.5963 70.6461 97.3496 69.4581C97.3496 69.4581 101.65 61.5943 101.949 61.4234C102.169 61.2976 104.717 60.7399 106.048 60.4538C106.544 60.3477 107.05 60.5604 107.306 60.9784C107.73 61.6716 108.241 62.6724 107.862 62.9618L107.265 63.4178Z" fill="#FFC58F"/>
<mask id="mask34_436_1826" style="mask-type:luminance" maskUnits="userSpaceOnUse" x="90" y="70" width="14" height="32">
<path d="M90.8213 70.113H103.268V101.143H90.8213V70.113Z" fill="white"/>
</mask>
<g mask="url(#mask34_436_1826)">
<g opacity="0.300003">
<path d="M97.0264 70.1129C96.7931 70.4465 89.7865 92.1343 90.952 96.1366C92.1174 100.139 93.8656 101.585 96.7792 101.029C99.6928 100.473 101.208 99.5834 101.558 95.9143C101.907 92.2452 104.38 71.8855 102.672 70.8252C101.852 70.3159 97.0264 70.1129 97.0264 70.1129Z" fill="black"/>
</g>
</g>
<path d="M95.8911 69.2613C95.6578 69.5949 88.6513 91.2828 89.8167 95.285C90.9822 99.2877 92.7303 100.733 95.6439 100.177C98.5575 99.6213 100.072 98.7319 100.422 95.0628C100.772 91.3936 103.741 70.9884 102.847 70.6231C101.954 70.2583 95.8911 69.2613 95.8911 69.2613Z" fill="#8C845E"/>
<mask id="mask35_436_1826" style="mask-type:luminance" maskUnits="userSpaceOnUse" x="89" y="69" width="15" height="32">
<path d="M89.686 69.2614H103.015V100.292H89.686V69.2614Z" fill="white"/>
</mask>
<g mask="url(#mask35_436_1826)">
<g opacity="0.300003">
<path d="M95.8911 69.2613C95.6578 69.5949 88.6513 91.2828 89.8167 95.285C90.9822 99.2877 92.7303 100.733 95.6439 100.177C98.5575 99.6213 100.072 98.7319 100.422 95.0628C100.772 91.3936 103.741 70.9884 102.847 70.6231C101.954 70.2583 95.8911 69.2613 95.8911 69.2613Z" fill="black"/>
</g>
</g>
<path d="M119.998 65.97C119.998 65.97 116.738 68.7372 115.887 68.9479C114.744 69.2311 111.199 65.4079 111.199 65.4079C112.606 63.581 111.924 62.178 111.609 60.0761L120.575 51.4164C120.575 51.4164 119.641 51.3948 119.636 51.4164C119.407 52.169 119.353 56.7309 119.518 62.501L119.998 65.97Z" fill="#FFC58F"/>
<mask id="mask36_436_1826" style="mask-type:luminance" maskUnits="userSpaceOnUse" x="111" y="56" width="6" height="7">
<path d="M111.352 56.9332H116.51V62.7104H111.352V56.9332Z" fill="white"/>
</mask>
<g mask="url(#mask36_436_1826)">
<g opacity="0.199997">
<path d="M116.162 59.65C115.409 61.1192 113.747 62.2554 112.076 62.7104C112.063 62.5549 112.003 62.3312 111.983 62.1781C111.953 61.9372 111.862 61.58 111.814 61.3304C111.752 61.0252 111.675 60.6959 111.581 60.3872C111.536 60.2668 111.491 60.2975 111.445 60.177L111.352 59.9293L116.008 56.9332C116.496 57.1314 116.767 58.4581 116.162 59.65Z" fill="black"/>
</g>
</g>
<path d="M119.933 45.4489C119.789 39.6836 113.79 35.8388 108.453 38.5657C103.037 41.3338 102.991 49.9143 104.669 54.9605C106.532 60.5669 113.839 62.5805 117.812 57.7757C120.454 54.5813 120.077 51.2141 119.933 45.4489Z" fill="#FFC58F"/>
<path d="M111.89 48.9715C111.982 49.5533 111.747 50.0707 111.365 50.1274C110.984 50.1835 110.6 49.7573 110.508 49.1755C110.416 48.5938 110.651 48.0763 111.033 48.0197C111.414 47.9635 111.798 48.3898 111.89 48.9715Z" fill="black"/>
<path d="M105.972 49.5677C106.064 50.1495 105.829 50.6669 105.448 50.7235C105.066 50.7797 104.682 50.3539 104.591 49.7717C104.499 49.1899 104.734 48.6725 105.115 48.6159C105.497 48.5597 105.881 48.9859 105.972 49.5677Z" fill="black"/>
<path d="M108.188 48.5409C108.188 48.5409 106.802 51.7229 106.397 52.9934C107.322 53.5973 108.664 53.04 108.664 53.04L108.188 48.5409Z" fill="#1E1E1E"/>
<path d="M112.502 45.9153C112.426 45.9749 112.321 45.9936 112.225 45.9547C111.105 45.5059 110.31 46.0137 110.228 46.0685C110.103 46.1549 109.93 46.1246 109.842 46.0003C109.755 45.876 109.786 45.7046 109.91 45.6187C109.954 45.588 111.01 44.8761 112.432 45.4464C112.574 45.5035 112.642 45.6633 112.586 45.804C112.567 45.8491 112.538 45.887 112.502 45.9153Z" fill="black"/>
<path d="M104.221 48.2072C104.175 48.1837 104.134 48.1462 104.106 48.0973C104.03 47.9643 104.075 47.7954 104.207 47.719C105.524 46.9592 106.652 47.5371 106.706 47.5563C106.841 47.6264 106.895 47.7934 106.826 47.9293C106.758 48.0646 106.594 48.1184 106.459 48.0502C106.413 48.0243 105.538 47.5899 104.481 48.2005C104.399 48.248 104.301 48.2475 104.221 48.2072Z" fill="black"/>
<path d="M118.23 48.9347C118.23 48.9347 117.362 39.1705 114.312 38.8009C111.261 38.4313 110.795 41.2729 108.797 41.3487C106.799 41.4241 106.828 39.9467 106.828 39.9467C105.664 40.7775 104.881 43.1574 104.069 44.9948C104.069 44.9948 104.483 39.6323 106.602 37.9964C110.727 34.8126 116.52 35.3967 119.142 37.8203C121.718 40.2006 121.747 45.362 121.747 45.362C121.488 49.3244 121.195 51.5487 119.658 54.0913L118.23 48.9347Z" fill="black"/>
<path d="M122.448 49.039C122.216 50.6312 121.266 51.9617 120.188 52.7269C118.567 53.8784 117.608 52.0582 117.481 50.1747C117.368 48.4793 117.535 46.3659 119.439 45.9627C121.316 45.5653 122.712 47.2189 122.448 49.039Z" fill="#FFC58F"/>
<mask id="mask37_436_1826" style="mask-type:luminance" maskUnits="userSpaceOnUse" x="118" y="47" width="3" height="3">
<path d="M118.308 47.2076H120.964V49.9316H118.308V47.2076Z" fill="white"/>
</mask>
<g mask="url(#mask37_436_1826)">
<g opacity="0.199997">
<path d="M120.844 47.6213C120.551 47.3069 120.047 47.2536 119.65 47.4202C119.254 47.5867 118.958 47.9357 118.761 48.3173C118.524 48.7752 118.408 49.296 118.431 49.8115" stroke="black" stroke-width="0.666667" stroke-miterlimit="10" stroke-linecap="round" stroke-linejoin="round"/>
</g>
</g>
<path d="M116.789 40.9218C116.352 39.5937 115.475 38.3447 114.194 37.7865C113.588 37.5225 112.924 37.4241 112.266 37.3689C110.514 37.222 111.674 36.6345 109.922 36.7761L108.286 37.1846C107.043 37.6794 104.748 38.9889 103.69 39.8087C102.009 41.1105 100.085 42.0974 98.0451 42.6959C97.6995 42.7977 97.2886 42.9527 97.2267 43.307C97.1638 43.6655 97.5094 43.9554 97.8286 44.1311C99.8778 45.2596 102.543 45.1665 104.509 43.8983C104.064 45.2034 101.516 45.8394 102.456 45.9369C105.332 46.5623 108.516 45.4689 110.401 43.2071C110.398 43.5882 110.398 43.9823 110.549 44.3322C110.7 44.6826 111.044 44.9793 111.424 44.95C111.731 44.9265 111.986 44.7042 112.182 44.4666C112.873 43.6314 113.125 42.5274 113.356 41.4681C114.586 42.7674 116.425 47.6361 117.841 48.731C120.267 45.4929 117.226 42.25 116.789 40.9218Z" fill="black"/>
<path d="M109.712 54.9903C110.317 54.6476 111.079 54.6039 111.715 54.8919C111.803 54.9323 111.908 54.9174 111.961 54.8271C112.006 54.7503 111.985 54.6212 111.896 54.5809C111.14 54.2387 110.255 54.2689 109.531 54.6793C109.329 54.7935 109.51 55.1046 109.712 54.9903Z" fill="black"/>
<path d="M116.823 36.4457C116.685 35.8471 116.444 35.2654 116.121 34.7436C115.971 34.5041 115.631 34.3889 115.381 34.5502C115.141 34.7052 115.029 35.0321 115.188 35.2889C115.331 35.5193 115.456 35.7598 115.561 36.0094C115.544 35.9662 115.525 35.9234 115.507 35.8802C115.623 36.1562 115.714 36.4414 115.781 36.7327C115.845 37.0082 116.176 37.1969 116.445 37.11C116.734 37.0169 116.89 36.7409 116.823 36.4457Z" fill="black"/>
<path d="M117.372 37.6871C117.372 37.6314 117.374 37.5757 117.377 37.5201C117.379 37.4889 117.372 37.3713 117.392 37.354C117.383 37.3626 117.374 37.4716 117.388 37.3871C117.393 37.3626 117.396 37.3386 117.401 37.3141C117.411 37.2594 117.423 37.2052 117.436 37.1509C117.463 37.0429 117.495 36.9359 117.533 36.8313C117.541 36.8082 117.551 36.7852 117.559 36.7621C117.59 36.6839 117.588 36.7333 117.555 36.7713C117.586 36.7353 117.605 36.6623 117.627 36.6201C117.674 36.5265 117.727 36.4353 117.784 36.3465C117.814 36.2999 117.846 36.2538 117.878 36.2087C117.887 36.1967 117.939 36.1281 117.892 36.1895C117.841 36.2557 117.908 36.1708 117.919 36.1569C117.987 36.0767 118.058 35.9994 118.134 35.9265C118.174 35.8876 118.215 35.8501 118.257 35.8137C118.281 35.7935 118.305 35.7748 118.329 35.7546C118.383 35.7071 118.223 35.8333 118.322 35.7599C118.439 35.673 118.53 35.5828 118.571 35.4369C118.606 35.3077 118.59 35.1354 118.516 35.0207C118.372 34.797 118.02 34.6473 117.777 34.8273C116.868 35.5012 116.302 36.5466 116.292 37.6871C116.29 37.9698 116.542 38.2401 116.832 38.2271C117.127 38.2141 117.37 37.99 117.372 37.6871Z" fill="black"/>
<path d="M159.471 76.1637C159.471 76.1637 162.433 76.4243 164.4 79.8193C166.367 83.2139 168.296 85.9912 168.296 85.9912L161.933 90.2344L159.471 76.1637Z" fill="black"/>
<mask id="mask38_436_1826" style="mask-type:luminance" maskUnits="userSpaceOnUse" x="159" y="76" width="10" height="15">
<path d="M159.471 76.1637H168.296V90.2344H159.471V76.1637Z" fill="white"/>
</mask>
<g mask="url(#mask38_436_1826)">
<g opacity="0.699997">
<path d="M159.471 76.1637C159.471 76.1637 162.433 76.4243 164.4 79.8193C166.367 83.2139 168.296 85.9912 168.296 85.9912L161.933 90.2344L159.471 76.1637Z" fill="white"/>
</g>
</g>
<path d="M163.169 105.463C162.459 104.988 161.553 104.952 160.7 104.944C154.313 104.879 147.921 105.471 141.655 106.707L140.555 107.249C139.687 106.745 138.527 107.084 137.797 107.773C137.067 108.462 136.669 109.422 136.294 110.353C133.045 118.399 129.954 126.531 127.758 134.925C127.25 136.868 126.814 139.035 127.769 140.801C128.884 142.863 131.447 143.588 133.754 143.998C141.291 145.338 148.99 145.421 156.646 145.437C158.506 145.441 160.495 145.403 162.029 144.349C164.175 142.873 164.685 139.966 164.935 137.373C165.849 127.897 165.763 118.324 164.644 108.87C164.494 107.599 164.232 106.174 163.169 105.463Z" fill="black"/>
<path d="M155.941 218.062L161.237 218.58L165.151 205.172L157.095 204.295L155.941 218.062Z" fill="#D79C65"/>
<path d="M162.004 216.242H160.114C159.686 216.242 159.29 216.458 159.037 216.803C157.947 218.292 157.128 217.73 155.942 216.329C155.188 216.242 154.984 217.107 154.923 217.339L153.51 222.481C153.387 222.91 153.636 223.358 154.065 223.48C154.141 223.502 154.22 223.513 154.3 223.512H160.54H169.28C171.663 223.512 172.156 221.111 171.175 220.888C166.762 219.913 163.636 218.615 162.273 217.331C162.02 217.106 162.28 216.938 162.004 216.242Z" fill="black"/>
<path d="M166.126 216.932C166.174 216.962 166.199 217.019 166.188 217.074C166.178 217.251 166.093 217.415 165.953 217.525C165.416 217.926 164.12 217.753 163.423 217.623C164.404 217.191 165.799 216.704 166.126 216.932ZM166.107 217.704C166.307 217.561 166.426 217.332 166.429 217.086C166.445 216.955 166.385 216.826 166.275 216.753C165.682 216.334 163.318 217.438 163.052 217.568C163.023 217.579 162.999 217.602 162.989 217.631C162.97 217.686 162.998 217.746 163.052 217.766C163.634 217.903 164.227 217.98 164.824 217.994C165.272 218.036 165.722 217.935 166.107 217.704Z" fill="#8C845E"/>
<path d="M164.78 215.574C165.021 215.599 165.021 215.685 165.021 215.716C165.089 216.093 164.009 217.062 163.237 217.469C163.398 216.926 163.873 215.568 164.694 215.568L164.78 215.574ZM163.132 217.79C163.842 217.494 165.329 216.327 165.249 215.71C165.237 215.581 165.145 215.426 164.823 215.383C163.527 215.235 162.972 217.562 162.972 217.66C162.959 217.7 162.971 217.744 163.003 217.772C163.027 217.779 163.053 217.779 163.077 217.772L163.132 217.79Z" fill="#8C845E"/>
<path d="M163.317 217.701C162.666 217.79 162.062 218.179 161.711 218.735" stroke="#8C845E" stroke-width="0.666667" stroke-miterlimit="10" stroke-linecap="round" stroke-linejoin="round"/>
<path d="M164.492 218.585C163.841 218.674 163.237 219.063 162.887 219.62" stroke="#8C845E" stroke-width="0.666667" stroke-miterlimit="10" stroke-linecap="round" stroke-linejoin="round"/>
<path d="M165.954 219.329C165.303 219.418 164.699 219.807 164.349 220.363" stroke="#8C845E" stroke-width="0.666667" stroke-miterlimit="10" stroke-linecap="round" stroke-linejoin="round"/>
<mask id="mask39_436_1826" style="mask-type:luminance" maskUnits="userSpaceOnUse" x="156" y="211" width="8" height="3">
<path d="M156.37 211.597H163.082V213.903H156.37V211.597Z" fill="white"/>
</mask>
<g mask="url(#mask39_436_1826)">
<g opacity="0.300003">
<path d="M163.082 212.258L162.602 213.903L156.37 212.945L156.483 211.597L163.082 212.258Z" fill="black"/>
</g>
</g>
<path d="M137.59 218.486L142.886 219.005L146.8 205.597L138.743 204.72L137.59 218.486Z" fill="#D79C65"/>
<path d="M143.653 216.667H141.762C141.335 216.667 140.939 216.883 140.686 217.228C139.595 218.717 138.776 218.155 137.59 216.755C136.836 216.667 136.633 217.532 136.571 217.765L135.158 222.906C135.035 223.335 135.284 223.783 135.713 223.906C135.79 223.928 135.869 223.938 135.948 223.937H142.188H150.928C153.311 223.937 153.805 221.536 152.823 221.314C148.41 220.338 145.285 219.04 143.921 217.756C143.668 217.531 143.928 217.363 143.653 216.667Z" fill="black"/>
<path d="M147.774 217.357C147.822 217.387 147.847 217.443 147.836 217.499C147.826 217.676 147.741 217.84 147.602 217.949C147.064 218.351 145.768 218.178 145.071 218.048C146.052 217.616 147.447 217.129 147.774 217.357ZM147.756 218.128C147.955 217.985 148.074 217.756 148.077 217.511C148.094 217.38 148.034 217.251 147.923 217.178C147.33 216.759 144.966 217.863 144.7 217.993C144.671 218.003 144.648 218.027 144.637 218.056C144.617 218.111 144.646 218.171 144.7 218.19C145.282 218.328 145.875 218.404 146.472 218.419C146.92 218.461 147.37 218.36 147.756 218.128Z" fill="#8C845E"/>
<path d="M146.429 215.999C146.669 216.024 146.669 216.11 146.669 216.141C146.737 216.518 145.657 217.487 144.886 217.894C145.046 217.351 145.522 215.993 146.342 215.993L146.429 215.999ZM144.781 218.215C145.49 217.919 146.978 216.752 146.898 216.135C146.886 216.005 146.793 215.851 146.472 215.808C145.176 215.66 144.62 217.987 144.62 218.085C144.608 218.126 144.62 218.169 144.651 218.197C144.675 218.204 144.701 218.204 144.725 218.197L144.781 218.215Z" fill="#8C845E"/>
<path d="M144.965 218.126C144.314 218.215 143.71 218.604 143.36 219.16" stroke="#8C845E" stroke-width="0.666667" stroke-miterlimit="10" stroke-linecap="round" stroke-linejoin="round"/>
<path d="M146.141 219.011C145.489 219.099 144.885 219.489 144.535 220.045" stroke="#8C845E" stroke-width="0.666667" stroke-miterlimit="10" stroke-linecap="round" stroke-linejoin="round"/>
<path d="M147.603 219.754C146.951 219.843 146.347 220.232 145.997 220.789" stroke="#8C845E" stroke-width="0.666667" stroke-miterlimit="10" stroke-linecap="round" stroke-linejoin="round"/>
<mask id="mask40_436_1826" style="mask-type:luminance" maskUnits="userSpaceOnUse" x="138" y="212" width="7" height="3">
<path d="M138.019 212.023H144.731V214.328H138.019V212.023Z" fill="white"/>
</mask>
<g mask="url(#mask40_436_1826)">
<g opacity="0.300003">
<path d="M138.019 213.371L138.131 212.023L144.731 212.684L144.251 214.328" fill="black"/>
</g>
</g>
<mask id="mask41_436_1826" style="mask-type:luminance" maskUnits="userSpaceOnUse" x="138" y="114" width="29" height="7">
<path d="M138.345 114.454H166.029V120.463H138.345V114.454Z" fill="white"/>
</mask>
<g mask="url(#mask41_436_1826)">
<g opacity="0.199997">
<path d="M166.029 116.285C166.029 116.285 162.14 120.391 154.518 120.462C146.896 120.533 138.345 116.093 138.345 116.093L139.302 114.453L161.251 116.845L165.451 114.453L166.029 116.285Z" fill="black"/>
</g>
</g>
<path d="M166.696 118.641C166.696 118.641 171.328 137.616 173.42 154.499C174.058 159.645 174.179 166.526 173.053 171.592L164.593 213.651L153.946 212.585C155.619 194.446 157.951 172.073 158.618 162.555L146.381 124.47L166.696 118.641Z" fill="#8C845E"/>
<mask id="mask42_436_1826" style="mask-type:luminance" maskUnits="userSpaceOnUse" x="152" y="123" width="7" height="27">
<path d="M152.944 123.424H158.39V149.582H152.944V123.424Z" fill="white"/>
</mask>
<g mask="url(#mask42_436_1826)">
<g opacity="0.199997">
<path d="M152.945 144.941C152.909 145.118 158.217 123.423 158.217 123.423C158.217 123.423 159.643 141.13 154.309 149.582L152.945 144.941Z" fill="black"/>
</g>
</g>
<path d="M137.419 167.854C137.519 166.783 137.619 164.619 137.716 161.771C137.702 161.77 137.685 161.769 137.671 161.767C137.523 158.038 135.882 140.865 135.596 129.811C135.567 122.749 136.717 117.815 138.196 115.277C138.273 115.147 138.343 115.028 138.407 114.922C138.654 114.512 138.807 114.284 138.807 114.284C139.158 114.324 139.506 114.358 139.852 114.387C139.982 114.398 140.11 114.408 140.238 114.417C153.203 115.375 162.713 110.262 162.713 110.262C164.257 112.975 165.004 112.412 166.696 118.641C165.569 120.264 162.111 129.795 155.634 131.925L154.881 140.744C154.591 146.189 154.005 151.569 153.543 156.405L153.091 161.695C153.067 162.041 153.044 162.384 153.024 162.72C152.84 165.751 145.462 215.168 145.462 215.168L135.596 215.024C135.596 215.024 136.062 182.365 137.419 167.854Z" fill="#8C845E"/>
<mask id="mask43_436_1826" style="mask-type:luminance" maskUnits="userSpaceOnUse" x="153" y="209" width="13" height="5">
<path d="M153.946 209.614H165.143V213.651H153.946V209.614Z" fill="white"/>
</mask>
<g mask="url(#mask43_436_1826)">
<g opacity="0.199997">
<path d="M165.143 210.915L164.592 213.651L153.946 212.585L154.223 209.614L165.143 210.915Z" fill="black"/>
</g>
</g>
<mask id="mask44_436_1826" style="mask-type:luminance" maskUnits="userSpaceOnUse" x="135" y="212" width="11" height="4">
<path d="M135.596 212.253H145.878V215.167H135.596V212.253Z" fill="white"/>
</mask>
<g mask="url(#mask44_436_1826)">
<g opacity="0.199997">
<path d="M145.462 215.167L145.878 212.376L135.596 212.252V215.023L145.462 215.167Z" fill="black"/>
</g>
</g>
<path d="M136.215 90.2755L132.904 78.9864C134.999 75.8607 145.361 73.4592 145.361 73.4592L152.188 73.8322C152.188 73.8322 154.812 74.4178 157.059 75.1503C160.058 76.1285 161.68 76.9152 162.395 78.5794C162.395 78.5794 163.646 82.2663 162.894 89.8647C162.687 91.9541 162.214 102.98 162.797 106.569L167.039 114.867C154.564 124.582 138.594 114.871 138.594 114.871C139.155 113.156 140.387 109.356 140.64 107.68C140.458 105.541 139.857 104.136 138.951 100.392C138.777 99.6687 136.519 90.9778 136.215 90.2755Z" fill="black"/>
<mask id="mask45_436_1826" style="mask-type:luminance" maskUnits="userSpaceOnUse" x="132" y="73" width="36" height="47">
<path d="M132.904 73.4588H167.039V119.186H132.904V73.4588Z" fill="white"/>
</mask>
<g mask="url(#mask45_436_1826)">
<g opacity="0.699997">
<path d="M136.214 90.2755L132.904 78.9864C134.998 75.8607 145.361 73.4592 145.361 73.4592L152.188 73.8322C152.188 73.8322 154.812 74.4178 157.058 75.1503C160.058 76.1285 161.679 76.9152 162.395 78.5794C162.395 78.5794 163.646 82.2663 162.894 89.8647C162.687 91.9541 162.214 102.98 162.797 106.569L167.038 114.867C154.564 124.582 138.594 114.871 138.594 114.871C139.154 113.156 140.387 109.356 140.64 107.68C140.457 105.541 139.857 104.136 138.951 100.392C138.776 99.6687 136.518 90.9778 136.214 90.2755Z" fill="white"/>
</g>
</g>
<mask id="mask46_436_1826" style="mask-type:luminance" maskUnits="userSpaceOnUse" x="137" y="88" width="3" height="14">
<path d="M137.453 88.9073H139.952V101.167H137.453V88.9073Z" fill="white"/>
</mask>
<g mask="url(#mask46_436_1826)">
<g opacity="0.199997">
<path d="M137.511 94.3208H138.119L139.952 88.9073L139.143 101.167L137.454 94.7504L137.511 94.3208Z" fill="black"/>
</g>
</g>
<path d="M150.609 109.746C147.52 107.625 143.676 106.628 139.945 106.98L138.119 111.775C143.227 116.381 149.474 116.999 156.348 116.785C157.316 113.227 153.698 111.866 150.609 109.746Z" fill="black"/>
<path d="M164.982 106.658C164.478 105.715 163.45 104.965 162.393 105.128C161.606 105.25 160.977 105.832 160.434 106.414C158.274 108.725 156.612 111.497 155.589 114.491L155.992 116.785C156.703 116.493 157.414 116.201 158.124 115.909C160.139 115.082 162.217 114.212 163.722 112.638C165.228 111.065 166.009 108.579 164.982 106.658Z" fill="black"/>
<path d="M159.395 114.879C159.395 116.473 158.102 117.766 156.508 117.766C154.914 117.766 153.622 116.473 153.622 114.879C153.622 113.285 154.914 111.992 156.508 111.992C158.102 111.992 159.395 113.285 159.395 114.879Z" fill="black"/>
<path d="M157.76 126.218C157.521 122.79 157.282 119.363 157.043 115.935L155.701 116.808C151.498 122.948 149.656 130.664 150.632 138.041C152.424 138.35 154.249 138.468 156.066 138.391C155.554 137.309 155.042 136.227 154.53 135.146C156.114 134.527 157.161 132.943 157.577 131.294C157.994 129.645 157.879 127.914 157.76 126.218Z" fill="black"/>
<path d="M163.593 129.835C164.359 128.79 164.502 127.411 164.42 126.117C164.161 122.004 161.781 118.081 158.252 115.951L157.679 115.501C159.728 121.684 159.329 128.375 158.908 134.875C160.286 134.596 161.663 134.317 163.041 134.038C162.616 133.186 162.183 132.207 162.519 131.316C162.735 130.743 163.23 130.329 163.593 129.835Z" fill="black"/>
<path d="M152.765 53.7131C152.765 53.7131 153.897 66.2579 154.522 69.8617C156.491 72.2181 164.279 70.516 161.231 62.223C159.622 57.8478 159.484 52.3149 156.446 50.0617C152.179 46.8961 152.765 53.7131 152.765 53.7131Z" fill="black"/>
<path d="M151.713 74.4492C150.999 73.736 150.677 72.9948 150.811 71.9566C150.906 71.1588 151.163 70.3294 151.47 69.5216L150.404 68.3633L144.863 63.162C145.127 66.7601 145.769 72.5302 143.024 74.588L151.713 81.6104V74.4492Z" fill="#D79C65"/>
<mask id="mask47_436_1826" style="mask-type:luminance" maskUnits="userSpaceOnUse" x="147" y="66" width="5" height="7">
<path d="M147.735 66.3091H151.236V72.1968H147.735V66.3091Z" fill="white"/>
</mask>
<g mask="url(#mask47_436_1826)">
<g opacity="0.199997">
<path d="M150.782 72.1968C149.28 71.3774 147.612 69.9221 147.743 68.1849C147.803 67.4534 147.935 66.7579 148.093 66.3091L151.236 70.1731C151.015 70.8197 150.927 71.2257 150.782 72.1968Z" fill="black"/>
</g>
</g>
<path d="M143.409 57.4285C144.111 62.9034 144.293 65.229 147.232 68.0067C151.653 72.1842 158.16 70.4893 159.092 65.0034C159.93 60.0661 158.641 51.9426 153.164 49.8296C147.769 47.7478 142.707 51.9536 143.409 57.4285Z" fill="#D79C65"/>
<mask id="mask48_436_1826" style="mask-type:luminance" maskUnits="userSpaceOnUse" x="149" y="68" width="7" height="3">
<path d="M149.664 68.4832H155.417V70.479H149.664V68.4832Z" fill="white"/>
</mask>
<g mask="url(#mask48_436_1826)">
<g opacity="0.199997">
<path d="M155.418 69.8065C151.083 67.8323 149.384 68.3684 149.702 69.4619C149.847 69.9611 151.801 70.2707 151.801 70.2707C151.801 70.2707 152.24 70.3115 152.446 70.3268C152.633 70.3403 152.753 70.4444 152.744 70.4536C152.595 70.6086 155.272 69.9985 155.418 69.8065Z" fill="black"/>
</g>
</g>
<mask id="mask49_436_1826" style="mask-type:luminance" maskUnits="userSpaceOnUse" x="156" y="67" width="3" height="3">
<path d="M156.375 67.3605H158.124V69.293H156.375V67.3605Z" fill="white"/>
</mask>
<g mask="url(#mask49_436_1826)">
<g opacity="0.300003">
<path d="M158.124 67.5362C158.124 67.5362 157.915 67.2688 157.563 67.3931C157.21 67.5179 156.38 68.1741 156.375 69.293C156.375 69.293 156.82 69.0112 157.319 68.5413C157.637 68.2422 158.124 67.5362 158.124 67.5362Z" fill="black"/>
</g>
</g>
<path d="M150.859 59.3585C150.863 59.874 151.159 60.3113 151.52 60.3358C151.881 60.3608 152.169 59.9628 152.165 59.4473C152.161 58.9323 151.865 58.4945 151.504 58.47C151.144 58.4451 150.855 58.843 150.859 59.3585Z" fill="black"/>
<path d="M156.447 58.8779C156.423 59.3767 156.693 59.8183 157.051 59.8643C157.408 59.9099 157.718 59.5427 157.742 59.044C157.766 58.5453 157.496 58.1037 157.139 58.0576C156.781 58.0115 156.472 58.3792 156.447 58.8779Z" fill="black"/>
<path d="M150.036 58.5117C150.106 58.516 150.176 58.4925 150.229 58.4402C151.038 57.6179 152.003 57.8488 152.015 57.8517C152.158 57.8863 152.296 57.7999 152.322 57.6539C152.348 57.5085 152.251 57.3616 152.106 57.3251C152.055 57.3127 150.844 57.0218 149.84 58.0423C149.739 58.144 149.745 58.3159 149.852 58.4258C149.904 58.4786 149.97 58.5074 150.036 58.5117Z" fill="black"/>
<path d="M158.685 55.8464C158.749 55.8253 158.803 55.7821 158.834 55.7197C158.896 55.5915 158.835 55.4336 158.697 55.3669C157.31 54.6977 156.23 55.2781 156.184 55.3035C156.056 55.3745 156.018 55.5339 156.1 55.6597C156.181 55.7854 156.351 55.8301 156.479 55.76C156.521 55.7365 157.366 55.2987 158.469 55.831C158.54 55.8651 158.618 55.8685 158.685 55.8464Z" fill="black"/>
<path d="M147.736 48.4779C145.849 48.788 144.662 49.0587 143.176 49.9885C141.69 50.9183 140.101 53.1819 139.234 54.9085C137.999 57.3685 137.908 60.3925 137.852 63.2667C137.815 65.157 137.821 67.2138 138.782 68.7085C139.427 69.7127 140.431 70.3127 141.46 70.5887C142.488 70.8647 143.554 70.8474 144.608 70.8162C145.478 70.7907 146.536 70.6069 146.858 69.633C147.365 68.1023 145.454 66.6815 145.71 65.0629" fill="black"/>
<path d="M141.91 61.9656C142.599 63.0686 143.679 63.7378 144.655 63.9451C146.122 64.2571 146.788 61.8922 146.239 60.4536C145.744 59.1581 144.284 58.3421 142.88 58.6795C141.496 59.0117 141.121 60.7046 141.91 61.9656Z" fill="#D79C65"/>
<path d="M154.522 58.5311C154.522 58.5311 155.456 60.5563 156.472 61.8028C156.649 62.0207 156.557 62.3515 156.297 62.458C155.627 62.7321 154.825 62.5348 154.825 62.5348L154.522 58.5311Z" fill="black"/>
<path d="M151.395 58.4522L152.669 58.2136C152.669 58.2136 151.935 59.1213 151.395 58.4522Z" fill="black"/>
<path d="M157.009 58.0571L158.295 57.8949C158.295 57.8949 157.509 58.757 157.009 58.0571Z" fill="black"/>
<path d="M141.926 54.4286C141.181 55.5052 142.664 58.6324 142.664 58.6324C142.664 58.6324 145.299 57.849 145.443 61.8177C146.415 61.979 147.506 58.2729 147.347 54.5481C147.152 52.4433 143.242 52.5282 141.926 54.4286Z" fill="black"/>
<mask id="mask50_436_1826" style="mask-type:luminance" maskUnits="userSpaceOnUse" x="142" y="59" width="3" height="4">
<path d="M142.655 59.8751H144.445V62.5669H142.655V59.8751Z" fill="white"/>
</mask>
<g mask="url(#mask50_436_1826)">
<g opacity="0.199997">
<path d="M143.93 60.0473C143.464 59.8687 142.981 60.1764 142.828 60.5609C142.643 61.0265 142.899 62.1079 144.325 62.4473" stroke="black" stroke-width="0.666667" stroke-miterlimit="10" stroke-linecap="round" stroke-linejoin="round"/>
</g>
</g>
<path d="M157.458 51.3733C156.296 48.9575 151.561 46.713 146.118 49.0458C141.2 51.1458 139.11 58.3631 142.664 58.6324C146.219 58.9021 151.944 54.5984 151.944 54.5984L157.458 51.3733Z" fill="black"/>
<path d="M164.588 94.3415L170.126 94.4692L171.361 97.2849L168.514 100.891C168.514 100.891 167.833 100.85 168.057 99.8994C168.231 99.1631 168.629 98.5876 168.629 98.5876L164.848 99.7252C164.131 99.9407 163.403 99.4218 163.373 98.674L163.2 94.3204L164.588 94.3415Z" fill="#D79C65"/>
<path d="M132.19 84.23C132.19 84.23 131.987 86.953 133.105 90.3874C134.224 93.8213 136.996 102.983 140.284 105.505C143.572 108.028 151.906 104.257 156.906 102.073C161.858 99.912 164.498 98.8762 164.588 98.8618L163.2 94.3205L145.034 96.9677L137.241 80.3775C137.241 80.3775 131.645 80.3309 132.19 84.23Z" fill="#D79C65"/>
<mask id="mask51_436_1826" style="mask-type:luminance" maskUnits="userSpaceOnUse" x="161" y="93" width="10" height="6">
<path d="M161.378 93.9769H170.422V98.2148H161.378V93.9769Z" fill="white"/>
</mask>
<g mask="url(#mask51_436_1826)">
<g opacity="0.199997">
<path d="M161.378 93.977C161.378 93.977 162.673 97.3577 164.3 97.9178C165.925 98.4775 170.06 98.6364 170.422 94.745L161.378 93.977Z" fill="black"/>
</g>
</g>
<path d="M132.904 78.9864C129.494 82.2825 133.308 95.0371 133.308 95.0371L144.195 92.1686C144.195 92.1686 141.609 82.56 139.007 80.1379C136.802 78.097 134.776 77.1187 132.904 78.9864Z" fill="black"/>
<mask id="mask52_436_1826" style="mask-type:luminance" maskUnits="userSpaceOnUse" x="131" y="77" width="14" height="19">
<path d="M131.487 77.9913H144.196V95.0371H131.487V77.9913Z" fill="white"/>
</mask>
<g mask="url(#mask52_436_1826)">
<g opacity="0.699997">
<path d="M132.904 78.9864C129.494 82.2825 133.308 95.0371 133.308 95.0371L144.196 92.1686C144.196 92.1686 141.609 82.56 139.007 80.1379C136.803 78.097 134.776 77.1187 132.904 78.9864Z" fill="white"/>
</g>
</g>
<path d="M153.921 64.363C154.343 64.3505 154.766 64.3649 155.187 64.41C155.393 64.4321 155.599 64.4619 155.804 64.4993C155.925 64.5209 156.172 64.5228 156.246 64.6409C156.369 64.8372 156.68 64.6567 156.557 64.4595C156.454 64.2939 156.296 64.231 156.112 64.1931C155.869 64.1427 155.623 64.1038 155.377 64.0721C154.894 64.0107 154.407 63.9886 153.921 64.003C153.69 64.0097 153.688 64.3697 153.921 64.363Z" fill="black"/>
<mask id="mask53_436_1826" style="mask-type:luminance" maskUnits="userSpaceOnUse" x="150" y="72" width="10" height="15">
<path d="M150.326 72.1969H159.276V86.835H150.326V72.1969Z" fill="white"/>
</mask>
<g mask="url(#mask53_436_1826)">
<g opacity="0.199997">
<path d="M150.783 72.4854C150.783 72.494 150.21 72.6716 150.347 73.2898C150.485 73.9081 150.701 73.9868 150.701 73.9868C150.701 73.9868 150.07 74.6636 150.783 75.4095C150.783 75.4095 151.182 75.8214 151.957 75.7134C151.957 75.7134 153.625 78.5103 154.979 78.6183L155.391 78.6966L159.275 86.835L155.161 72.1969L150.783 72.4854Z" fill="black"/>
</g>
</g>
<path d="M159.153 74.9767C159.153 74.9767 159.057 71.0056 158.75 70.349C158.444 69.6919 158.072 69.4951 158.072 68.7727C158.072 68.0503 158.203 67.481 157.787 67.5683C157.371 67.6562 156.977 68.4223 156.868 68.9915C156.758 69.5608 156.999 71.0714 156.999 71.0714C156.999 71.0714 153.868 69.1883 152.62 68.9037C151.58 68.6666 150.343 68.4904 149.947 68.9704C149.778 69.1744 149.87 69.4936 150.101 69.6237C150.287 69.7283 150.596 69.8527 151.11 69.9765C152.839 70.3946 153.408 70.721 153.408 70.721C153.408 70.721 151.745 70.6336 151.307 70.9399C150.869 71.2466 150.891 71.4626 151 71.8144C151.11 72.1658 151.394 72.4067 151.394 72.4067C151.394 72.4067 150.847 72.2315 150.65 72.9323C150.453 73.6327 151 73.8736 151 73.8736C151 73.8736 150.475 74.3771 150.781 75.0122C151.088 75.6472 151.985 75.4279 151.985 75.4279C151.985 75.4279 154.328 78.2743 155.226 78.34C156.123 78.4053 157.283 77.7707 157.196 77.7707C157.108 77.7707 159.276 75.2531 159.276 75.2531L159.153 74.9767Z" fill="#D79C65"/>
<path d="M155.518 78.1578C155.518 78.1578 159.902 91.4399 161.564 94.3204C163.225 97.2014 166.022 98.135 168.729 96.9201C169.375 96.6297 169.891 95.9068 170.295 95.0375C171.517 92.41 170.657 90.6978 169.286 88.1447L168.168 86.0625L165.896 87.5524L159.011 74.7225L155.518 78.1578Z" fill="#D79C65"/>
</svg>
