<svg width="46" height="37" viewBox="0 0 46 37" fill="none" xmlns="http://www.w3.org/2000/svg">
<path d="M11.5 0H1.15C0.46 0 0 0.4625 0 1.15625V31.2188C0 31.9125 0.46 32.375 1.15 32.375H9.2C16.1 32.375 18.4 37 18.4 37H20.7V4.625C20.7 4.39375 18.4 0 11.5 0ZM13.8 23.125H6.9C5.75 23.125 4.6 21.9688 4.6 20.8125C4.6 19.6562 5.75 18.5 6.9 18.5H13.8C14.95 18.5 16.1 19.6562 16.1 20.8125C16.1 21.9688 14.95 23.125 13.8 23.125ZM13.8 13.875H6.9C5.75 13.875 4.6 12.7188 4.6 11.5625C4.6 10.4062 5.75 9.25 6.9 9.25H13.8C14.95 9.25 16.1 10.4062 16.1 11.5625C16.1 12.7188 14.95 13.875 13.8 13.875ZM25.3 4.625V37H27.6C27.6 37 29.9 32.375 36.8 32.375H44.85C45.54 32.375 46 31.9125 46 31.2188V1.15625C46 0.4625 45.54 0 44.85 0H34.5C27.6 0 25.3 4.39375 25.3 4.625ZM29.9 20.8125C29.9 19.6562 31.05 18.5 32.2 18.5H39.1C40.25 18.5 41.4 19.6562 41.4 20.8125C41.4 21.9688 40.25 23.125 39.1 23.125H32.2C31.05 23.125 29.9 21.9688 29.9 20.8125ZM29.9 11.5625C29.9 10.4062 31.05 9.25 32.2 9.25H39.1C40.25 9.25 41.4 10.4062 41.4 11.5625C41.4 12.7188 40.25 13.875 39.1 13.875H32.2C31.05 13.875 29.9 12.7188 29.9 11.5625Z" fill="#E4E2D6"/>
</svg>
