<svg width="28" height="28" viewBox="0 0 28 28" fill="none" xmlns="http://www.w3.org/2000/svg">
<path d="M14 3.5C12.5183 3.5 11.2 4.43333 10.71 5.83333H3.49996V8.16667H5.77496L2.33329 16.3333C1.78496 18.6667 3.49996 19.8333 6.41663 19.8333C9.3333 19.8333 11.1533 18.6667 10.5 16.3333L7.0583 8.16667H10.6983C11.0833 9.15833 11.8416 9.91667 12.8333 10.3017V12.25V23.3333H2.33329V25.6667H24.0623L21.5833 23.3333H15.1666V22.75C14.0794 22.1834 13.5674 21.7245 12.8333 20.5625C12.8333 20.5625 12.8333 13.5625 12.8333 13.125C12.8333 12.6875 14.058 11.7311 15.1666 11.375V10.29C16.1583 9.91667 16.9166 9.15833 17.29 8.16667H20.9416L19.6873 10.9375C23.3333 12.6875 25.8123 17.0625 23.1873 19.6875C26.1039 19.6875 26.32 18.6667 25.6666 16.3333L22.225 8.16667H24.5V5.83333H17.3016C16.8 4.43333 15.4816 3.5 14 3.5ZM14 5.83333C14.3094 5.83333 14.6061 5.95625 14.8249 6.17504C15.0437 6.39383 15.1666 6.69058 15.1666 7C15.1666 7.30942 15.0437 7.60616 14.8249 7.82496C14.6061 8.04375 14.3094 8.16667 14 8.16667C13.6905 8.16667 13.3938 8.04375 13.175 7.82496C12.9562 7.60616 12.8333 7.30942 12.8333 7C12.8333 6.69058 12.9562 6.39383 13.175 6.17504C13.3938 5.95625 13.6905 5.83333 14 5.83333ZM6.41663 11.9583L8.16663 16.3333H4.66663L6.41663 11.9583Z" fill="#E4E2D6"/>
<g clip-path="url(#clip0_618_4305)">
<circle cx="17.6875" cy="17.0874" r="4.8125" fill="#766C40"/>
<path d="M17.5772 14.382C16.816 14.4113 16.1278 14.683 15.7598 15.0513C15.7192 15.092 15.6709 15.1242 15.6178 15.1461C15.5647 15.1681 15.5078 15.1794 15.4504 15.1794C15.3929 15.1794 15.336 15.168 15.2829 15.146C15.2298 15.124 15.1816 15.0918 15.141 15.0511C15.1004 15.0105 15.0682 14.9622 15.0462 14.9091C15.0242 14.856 15.0129 14.7991 15.0129 14.7417C15.013 14.6842 15.0243 14.6273 15.0463 14.5742C15.0683 14.5211 15.1006 14.4729 15.1412 14.4323C15.7087 13.8648 16.6327 13.5428 17.5431 13.5074C18.4597 13.472 19.4602 13.7227 20.1611 14.4235C20.2431 14.5056 20.2892 14.6169 20.2891 14.733C20.2891 14.8491 20.243 14.9603 20.1609 15.0424C20.0788 15.1244 19.9675 15.1705 19.8514 15.1704C19.7353 15.1704 19.6241 15.1242 19.542 15.0422C19.0652 14.5648 18.3328 14.3522 17.5772 14.3815" fill="#E4E2D6"/>
<path fill-rule="evenodd" clip-rule="evenodd" d="M22.0345 20.7554C22.9019 19.7302 23.377 18.4303 23.375 17.0874C23.375 13.9462 20.8288 11.3999 17.6875 11.3999C14.5463 11.3999 12 13.9462 12 17.0874C12 20.2287 14.5463 22.7749 17.6875 22.7749C19.0853 22.7749 20.365 22.2709 21.3555 21.4344L21.1875 22.4004L24.4749 25.6878L26.2879 23.8748L23.0005 20.5874L22.0345 20.7554ZM17.6875 21.4624C20.1038 21.4624 22.0625 19.5037 22.0625 17.0874C22.0625 14.6711 20.1038 12.7124 17.6875 12.7124C15.2712 12.7124 13.3125 14.6711 13.3125 17.0874C13.3125 19.5037 15.2712 21.4624 17.6875 21.4624Z" fill="#E4E2D6"/>
<path d="M25.0935 26.3064L26.9065 24.4934L27.4998 25.0867C27.8336 25.4205 27.8336 25.9617 27.4998 26.295L26.8951 26.8997C26.5613 27.2335 26.0201 27.2335 25.6868 26.8997L25.0935 26.3064Z" fill="#E4E2D6"/>
</g>
<defs>
<clipPath id="clip0_618_4305">
<rect width="15.7501" height="15.7501" fill="white" transform="translate(12 11.3999)"/>
</clipPath>
</defs>
</svg>
