<svg width="151" height="141" viewBox="0 0 151 141" fill="none" xmlns="http://www.w3.org/2000/svg">
<mask id="mask0_1_707" style="mask-type:alpha" maskUnits="userSpaceOnUse" x="6" y="0" width="139" height="112">
<rect x="6.5" y="0.146729" width="138" height="111" fill="#D9D9D9"/>
</mask>
<g mask="url(#mask0_1_707)">
<mask id="mask1_1_707" style="mask-type:luminance" maskUnits="userSpaceOnUse" x="-19" y="-15" width="183" height="183">
<path d="M-18.5 -14.8533H163.5V167.147H-18.5V-14.8533Z" fill="white"/>
</mask>
<g mask="url(#mask1_1_707)">
<mask id="mask2_1_707" style="mask-type:luminance" maskUnits="userSpaceOnUse" x="40" y="74" width="52" height="28">
<path d="M40.4502 74.5428H91.9009V101.082H40.4502V74.5428Z" fill="white"/>
</mask>
<g mask="url(#mask2_1_707)">
<g opacity="0.190002">
<path d="M43.5921 88.5895C43.5921 88.5895 36.5239 92.4227 43.5921 94.7498C50.6602 97.0765 64.984 100.898 69.3789 101.08C73.7742 101.262 91.9011 80.3405 91.9011 80.3405L78.5081 74.5427L43.5921 88.5895Z" fill="#231F20"/>
</g>
</g>
<mask id="mask3_1_707" style="mask-type:luminance" maskUnits="userSpaceOnUse" x="20" y="93" width="24" height="7">
<path d="M20.2241 93.0486H43.5121V99.5638H20.2241V93.0486Z" fill="white"/>
</mask>
<g mask="url(#mask3_1_707)">
<g opacity="0.190002">
<path d="M43.5121 96.3063C43.5121 98.1056 38.2989 99.5641 31.8681 99.5641C25.4373 99.5641 20.2241 98.1056 20.2241 96.3063C20.2241 94.5071 25.4373 93.0485 31.8681 93.0485C38.2989 93.0485 43.5121 94.5071 43.5121 96.3063Z" fill="#231F20"/>
</g>
</g>
<mask id="mask4_1_707" style="mask-type:luminance" maskUnits="userSpaceOnUse" x="13" y="82" width="25" height="7">
<path d="M13.9268 82.074H37.2149V88.5896H13.9268V82.074Z" fill="white"/>
</mask>
<g mask="url(#mask4_1_707)">
<g opacity="0.190002">
<path d="M37.2146 85.3317C37.2146 87.1309 32.0014 88.5895 25.5706 88.5895C19.1398 88.5895 13.9263 87.1309 13.9263 85.3317C13.9263 83.5324 19.1398 82.0739 25.5706 82.0739C32.0014 82.0739 37.2146 83.5324 37.2146 85.3317Z" fill="#231F20"/>
</g>
</g>
<mask id="mask5_1_707" style="mask-type:luminance" maskUnits="userSpaceOnUse" x="77" y="94" width="36" height="6">
<path d="M77.2236 94.7499H112.072V99.0102H77.2236V94.7499Z" fill="white"/>
</mask>
<g mask="url(#mask5_1_707)">
<g opacity="0.190002">
<path d="M112.072 96.8801C112.072 98.0565 104.271 99.0102 94.6479 99.0102C85.0249 99.0102 77.2236 98.0565 77.2236 96.8801C77.2236 95.7036 85.0249 94.7499 94.6479 94.7499C104.271 94.7499 112.072 95.7036 112.072 96.8801Z" fill="#231F20"/>
</g>
</g>
<mask id="mask6_1_707" style="mask-type:luminance" maskUnits="userSpaceOnUse" x="43" y="73" width="36" height="5">
<path d="M43.6592 73.4585H78.5075V77.7191H43.6592V73.4585Z" fill="white"/>
</mask>
<g mask="url(#mask6_1_707)">
<g opacity="0.190002">
<path d="M78.5073 75.5886C78.5073 76.765 70.7061 77.7187 61.083 77.7187C51.4599 77.7187 43.6587 76.765 43.6587 75.5886C43.6587 74.4121 51.4599 73.4584 61.083 73.4584C70.7061 73.4584 78.5073 74.4121 78.5073 75.5886Z" fill="#231F20"/>
</g>
</g>
<mask id="mask7_1_707" style="mask-type:luminance" maskUnits="userSpaceOnUse" x="42" y="103" width="8" height="4">
<path d="M42.6348 103.832H49.395V106.84H42.6348V103.832Z" fill="white"/>
</mask>
<g mask="url(#mask7_1_707)">
<g opacity="0.190002">
<path d="M49.395 105.336C49.395 106.167 47.8815 106.84 46.0149 106.84C44.1479 106.84 42.6348 106.167 42.6348 105.336C42.6348 104.505 44.1479 103.832 46.0149 103.832C47.8815 103.832 49.395 104.505 49.395 105.336Z" fill="#231F20"/>
</g>
</g>
<mask id="mask8_1_707" style="mask-type:luminance" maskUnits="userSpaceOnUse" x="136" y="95" width="8" height="4">
<path d="M136.251 95.5759H143.012V98.584H136.251V95.5759Z" fill="white"/>
</mask>
<g mask="url(#mask8_1_707)">
<g opacity="0.190002">
<path d="M143.012 97.0797C143.012 97.9103 141.498 98.5837 139.632 98.5837C137.765 98.5837 136.251 97.9103 136.251 97.0797C136.251 96.249 137.765 95.5756 139.632 95.5756C141.498 95.5756 143.012 96.249 143.012 97.0797Z" fill="#231F20"/>
</g>
</g>
<path d="M49.0444 53.5912C48.9876 53.5912 48.9344 53.5559 48.9144 53.4995L38.9241 25.4434L28.9337 53.4995C28.9082 53.5712 28.8293 53.6087 28.7575 53.5832C28.6858 53.5577 28.6483 53.4787 28.6742 53.407L38.7941 24.9862C38.8334 24.8763 39.0147 24.8763 39.0537 24.9862L49.1743 53.407C49.1998 53.4787 49.1623 53.5577 49.0906 53.5832C49.0753 53.5886 49.0596 53.5912 49.0444 53.5912Z" fill="#FDBD10"/>
<path d="M38.924 53.313H28.4531C28.4531 53.313 29.3879 57.2864 32.5914 57.2864H38.924H45.2565C48.4597 57.2864 49.3948 53.313 49.3948 53.313H38.924Z" fill="#F9A31A"/>
<path d="M49.3947 53.313H45.355C44.3336 57.1328 39.4717 57.2864 39.4717 57.2864H45.2567C48.4599 57.2864 49.3947 53.313 49.3947 53.313Z" fill="#F68C1E"/>
<path d="M32.638 57.2863H35.2697C34.6317 56.5339 33.6896 55.1442 33.4818 53.3129H30.2808C30.5083 54.2469 31.1405 56.1758 32.638 57.2863Z" fill="#FDBD10"/>
<path d="M111.82 53.5912C111.763 53.5912 111.71 53.5559 111.69 53.4995L101.7 25.4434L91.7096 53.4995C91.6841 53.5712 91.6051 53.6087 91.5334 53.5832C91.4617 53.5577 91.4242 53.4787 91.4501 53.407L101.57 24.9862C101.609 24.8763 101.791 24.8763 101.83 24.9862L111.95 53.407C111.976 53.4787 111.938 53.5577 111.866 53.5832C111.851 53.5886 111.836 53.5912 111.82 53.5912Z" fill="#FDBD10"/>
<path d="M101.7 53.313H91.229C91.229 53.313 92.1638 57.2864 95.3673 57.2864H101.7H108.032C111.236 57.2864 112.171 53.313 112.171 53.313H101.7Z" fill="#F9A31A"/>
<path d="M112.171 53.313H108.131C107.11 57.1328 102.248 57.2864 102.248 57.2864H108.032C111.236 57.2864 112.171 53.313 112.171 53.313Z" fill="#F68C1E"/>
<path d="M95.4139 57.2863H98.0456C97.4075 56.5339 96.4655 55.1442 96.2577 53.3129H93.0566C93.2841 54.2469 93.9164 56.1758 95.4139 57.2863Z" fill="#FDBD10"/>
<path d="M71.8538 55.5424H68.77V14.8691H71.8538V55.5424Z" fill="#603813"/>
<path d="M71.8538 55.5424H70.7876V14.8691H71.8538V55.5424Z" fill="#452500"/>
<path d="M70.0512 55.5424H69.3789V14.8691H70.0512V55.5424Z" fill="#74451E"/>
<path d="M69.3101 6.67175C69.3101 6.67175 69.7177 0.896893 70.295 0.896893C70.8727 0.896893 71.3142 6.67175 71.3142 6.67175H69.3101Z" fill="#603813"/>
<path d="M77.2419 13.058H70.312H63.3822C61.2084 13.058 56.7243 23.7924 38.9243 24.8793V26.51C38.9243 26.51 50.2021 25.9666 56.0451 22.7055C61.8876 19.4444 63.1107 17.1345 64.3333 17.1345H70.312H76.2907C77.5138 17.1345 78.7365 19.4444 84.5794 22.7055C90.4219 25.9666 101.7 26.51 101.7 26.51V24.8793C83.8998 23.7924 79.416 13.058 77.2419 13.058Z" fill="#603813"/>
<path d="M70.312 15.5655C68.5707 15.5502 64.0258 15.5171 63.3145 15.5717C62.4311 15.6398 58.8304 20.3273 52.5798 23.045C47.5125 25.2483 41.1509 25.9329 38.9243 26.1135V26.5099C38.9243 26.5099 50.2021 25.9664 56.0447 22.7054C61.8876 19.4443 63.1103 17.1343 64.3333 17.1343H70.312V15.5655Z" fill="#452500"/>
<path d="M70.312 15.5655C72.0534 15.5502 76.5983 15.5171 77.3099 15.5717C78.193 15.6398 81.7937 20.3273 88.0439 23.045C93.1115 25.2483 99.4731 25.9329 101.7 26.1135V26.5099C101.7 26.5099 90.4219 25.9664 84.5794 22.7054C78.7364 19.4443 77.5134 17.1343 76.2907 17.1343H70.312V15.5655Z" fill="#452500"/>
<path d="M40.2826 25.1511C40.2826 25.9017 39.6743 26.5099 38.9238 26.5099C38.1735 26.5099 37.5649 25.9017 37.5649 25.1511C37.5649 24.4006 38.1735 23.7923 38.9238 23.7923C39.6743 23.7923 40.2826 24.4006 40.2826 25.1511Z" fill="#603813"/>
<path d="M38.0332 26.1698C38.2724 26.3791 38.5814 26.5098 38.9239 26.5098C39.6745 26.5098 40.2827 25.9015 40.2827 25.1513C40.2827 24.6366 39.9933 24.194 39.5715 23.9636C39.9497 24.269 40.1535 25.1448 39.5522 25.7625C38.9738 26.3572 38.1231 26.1894 38.0332 26.1698Z" fill="#452500"/>
<path d="M100.341 25.1511C100.341 25.9017 100.949 26.5099 101.7 26.5099C102.45 26.5099 103.058 25.9017 103.058 25.1511C103.058 24.4006 102.45 23.7923 101.7 23.7923C100.949 23.7923 100.341 24.4006 100.341 25.1511Z" fill="#603813"/>
<path d="M102.59 26.1698C102.352 26.3791 102.042 26.5098 101.7 26.5098C100.949 26.5098 100.341 25.9015 100.341 25.1513C100.341 24.6366 100.631 24.194 101.052 23.9636C100.674 24.269 100.47 25.1448 101.071 25.7625C101.65 26.3572 102.5 26.1894 102.59 26.1698Z" fill="#452500"/>
<path d="M73.924 14.8018C73.924 16.7965 72.3068 18.4138 70.312 18.4138C68.317 18.4138 66.6997 16.7965 66.6997 14.8018C66.6997 12.8071 68.317 11.1898 70.312 11.1898C72.3068 11.1898 73.924 12.8071 73.924 14.8018Z" fill="#603813"/>
<path d="M67.7124 17.3057C68.3694 17.9879 69.2903 18.4138 70.3121 18.4138C72.3072 18.4138 73.9241 16.7965 73.9241 14.8018C73.9241 13.1423 72.804 11.7478 71.2792 11.3245C72.6384 11.7981 73.9972 14.1189 72.4368 16.1475C70.7445 18.3475 67.7386 17.3148 67.7124 17.3057Z" fill="#512E08"/>
<path d="M70.793 11.2254C70.801 11.2268 70.8108 11.2279 70.8195 11.2294C70.8104 11.2283 70.8017 11.2265 70.793 11.2254Z" fill="#512E08"/>
<path d="M69.2635 12.4361C69.428 12.5865 69.2078 13.095 68.7721 13.5722C68.336 14.049 67.849 14.3136 67.6844 14.163C67.5199 14.0126 67.7401 13.5041 68.1758 13.0273C68.6119 12.5504 69.0989 12.2858 69.2635 12.4361Z" fill="#74451E"/>
<path d="M73.1992 8.94771C73.1992 10.5424 71.9066 11.835 70.3119 11.835C68.7172 11.835 67.4243 10.5424 67.4243 8.94771C67.4243 7.35303 68.7172 6.0601 70.3119 6.0601C71.9066 6.0601 73.1992 7.35303 73.1992 8.94771Z" fill="#603813"/>
<path d="M68.2339 10.9493C68.7591 11.4946 69.4951 11.8349 70.312 11.8349C71.9066 11.8349 73.1996 10.5423 73.1996 8.94765C73.1996 7.62124 72.3038 6.50667 71.0851 6.16815C72.1716 6.54671 73.2578 8.40165 72.0104 10.0233C70.6578 11.7821 68.255 10.9566 68.2339 10.9493Z" fill="#512E08"/>
<path d="M70.6963 6.08883C70.7028 6.08992 70.7105 6.09101 70.7174 6.0921C70.7105 6.09101 70.7036 6.08992 70.6963 6.08883Z" fill="#512E08"/>
<path d="M69.4739 7.0567C69.6053 7.17682 69.4295 7.58341 69.0811 7.96452C68.7324 8.34599 68.3433 8.55747 68.2115 8.43699C68.0801 8.31687 68.2559 7.91028 68.6047 7.52917C68.953 7.14807 69.3425 6.93658 69.4739 7.0567Z" fill="#74451E"/>
<path d="M71.8394 55.5426H70.3259H70.2975H68.7843C66.7667 55.5426 67.2319 57.2865 67.2319 57.2865H70.2975H70.3259H73.3919C73.3919 57.2865 73.8567 55.5426 71.8394 55.5426Z" fill="#603813"/>
<path d="M73.8054 58.6451H66.8185C66.4512 58.6451 66.1509 58.3445 66.1509 57.9772V57.9543C66.1509 57.587 66.4512 57.2863 66.8185 57.2863H73.8054C74.1727 57.2863 74.4734 57.587 74.4734 57.9543V57.9772C74.4734 58.3445 74.1727 58.6451 73.8054 58.6451Z" fill="#603813"/>
<path d="M72.7197 63.4688C72.7197 62.3818 73.1954 61.7703 73.7727 60.5473C74.3504 59.3246 73.9467 58.6239 73.9467 58.6239H70.3191H70.3049H66.6773C66.6773 58.6239 66.2736 59.3246 66.8513 60.5473C67.4286 61.7703 67.9043 62.3818 67.9043 63.4688C67.9043 64.5557 66.7388 64.386 66.54 66.5941H70.3049H70.3191H74.0836C73.8852 64.386 72.7197 64.5557 72.7197 63.4688Z" fill="#603813"/>
<path d="M74.1434 67.7829H66.4801C66.1587 67.7829 65.8955 67.5201 65.8955 67.1987V67.1783C65.8955 66.8569 66.1587 66.5941 66.4801 66.5941H74.1434C74.4648 66.5941 74.7276 66.8569 74.7276 67.1783V67.1987C74.7276 67.5201 74.4648 67.7829 74.1434 67.7829Z" fill="#603813"/>
<path d="M74.1335 67.7829H70.3119H66.4902C66.4902 67.7829 48.9673 70.5344 48.4238 74.5427H70.3119H92.1999C91.6565 70.5344 74.1335 67.7829 74.1335 67.7829Z" fill="#603813"/>
<path d="M92.7435 75.9017H47.8805C47.5132 75.9017 47.2129 75.601 47.2129 75.2337V75.2108C47.2129 74.8435 47.5132 74.5429 47.8805 74.5429H92.7435C93.1107 74.5429 93.4114 74.8435 93.4114 75.2108V75.2337C93.4114 75.601 93.1107 75.9017 92.7435 75.9017Z" fill="#603813"/>
<path d="M71.8396 55.5426H70.7876C70.7876 55.5426 71.8538 55.7013 71.7529 57.2865H73.392C73.392 57.2865 73.8568 55.5426 71.8396 55.5426Z" fill="#452500"/>
<path d="M72.4321 58.6451H73.7939C74.1673 58.6451 74.4731 58.3394 74.4731 57.9656C74.4731 57.5921 74.1673 57.2863 73.7939 57.2863H72.4321C72.4321 57.2863 73.3607 58.0111 72.4321 58.6451Z" fill="#452500"/>
<path d="M74.0836 66.594C73.8853 64.386 72.7197 64.556 72.7197 63.4687C72.7197 62.3818 73.1951 61.7703 73.7728 60.5476C74.3501 59.3245 73.9464 58.6238 73.9464 58.6238H71.8854L71.8538 58.6453C71.8538 58.6453 72.4096 59.551 71.7526 61.1587C71.0959 62.7669 71.2805 63.8538 71.9131 64.6237C72.5454 65.3939 72.4322 66.594 72.4322 66.594H74.0836Z" fill="#452500"/>
<path d="M72.7124 67.7829H74.1335C74.4603 67.7829 74.7279 67.5154 74.7279 67.1885C74.7279 66.8616 74.4603 66.5941 74.1335 66.5941H72.7124C72.7124 66.5941 73.6209 67.0866 72.7124 67.7829Z" fill="#452500"/>
<path d="M84.8354 74.5428H92.1998C91.6564 70.5345 74.1334 67.783 74.1334 67.783H72.1602C72.1602 67.783 82.4814 70.4377 84.8354 74.5428Z" fill="#452500"/>
<path d="M82.8486 75.9017H92.732C93.1054 75.9017 93.4112 75.5959 93.4112 75.2221C93.4112 74.8486 93.1054 74.5429 92.732 74.5429H82.9273C83.2392 74.8592 83.4969 75.3622 82.8486 75.9017Z" fill="#452500"/>
<path d="M61.0835 74.5429H51.2002C50.8268 74.5429 50.521 74.8486 50.521 75.2221C50.521 75.5959 50.8268 75.9017 51.2002 75.9017H61.0053C60.6933 75.5854 60.4353 75.0827 61.0835 74.5429Z" fill="#74451E"/>
<path d="M67.8188 57.2864H68.9938C68.9607 56.957 68.9553 56.1001 69.6694 55.5425H69.194C69.194 55.5425 67.8862 55.5479 67.8188 57.2864Z" fill="#74451E"/>
<path d="M69.16 57.2863H67.2971C66.7686 57.8265 67.1315 58.4144 67.3157 58.6451H69.207C68.6395 57.9404 68.9548 57.4782 69.16 57.2863Z" fill="#74451E"/>
<path d="M67.4361 58.6239C67.3418 58.9304 67.2494 59.5594 67.6767 60.366C68.2879 61.5214 68.8768 63.2875 68.2427 64.216C67.6894 65.0263 67.2974 65.6986 67.2061 66.5941H68.3887C68.3763 66.1613 68.4207 65.4154 68.744 64.5105C69.2619 63.0611 68.9736 61.6116 68.744 60.706C68.5485 59.9343 68.4284 59.2129 68.6184 58.6239H67.4361Z" fill="#74451E"/>
<path d="M68.7898 66.594H66.8624C66.4773 67.0788 66.6845 67.5429 66.8486 67.7828H68.768C68.4575 67.2721 68.6533 66.8131 68.7898 66.594Z" fill="#74451E"/>
<path d="M57.2764 74.5428C58.8983 72.7833 62.3833 70.109 69.6691 67.783H67.7166C67.7166 67.783 55.7257 70.723 51.7075 74.5428H57.2764Z" fill="#74451E"/>
<path d="M44.7202 92.1488L48.8018 87.8627L44.7202 86.9072C44.7202 86.9072 43.3017 86.6702 43.17 89.3307C43.0382 91.9912 44.7202 92.1488 44.7202 92.1488Z" fill="#A2533E"/>
<path d="M44.72 86.9071C44.3287 86.8285 43.5123 87.8033 43.4857 89.5679C43.4595 91.3326 44.4932 92.0959 44.72 92.1487V92.8337C44.72 92.8337 42.6692 92.4126 42.801 89.6207C42.9328 86.8285 44.38 86.1427 44.72 86.222V86.9071Z" fill="#BB604A"/>
<path d="M94.3858 72.949L69.2571 67.0661L45.7522 91.75L44.7202 92.1489V92.8336L70.9526 98.975L95.4891 73.2075V72.5224L94.3858 72.949Z" fill="#BB604A"/>
<path d="M70.9526 98.2902L44.7202 92.1488L69.2571 66.3813L95.4895 72.5223L70.9526 98.2902Z" fill="#A2533E"/>
<path d="M93.971 68.0156L68.9063 62.5538V67.1427L86.3492 71.2672L68.9063 92.1594L68.167 94.6779L70.1046 97.4174L93.971 73.0694C93.971 73.0694 91.6548 70.627 93.971 68.0156Z" fill="#FDC67C"/>
<path d="M45.04 86.9016V91.4906L70.1047 97.4172C70.1047 97.4172 67.7882 94.9748 70.1047 92.3635L45.04 86.9016Z" fill="#FFDE9D"/>
<path d="M94.3858 67.0225L69.2571 61.1395L45.7522 85.8231L44.7202 86.2224V86.9071L70.9526 93.0485L95.4891 67.2809V66.5959L94.3858 67.0225Z" fill="#BB604A"/>
<path d="M70.9526 92.3636L44.7202 86.2222L69.2571 60.4547L95.4895 66.5961L70.9526 92.3636Z" fill="#A2533E"/>
<path d="M47.4639 85.4036L69.7257 62.025L92.7458 67.4144L70.484 90.793L47.4639 85.4036Z" stroke="#FDBD10" stroke-width="0.578667" stroke-miterlimit="10"/>
<path d="M48.9878 84.949L69.9859 62.8975L91.2213 67.8693L70.2236 89.9205L48.9878 84.949Z" stroke="#FDBD10" stroke-width="0.578667" stroke-miterlimit="10"/>
<path d="M71.0362 70.2503L69.8357 71.0173L67.2837 70.4156L67.3368 70.3632L67.4147 70.3817C67.6302 70.4323 67.9513 70.3257 68.1365 70.1429L71.0238 67.2222C71.2011 67.0377 71.1723 66.8487 70.9568 66.7978L70.8789 66.7796L70.9299 66.7268L72.277 67.0442L72.2239 67.0966L72.146 67.0781C71.9305 67.0275 71.6095 67.1341 71.4238 67.3165L68.3167 70.4604L69.1994 70.6682C69.8517 70.8222 70.3879 70.5921 70.9747 70.2358L71.0362 70.2503Z" fill="#FDBD10"/>
<path d="M74.6846 70.3859L75.6146 68.5197L73.1682 70.0285L74.6846 70.3859ZM74.6115 71.6686C74.5041 71.9325 74.6358 72.0836 74.8244 72.128L74.8757 72.14L74.8237 72.1928L73.4376 71.8659L73.4892 71.8139L73.5431 71.8266C73.7022 71.8641 73.9857 71.7829 74.104 71.5507L74.5976 70.5603L72.9396 70.1697L71.6368 70.973C71.3435 71.1616 71.3901 71.3192 71.548 71.3563L71.6023 71.3691L71.5509 71.4215L70.3115 71.1292L70.3636 71.0768L70.4193 71.0899C70.6064 71.1339 70.93 71.0903 71.286 70.8853L75.4854 68.3785C75.4854 68.3785 76.1355 68.005 76.2498 67.8892L76.3055 67.9023L74.6115 71.6686Z" fill="#FDBD10"/>
<path d="M83.9893 69.8042L83.9372 69.8569L83.883 69.8442C83.6952 69.7998 83.3446 69.8329 83.02 70.0433L79.2456 72.5906C79.2456 72.5906 78.7895 72.8956 78.5318 73.1446L78.474 73.1308L80.1939 69.8205L76.8614 72.0286C76.8614 72.0286 76.4192 72.3274 76.1531 72.584L76.0952 72.5702L78.0375 68.8629C78.1616 68.6095 78.004 68.4585 77.8155 68.414L77.7663 68.4024L77.8184 68.3496L79.1863 68.6721L79.1346 68.7245L79.0807 68.7118C78.9231 68.6747 78.6527 68.7548 78.5202 68.979L76.916 71.7632L81.0511 69.0099L81.1068 69.0252L79.4389 72.2266L82.7029 69.953C82.9639 69.7652 82.9428 69.6218 82.775 69.5821L82.7211 69.5694L82.7728 69.5173L83.9893 69.8042Z" fill="#FDBD10"/>
<path d="M46.1989 89.1464C46.1989 89.1464 44.3552 91.0345 43.5122 93.383L45.0399 92.8338L45.5666 94.2039C45.5666 94.2039 46.4624 91.1688 48.5168 89.9207L46.1989 89.1464Z" fill="#EC1C24"/>
<path d="M29.2935 31.9693C29.3416 31.4255 25.5978 30.6334 23.2941 30.8733C20.9903 31.1132 18.6385 31.6894 18.8303 33.2011C19.0222 34.7132 19.2784 36.8968 19.2784 36.8968L28.1655 36.753L29.2935 31.9693Z" fill="#F8A35E"/>
<path d="M18.8536 32.751C20.1265 33.4252 23.598 33.2013 25.4861 32.945C27.3738 32.6892 27.4378 31.9692 27.4378 31.9692L27.1659 34.8812L18.8194 34.2889C18.8194 34.2889 18.791 32.9418 18.8536 32.751Z" fill="#E39656"/>
<path d="M16.9995 32.2905C17.1018 33.2896 21.0381 33.9532 24.2377 33.6653C27.4376 33.3774 28.7815 32.9293 29.2932 31.9694L28.5893 36.641L23.1464 38.1767L19.2782 36.8969L17.3264 34.7212L16.9995 32.2905Z" fill="#FCC78E"/>
<path d="M21.4013 58.5649C21.4013 58.5649 21.1312 56.0697 23.6934 55.4866C23.6934 55.4866 21.6688 56.022 21.4013 58.5649Z" fill="#A40D12"/>
<path d="M35.3531 44.0511C36.4746 44.9545 39.9257 45.3943 41.828 45.5013C43.7299 45.6087 43.9297 44.9141 43.9297 44.9141L43.1096 47.7209L35.0273 45.5548C35.0273 45.5548 35.2552 44.2265 35.3531 44.0511Z" fill="#E39656"/>
<path d="M33.6204 43.2468C33.5312 44.2471 37.2695 45.6463 40.4657 45.9714C43.662 46.2964 45.0663 46.1115 45.7514 45.2663L44.1731 49.7195L38.5373 50.1934L34.9824 48.2023L33.4795 45.6951L33.6204 43.2468Z" fill="#FCC78E"/>
<path d="M37.5285 96.7008C36.462 90.7585 39.7882 70.8699 39.7882 70.8699C39.7882 70.8699 44.1194 51.1757 47.3252 46.0597C47.3252 46.0597 45.7083 48.3543 39.4879 47.151C34.1167 46.1117 32.9039 43.9343 32.6724 43.3588C34.0545 47.5976 43.7227 48.9175 42.7504 51.0086C41.7669 53.1231 40.7332 57.2152 38.7595 64.9007C36.7859 72.5862 31.7726 68.5553 32.6087 71.6078C33.4448 74.6606 36.9071 73.4321 36.9395 75.7453C36.9719 78.0589 35.5509 95.5058 30.2055 96.1406C24.8598 96.7758 22.8262 93.8565 22.8262 93.8565C22.8262 93.8565 23.4468 96.7143 29.6668 97.9177C35.8872 99.1211 37.5285 96.7008 37.5285 96.7008Z" fill="#FFD898"/>
<path d="M47.3256 46.0599C48.3564 44.3691 43.7627 42.3234 40.5428 41.7006C37.3225 41.0774 33.7884 41.4043 33.5973 43.4041C33.4059 45.4039 33.4335 48.2937 33.4335 48.2937C33.4335 48.2937 38.5608 50.8497 41.0171 50.7871C43.4737 50.7249 46.4902 47.43 47.3256 46.0599Z" fill="#FBB872"/>
<path d="M45.7519 45.2665C45.9022 44.7417 42.3772 43.2529 40.0698 43.0512C37.7624 42.8492 35.344 42.9679 35.245 44.4887C35.1463 46.0095 34.9829 48.2022 34.9829 48.2022L43.736 49.7488L45.7519 45.2665Z" fill="#F8A35E"/>
<path d="M30.9896 32.4493C30.9896 32.4493 29.8375 35.009 23.5021 35.009C17.1667 35.009 16.0146 32.4493 16.0146 32.4493C18.1906 38.0807 18.7024 58.2394 18.7024 58.2394C18.7024 58.2394 18.1906 78.3978 16.0146 84.0292C16.0146 84.0292 17.1667 86.717 23.5021 86.717C29.8375 86.717 30.9896 84.0292 30.9896 84.0292C28.814 78.3978 28.3018 58.2394 28.3018 58.2394C28.3018 58.2394 28.814 38.0807 30.9896 32.4493Z" fill="#FFE7B4"/>
<path d="M30.9898 32.4493C31.6807 30.5936 26.782 29.4576 23.5023 29.4576C20.2227 29.4576 16.8149 30.4495 17.0068 32.4493C17.199 34.4491 17.7748 37.281 17.7748 37.281C17.7748 37.281 23.2945 38.8167 25.6944 38.2889C28.0938 37.7608 30.43 33.9533 30.9898 32.4493Z" fill="#FBB872"/>
<path d="M30.9896 84.0292C28.814 78.3978 28.3018 58.2391 28.3018 58.2391C28.3018 58.2391 28.814 38.0807 30.9896 32.4493C30.9896 32.4493 29.8375 35.009 23.5021 35.009C18.0312 35.009 16.4271 33.1016 16.0907 32.5803C18.2525 36.4795 27.9953 35.9393 27.4381 38.1768C26.8739 40.4398 26.6362 44.6539 26.1582 52.5741C25.6803 60.4944 19.9928 57.4889 21.3935 60.3273C22.7941 63.1658 25.9602 61.3018 26.4312 63.5669C26.9026 65.8321 28.8213 83.2317 23.6936 84.8704C18.5659 86.5088 16.0146 84.0292 16.0146 84.0292C16.0146 84.0292 17.1667 86.717 23.5021 86.717C29.8375 86.717 30.9896 84.0292 30.9896 84.0292Z" fill="#FFD898"/>
<path d="M23.5967 57.981C21.3421 57.981 18.6623 57.1325 18.6339 57.1231C18.5801 57.106 18.5502 57.0484 18.5673 56.9946C18.5848 56.9403 18.6427 56.9112 18.6962 56.928C18.7268 56.9382 21.7585 57.8991 24.0506 57.7633C26.3435 57.6298 28.2839 56.7547 28.3029 56.746C28.3546 56.7223 28.4153 56.7456 28.4386 56.7969C28.4623 56.8479 28.4397 56.9087 28.388 56.9323C28.3684 56.9411 26.3951 57.8321 24.063 57.9683C23.9105 57.977 23.7543 57.981 23.5967 57.981Z" fill="#5A4A42"/>
<path d="M18.6378 60.3275C18.6025 60.3275 18.5683 60.3089 18.549 60.2765C18.5206 60.2277 18.5373 60.1651 18.5861 60.1367C18.609 60.1229 20.9397 58.7877 24.0567 58.7877C27.1842 58.7877 28.3635 59.7607 28.4119 59.8022C28.4549 59.839 28.4603 59.9034 28.4236 59.9463C28.3875 59.9897 28.3228 59.9958 28.2794 59.9584C28.2682 59.9485 27.0979 58.9923 24.0567 58.9923C20.9973 58.9923 18.7117 60.3002 18.6891 60.3136C18.6727 60.3231 18.6553 60.3275 18.6378 60.3275Z" fill="#5A4A42"/>
<path d="M18.6376 58.9924C18.5918 58.9924 18.5499 58.9611 18.5383 58.9148C18.5244 58.8599 18.5579 58.8042 18.6129 58.7907C18.6336 58.7856 20.7197 58.2753 23.8709 58.2753C27.0198 58.2753 28.2811 58.5232 28.3332 58.5334C28.3885 58.5447 28.4245 58.5985 28.4132 58.6542C28.4019 58.7095 28.3492 58.7449 28.2927 58.7343C28.28 58.7317 26.9944 58.4802 23.8709 58.4802C20.7467 58.4802 18.6828 58.9844 18.6624 58.9891C18.654 58.9916 18.6457 58.9924 18.6376 58.9924Z" fill="#5A4A42"/>
<path d="M23.2838 54.0814C22.2052 54.12 21.6017 55.1952 20.9502 55.6622C19.6201 56.6159 20.5079 58.0967 20.5985 58.7489C20.7052 59.5163 20.3729 60.0539 21.0754 60.6563C21.7779 61.2584 22.6442 61.4101 23.7355 61.8859C24.7143 62.3125 25.8937 61.4844 26.5962 60.7065C27.2991 59.9283 28.1272 59.7529 27.8258 58.3977C27.5247 57.0425 27.4494 56.5154 27.2488 55.7376C27.0479 54.9597 25.7932 54.8341 25.1409 54.4577C24.4883 54.0814 23.9863 54.0563 23.2838 54.0814Z" fill="#EC1C24"/>
<path d="M26.9059 58.1466C26.9059 59.7202 25.6305 60.9957 24.0569 60.9957C22.4833 60.9957 21.2075 59.7202 21.2075 58.1466C21.2075 56.5731 22.4833 55.2976 24.0569 55.2976C25.6305 55.2976 26.9059 56.5731 26.9059 58.1466Z" fill="#C5161D"/>
<path d="M26.713 57.7579C26.713 57.7579 26.9831 60.2531 24.4209 60.8362C24.4209 60.8362 26.4455 60.3008 26.713 57.7579Z" fill="#EC1C24"/>
<path d="M20.565 58.0381C20.565 58.0381 20.1803 57.051 20.565 56.3565C20.9498 55.6623 21.4634 55.5695 21.8365 55.0348C21.8365 55.0348 21.5832 55.5371 21.0335 56.0387C20.4839 56.5403 20.4311 57.3942 20.565 58.0381Z" fill="#EF5038"/>
<path d="M47.3257 46.0599C47.3257 46.0599 45.7084 48.3542 39.4884 47.1508C33.2684 45.9478 32.6234 43.2156 32.6234 43.2156C33.6902 49.1579 30.364 69.0465 30.364 69.0465C30.364 69.0465 26.0324 88.7411 22.8267 93.8567C22.8267 93.8567 23.4473 96.7145 29.6673 97.9175C35.8873 99.1209 37.529 96.701 37.529 96.701C36.4625 90.7587 39.7883 70.8698 39.7883 70.8698C39.7883 70.8698 44.1199 51.1755 47.3257 46.0599Z" fill="#FFE7B4"/>
<path d="M35.2181 69.7227C33.0046 69.2943 30.5349 67.9522 30.5083 67.938C30.4588 67.9107 30.4406 67.8485 30.4675 67.799C30.4952 67.7491 30.5574 67.7313 30.6069 67.7582C30.6346 67.7738 33.4287 69.2928 35.7051 69.5953C37.9816 69.8996 40.0527 69.4089 40.0731 69.4038C40.1285 69.3907 40.1838 69.4249 40.1969 69.4795C40.2104 69.5345 40.1765 69.5898 40.1215 69.6033C40.1004 69.608 37.994 70.1082 35.6782 69.7988C35.5268 69.7784 35.3728 69.7525 35.2181 69.7227Z" fill="#5A4A42"/>
<path d="M29.9036 71.0845C29.8686 71.078 29.8388 71.0532 29.826 71.0179C29.8075 70.9644 29.8355 70.9058 29.889 70.8872C29.9141 70.8785 32.4559 70.01 35.5165 70.6019C38.5868 71.1959 39.5598 72.3753 39.5994 72.4251C39.6347 72.4695 39.6278 72.534 39.5838 72.5689C39.5401 72.605 39.4753 72.5984 39.4396 72.5533C39.4305 72.5416 38.4634 71.3808 35.4775 70.8032C32.4738 70.2218 29.9815 71.0718 29.9564 71.0805C29.9389 71.0867 29.9207 71.0878 29.9036 71.0845Z" fill="#5A4A42"/>
<path d="M30.1573 69.7738C30.1122 69.765 30.0769 69.7264 30.0744 69.6788C30.0714 69.6223 30.1148 69.5739 30.1712 69.571C30.1927 69.5699 32.3377 69.4655 35.4313 70.0639C38.5232 70.6619 39.7142 71.1446 39.7633 71.1646C39.8157 71.1861 39.8408 71.2461 39.8194 71.2986C39.7979 71.3506 39.7389 71.375 39.6854 71.3543C39.6738 71.3495 38.4591 70.8581 35.3924 70.2648C32.3253 69.6715 30.2032 69.7745 30.1825 69.7752C30.1737 69.7759 30.1654 69.7752 30.1573 69.7738Z" fill="#5A4A42"/>
<path d="M35.6512 65.8346C34.585 65.6675 33.7882 66.6084 33.0595 66.9437C31.5726 67.6269 32.1633 69.2496 32.1284 69.9074C32.0873 70.6809 31.6588 71.1453 32.2343 71.8704C32.8098 72.5951 33.6313 72.9085 34.6123 73.5827C35.4921 74.1876 36.8076 73.5983 37.6452 72.9682C38.4827 72.3378 39.329 72.3225 39.2908 70.9349C39.2526 69.5474 39.2788 69.0156 39.2293 68.2137C39.1802 67.4118 37.972 67.0503 37.4027 66.5567C36.8338 66.0635 36.3457 65.9434 35.6512 65.8346Z" fill="#EC1C24"/>
<path d="M38.4356 70.5139C38.1368 72.0587 36.6422 73.0688 35.0974 72.7699C33.5522 72.4711 32.5421 70.9765 32.841 69.4317C33.1398 67.8865 34.6348 66.8764 36.1796 67.1753C37.7244 67.4745 38.7345 68.9691 38.4356 70.5139Z" fill="#C5161D"/>
<path d="M32.9521 69.879C32.9521 69.879 33.1607 67.3779 35.787 67.292C35.787 67.292 33.698 67.4333 32.9521 69.879Z" fill="#A40D12"/>
<path d="M38.3202 70.0955C38.3202 70.0955 38.1116 72.5965 35.4854 72.6824C35.4854 72.6824 37.5743 72.5412 38.3202 70.0955Z" fill="#EC1C24"/>
<path d="M32.2306 69.2029C32.2306 69.2029 32.0402 68.1604 32.5498 67.5518C33.0598 66.9436 33.5814 66.9498 34.0495 66.4959C34.0495 66.4959 33.7052 66.9407 33.0704 67.3287C32.4352 67.7171 32.2215 68.5456 32.2306 69.2029Z" fill="#EF5038"/>
<path d="M34.6449 88.1008L33.0517 89.4894L28.1147 83.8256L29.708 82.4369L34.6449 88.1008Z" fill="#AAACAF"/>
<path d="M34.6449 88.1008L34.0556 88.6144L29.1187 82.9505L29.708 82.4369L34.6449 88.1008Z" fill="#929497"/>
<path d="M33.8097 88.8284L33.3842 89.1993L28.4473 83.5354L28.8728 83.1645L33.8097 88.8284Z" fill="#CCCECF"/>
<path d="M30.1092 80.9346L28.3249 82.49L26.5405 84.045C26.5405 84.045 26.9617 85.9826 29.4664 83.7993C31.971 81.6164 30.1092 80.9346 30.1092 80.9346Z" fill="#909295"/>
<path d="M28.3249 82.4898L26.5405 84.0452C26.5405 84.0452 26.5624 84.1435 26.6239 84.2709C26.9136 84.1948 27.6118 83.9294 28.7718 83.0027C30.1481 81.9034 30.2974 81.8306 30.5937 82.4876C31.1892 81.3319 30.1092 80.9344 30.1092 80.9344L28.3249 82.4898Z" fill="#808184"/>
<path d="M29.4028 79.1788L27.1504 81.1422L24.8979 83.1052C24.8979 83.1052 25.0093 84.1605 25.8178 84.3392C26.6266 84.5179 27.6986 83.6986 28.6533 82.8664C29.6081 82.034 30.5662 81.0839 30.4995 80.2584C30.4333 79.4332 29.4028 79.1788 29.4028 79.1788Z" fill="#909295"/>
<path d="M30.4995 80.2585C30.4329 79.4329 29.4028 79.1789 29.4028 79.1789L27.1504 81.1419L24.8979 83.1053C24.8979 83.1053 24.9125 83.2375 24.966 83.4151C24.966 83.4151 25.7756 83.5407 27.573 82.0122C29.3701 80.4842 29.7366 80.6953 29.8749 81.6624C30.2728 81.1834 30.5352 80.7029 30.4995 80.2585Z" fill="#808184"/>
<path d="M28.6996 66.1085C32.708 70.7073 32.2293 77.6848 27.6305 81.6932C23.0317 85.7015 16.0542 85.2229 12.0459 80.6241C8.0375 76.0253 8.51616 69.0478 13.1149 65.0394C17.7137 61.0311 24.6912 61.5097 28.6996 66.1085Z" fill="#9EA0A3"/>
<path d="M28.4705 66.3082C32.3685 70.7803 31.903 77.566 27.4309 81.4641C22.9588 85.3622 16.1735 84.8966 12.2754 80.4245C8.37731 75.952 8.8425 69.1667 13.3146 65.2686C17.7871 61.3706 24.5724 61.8361 28.4705 66.3082Z" fill="#BBBDBF"/>
<path d="M28.0775 66.6507C31.7863 70.9059 31.3437 77.3621 27.0885 81.0713C22.833 84.7801 16.3767 84.3371 12.6679 80.0819C8.95914 75.8268 9.40177 69.3705 13.6569 65.6617C17.9125 61.9526 24.3687 62.3955 28.0775 66.6507Z" fill="#A6A8AB"/>
<path d="M27.8154 66.879C31.3983 70.9896 30.9706 77.2264 26.8599 80.8093C22.7493 84.3921 16.5125 83.9644 12.9296 79.8538C9.34677 75.7431 9.77447 69.5063 13.8851 65.9235C17.9958 62.3406 24.2326 62.7683 27.8154 66.879Z" fill="#8AD6F7"/>
<mask id="mask9_1_707" style="mask-type:luminance" maskUnits="userSpaceOnUse" x="10" y="63" width="13" height="17">
<path d="M10.4995 63.4929H22.5901V79.8536H10.4995V63.4929Z" fill="white"/>
</mask>
<g mask="url(#mask9_1_707)">
<g opacity="0.389999">
<path d="M12.3878 69.3608C15.6437 64.1083 19.9418 63.4032 21.9897 63.626C19.1829 63.1619 16.1977 63.9081 13.8856 65.9235C9.77496 69.5064 9.34726 75.7432 12.9301 79.8538C12.9301 79.8538 8.91483 74.9635 12.3878 69.3608Z" fill="#231F20"/>
<path d="M22.4165 63.7072C22.4777 63.7254 22.5348 63.7378 22.5901 63.7469C22.5323 63.7338 22.4744 63.7196 22.4165 63.7072Z" fill="#231F20"/>
</g>
</g>
<mask id="mask10_1_707" style="mask-type:luminance" maskUnits="userSpaceOnUse" x="18" y="66" width="13" height="18">
<path d="M18.1558 66.8789H30.2464V83.2399H18.1558V66.8789Z" fill="white"/>
</mask>
<g mask="url(#mask10_1_707)">
<g opacity="0.309998">
<path d="M28.3578 77.3719C25.1018 82.6244 20.8037 83.3295 18.7559 83.1067C21.5627 83.5708 24.5478 82.8246 26.86 80.8092C30.9706 77.2263 31.3983 70.9896 27.8155 66.8789C27.8155 66.8789 31.8307 71.7692 28.3578 77.3719Z" fill="white"/>
<path d="M18.3289 83.0255C18.2677 83.0073 18.2106 82.9949 18.1553 82.9858C18.2131 82.9989 18.271 83.0131 18.3289 83.0255Z" fill="white"/>
</g>
</g>
<mask id="mask11_1_707" style="mask-type:luminance" maskUnits="userSpaceOnUse" x="11" y="66" width="6" height="7">
<path d="M11.8916 66.0245H16.6224V72.5576H11.8916V66.0245Z" fill="white"/>
</mask>
<g mask="url(#mask11_1_707)">
<g opacity="0.309998">
<path d="M16.5114 66.0632C16.9056 66.3384 16.2158 68.007 14.9706 69.7895C13.7253 71.5724 12.3967 72.7943 12.0025 72.5188C11.6083 72.2436 12.2981 70.5754 13.5433 68.7925C14.7882 67.01 16.1172 65.788 16.5114 66.0632Z" fill="white"/>
</g>
</g>
<path d="M27.3972 83.3087C27.4555 83.4092 27.208 83.6607 26.8447 83.8711C26.4814 84.0811 26.1396 84.1703 26.0817 84.0702C26.0235 83.9697 26.271 83.7178 26.6343 83.5078C26.9976 83.2974 27.339 83.2082 27.3972 83.3087Z" fill="#AAACAF"/>
<path d="M28.8025 83.9072C28.8607 84.0076 28.6132 84.2591 28.25 84.4695C27.8867 84.6796 27.5449 84.7687 27.487 84.6686C27.4288 84.5682 27.6763 84.3163 28.0396 84.1063C28.4028 83.8959 28.7443 83.8067 28.8025 83.9072Z" fill="#AAACAF"/>
<path d="M34.9293 87.8527C34.5802 88.157 33.8551 88.7889 33.8551 88.7889L33.8325 88.8085L33.81 88.8286C33.81 88.8286 33.0849 89.4601 32.7358 89.7648C32.3864 90.0691 32.4672 90.6901 33.114 91.4322C33.7608 92.1744 44.3004 104.266 45.0994 105.183C45.8984 106.1 47.0275 105.346 47.7202 104.742C48.4133 104.138 49.3142 103.122 48.5152 102.206C47.7162 101.289 37.1766 89.1969 36.5298 88.4551C35.8829 87.7129 35.2783 87.5484 34.9293 87.8527Z" fill="#67686B"/>
<path d="M48.5151 102.206C47.7161 101.289 37.1765 89.197 36.5297 88.4548C35.8828 87.713 35.2786 87.5481 34.9291 87.8528C34.5801 88.1571 33.855 88.789 33.855 88.789C33.855 88.789 35.3419 88.5684 36.217 89.5723C37.092 90.5766 47.0798 102.035 47.841 102.909C48.6021 103.781 47.7205 104.742 47.7205 104.742C48.4135 104.138 49.3141 103.122 48.5151 102.206Z" fill="#58595B"/>
<path d="M45.4922 104.841C44.6932 103.924 34.1536 91.8319 33.5068 91.0897C32.86 90.3479 32.7191 89.779 32.9881 89.5445C33.2571 89.3101 33.8151 88.8238 33.8151 88.8238C33.8151 88.8238 33.6131 90.0753 34.4885 91.0792C35.3635 92.0834 45.3513 103.542 46.1121 104.415C46.8732 105.288 47.7206 104.742 47.7206 104.742C47.187 105.207 46.2912 105.757 45.4922 104.841Z" fill="#7E8081"/>
<path d="M97.9617 87.2098C96.9942 86.678 93.0779 84.5264 93.0779 84.5264C93.0779 84.5264 89.162 82.3745 88.1945 81.8426C87.227 81.3112 86.9893 80.7608 87.5717 79.7012C88.1541 78.6416 88.3059 78.365 88.3059 78.365L94.5718 81.8081L100.838 85.2511C100.838 85.2511 100.686 85.5274 100.103 86.587C99.5211 87.6466 98.9292 87.7416 97.9617 87.2098Z" fill="#603813"/>
<path d="M95.8208 86.0336C96.7133 86.5239 97.5738 86.9968 97.9611 87.2097C98.929 87.7415 99.5205 87.6469 100.103 86.5873C100.685 85.5273 100.837 85.251 100.837 85.251L97.7962 83.5803C97.7962 83.5803 97.081 84.8816 96.7395 85.5036C96.5164 85.9099 96.0902 86.0114 95.8208 86.0336Z" fill="#452500"/>
<path d="M138.418 96.821L110.06 81.2389C109.224 80.7795 108.916 79.7192 109.375 78.8831C109.835 78.047 110.895 77.7387 111.731 78.1981L140.088 93.7802C140.925 94.2399 141.233 95.2999 140.773 96.136C140.314 96.9724 139.254 97.2804 138.418 96.821Z" fill="#603813"/>
<path d="M110.284 64.7841C109.317 64.2523 105.401 62.1007 105.401 62.1007C105.401 62.1007 101.485 59.9487 100.517 59.4169C99.5496 58.8854 98.9577 58.9801 98.3753 60.0397C97.7929 61.0993 97.6411 61.3759 97.6411 61.3759L103.907 64.8186L110.173 68.2617C110.173 68.2617 110.325 67.9854 110.907 66.9258C111.489 65.8662 111.252 65.3159 110.284 64.7841Z" fill="#603813"/>
<path d="M109.54 69.4137L97.0079 62.5275C96.6912 62.3535 96.5748 61.9521 96.7487 61.6354C96.9227 61.3187 97.3242 61.2019 97.6409 61.3758L110.173 68.262C110.489 68.436 110.606 68.8375 110.432 69.1542C110.258 69.4708 109.856 69.5877 109.54 69.4137Z" fill="#603813"/>
<path d="M107.28 71.7257L96.2683 65.6753C95.9516 65.5009 95.8348 65.0994 96.0092 64.7828C96.1832 64.4661 96.5846 64.3492 96.9013 64.5232L107.913 70.574C108.229 70.748 108.346 71.1495 108.172 71.4662C107.998 71.7829 107.596 71.8997 107.28 71.7257Z" fill="#603813"/>
<path d="M103.274 65.9707L97.0313 62.5404C97.0313 62.5404 97.3953 63.4602 96.8257 64.4969L102.401 67.5603L107.975 70.6234C108.545 69.5867 109.517 69.401 109.517 69.401L103.274 65.9707Z" fill="#603813"/>
<path d="M101.47 84.0992L88.9383 77.2131C88.6216 77.0391 88.2201 77.1559 88.0461 77.4726C87.8721 77.7893 87.9886 78.1908 88.3056 78.3651L100.837 85.2509C101.154 85.4253 101.556 85.3084 101.73 84.9914C101.904 84.6747 101.787 84.2732 101.47 84.0992Z" fill="#603813"/>
<path d="M102.21 80.9517L91.1987 74.9013C90.882 74.7269 90.4805 74.8438 90.3065 75.1605C90.1322 75.4771 90.249 75.879 90.5657 76.053L101.577 82.1034C101.894 82.2777 102.295 82.1609 102.47 81.8442C102.644 81.5272 102.527 81.1257 102.21 80.9517Z" fill="#603813"/>
<path d="M110.923 82.3428L113.125 78.3345C113.299 78.0178 113.183 77.6163 112.866 77.4423C112.549 77.2679 112.148 77.3848 111.974 77.7015L109.771 81.7098C109.597 82.0265 109.714 82.4284 110.031 82.6024C110.347 82.7763 110.749 82.6595 110.923 82.3428Z" fill="#603813"/>
<path d="M95.2045 80.6562L88.9619 77.2259C88.9619 77.2259 89.9334 77.0402 90.5031 76.0036L96.0781 79.0666L101.653 82.13C101.083 83.1667 101.447 84.0865 101.447 84.0865L95.2045 80.6562Z" fill="#603813"/>
<path d="M96.2223 65.6498L94.3993 68.9669L92.9754 71.5586L91.1528 74.8757L102.256 80.9771L104.079 77.66L105.503 75.0683L107.326 71.7512L96.2223 65.6498Z" fill="#FDBC11"/>
<mask id="mask12_1_707" style="mask-type:luminance" maskUnits="userSpaceOnUse" x="99" y="70" width="9" height="11">
<path d="M99.4341 70.2003H107.326V80.9769H99.4341V70.2003Z" fill="white"/>
</mask>
<g mask="url(#mask12_1_707)">
<g opacity="0.0800018">
<path d="M104.504 70.2005L102.681 73.5177L101.257 76.1093L99.4341 79.4265L102.256 80.9771L104.079 77.66L105.503 75.0683L107.326 71.7512L104.504 70.2005Z" fill="#231F20"/>
</g>
</g>
<path d="M104.791 76.364L103.171 79.3128L109.798 81.6613L110.873 79.7059L111.947 77.7501L106.411 73.4153L104.791 76.364Z" fill="#603813"/>
<mask id="mask13_1_707" style="mask-type:luminance" maskUnits="userSpaceOnUse" x="91" y="66" width="7" height="10">
<path d="M91.936 66.0803H97.9384V75.8187H91.936V66.0803Z" fill="white"/>
</mask>
<g mask="url(#mask13_1_707)">
<g opacity="0.289993">
<path d="M92.869 75.8189L91.936 75.3064L97.0055 66.0805L97.9384 66.593L92.869 75.8189Z" fill="white"/>
</g>
</g>
<mask id="mask14_1_707" style="mask-type:luminance" maskUnits="userSpaceOnUse" x="93" y="66" width="9" height="12">
<path d="M93.4907 66.9345H101.428V77.7366H93.4907V66.9345Z" fill="white"/>
</mask>
<g mask="url(#mask14_1_707)">
<g opacity="0.289993">
<path d="M96.3587 77.7366L93.4907 76.1608L98.5602 66.9345L101.428 68.5106L96.3587 77.7366Z" fill="white"/>
</g>
</g>
<path d="M88.2744 81.8829C88.3159 81.9077 88.357 81.9321 88.4018 81.9565C88.7698 82.1588 89.5644 82.5956 90.4078 83.059C90.1868 82.6368 90.2837 82.1887 90.4704 81.8487C90.7361 81.365 91.4386 80.0866 91.4386 80.0866L89.4348 78.9851C89.4348 78.9851 88.6056 80.4943 88.3778 80.9089C88.234 81.1702 88.1564 81.5513 88.2744 81.8829Z" fill="#74451E"/>
<path d="M98.5161 83.2257C98.2314 83.7441 97.6235 83.4853 97.6235 83.4853L100.837 85.251C101.154 85.425 101.555 85.3082 101.729 84.9915C101.904 84.6748 101.787 84.2733 101.47 84.0993L98.3028 82.3587C98.3028 82.3587 98.8007 82.7074 98.5161 83.2257Z" fill="#452500"/>
<path d="M99.2558 80.0783C98.9712 80.5966 98.3633 80.3378 98.3633 80.3378L101.577 82.1036C101.894 82.2776 102.295 82.1607 102.469 81.844C102.644 81.5274 102.527 81.1259 102.21 80.9519L99.0425 79.2112C99.0425 79.2112 99.5408 79.5599 99.2558 80.0783Z" fill="#452500"/>
<path d="M89.4342 78.9853C89.4342 78.9853 88.9057 78.6646 89.2093 78.112C89.5132 77.5591 90.0672 77.8336 90.0672 77.8336L92.5337 79.1888C92.5337 79.1888 91.8676 79.0326 91.6397 79.4472C91.4118 79.8618 91.9007 80.3405 91.9007 80.3405L89.4342 78.9853Z" fill="#74451E"/>
<path d="M91.5682 76.6036C91.5682 76.6036 91.0393 76.2833 91.3432 75.7303C91.6472 75.1774 92.2012 75.4519 92.2012 75.4519L94.6676 76.807C94.6676 76.807 94.0015 76.6509 93.7736 77.0655C93.5458 77.4804 94.0346 77.9591 94.0346 77.9591L91.5682 76.6036Z" fill="#74451E"/>
<path d="M101.652 82.13L98.6393 80.4745C98.6364 80.4774 98.6313 80.4796 98.6283 80.4833C98.6283 80.4833 98.1329 81.386 98.1799 82.2912L101.447 84.0865C101.447 84.0865 101.083 83.1667 101.652 82.13Z" fill="#452500"/>
<path d="M92.399 79.1146C92.7884 78.8933 93.2813 78.4929 93.7425 77.7835L91.6364 76.6263C91.4704 76.9051 90.9987 77.5997 90.2539 77.936L92.399 79.1146Z" fill="#74451E"/>
<path d="M108.147 63.6022C109.039 64.0925 109.9 64.5653 110.287 64.7783C111.255 65.3101 111.492 65.8604 110.91 66.92C110.327 67.9796 110.176 68.2559 110.176 68.2559L107.135 66.5852C107.135 66.5852 107.85 65.2839 108.192 64.6618C108.415 64.2556 108.273 63.8417 108.147 63.6022Z" fill="#452500"/>
<path d="M100.597 59.4573C100.64 59.4791 100.683 59.5009 100.727 59.5253C101.095 59.7273 101.89 60.1641 102.733 60.6275C102.259 60.6676 101.932 60.9893 101.745 61.3293C101.48 61.8131 100.777 63.0914 100.777 63.0914L98.7729 61.9903C98.7729 61.9903 99.6021 60.4816 99.83 60.067C99.9738 59.8052 100.254 59.5355 100.597 59.4573Z" fill="#74451E"/>
<path d="M107.222 67.3827C107.506 66.8643 106.962 66.4901 106.962 66.4901L110.176 68.2563C110.493 68.4303 110.609 68.8317 110.435 69.1484C110.261 69.4651 109.86 69.5819 109.543 69.408L106.375 67.6673C106.375 67.6673 106.937 67.901 107.222 67.3827Z" fill="#452500"/>
<path d="M104.962 69.6947C105.246 69.1764 104.702 68.8022 104.702 68.8022L107.916 70.5683C108.232 70.7423 108.349 71.1438 108.175 71.4605C108.001 71.7772 107.599 71.894 107.283 71.72L104.115 69.9794C104.115 69.9794 104.677 70.2131 104.962 69.6947Z" fill="#452500"/>
<path d="M98.7728 61.9903C98.7728 61.9903 98.2188 61.7159 97.9148 62.2688C97.6113 62.8217 98.1398 63.142 98.1398 63.142L100.607 64.4976C100.607 64.4976 100.117 64.0189 100.345 63.6043C100.573 63.1897 101.239 63.3459 101.239 63.3459L98.7728 61.9903Z" fill="#74451E"/>
<path d="M97.9066 65.0682C97.9066 65.0682 97.3526 64.7938 97.0486 65.3467C96.7451 65.8996 97.2736 66.2199 97.2736 66.2199L99.7404 67.5754C99.7404 67.5754 99.2512 67.0968 99.4791 66.6822C99.7069 66.2676 100.373 66.4237 100.373 66.4237L97.9066 65.0682Z" fill="#74451E"/>
<path d="M107.979 70.6177L104.965 68.9618C104.966 68.9575 104.966 68.952 104.967 68.948C104.967 68.948 105.464 68.0457 106.253 67.6001L109.52 69.3954C109.52 69.3954 108.548 69.581 107.979 70.6177Z" fill="#452500"/>
<path d="M100.472 64.4233C100.494 64.871 100.42 65.5014 100.069 66.2713L97.9624 65.1138C98.1087 64.824 98.4425 64.0534 98.3268 63.2446L100.472 64.4233Z" fill="#74451E"/>
<path d="M103.171 79.3127L109.798 81.6616L110.711 79.9995L104.345 77.176L103.171 79.3127Z" fill="#452500"/>
<path d="M105.294 75.4484L111.097 79.2969L111.502 78.5598L106.003 74.1583L105.294 75.4484Z" fill="#74451E"/>
<path d="M110.031 82.6023C110.347 82.7763 110.749 82.6598 110.923 82.3427L111.502 81.289C111.502 81.289 111.117 81.6621 110.679 81.4218C110.242 81.1812 110.35 80.656 110.35 80.656L109.771 81.7101C109.597 82.0268 109.714 82.4283 110.031 82.6023Z" fill="#452500"/>
<path d="M111.363 78.8131C111.363 78.8131 111.636 78.5885 112.097 78.8415C112.558 79.0948 112.514 79.4461 112.514 79.4461L113.002 78.559C113.002 78.559 112.932 78.2504 112.54 78.0352C112.148 77.8201 111.837 77.9493 111.837 77.9493L111.363 78.8131Z" fill="#74451E"/>
<path d="M138.418 96.821C139.229 97.2665 140.248 96.9884 140.729 96.2087C140.025 96.2626 139.135 95.9328 137.899 95.254C136.194 94.317 111.73 80.8741 111.73 80.8741L111.114 81.818L138.418 96.821Z" fill="#452500"/>
<path d="M139.371 93.9936L112.604 79.2847L112.072 80.2522L138.84 94.9607C139.715 95.4419 140.728 96.2085 140.728 96.2085C140.728 96.2085 140.984 94.8795 139.371 93.9936Z" fill="#74451E"/>
<path d="M103.444 87.6468H94.0649H84.685C83.7401 87.6468 83.9151 89.2458 83.9151 89.2458H94.0649H104.214C104.214 89.2458 104.389 87.6468 103.444 87.6468Z" fill="#603813"/>
<path d="M105.405 89.2459H94.065H82.7253C81.5354 89.2459 81.1855 90.5389 81.1855 91.3233V95.6625H94.065H106.945V91.3233C106.945 90.5389 106.595 89.2459 105.405 89.2459Z" fill="#603813"/>
<path d="M107.183 95.6626H94.0651H80.9476C80.0529 95.6626 79.8047 96.3746 79.8047 97.0054H94.0651H108.326C108.326 96.3746 108.077 95.6626 107.183 95.6626Z" fill="#603813"/>
<path d="M101.131 97.0056H108.325C108.325 96.3747 108.077 95.6628 107.183 95.6628H99.0854C99.0854 95.6628 100.787 95.8226 101.131 97.0056Z" fill="#452500"/>
<path d="M100.452 91.4332V95.6625H106.944V91.3233C106.944 90.5389 106.594 89.2459 105.405 89.2459H97.9287C97.9287 89.2459 100.452 89.4618 100.452 91.4332Z" fill="#452500"/>
<path d="M103.444 87.6468H97.7827C98.1937 87.8565 98.7073 88.3038 98.8871 89.2458H104.214C104.214 89.2458 104.389 87.6468 103.444 87.6468Z" fill="#452500"/>
<path d="M82.5002 95.6626C81.9335 96.0375 81.8039 96.676 81.7773 97.0054H86.4795C86.5436 96.3039 86.9185 95.889 87.2282 95.6626H82.5002Z" fill="#74451E"/>
<path d="M87.5525 91.3544C87.5525 90.2281 88.4087 89.5358 88.8673 89.2457H84.2401C83.6898 89.5442 83.0972 90.2281 83.0972 91.2164V95.6627H87.5525V91.3544Z" fill="#74451E"/>
<path d="M84.8418 89.2459H88.8978C88.9943 88.4717 89.3117 87.9672 89.6335 87.6469H85.2571C84.9281 88.036 84.8524 88.7603 84.8418 89.2459Z" fill="#74451E"/>
</g>
</g>
<path d="M9.11328 133.17H8.76172L8.41016 133.158H6.66406C3.89062 133.158 2.39453 133.139 2.17578 133.1C1.76953 133.03 1.56641 132.858 1.56641 132.584C1.56641 132.467 1.77734 132.26 2.19922 131.963C2.62891 131.666 2.90625 131.24 3.03125 130.686C3.16406 130.123 3.23047 128.069 3.23047 124.522C3.23047 120.975 3.18359 119.049 3.08984 118.744C3.00391 118.432 2.77734 118.198 2.41016 118.041C1.83203 117.791 1.54297 117.526 1.54297 117.244C1.54297 116.963 1.98047 116.823 2.85547 116.823H3.55859L3.89844 116.834L4.95312 116.846C6.84375 116.846 7.78906 116.987 7.78906 117.268C7.78906 117.362 7.51172 117.678 6.95703 118.217C6.64453 118.522 6.41797 119.045 6.27734 119.787C6.14453 120.522 6.07812 122.487 6.07812 125.682C6.07812 128.877 6.125 130.623 6.21875 130.92C6.32031 131.217 6.55078 131.424 6.91016 131.541C7.12891 131.612 7.55859 131.647 8.19922 131.647C9.58203 131.647 10.6172 131.467 11.3047 131.108C11.6953 130.905 12.1172 130.487 12.5703 129.854C13.0234 129.221 13.375 128.905 13.625 128.905C13.8828 128.905 14.0117 129.069 14.0117 129.397V129.701C14.0117 131.42 13.8008 132.471 13.3789 132.854C13.1445 133.065 11.7227 133.17 9.11328 133.17ZM22.8477 125.53V125.166C22.8477 124.588 22.6406 124.069 22.2266 123.608C21.8125 123.139 21.3047 122.905 20.7031 122.905H20.4805C20.3711 122.92 20.2969 122.928 20.2578 122.928C19.7109 122.928 19.1914 123.24 18.6992 123.865C18.2148 124.49 17.9727 125.158 17.9727 125.869V126.022C17.9727 126.272 18.1211 126.397 18.418 126.397C18.5352 126.42 18.5977 126.432 18.6055 126.432L18.875 126.444H18.9453L19.0273 126.432L21.2891 126.303L21.7109 126.256C22.4688 126.256 22.8477 126.014 22.8477 125.53ZM17.9727 128.635C17.9727 129.526 18.3086 130.272 18.9805 130.873C19.6523 131.475 20.5039 131.776 21.5352 131.776C21.9492 131.776 22.3242 131.717 22.6602 131.6C23.0039 131.475 23.375 131.326 23.7734 131.155C24.1797 130.983 24.4336 130.897 24.5352 130.897C24.8477 130.897 25.0039 131.065 25.0039 131.401C25.0039 131.854 24.4258 132.338 23.2695 132.854C22.5195 133.19 21.7148 133.358 20.8555 133.358H20.5977C19.1289 133.358 17.9102 132.912 16.9414 132.022C16.418 131.537 16.0117 130.92 15.7227 130.17C15.4336 129.412 15.2891 128.6 15.2891 127.733L15.3008 127.463V127.194C15.3008 126.444 15.4727 125.705 15.8164 124.979C16.168 124.252 16.5859 123.655 17.0703 123.186C18.0938 122.201 19.3086 121.705 20.7148 121.698C22.8398 121.698 24.2539 122.526 24.957 124.182C25.1758 124.705 25.2852 125.186 25.2852 125.623V125.858C25.2852 126.397 25.0625 126.76 24.6172 126.948C24.1719 127.127 23.1211 127.276 21.4648 127.393C19.8086 127.51 18.9102 127.588 18.7695 127.627C18.2383 127.76 17.9727 128.096 17.9727 128.635ZM32.3164 122.448H32.0117C31.5977 122.448 31.1953 122.686 30.8047 123.162C30.4141 123.639 30.2188 124.194 30.2188 124.826L30.1953 125.014L30.1836 125.307V125.612L30.1953 125.705C30.1953 126.518 30.3711 127.174 30.7227 127.674C31.0742 128.174 31.5977 128.424 32.293 128.424H32.375C32.9141 128.424 33.375 128.213 33.7578 127.791C34.1406 127.369 34.332 126.811 34.332 126.115V125.658C34.3086 125.471 34.2969 125.319 34.2969 125.201C34.2969 124.459 34.0898 123.815 33.6758 123.268C33.2695 122.721 32.8164 122.448 32.3164 122.448ZM31.2734 132.865C30.7266 132.865 30.2617 133.057 29.8789 133.44C29.4961 133.823 29.3047 134.303 29.3047 134.881V134.975C29.3047 135.639 29.5664 136.162 30.0898 136.545C30.6133 136.928 31.3281 137.119 32.2344 137.119H32.5391C33.6328 137.119 34.5117 136.869 35.1758 136.369C35.8398 135.869 36.1719 135.283 36.1719 134.612L36.1602 134.518C36.1602 134.073 35.9766 133.713 35.6094 133.44C35.2422 133.174 34.8086 133.041 34.3086 133.041C33.9961 133.002 33.7695 132.983 33.6289 132.983L33.2305 132.948H33.0312L32.3281 132.901L31.8477 132.865H31.2734ZM38.4805 122.319C38.4805 122.764 38.1992 123.049 37.6367 123.174C37.0742 123.291 36.793 123.522 36.793 123.865L36.8281 124.112L36.875 124.393L36.9336 124.698C36.9727 124.955 36.9922 125.319 36.9922 125.787C36.9922 126.256 36.8594 126.74 36.5938 127.24C35.8516 128.623 34.4219 129.381 32.3047 129.514C31.625 129.561 31.1914 129.619 31.0039 129.69C30.5977 129.846 30.3945 130.108 30.3945 130.475C30.3945 130.842 30.6953 131.1 31.2969 131.248C31.3828 131.272 32.1602 131.346 33.6289 131.471C35.0977 131.588 36.0781 131.772 36.5703 132.022C37.6094 132.537 38.1289 133.283 38.1289 134.26C38.1289 135.541 37.5547 136.584 36.4062 137.389C35.2656 138.194 33.7695 138.596 31.918 138.596C30.6133 138.596 29.5273 138.346 28.6602 137.846C28.2617 137.619 27.9375 137.323 27.6875 136.955C27.4453 136.596 27.3242 136.221 27.3242 135.83C27.3242 135.135 27.5312 134.557 27.9453 134.096C28.6094 133.362 28.9414 132.971 28.9414 132.924C28.9414 132.877 28.7969 132.67 28.5078 132.303C28.2188 131.936 28.0742 131.553 28.0742 131.155C28.0742 130.756 28.2617 130.326 28.6367 129.865C29.0195 129.397 29.2109 129.135 29.2109 129.08C29.2109 129.026 28.9766 128.627 28.5078 127.885C28.0391 127.135 27.8047 126.424 27.8047 125.752C27.8047 125.08 27.9492 124.483 28.2383 123.959C29.0586 122.467 30.5859 121.721 32.8203 121.721H33.1602L34.7891 121.826L35.3867 121.85C35.5898 121.858 35.7969 121.862 36.0078 121.862L37.25 121.78C38.0703 121.78 38.4805 121.959 38.4805 122.319ZM46.4023 127.721H46.2031C45.1797 127.721 44.3242 127.951 43.6367 128.412C42.957 128.865 42.6172 129.432 42.6172 130.112V130.346C42.6172 130.744 42.7383 131.104 42.9805 131.424C43.2305 131.737 43.5508 131.893 43.9414 131.893L44.082 131.916H44.4336C45.2461 131.916 45.9102 131.584 46.4258 130.92C46.6523 130.631 46.7656 130.037 46.7656 129.139C46.7656 129.069 46.7656 128.998 46.7656 128.928L46.7773 128.647V128.365C46.7773 127.936 46.6523 127.721 46.4023 127.721ZM40.707 123.936C40.707 123.358 41.1641 122.842 42.0781 122.389C43 121.928 43.9531 121.698 44.9375 121.698C44.9688 121.698 45 121.698 45.0312 121.698C45.9688 121.698 46.7188 121.811 47.2812 122.037C48.4219 122.49 49.0742 123.451 49.2383 124.92C49.2539 125.069 49.2617 126.053 49.2617 127.873C49.2617 129.686 49.3086 130.748 49.4023 131.061C49.5039 131.373 49.7695 131.604 50.1992 131.752C50.6367 131.901 50.8555 132.041 50.8555 132.174C50.8555 132.455 50.7148 132.67 50.4336 132.819C49.8711 133.115 49.3164 133.264 48.7695 133.264C48.2305 133.264 47.8281 133.139 47.5625 132.889C47.0859 132.444 46.832 132.221 46.8008 132.221C46.7695 132.221 46.3281 132.42 45.4766 132.819C44.625 133.209 43.8789 133.405 43.2383 133.405C42.2773 133.405 41.5234 133.139 40.9766 132.608C40.4297 132.076 40.1562 131.432 40.1562 130.674V130.381C40.1562 129.569 40.5078 128.854 41.2109 128.237C41.9141 127.619 43.1797 127.139 45.0078 126.795C45.6719 126.67 46.0898 126.553 46.2617 126.444C46.6055 126.225 46.7773 125.78 46.7773 125.108C46.7773 124.436 46.5977 123.92 46.2383 123.561C45.8789 123.201 45.3984 123.022 44.7969 123.022C44.1953 123.022 43.6133 123.373 43.0508 124.076C42.4961 124.772 41.9883 125.119 41.5273 125.119C40.9805 125.119 40.707 124.725 40.707 123.936ZM52.6719 132.737C52.6719 132.573 52.8477 132.362 53.1992 132.104C53.5586 131.846 53.8008 131.444 53.9258 130.897C54.0508 130.342 54.1133 128.248 54.1133 124.615C54.1133 120.983 54.0703 118.924 53.9844 118.44C53.9062 117.955 53.707 117.608 53.3867 117.397C52.8711 117.061 52.6133 116.854 52.6133 116.776V116.635C52.6133 116.502 52.7266 116.385 52.9531 116.283C53.6562 115.979 54.5938 115.826 55.7656 115.826H56C56.3984 115.826 56.6289 116.096 56.6914 116.635C56.6992 116.705 56.7031 117.295 56.7031 118.405V120.924L56.6914 121.405V122.143L56.6797 122.623C56.6797 122.623 56.6797 123.862 56.6797 126.338C56.6797 128.651 56.7148 130.084 56.7852 130.639C56.8633 131.186 57.0391 131.584 57.3125 131.834C57.3438 131.858 57.5078 131.959 57.8047 132.139C58.1016 132.319 58.25 132.502 58.25 132.69C58.25 132.963 57.7656 133.1 56.7969 133.1L56.3164 133.123H55.8359L53.9141 133.158H53.668C53.0039 133.158 52.6719 133.018 52.6719 132.737ZM75.207 126.198V126.127C75.207 125.393 74.5781 123.557 73.3203 120.619C73.1016 120.112 72.9883 119.858 72.9805 119.858L72.6406 120.643C71.3438 123.666 70.6953 125.502 70.6953 126.151C70.6953 126.26 70.7617 126.319 70.8945 126.326C71.0352 126.334 71.1406 126.338 71.2109 126.338L72.125 126.362H72.957L73.0391 126.35C74.4844 126.35 75.207 126.299 75.207 126.198ZM65.4336 132.444C65.4336 132.248 65.6562 132.022 66.1016 131.764C66.5469 131.506 66.875 131.178 67.0859 130.78C67.2969 130.381 67.5938 129.662 67.9766 128.623C68.3594 127.576 68.8789 126.26 69.5352 124.674C70.1992 123.088 70.7227 121.666 71.1055 120.408C71.4961 119.143 71.7617 118.342 71.9023 118.006C72.2227 117.24 72.6758 116.858 73.2617 116.858H73.5898C73.7383 116.858 73.9219 116.94 74.1406 117.104C74.5859 117.44 75.0508 118.158 75.5352 119.26C75.6992 119.635 75.9453 120.28 76.2734 121.194C76.6016 122.1 77.2578 123.877 78.2422 126.526C79.2266 129.174 79.7773 130.615 79.8945 130.85C80.0898 131.256 80.4219 131.584 80.8906 131.834C81.3594 132.076 81.5938 132.272 81.5938 132.42C81.5938 132.748 81.3984 132.951 81.0078 133.03C80.7422 133.084 80.0703 133.112 78.9922 133.112L78.3125 133.123C76.8672 133.123 76.1445 132.928 76.1445 132.537C76.1445 132.467 76.2344 132.299 76.4141 132.033C76.6016 131.768 76.6953 131.432 76.6953 131.026C76.6953 130.619 76.5469 130.037 76.25 129.28C75.9609 128.522 75.7148 128.053 75.5117 127.873C75.3164 127.694 74.4688 127.604 72.9688 127.604C71.4688 127.604 70.5938 127.686 70.3438 127.85C70.0938 128.014 69.8242 128.455 69.5352 129.174C69.2461 129.893 69.1016 130.479 69.1016 130.932C69.1016 131.377 69.2383 131.772 69.5117 132.115C69.793 132.459 69.9336 132.639 69.9336 132.655C69.9336 132.936 69.4531 133.076 68.4922 133.076C67.5391 133.076 66.7891 133.041 66.2422 132.971C65.7031 132.893 65.4336 132.717 65.4336 132.444ZM87.4883 118.1C87.4883 118.444 87.3398 118.764 87.043 119.061C86.7539 119.35 86.4648 119.494 86.1758 119.494C86.1133 119.51 86.0625 119.518 86.0234 119.518L85.7656 119.541C85.375 119.541 85.0234 119.412 84.7109 119.155C84.4062 118.897 84.2539 118.565 84.2539 118.158V117.948C84.2539 117.541 84.4141 117.201 84.7344 116.928C85.0625 116.647 85.4375 116.506 85.8594 116.506H85.918L86.3164 116.553C86.5586 116.553 86.8086 116.686 87.0664 116.951C87.332 117.209 87.4648 117.471 87.4648 117.737L87.4883 117.842V118.1ZM83.7617 123.326C83.3555 123.131 83.1523 122.948 83.1523 122.776C83.1523 122.604 83.2344 122.467 83.3984 122.365C83.9688 122.022 84.8711 121.85 86.1055 121.85H86.4453C86.8672 121.85 87.1055 122.045 87.1602 122.436C87.1914 122.647 87.207 124.069 87.207 126.701C87.207 129.326 87.2617 130.834 87.3711 131.225C87.4805 131.608 87.7422 131.905 88.1562 132.115C88.5703 132.319 88.7773 132.526 88.7773 132.737C88.7773 133.033 87.8086 133.182 85.8711 133.182L85.5195 133.194H84.0898C83.5195 133.194 83.2344 133.053 83.2344 132.772C83.2344 132.537 83.4062 132.311 83.75 132.092C84.1016 131.873 84.3438 131.631 84.4766 131.365C84.625 131.076 84.6992 130.401 84.6992 129.338L84.7109 128.963V128.6L84.7227 128.049V127.686L84.7344 127.323C84.7344 125.471 84.6719 124.393 84.5469 124.088C84.4297 123.776 84.168 123.522 83.7617 123.326ZM98.4453 125.119C98.4453 124.487 98.2422 123.983 97.8359 123.608C97.4297 123.225 96.8906 123.033 96.2188 123.033H95.9961C95.6445 123.033 95.2695 123.139 94.8711 123.35C94.4727 123.561 94.1445 123.865 93.8867 124.264C93.3711 125.061 93.1133 126.049 93.1133 127.229V127.92C93.1133 129.092 93.375 130.061 93.8984 130.826C94.4297 131.592 95.0742 131.975 95.832 131.975H96.1719C96.8359 131.975 97.3789 131.748 97.8008 131.295C98.2227 130.842 98.4336 130.264 98.4336 129.561L98.457 129.315V129.069L98.4805 128.459C98.4805 128.084 98.4805 127.709 98.4805 127.334L98.4922 126.959V126.596L98.4805 126.467V125.846L98.4688 125.729V125.483C98.4531 125.326 98.4453 125.205 98.4453 125.119ZM98.5039 121.803C98.5742 121.631 98.6094 121.115 98.6094 120.256C98.6094 119.397 98.543 118.768 98.4102 118.369C98.2773 117.963 98.043 117.631 97.707 117.373C97.3789 117.108 97.2148 116.908 97.2148 116.776C97.2148 116.643 97.3047 116.526 97.4844 116.424C97.9688 116.143 98.7578 116.002 99.8516 116.002H100.133C100.68 116.002 100.992 116.295 101.07 116.881C101.094 117.061 101.105 119.295 101.105 123.584C101.105 127.865 101.137 130.217 101.199 130.639C101.262 131.053 101.41 131.377 101.645 131.612C101.691 131.658 101.84 131.78 102.09 131.975C102.348 132.162 102.477 132.33 102.477 132.479C102.477 132.619 102.367 132.748 102.148 132.865C101.703 133.108 100.977 133.229 99.9688 133.229C99.6172 133.229 99.3359 133.123 99.125 132.912C98.7109 132.498 98.4844 132.291 98.4453 132.291C98.4141 132.291 98.2383 132.381 97.918 132.561C97.5977 132.74 97.2109 132.924 96.7578 133.112C96.3125 133.291 95.7578 133.381 95.0938 133.381C94.4297 133.381 93.8164 133.237 93.2539 132.948C92.2148 132.416 91.4844 131.537 91.0625 130.311C90.8125 129.576 90.6875 128.772 90.6875 127.897C90.6875 126.131 91.1914 124.694 92.1992 123.584C93.2148 122.475 94.6133 121.92 96.3945 121.92L97.9297 122.061C98.2422 122.061 98.4336 121.975 98.5039 121.803ZM112.027 126.115V126.549C112.027 127.041 111.883 127.323 111.594 127.393C111.305 127.455 110.188 127.487 108.242 127.487H107.973L107.703 127.498H107.27L107.094 127.51H106.566L106.484 127.522H106.133L105.875 127.533H105.289C105.016 127.533 104.879 127.393 104.879 127.112V126.666C104.879 126.174 105.039 125.893 105.359 125.823C105.562 125.776 106.664 125.752 108.664 125.752L110.938 125.705H111.535C111.863 125.705 112.027 125.842 112.027 126.115ZM119.539 118.135C119.188 118.135 118.973 118.268 118.895 118.533C118.848 118.698 118.824 119.436 118.824 120.748V123.022C118.824 123.506 118.867 123.807 118.953 123.924C119.039 124.033 119.305 124.088 119.75 124.088H120.242L120.348 124.076L121.051 124.041C121.121 124.033 121.188 124.03 121.25 124.03C122 124.03 122.629 123.752 123.137 123.198C123.645 122.643 123.898 121.971 123.898 121.182V120.865C123.898 120.061 123.621 119.408 123.066 118.908C122.52 118.401 121.848 118.147 121.051 118.147L120.84 118.123L120.535 118.112H119.832C119.707 118.127 119.609 118.135 119.539 118.135ZM120.945 125.295H119.938C119.336 125.295 118.996 125.377 118.918 125.541C118.848 125.705 118.812 126.201 118.812 127.03V130.393C118.812 131.119 118.898 131.565 119.07 131.729C119.25 131.885 119.742 131.963 120.547 131.963H121.238C122.27 131.963 123.105 131.694 123.746 131.155C124.387 130.608 124.707 129.889 124.707 128.998V128.389C124.707 127.428 124.355 126.674 123.652 126.127C122.949 125.573 122.047 125.295 120.945 125.295ZM120.676 116.858C123.457 116.858 125.242 117.588 126.031 119.049C126.312 119.565 126.453 120.158 126.453 120.83C126.453 121.494 126.293 122.08 125.973 122.588C125.66 123.096 125.379 123.451 125.129 123.655C124.887 123.85 124.637 124.026 124.379 124.182C124.129 124.33 124.004 124.428 124.004 124.475C124.004 124.522 124.316 124.705 124.941 125.026C125.574 125.338 126.074 125.709 126.441 126.139C127.098 126.92 127.426 127.725 127.426 128.553V128.858C127.426 130.233 126.863 131.326 125.738 132.139C125.332 132.436 124.762 132.698 124.027 132.924C123.301 133.143 122.434 133.252 121.426 133.252H120.184L119.879 133.24C119.676 133.233 119.469 133.229 119.258 133.229L118.953 133.217C118.75 133.209 118.547 133.205 118.344 133.205L118.039 133.194C117.836 133.186 117.633 133.182 117.43 133.182H116.527C115.168 133.182 114.488 133.053 114.488 132.795C114.488 132.53 114.695 132.283 115.109 132.057C115.531 131.823 115.805 131.428 115.93 130.873C116.062 130.311 116.129 129.006 116.129 126.959V123.104L116.105 121.885C116.098 121.682 116.094 121.198 116.094 120.432C116.094 119.666 116.02 119.131 115.871 118.826C115.73 118.514 115.445 118.256 115.016 118.053C114.586 117.85 114.371 117.67 114.371 117.514C114.371 117.287 114.48 117.135 114.699 117.057C114.918 116.971 115.59 116.928 116.715 116.928L119.434 116.858H120.676ZM132.301 127.112V127.545C132.301 128.873 132.559 129.975 133.074 130.85C133.316 131.264 133.625 131.592 134 131.834C134.375 132.076 134.754 132.198 135.137 132.198H135.371C136.082 132.198 136.695 131.854 137.211 131.166C137.734 130.471 137.996 129.487 137.996 128.213V127.381C137.996 126.123 137.734 125.057 137.211 124.182C136.695 123.299 136.039 122.858 135.242 122.858H134.879C134.16 122.858 133.551 123.244 133.051 124.018C132.551 124.791 132.301 125.823 132.301 127.112ZM140.82 127.158V127.744C140.82 128.362 140.695 129.037 140.445 129.772C139.922 131.303 138.879 132.373 137.316 132.983C136.637 133.248 135.98 133.381 135.348 133.381H134.961C133.469 133.381 132.223 132.881 131.223 131.881C130.77 131.428 130.402 130.83 130.121 130.088C129.84 129.346 129.699 128.557 129.699 127.721V127.522C129.699 126.764 129.832 125.998 130.098 125.225C130.613 123.717 131.625 122.67 133.133 122.084C133.812 121.819 134.465 121.686 135.09 121.686H135.676C136.371 121.686 137.055 121.842 137.727 122.155C139 122.748 139.887 123.694 140.387 124.99C140.676 125.756 140.82 126.479 140.82 127.158ZM147.898 131.6L149.68 131.33C149.883 131.33 149.984 131.49 149.984 131.811C149.984 132.123 149.684 132.448 149.082 132.783C148.48 133.119 147.848 133.287 147.184 133.287H146.949C146.426 133.287 145.953 133.151 145.531 132.877C145.109 132.604 144.801 132.268 144.605 131.869C144.27 131.174 144.102 129.858 144.102 127.92C144.102 125.975 144.031 124.76 143.891 124.276C143.758 123.791 143.582 123.459 143.363 123.28C142.957 122.951 142.754 122.772 142.754 122.74C142.754 122.537 142.859 122.365 143.07 122.225C143.609 121.865 143.902 121.662 143.949 121.615C144.004 121.561 144.305 120.92 144.852 119.694C145.125 119.084 145.434 118.78 145.777 118.78C146.129 118.78 146.363 118.905 146.48 119.155C146.512 119.217 146.578 119.557 146.68 120.174C146.789 120.791 146.941 121.19 147.137 121.369C147.332 121.541 147.766 121.709 148.438 121.873C149.109 122.03 149.445 122.256 149.445 122.553C149.445 122.85 149.074 123.073 148.332 123.221C147.59 123.369 147.141 123.561 146.984 123.795C146.711 124.194 146.574 125.319 146.574 127.17C146.574 129.022 146.66 130.19 146.832 130.674C147.051 131.291 147.406 131.6 147.898 131.6Z" fill="#E4E2D6"/>
</svg>
