<svg width="139" height="112" viewBox="0 0 139 112" fill="none" xmlns="http://www.w3.org/2000/svg">
<mask id="mask0_131_1893" style="mask-type:alpha" maskUnits="userSpaceOnUse" x="0" y="0" width="139" height="112">
<rect x="0.5" y="0.146729" width="138" height="111" fill="#D9D9D9"/>
</mask>
<g mask="url(#mask0_131_1893)">
<mask id="mask1_131_1893" style="mask-type:luminance" maskUnits="userSpaceOnUse" x="-25" y="-15" width="183" height="183">
<path d="M-24.5 -14.8533H157.5V167.147H-24.5V-14.8533Z" fill="white"/>
</mask>
<g mask="url(#mask1_131_1893)">
<mask id="mask2_131_1893" style="mask-type:luminance" maskUnits="userSpaceOnUse" x="34" y="74" width="52" height="28">
<path d="M34.4501 74.5429H85.9008V101.082H34.4501V74.5429Z" fill="white"/>
</mask>
<g mask="url(#mask2_131_1893)">
<g opacity="0.190002">
<path d="M37.5918 88.5895C37.5918 88.5895 30.5236 92.4227 37.5918 94.7498C44.6599 97.0765 58.9837 100.898 63.3786 101.08C67.7739 101.262 85.9008 80.3405 85.9008 80.3405L72.5078 74.5427L37.5918 88.5895Z" fill="#231F20"/>
</g>
</g>
<mask id="mask3_131_1893" style="mask-type:luminance" maskUnits="userSpaceOnUse" x="14" y="93" width="24" height="7">
<path d="M14.2241 93.0487H37.5121V99.564H14.2241V93.0487Z" fill="white"/>
</mask>
<g mask="url(#mask3_131_1893)">
<g opacity="0.190002">
<path d="M37.5123 96.3064C37.5123 98.1057 32.2991 99.5642 25.8683 99.5642C19.4375 99.5642 14.2243 98.1057 14.2243 96.3064C14.2243 94.5072 19.4375 93.0486 25.8683 93.0486C32.2991 93.0486 37.5123 94.5072 37.5123 96.3064Z" fill="#231F20"/>
</g>
</g>
<mask id="mask4_131_1893" style="mask-type:luminance" maskUnits="userSpaceOnUse" x="7" y="82" width="25" height="7">
<path d="M7.92682 82.0741H31.2149V88.5897H7.92682V82.0741Z" fill="white"/>
</mask>
<g mask="url(#mask4_131_1893)">
<g opacity="0.190002">
<path d="M31.2148 85.3318C31.2148 87.1311 26.0016 88.5896 19.5708 88.5896C13.14 88.5896 7.92645 87.1311 7.92645 85.3318C7.92645 83.5325 13.14 82.074 19.5708 82.074C26.0016 82.074 31.2148 83.5325 31.2148 85.3318Z" fill="#231F20"/>
</g>
</g>
<mask id="mask5_131_1893" style="mask-type:luminance" maskUnits="userSpaceOnUse" x="71" y="94" width="36" height="6">
<path d="M71.2233 94.75H106.072V99.0103H71.2233V94.75Z" fill="white"/>
</mask>
<g mask="url(#mask5_131_1893)">
<g opacity="0.190002">
<path d="M106.072 96.8801C106.072 98.0566 98.2705 99.0103 88.6474 99.0103C79.0243 99.0103 71.2231 98.0566 71.2231 96.8801C71.2231 95.7037 79.0243 94.75 88.6474 94.75C98.2705 94.75 106.072 95.7037 106.072 96.8801Z" fill="#231F20"/>
</g>
</g>
<mask id="mask6_131_1893" style="mask-type:luminance" maskUnits="userSpaceOnUse" x="37" y="73" width="36" height="5">
<path d="M37.6592 73.4586H72.5075V77.7192H37.6592V73.4586Z" fill="white"/>
</mask>
<g mask="url(#mask6_131_1893)">
<g opacity="0.190002">
<path d="M72.5074 75.5886C72.5074 76.7651 64.7062 77.7188 55.0831 77.7188C45.4601 77.7188 37.6588 76.7651 37.6588 75.5886C37.6588 74.4122 45.4601 73.4585 55.0831 73.4585C64.7062 73.4585 72.5074 74.4122 72.5074 75.5886Z" fill="#231F20"/>
</g>
</g>
<mask id="mask7_131_1893" style="mask-type:luminance" maskUnits="userSpaceOnUse" x="36" y="103" width="8" height="4">
<path d="M36.6345 103.832H43.3947V106.84H36.6345V103.832Z" fill="white"/>
</mask>
<g mask="url(#mask7_131_1893)">
<g opacity="0.190002">
<path d="M43.3947 105.336C43.3947 106.167 41.8812 106.84 40.0146 106.84C38.1477 106.84 36.6345 106.167 36.6345 105.336C36.6345 104.505 38.1477 103.832 40.0146 103.832C41.8812 103.832 43.3947 104.505 43.3947 105.336Z" fill="#231F20"/>
</g>
</g>
<mask id="mask8_131_1893" style="mask-type:luminance" maskUnits="userSpaceOnUse" x="130" y="95" width="8" height="4">
<path d="M130.251 95.5759H137.012V98.584H130.251V95.5759Z" fill="white"/>
</mask>
<g mask="url(#mask8_131_1893)">
<g opacity="0.190002">
<path d="M137.011 97.0797C137.011 97.9103 135.498 98.5837 133.631 98.5837C131.764 98.5837 130.251 97.9103 130.251 97.0797C130.251 96.249 131.764 95.5756 133.631 95.5756C135.498 95.5756 137.011 96.249 137.011 97.0797Z" fill="#231F20"/>
</g>
</g>
<path d="M43.0443 53.5913C42.9875 53.5913 42.9344 53.556 42.9144 53.4996L32.924 25.4436L22.9337 53.4996C22.9082 53.5713 22.8292 53.6088 22.7575 53.5833C22.6858 53.5578 22.6483 53.4788 22.6741 53.4071L32.7941 24.9864C32.8334 24.8764 33.0146 24.8764 33.0536 24.9864L43.1742 53.4071C43.1997 53.4788 43.1622 53.5578 43.0905 53.5833C43.0752 53.5888 43.0596 53.5913 43.0443 53.5913Z" fill="#FDBD10"/>
<path d="M32.924 53.3131H22.4531C22.4531 53.3131 23.3879 57.2865 26.5914 57.2865H32.924H39.2565C42.4597 57.2865 43.3948 53.3131 43.3948 53.3131H32.924Z" fill="#F9A31A"/>
<path d="M43.3947 53.3131H39.355C38.3336 57.1329 33.4717 57.2865 33.4717 57.2865H39.2567C42.4599 57.2865 43.3947 53.3131 43.3947 53.3131Z" fill="#F68C1E"/>
<path d="M26.6379 57.2864H29.2696C28.6315 56.534 27.6895 55.1442 27.4817 53.313H24.2806C24.5081 54.247 25.1404 56.1758 26.6379 57.2864Z" fill="#FDBD10"/>
<path d="M105.82 53.5913C105.763 53.5913 105.71 53.556 105.69 53.4996L95.6997 25.4436L85.7094 53.4996C85.6839 53.5713 85.6049 53.6088 85.5332 53.5833C85.4615 53.5578 85.424 53.4788 85.4498 53.4071L95.5698 24.9864C95.6091 24.8764 95.7903 24.8764 95.8293 24.9864L105.95 53.4071C105.975 53.4788 105.938 53.5578 105.866 53.5833C105.851 53.5888 105.835 53.5913 105.82 53.5913Z" fill="#FDBD10"/>
<path d="M95.6996 53.3131H85.2288C85.2288 53.3131 86.1635 57.2865 89.3671 57.2865H95.6996H102.032C105.236 57.2865 106.17 53.3131 106.17 53.3131H95.6996Z" fill="#F9A31A"/>
<path d="M106.17 53.3131H102.131C101.109 57.1329 96.2474 57.2865 96.2474 57.2865H102.032C105.236 57.2865 106.17 53.3131 106.17 53.3131Z" fill="#F68C1E"/>
<path d="M89.4136 57.2864H92.0453C91.4072 56.534 90.4652 55.1442 90.2574 53.313H87.0563C87.2838 54.247 87.9161 56.1758 89.4136 57.2864Z" fill="#FDBD10"/>
<path d="M65.8535 55.5425H62.7697V14.8691H65.8535V55.5425Z" fill="#603813"/>
<path d="M65.8535 55.5425H64.7874V14.8691H65.8535V55.5425Z" fill="#452500"/>
<path d="M64.051 55.5425H63.3787V14.8691H64.051V55.5425Z" fill="#74451E"/>
<path d="M63.3097 6.67175C63.3097 6.67175 63.7174 0.896893 64.2947 0.896893C64.8723 0.896893 65.3139 6.67175 65.3139 6.67175H63.3097Z" fill="#603813"/>
<path d="M71.2415 13.058H64.3117H57.3818C55.208 13.058 50.7239 23.7924 32.924 24.8793V26.51C32.924 26.51 44.2018 25.9666 50.0447 22.7055C55.8873 19.4444 57.1103 17.1345 58.333 17.1345H64.3117H70.2904C71.5134 17.1345 72.7361 19.4444 78.579 22.7055C84.4216 25.9666 95.6998 26.51 95.6998 26.51V24.8793C77.8994 23.7924 73.4157 13.058 71.2415 13.058Z" fill="#603813"/>
<path d="M64.3118 15.5656C62.5704 15.5503 58.0255 15.5172 57.3143 15.5718C56.4308 15.6399 52.8301 20.3275 46.5795 23.0451C41.5123 25.2484 35.1507 25.9331 32.9241 26.1136V26.51C32.9241 26.51 44.2019 25.9666 50.0445 22.7055C55.8874 19.4444 57.1101 17.1345 58.3331 17.1345H64.3118V15.5656Z" fill="#452500"/>
<path d="M64.3118 15.5656C66.0531 15.5503 70.598 15.5172 71.3097 15.5718C72.1927 15.6399 75.7934 20.3275 82.0437 23.0451C87.1113 25.2484 93.4729 25.9331 95.6995 26.1136V26.51C95.6995 26.51 84.4217 25.9666 78.5791 22.7055C72.7362 19.4444 71.5131 17.1345 70.2905 17.1345H64.3118V15.5656Z" fill="#452500"/>
<path d="M34.2827 25.1512C34.2827 25.9018 33.6744 26.51 32.9239 26.51C32.1737 26.51 31.5651 25.9018 31.5651 25.1512C31.5651 24.4006 32.1737 23.7924 32.9239 23.7924C33.6744 23.7924 34.2827 24.4006 34.2827 25.1512Z" fill="#603813"/>
<path d="M32.0332 26.1698C32.2724 26.3791 32.5814 26.5098 32.9239 26.5098C33.6745 26.5098 34.2827 25.9015 34.2827 25.1513C34.2827 24.6366 33.9933 24.194 33.5715 23.9636C33.9497 24.269 34.1535 25.1448 33.5522 25.7625C32.9738 26.3572 32.1231 26.1894 32.0332 26.1698Z" fill="#452500"/>
<path d="M94.3408 25.1512C94.3408 25.9018 94.9491 26.51 95.6996 26.51C96.4502 26.51 97.0584 25.9018 97.0584 25.1512C97.0584 24.4006 96.4502 23.7924 95.6996 23.7924C94.9491 23.7924 94.3408 24.4006 94.3408 25.1512Z" fill="#603813"/>
<path d="M96.5903 26.1698C96.3515 26.3791 96.0421 26.5098 95.6996 26.5098C94.9494 26.5098 94.3408 25.9015 94.3408 25.1513C94.3408 24.6366 94.6305 24.194 95.052 23.9636C94.6738 24.269 94.47 25.1448 95.0713 25.7625C95.6497 26.3572 96.5004 26.1894 96.5903 26.1698Z" fill="#452500"/>
<path d="M67.9238 14.8018C67.9238 16.7966 66.3066 18.4138 64.3119 18.4138C62.3168 18.4138 60.6995 16.7966 60.6995 14.8018C60.6995 12.8071 62.3168 11.1899 64.3119 11.1899C66.3066 11.1899 67.9238 12.8071 67.9238 14.8018Z" fill="#603813"/>
<path d="M61.712 17.3058C62.3691 17.9879 63.29 18.4138 64.3117 18.4138C66.3068 18.4138 67.9237 16.7966 67.9237 14.8018C67.9237 13.1424 66.8037 11.7479 65.2789 11.3246C66.638 11.7981 67.9969 14.119 66.4364 16.1476C64.7442 18.3476 61.7382 17.3149 61.712 17.3058Z" fill="#512E08"/>
<path d="M64.7927 11.2255C64.8007 11.2269 64.8106 11.228 64.8193 11.2295C64.8102 11.2284 64.8015 11.2266 64.7927 11.2255Z" fill="#512E08"/>
<path d="M63.2631 12.4362C63.4276 12.5865 63.2074 13.095 62.7717 13.5722C62.3356 14.0491 61.8486 14.3137 61.6841 14.163C61.5195 14.0127 61.7398 13.5042 62.1755 13.0273C62.6115 12.5505 63.0986 12.2859 63.2631 12.4362Z" fill="#74451E"/>
<path d="M67.1992 8.94771C67.1992 10.5424 65.9066 11.835 64.3119 11.835C62.7172 11.835 61.4243 10.5424 61.4243 8.94771C61.4243 7.35303 62.7172 6.0601 64.3119 6.0601C65.9066 6.0601 67.1992 7.35303 67.1992 8.94771Z" fill="#603813"/>
<path d="M62.2336 10.9493C62.7589 11.4946 63.4949 11.835 64.3117 11.835C65.9064 11.835 67.1993 10.5424 67.1993 8.94771C67.1993 7.6213 66.3035 6.50673 65.0849 6.16821C66.1714 6.54677 67.2576 8.40171 66.0101 10.0233C64.6575 11.7822 62.2548 10.9566 62.2336 10.9493Z" fill="#512E08"/>
<path d="M64.6962 6.08889C64.7027 6.08998 64.7104 6.09107 64.7173 6.09216C64.7104 6.09107 64.7034 6.08998 64.6962 6.08889Z" fill="#512E08"/>
<path d="M63.4735 7.0567C63.6049 7.17682 63.4291 7.58341 63.0808 7.96452C62.7321 8.34599 62.3429 8.55747 62.2112 8.43699C62.0798 8.31687 62.2556 7.91028 62.6043 7.52917C62.9526 7.14807 63.3421 6.93658 63.4735 7.0567Z" fill="#74451E"/>
<path d="M65.8394 55.5426H64.3259H64.2975H62.7843C60.7667 55.5426 61.2319 57.2865 61.2319 57.2865H64.2975H64.3259H67.3919C67.3919 57.2865 67.8567 55.5426 65.8394 55.5426Z" fill="#603813"/>
<path d="M67.8052 58.6451H60.8182C60.4509 58.6451 60.1506 58.3445 60.1506 57.9772V57.9543C60.1506 57.587 60.4509 57.2863 60.8182 57.2863H67.8052C68.1725 57.2863 68.4731 57.587 68.4731 57.9543V57.9772C68.4731 58.3445 68.1725 58.6451 67.8052 58.6451Z" fill="#603813"/>
<path d="M66.7195 63.4688C66.7195 62.3819 67.1953 61.7704 67.7726 60.5473C68.3503 59.3247 67.9466 58.624 67.9466 58.624H64.319H64.3048H60.6771C60.6771 58.624 60.2735 59.3247 60.8511 60.5473C61.4284 61.7704 61.9042 62.3819 61.9042 63.4688C61.9042 64.5557 60.7387 64.3861 60.5399 66.5941H64.3048H64.319H68.0835C67.8851 64.3861 66.7195 64.5557 66.7195 63.4688Z" fill="#603813"/>
<path d="M68.1434 67.783H60.4802C60.1587 67.783 59.8956 67.5202 59.8956 67.1987V67.1784C59.8956 66.8569 60.1587 66.5941 60.4802 66.5941H68.1434C68.4649 66.5941 68.7277 66.8569 68.7277 67.1784V67.1987C68.7277 67.5202 68.4649 67.783 68.1434 67.783Z" fill="#603813"/>
<path d="M68.1333 67.783H64.3117H60.4901C60.4901 67.783 42.9671 70.5345 42.4236 74.5428H64.3117H86.1997C85.6563 70.5345 68.1333 67.783 68.1333 67.783Z" fill="#603813"/>
<path d="M86.7432 75.9017H41.8802C41.5129 75.9017 41.2126 75.6011 41.2126 75.2338V75.2109C41.2126 74.8436 41.5129 74.5429 41.8802 74.5429H86.7432C87.1105 74.5429 87.4112 74.8436 87.4112 75.2109V75.2338C87.4112 75.6011 87.1105 75.9017 86.7432 75.9017Z" fill="#603813"/>
<path d="M65.8394 55.5426H64.7874C64.7874 55.5426 65.8536 55.7013 65.7527 57.2865H67.3918C67.3918 57.2865 67.8567 55.5426 65.8394 55.5426Z" fill="#452500"/>
<path d="M66.432 58.6451H67.7937C68.1672 58.6451 68.473 58.3394 68.473 57.9656C68.473 57.5921 68.1672 57.2863 67.7937 57.2863H66.432C66.432 57.2863 67.3606 58.0111 66.432 58.6451Z" fill="#452500"/>
<path d="M68.0836 66.594C67.8852 64.386 66.7197 64.556 66.7197 63.4687C66.7197 62.3818 67.1951 61.7703 67.7727 60.5476C68.35 59.3245 67.9464 58.6238 67.9464 58.6238H65.8854L65.8537 58.6453C65.8537 58.6453 66.4095 59.551 65.7525 61.1587C65.0959 62.7669 65.2804 63.8538 65.913 64.6237C66.5453 65.3939 66.4321 66.594 66.4321 66.594H68.0836Z" fill="#452500"/>
<path d="M66.7122 67.783H68.1333C68.4601 67.783 68.7277 67.5154 68.7277 67.1885C68.7277 66.8617 68.4601 66.5941 68.1333 66.5941H66.7122C66.7122 66.5941 67.6208 67.0866 66.7122 67.783Z" fill="#452500"/>
<path d="M78.8354 74.543H86.1998C85.6564 70.5346 68.1334 67.7831 68.1334 67.7831H66.1602C66.1602 67.7831 76.4814 70.4378 78.8354 74.543Z" fill="#452500"/>
<path d="M76.8484 75.9017H86.7318C87.1052 75.9017 87.411 75.596 87.411 75.2221C87.411 74.8487 87.1052 74.5429 86.7318 74.5429H76.9271C77.239 74.8592 77.4967 75.3623 76.8484 75.9017Z" fill="#452500"/>
<path d="M55.0833 74.5429H45.2C44.8265 74.5429 44.5208 74.8487 44.5208 75.2221C44.5208 75.596 44.8265 75.9017 45.2 75.9017H55.005C54.6931 75.5854 54.435 75.0827 55.0833 74.5429Z" fill="#74451E"/>
<path d="M61.8185 57.2864H62.9935C62.9604 56.957 62.955 56.1001 63.6691 55.5425H63.1937C63.1937 55.5425 61.8859 55.5479 61.8185 57.2864Z" fill="#74451E"/>
<path d="M63.1598 57.2865H61.2969C60.7683 57.8266 61.1312 58.4145 61.3154 58.6453H63.2068C62.6393 57.9406 62.9545 57.4783 63.1598 57.2865Z" fill="#74451E"/>
<path d="M61.4359 58.624C61.3416 58.9305 61.2491 59.5595 61.6765 60.3661C62.2876 61.5214 62.8766 63.2875 62.2425 64.2161C61.6892 65.0264 61.2972 65.6987 61.2058 66.5941H62.3884C62.3761 66.1613 62.4205 65.4155 62.7437 64.5106C63.2617 63.0611 62.9734 61.6117 62.7437 60.7061C62.5482 59.9344 62.4281 59.2129 62.6181 58.624H61.4359Z" fill="#74451E"/>
<path d="M62.7898 66.594H60.8624C60.4773 67.0789 60.6844 67.543 60.8486 67.7828H62.7679C62.4574 67.2721 62.6533 66.8131 62.7898 66.594Z" fill="#74451E"/>
<path d="M51.2763 74.543C52.8983 72.7834 56.3832 70.1091 63.669 67.7831H61.7165C61.7165 67.7831 49.7257 70.7232 45.7075 74.543H51.2763Z" fill="#74451E"/>
<path d="M38.72 92.1489L42.8016 87.8628L38.72 86.9073C38.72 86.9073 37.3015 86.6704 37.1698 89.3308C37.038 91.9913 38.72 92.1489 38.72 92.1489Z" fill="#A2533E"/>
<path d="M38.72 86.9071C38.3287 86.8285 37.5123 87.8033 37.4857 89.5679C37.4595 91.3326 38.4932 92.0959 38.72 92.1487V92.8337C38.72 92.8337 36.6692 92.4126 36.801 89.6207C36.9328 86.8285 38.38 86.1427 38.72 86.222V86.9071Z" fill="#BB604A"/>
<path d="M88.3857 72.9491L63.2569 67.0661L39.752 91.7501L38.72 92.149V92.8337L64.9524 98.9751L89.4889 73.2075V72.5225L88.3857 72.9491Z" fill="#BB604A"/>
<path d="M64.9523 98.2903L38.7199 92.1489L63.2568 66.3813L89.4892 72.5224L64.9523 98.2903Z" fill="#A2533E"/>
<path d="M87.9708 68.0156L62.9062 62.5538V67.1427L80.349 71.2672L62.9062 92.1594L62.1669 94.6779L64.1044 97.4174L87.9708 73.0694C87.9708 73.0694 85.6547 70.627 87.9708 68.0156Z" fill="#FDC67C"/>
<path d="M39.04 86.9018V91.4907L64.1047 97.4174C64.1047 97.4174 61.7882 94.9749 64.1047 92.3636L39.04 86.9018Z" fill="#FFDE9D"/>
<path d="M88.3857 67.0225L63.2569 61.1395L39.752 85.8231L38.72 86.2224V86.9071L64.9524 93.0485L89.4889 67.2809V66.5959L88.3857 67.0225Z" fill="#BB604A"/>
<path d="M64.9523 92.3636L38.7199 86.2222L63.2568 60.4547L89.4892 66.5961L64.9523 92.3636Z" fill="#A2533E"/>
<path d="M41.4635 85.4037L63.7254 62.0251L86.7455 67.4145L64.4836 90.7931L41.4635 85.4037Z" stroke="#FDBD10" stroke-width="0.578667" stroke-miterlimit="10"/>
<path d="M42.9877 84.949L63.9858 62.8975L85.2212 67.8694L64.2235 89.9205L42.9877 84.949Z" stroke="#FDBD10" stroke-width="0.578667" stroke-miterlimit="10"/>
<path d="M65.0359 70.2504L63.8354 71.0173L61.2834 70.4156L61.3365 70.3632L61.4144 70.3818C61.6299 70.4324 61.951 70.3257 62.1362 70.143L65.0235 67.2223C65.2008 67.0377 65.172 66.8488 64.9565 66.7978L64.8786 66.7796L64.9296 66.7269L66.2767 67.0443L66.2236 67.0967L66.1457 67.0781C65.9302 67.0275 65.6092 67.1342 65.4235 67.3165L62.3164 70.4604L63.1991 70.6683C63.8514 70.8222 64.3876 70.5922 64.9743 70.2358L65.0359 70.2504Z" fill="#FDBD10"/>
<path d="M68.6847 70.386L69.6148 68.5197L67.1683 70.0285L68.6847 70.386ZM68.6116 71.6687C68.5042 71.9326 68.636 72.0837 68.8245 72.1281L68.8758 72.1401L68.8238 72.1929L67.4377 71.866L67.4894 71.8139L67.5432 71.8267C67.7023 71.8642 67.9859 71.783 68.1042 71.5508L68.5977 70.5603L66.9397 70.1698L65.637 70.9731C65.3436 71.1617 65.3902 71.3193 65.5482 71.3564L65.6024 71.3691L65.5511 71.4216L64.3116 71.1293L64.3637 71.0768L64.4194 71.09C64.6065 71.134 64.9301 71.0903 65.2861 70.8854L69.4855 68.3785C69.4855 68.3785 70.1356 68.0051 70.2499 67.8893L70.3056 67.9024L68.6116 71.6687Z" fill="#FDBD10"/>
<path d="M77.989 69.8042L77.937 69.857L77.8828 69.8443C77.6949 69.7999 77.3444 69.833 77.0197 70.0434L73.2454 72.5906C73.2454 72.5906 72.7893 72.8957 72.5316 73.1447L72.4737 73.1308L74.1936 69.8206L70.8612 72.0286C70.8612 72.0286 70.4189 72.3275 70.1528 72.5841L70.095 72.5703L72.0373 68.8629C72.1614 68.6096 72.0038 68.4585 71.8152 68.4141L71.7661 68.4025L71.8181 68.3497L73.1861 68.6722L73.1344 68.7246L73.0805 68.7119C72.9229 68.6747 72.6524 68.7548 72.5199 68.979L70.9158 71.7633L75.0508 69.01L75.1065 69.0253L73.4387 72.2266L76.7027 69.9531C76.9637 69.7653 76.9425 69.6219 76.7747 69.5822L76.7209 69.5694L76.7726 69.5174L77.989 69.8042Z" fill="#FDBD10"/>
<path d="M40.199 89.1464C40.199 89.1464 38.3553 91.0345 37.5123 93.383L39.04 92.8338L39.5667 94.2039C39.5667 94.2039 40.4625 91.1688 42.5169 89.9207L40.199 89.1464Z" fill="#EC1C24"/>
<path d="M23.2934 31.9694C23.3414 31.4256 19.5977 30.6335 17.2939 30.8734C14.9902 31.1133 12.6384 31.6895 12.8302 33.2012C13.022 34.7132 13.2783 36.8969 13.2783 36.8969L22.1654 36.7531L23.2934 31.9694Z" fill="#F8A35E"/>
<path d="M12.8533 32.7511C14.1262 33.4252 17.5977 33.2014 19.4858 32.9451C21.3735 32.6892 21.4375 31.9692 21.4375 31.9692L21.1656 34.8812L12.8191 34.289C12.8191 34.289 12.7907 32.9418 12.8533 32.7511Z" fill="#E39656"/>
<path d="M10.9996 32.2905C11.1019 33.2897 15.0382 33.9533 18.2377 33.6653C21.4376 33.3774 22.7815 32.9293 23.2933 31.9695L22.5893 36.641L17.1464 38.1768L13.2782 36.8969L11.3264 34.7213L10.9996 32.2905Z" fill="#FCC78E"/>
<path d="M15.4012 58.5649C15.4012 58.5649 15.1311 56.0697 17.6933 55.4866C17.6933 55.4866 15.6687 56.022 15.4012 58.5649Z" fill="#A40D12"/>
<path d="M29.3529 44.0512C30.4744 44.9547 33.9255 45.3944 35.8278 45.5014C37.7297 45.6088 37.9295 44.9143 37.9295 44.9143L37.1094 47.7211L29.0272 45.5549C29.0272 45.5549 29.255 44.2267 29.3529 44.0512Z" fill="#E39656"/>
<path d="M27.6204 43.2469C27.5312 44.2472 31.2695 45.6464 34.4658 45.9714C37.6621 46.2965 39.0664 46.1116 39.7514 45.2664L38.1731 49.7196L32.5373 50.1935L28.9825 48.2024L27.4796 45.6952L27.6204 43.2469Z" fill="#FCC78E"/>
<path d="M31.5285 96.7009C30.462 90.7586 33.7882 70.87 33.7882 70.87C33.7882 70.87 38.1194 51.1758 41.3252 46.0598C41.3252 46.0598 39.7083 48.3544 33.4879 47.151C28.1167 46.1118 26.9039 43.9344 26.6724 43.3589C28.0545 47.5976 37.7227 48.9175 36.7504 51.0087C35.7669 53.1232 34.7332 57.2153 32.7595 64.9008C30.7859 72.5863 25.7726 68.5553 26.6087 71.6078C27.4448 74.6607 30.9071 73.4322 30.9395 75.7454C30.9719 78.059 29.5509 95.5059 24.2055 96.1407C18.8598 96.7759 16.8262 93.8566 16.8262 93.8566C16.8262 93.8566 17.4468 96.7144 23.6668 97.9177C29.8872 99.1211 31.5285 96.7009 31.5285 96.7009Z" fill="#FFD898"/>
<path d="M41.3253 46.0599C42.3562 44.3691 37.7625 42.3235 34.5426 41.7007C31.3223 41.0775 27.7882 41.4044 27.5971 43.4042C27.4056 45.404 27.4333 48.2938 27.4333 48.2938C27.4333 48.2938 32.5606 50.8498 35.0169 50.7872C37.4735 50.725 40.49 47.43 41.3253 46.0599Z" fill="#FBB872"/>
<path d="M39.7514 45.2666C39.9017 44.7417 36.3767 43.253 34.0693 43.0513C31.7619 42.8493 29.3435 42.9679 29.2445 44.4887C29.1459 46.0095 28.9824 48.2023 28.9824 48.2023L37.7355 49.7489L39.7514 45.2666Z" fill="#F8A35E"/>
<path d="M24.9892 32.4494C24.9892 32.4494 23.8372 35.009 17.5018 35.009C11.1663 35.009 10.0143 32.4494 10.0143 32.4494C12.1903 38.0808 12.7021 58.2395 12.7021 58.2395C12.7021 58.2395 12.1903 78.3978 10.0143 84.0293C10.0143 84.0293 11.1663 86.717 17.5018 86.717C23.8372 86.717 24.9892 84.0293 24.9892 84.0293C22.8136 78.3978 22.3015 58.2395 22.3015 58.2395C22.3015 58.2395 22.8136 38.0808 24.9892 32.4494Z" fill="#FFE7B4"/>
<path d="M24.9892 32.4493C25.6801 30.5937 20.7814 29.4576 17.5017 29.4576C14.2221 29.4576 10.8143 30.4495 11.0062 32.4493C11.1983 34.4492 11.7742 37.2811 11.7742 37.2811C11.7742 37.2811 17.2939 38.8168 19.6937 38.289C22.0932 37.7608 24.4294 33.9534 24.9892 32.4493Z" fill="#FBB872"/>
<path d="M24.9892 84.0293C22.8136 78.3978 22.3015 58.2391 22.3015 58.2391C22.3015 58.2391 22.8136 38.0808 24.9892 32.4494C24.9892 32.4494 23.8372 35.009 17.5018 35.009C12.0308 35.009 10.4267 33.1017 10.0904 32.5804C12.2522 36.4796 21.995 35.9394 21.4377 38.1769C20.8735 40.4399 20.6358 44.6539 20.1579 52.5742C19.6799 60.4945 13.9924 57.4889 15.3931 60.3274C16.7938 63.1659 19.9599 61.3018 20.4309 63.567C20.9023 65.8322 22.8209 83.2317 17.6932 84.8705C12.5656 86.5088 10.0143 84.0293 10.0143 84.0293C10.0143 84.0293 11.1663 86.717 17.5018 86.717C23.8372 86.717 24.9892 84.0293 24.9892 84.0293Z" fill="#FFD898"/>
<path d="M17.5965 57.9811C15.3419 57.9811 12.6621 57.1326 12.6337 57.1231C12.5798 57.106 12.55 57.0485 12.5671 56.9946C12.5846 56.9404 12.6424 56.9113 12.6959 56.928C12.7265 56.9382 15.7583 57.8992 18.0504 57.7634C20.3432 57.6298 22.2837 56.7548 22.3026 56.746C22.3543 56.7224 22.4151 56.7457 22.4384 56.797C22.4621 56.8479 22.4395 56.9087 22.3878 56.9324C22.3681 56.9411 20.3949 57.8322 18.0628 57.9683C17.9102 57.9771 17.7541 57.9811 17.5965 57.9811Z" fill="#5A4A42"/>
<path d="M12.6376 60.3275C12.6023 60.3275 12.568 60.309 12.5487 60.2766C12.5204 60.2278 12.5371 60.1652 12.5859 60.1368C12.6088 60.1229 14.9395 58.7878 18.0564 58.7878C21.1839 58.7878 22.3633 59.7608 22.4117 59.8023C22.4546 59.839 22.4601 59.9035 22.4233 59.9464C22.3873 59.9897 22.3225 59.9959 22.2792 59.9584C22.2679 59.9486 21.0976 58.9924 18.0564 58.9924C14.997 58.9924 12.7115 60.3002 12.6889 60.3137C12.6725 60.3231 12.655 60.3275 12.6376 60.3275Z" fill="#5A4A42"/>
<path d="M12.6374 58.9924C12.5915 58.9924 12.5497 58.9611 12.538 58.9149C12.5242 58.8599 12.5577 58.8042 12.6127 58.7908C12.6334 58.7857 14.7195 58.2754 17.8706 58.2754C21.0196 58.2754 22.2809 58.5232 22.3329 58.5334C22.3882 58.5447 22.4243 58.5986 22.413 58.6543C22.4017 58.7096 22.3489 58.7449 22.2925 58.7344C22.2798 58.7318 20.9941 58.4803 17.8706 58.4803C14.7464 58.4803 12.6825 58.9844 12.6622 58.9892C12.6538 58.9917 12.6454 58.9924 12.6374 58.9924Z" fill="#5A4A42"/>
<path d="M17.2833 54.0814C16.2048 54.12 15.6012 55.1953 14.9497 55.6623C13.6196 56.616 14.5074 58.0967 14.5981 58.749C14.7047 59.5163 14.3724 60.0539 15.0749 60.6564C15.7774 61.2584 16.6437 61.4102 17.735 61.886C18.7138 62.3126 19.8932 61.4845 20.5957 60.7066C21.2986 59.9284 22.1267 59.7529 21.8253 58.3977C21.5243 57.0426 21.4489 56.5155 21.2483 55.7376C21.0474 54.9598 19.7927 54.8342 19.1404 54.4578C18.4878 54.0814 17.9858 54.0563 17.2833 54.0814Z" fill="#EC1C24"/>
<path d="M20.9057 58.1467C20.9057 59.7203 19.6302 60.9957 18.0567 60.9957C16.4831 60.9957 15.2073 59.7203 15.2073 58.1467C15.2073 56.5731 16.4831 55.2977 18.0567 55.2977C19.6302 55.2977 20.9057 56.5731 20.9057 58.1467Z" fill="#C5161D"/>
<path d="M20.7129 57.758C20.7129 57.758 20.983 60.2532 18.4208 60.8363C18.4208 60.8363 20.4453 60.3009 20.7129 57.758Z" fill="#EC1C24"/>
<path d="M14.5647 58.0382C14.5647 58.0382 14.1799 57.051 14.5647 56.3565C14.9494 55.6624 15.463 55.5696 15.8361 55.0348C15.8361 55.0348 15.5828 55.5372 15.0331 56.0388C14.4835 56.5403 14.4307 57.3943 14.5647 58.0382Z" fill="#EF5038"/>
<path d="M41.3252 46.06C41.3252 46.06 39.7079 48.3542 33.4879 47.1509C27.2679 45.9478 26.6229 43.2157 26.6229 43.2157C27.6898 49.158 24.3635 69.0466 24.3635 69.0466C24.3635 69.0466 20.0319 88.7411 16.8262 93.8568C16.8262 93.8568 17.4468 96.7146 23.6668 97.9176C29.8869 99.121 31.5285 96.7011 31.5285 96.7011C30.462 90.7588 33.7878 70.8698 33.7878 70.8698C33.7878 70.8698 38.1194 51.1756 41.3252 46.06Z" fill="#FFE7B4"/>
<path d="M29.2177 69.7228C27.0042 69.2943 24.5345 67.9523 24.5079 67.9381C24.4584 67.9108 24.4402 67.8485 24.4672 67.799C24.4948 67.7492 24.5571 67.7313 24.6066 67.7583C24.6342 67.7739 27.4283 69.2929 29.7048 69.5954C31.9812 69.8997 34.0524 69.409 34.0728 69.4039C34.1281 69.3908 34.1834 69.425 34.1965 69.4796C34.21 69.5346 34.1761 69.5899 34.1212 69.6034C34.1001 69.6081 31.9936 70.1082 29.6778 69.7988C29.5264 69.7785 29.3724 69.7526 29.2177 69.7228Z" fill="#5A4A42"/>
<path d="M23.9034 71.0846C23.8685 71.078 23.8387 71.0533 23.8259 71.018C23.8074 70.9645 23.8354 70.9059 23.8889 70.8873C23.914 70.8786 26.4558 70.0101 29.5163 70.6019C32.5867 71.196 33.5596 72.3753 33.5993 72.4252C33.6346 72.4696 33.6277 72.534 33.5837 72.569C33.54 72.605 33.4752 72.5985 33.4395 72.5533C33.4304 72.5417 32.4633 71.3809 29.4774 70.8032C26.4737 70.2219 23.9813 71.0718 23.9562 71.0806C23.9388 71.0868 23.9206 71.0879 23.9034 71.0846Z" fill="#5A4A42"/>
<path d="M24.1569 69.7738C24.1117 69.7651 24.0764 69.7265 24.0739 69.6788C24.071 69.6224 24.1143 69.574 24.1707 69.5711C24.1922 69.57 26.3372 69.4655 29.4309 70.0639C32.5227 70.662 33.7137 71.1446 33.7628 71.1647C33.8152 71.1861 33.8404 71.2462 33.8189 71.2986C33.7974 71.3507 33.7384 71.3751 33.6849 71.3543C33.6733 71.3496 32.4586 70.8582 29.3919 70.2649C26.3248 69.6715 24.2027 69.7746 24.182 69.7753C24.1732 69.776 24.1649 69.7753 24.1569 69.7738Z" fill="#5A4A42"/>
<path d="M29.6509 65.8346C28.5848 65.6675 27.788 66.6085 27.0593 66.9437C25.5723 67.627 26.1631 69.2497 26.1281 69.9074C26.087 70.6809 25.6586 71.1454 26.2341 71.8705C26.8095 72.5952 27.6311 72.9086 28.6121 73.5827C29.4919 74.1877 30.8074 73.5984 31.6449 72.9683C32.4825 72.3378 33.3288 72.3226 33.2906 70.935C33.2523 69.5474 33.2786 69.0156 33.2291 68.2137C33.1799 67.4118 31.9718 67.0504 31.4025 66.5568C30.8336 66.0636 30.3454 65.9435 29.6509 65.8346Z" fill="#EC1C24"/>
<path d="M32.4352 70.5139C32.1363 72.0587 30.6417 73.0688 29.0969 72.77C27.5517 72.4712 26.5416 70.9766 26.8405 69.4318C27.1393 67.8866 28.6343 66.8765 30.1791 67.1753C31.7239 67.4745 32.734 68.9691 32.4352 70.5139Z" fill="#C5161D"/>
<path d="M26.9515 69.879C26.9515 69.879 27.1601 67.378 29.7864 67.2921C29.7864 67.2921 27.6974 67.4333 26.9515 69.879Z" fill="#A40D12"/>
<path d="M32.3197 70.0955C32.3197 70.0955 32.1111 72.5966 29.4849 72.6825C29.4849 72.6825 31.5739 72.5413 32.3197 70.0955Z" fill="#EC1C24"/>
<path d="M26.2302 69.203C26.2302 69.203 26.0399 68.1605 26.5495 67.5519C27.0594 66.9437 27.5811 66.9498 28.0492 66.4959C28.0492 66.4959 27.7048 66.9407 27.07 67.3288C26.4348 67.7172 26.2211 68.5456 26.2302 69.203Z" fill="#EF5038"/>
<path d="M28.6446 88.1008L27.0514 89.4895L22.1144 83.8257L23.7077 82.437L28.6446 88.1008Z" fill="#AAACAF"/>
<path d="M22.0774 66.6508C25.7862 70.9059 25.3436 77.3622 21.0884 81.0714C16.8329 84.7801 10.3766 84.3372 6.66782 80.082C2.95902 75.8268 3.40165 69.3706 7.65681 65.6618C11.9123 61.9526 18.3686 62.3956 22.0774 66.6508Z" fill="#A6A8AB"/>
<path d="M28.6445 88.1008L28.0552 88.6144L23.1183 82.9505L23.7076 82.4369L28.6445 88.1008Z" fill="#929497"/>
<path d="M27.8098 88.8283L27.3843 89.1992L22.4474 83.5354L22.8729 83.1645L27.8098 88.8283Z" fill="#CCCECF"/>
<path d="M24.1093 80.9346L22.325 82.4899L20.5406 84.0449C20.5406 84.0449 20.9618 85.9825 23.4665 83.7992C25.9712 81.6163 24.1093 80.9346 24.1093 80.9346Z" fill="#909295"/>
<path d="M22.325 82.4898L20.5406 84.0452C20.5406 84.0452 20.5625 84.1435 20.624 84.2709C20.9137 84.1948 21.6119 83.9294 22.772 83.0027C24.1483 81.9034 24.2975 81.8306 24.5938 82.4876C25.1893 81.3319 24.1093 80.9344 24.1093 80.9344L22.325 82.4898Z" fill="#808184"/>
<path d="M23.4024 79.1788L21.15 81.1422L18.8976 83.1053C18.8976 83.1053 19.009 84.1605 19.8174 84.3393C20.6262 84.518 21.6982 83.6986 22.653 82.8665C23.6077 82.034 24.5658 81.084 24.4992 80.2584C24.4329 79.4333 23.4024 79.1788 23.4024 79.1788Z" fill="#909295"/>
<path d="M24.4994 80.2585C24.4328 79.4329 23.4027 79.1789 23.4027 79.1789L21.1503 81.1419L18.8978 83.1053C18.8978 83.1053 18.9124 83.2375 18.9659 83.4151C18.9659 83.4151 19.7754 83.5407 21.5729 82.0122C23.3699 80.4842 23.7365 80.6953 23.8748 81.6624C24.2727 81.1834 24.5351 80.7029 24.4994 80.2585Z" fill="#808184"/>
<path d="M22.6995 66.1085C26.7078 70.7073 26.2292 77.6848 21.6304 81.6932C17.0316 85.7015 10.0541 85.2229 6.04574 80.6241C2.03737 76.0253 2.51603 69.0478 7.11481 65.0394C11.7136 61.0311 18.6911 61.5097 22.6995 66.1085Z" fill="#9EA0A3"/>
<path d="M22.4704 66.3082C26.3684 70.7803 25.9029 77.566 21.4308 81.464C16.9587 85.3621 10.1733 84.8966 6.27526 80.4244C2.37719 75.952 2.84238 69.1667 7.31448 65.2686C11.7869 61.3705 18.5723 61.8361 22.4704 66.3082Z" fill="#BBBDBF"/>
<path d="M21.8155 66.879C25.3984 70.9896 24.9707 77.2264 20.86 80.8093C16.7494 84.3921 10.5126 83.9644 6.92974 79.8538C3.34689 75.7431 3.77459 69.5063 7.88524 65.9235C11.9959 62.3406 18.2327 62.7683 21.8155 66.879Z" fill="#8AD6F7"/>
<mask id="mask9_131_1893" style="mask-type:luminance" maskUnits="userSpaceOnUse" x="4" y="63" width="13" height="17">
<path d="M4.49915 63.4929H16.5897V79.8536H4.49915V63.4929Z" fill="white"/>
</mask>
<g mask="url(#mask9_131_1893)">
<g opacity="0.389999">
<path d="M6.38738 69.3609C9.64336 64.1083 13.9415 63.4033 15.9893 63.626C13.1825 63.1619 10.1974 63.9081 7.88524 65.9236C3.77459 69.5065 3.34689 75.7432 6.92974 79.8539C6.92974 79.8539 2.91446 74.9635 6.38738 69.3609Z" fill="#231F20"/>
<path d="M16.4164 63.7073C16.4775 63.7255 16.5347 63.7378 16.59 63.7469C16.5321 63.7338 16.4743 63.7196 16.4164 63.7073Z" fill="#231F20"/>
</g>
</g>
<mask id="mask10_131_1893" style="mask-type:luminance" maskUnits="userSpaceOnUse" x="12" y="66" width="13" height="18">
<path d="M12.1556 66.8789H24.2463V83.24H12.1556V66.8789Z" fill="white"/>
</mask>
<g mask="url(#mask10_131_1893)">
<g opacity="0.309998">
<path d="M22.3579 77.372C19.102 82.6245 14.8038 83.3296 12.756 83.1068C15.5628 83.5709 18.5479 82.8247 20.8601 80.8092C24.9707 77.2264 25.3984 70.9896 21.8156 66.879C21.8156 66.879 25.8309 71.7693 22.3579 77.372Z" fill="white"/>
<path d="M12.329 83.0255C12.2678 83.0073 12.2107 82.9949 12.1553 82.9858C12.2132 82.9989 12.2711 83.0131 12.329 83.0255Z" fill="white"/>
</g>
</g>
<mask id="mask11_131_1893" style="mask-type:luminance" maskUnits="userSpaceOnUse" x="5" y="66" width="6" height="7">
<path d="M5.89148 66.0245H10.6223V72.5576H5.89148V66.0245Z" fill="white"/>
</mask>
<g mask="url(#mask11_131_1893)">
<g opacity="0.309998">
<path d="M10.5113 66.0632C10.9056 66.3383 10.2158 68.0069 8.97053 69.7894C7.72528 71.5723 6.39668 72.7943 6.00247 72.5187C5.60826 72.2435 6.29804 70.5753 7.54328 68.7924C8.78816 67.0099 10.1171 65.788 10.5113 66.0632Z" fill="white"/>
</g>
</g>
<path d="M21.3974 83.3088C21.4556 83.4092 21.2081 83.6608 20.8448 83.8712C20.4815 84.0812 20.1397 84.1704 20.0819 84.0703C20.0236 83.9698 20.2711 83.7179 20.6344 83.5079C20.9977 83.2975 21.3391 83.2083 21.3974 83.3088Z" fill="#AAACAF"/>
<path d="M22.8024 83.9072C22.8606 84.0076 22.6131 84.2591 22.2498 84.4695C21.8866 84.6796 21.5448 84.7687 21.4869 84.6686C21.4286 84.5682 21.6762 84.3163 22.0394 84.1063C22.4027 83.8959 22.7441 83.8067 22.8024 83.9072Z" fill="#AAACAF"/>
<path d="M28.9294 87.8527C28.5803 88.157 27.8552 88.7889 27.8552 88.7889L27.8326 88.8085L27.8101 88.8286C27.8101 88.8286 27.085 89.4601 26.7359 89.7648C26.3865 90.0691 26.4673 90.6901 27.1141 91.4322C27.7609 92.1744 38.3006 104.266 39.0995 105.183C39.8985 106.1 41.0276 105.346 41.7203 104.742C42.4134 104.138 43.3143 103.122 42.5153 102.206C41.7163 101.289 31.1767 89.1969 30.5299 88.4551C29.8831 87.7129 29.2785 87.5484 28.9294 87.8527Z" fill="#67686B"/>
<path d="M42.5152 102.206C41.7162 101.289 31.1766 89.197 30.5298 88.4548C29.8829 87.7129 29.2787 87.548 28.9293 87.8527C28.5802 88.157 27.8551 88.7889 27.8551 88.7889C27.8551 88.7889 29.342 88.5683 30.2171 89.5722C31.0922 90.5765 41.08 102.035 41.8411 102.908C42.6022 103.781 41.7206 104.742 41.7206 104.742C42.4136 104.138 43.3142 103.122 42.5152 102.206Z" fill="#58595B"/>
<path d="M39.4921 104.841C38.6931 103.924 28.1535 91.8319 27.5067 91.0897C26.8598 90.3479 26.719 89.779 26.988 89.5445C27.257 89.3101 27.815 88.8238 27.815 88.8238C27.815 88.8238 27.6129 90.0753 28.4884 91.0792C29.3634 92.0834 39.3512 103.542 40.112 104.415C40.8731 105.288 41.7205 104.742 41.7205 104.742C41.1869 105.207 40.2911 105.757 39.4921 104.841Z" fill="#7E8081"/>
<path d="M91.9614 87.2099C90.9939 86.6781 87.0776 84.5265 87.0776 84.5265C87.0776 84.5265 83.1617 82.3745 82.1942 81.8427C81.2267 81.3113 80.989 80.7609 81.5714 79.7013C82.1538 78.6417 82.3056 78.3651 82.3056 78.3651L88.5715 81.8081L94.8374 85.2512C94.8374 85.2512 94.6852 85.5275 94.1032 86.5871C93.5208 87.6467 92.9289 87.7417 91.9614 87.2099Z" fill="#603813"/>
<path d="M89.8209 86.0337C90.7135 86.524 91.5739 86.9968 91.9612 87.2098C92.9291 87.7416 93.5206 87.6469 94.103 86.5873C94.6854 85.5274 94.8372 85.2511 94.8372 85.2511L91.7964 83.5803C91.7964 83.5803 91.0811 84.8816 90.7397 85.5037C90.5165 85.9099 90.0903 86.0115 89.8209 86.0337Z" fill="#452500"/>
<path d="M132.417 96.821L104.06 81.2389C103.224 80.7795 102.916 79.7192 103.375 78.8831C103.835 78.047 104.895 77.7387 105.731 78.1981L134.088 93.7802C134.925 94.2399 135.233 95.2999 134.773 96.136C134.314 96.9724 133.253 97.2804 132.417 96.821Z" fill="#603813"/>
<path d="M104.284 64.7842C103.317 64.2524 99.4003 62.1008 99.4003 62.1008C99.4003 62.1008 95.4843 59.9488 94.5168 59.417C93.5493 58.8856 92.9575 58.9802 92.3751 60.0398C91.7927 61.0994 91.6409 61.3761 91.6409 61.3761L97.9068 64.8188L104.173 68.2618C104.173 68.2618 104.324 67.9856 104.907 66.926C105.489 65.8664 105.252 65.316 104.284 64.7842Z" fill="#603813"/>
<path d="M103.54 69.4137L91.0079 62.5275C90.6912 62.3535 90.5747 61.9521 90.7487 61.6354C90.9227 61.3187 91.3242 61.2019 91.6408 61.3758L104.173 68.262C104.489 68.436 104.606 68.8375 104.432 69.1542C104.258 69.4708 103.856 69.5877 103.54 69.4137Z" fill="#603813"/>
<path d="M101.279 71.7258L90.2681 65.6754C89.9514 65.5011 89.8346 65.0996 90.0089 64.7829C90.1829 64.4662 90.5844 64.3494 90.9011 64.5234L101.912 70.5741C102.229 70.7481 102.346 71.1496 102.172 71.4663C101.998 71.783 101.596 71.8998 101.279 71.7258Z" fill="#603813"/>
<path d="M97.2738 65.9708L91.0312 62.5404C91.0312 62.5404 91.3952 63.4603 90.8256 64.4969L96.4006 67.5604L101.975 70.6234C102.545 69.5867 103.517 69.4011 103.517 69.4011L97.2738 65.9708Z" fill="#603813"/>
<path d="M95.4701 84.0993L82.9383 77.2131C82.6216 77.0391 82.2202 77.156 82.0462 77.4727C81.8722 77.7893 81.9886 78.1908 82.3057 78.3652L94.8371 85.251C95.1542 85.4253 95.5557 85.3085 95.7296 84.9914C95.9036 84.6748 95.7868 84.2733 95.4701 84.0993Z" fill="#603813"/>
<path d="M96.2099 80.9518L85.1986 74.9014C84.8819 74.727 84.4804 74.8439 84.3064 75.1606C84.132 75.4773 84.2489 75.8791 84.5656 76.0531L95.5769 82.1035C95.8936 82.2779 96.2951 82.161 96.4695 81.8443C96.6435 81.5273 96.5266 81.1258 96.2099 80.9518Z" fill="#603813"/>
<path d="M104.923 82.3429L107.125 78.3345C107.299 78.0178 107.183 77.6163 106.866 77.4423C106.549 77.268 106.148 77.3848 105.974 77.7015L103.771 81.7099C103.597 82.0266 103.714 82.4284 104.031 82.6024C104.347 82.7764 104.749 82.6596 104.923 82.3429Z" fill="#603813"/>
<path d="M89.2043 80.6562L82.9617 77.2259C82.9617 77.2259 83.9332 77.0402 84.5028 76.0036L90.0779 79.0666L95.6525 82.13C95.0829 83.1667 95.4472 84.0865 95.4472 84.0865L89.2043 80.6562Z" fill="#603813"/>
<path d="M90.2221 65.6499L88.3992 68.967L86.9753 71.5587L85.1527 74.8758L96.2562 80.9772L98.0787 77.66L99.5027 75.0684L101.326 71.7512L90.2221 65.6499Z" fill="#FDBC11"/>
<mask id="mask12_131_1893" style="mask-type:luminance" maskUnits="userSpaceOnUse" x="93" y="70" width="9" height="11">
<path d="M93.4342 70.2005H101.326V80.9771H93.4342V70.2005Z" fill="white"/>
</mask>
<g mask="url(#mask12_131_1893)">
<g opacity="0.0800018">
<path d="M98.5037 70.2006L96.6808 73.5177L95.2568 76.1094L93.4343 79.4265L96.256 80.9772L98.0789 77.66L99.5029 75.0684L101.326 71.7512L98.5037 70.2006Z" fill="#231F20"/>
</g>
</g>
<path d="M98.7908 76.3641L97.1706 79.3128L103.798 81.6614L104.872 79.706L105.947 77.7502L100.411 73.4153L98.7908 76.3641Z" fill="#603813"/>
<mask id="mask13_131_1893" style="mask-type:luminance" maskUnits="userSpaceOnUse" x="85" y="66" width="7" height="10">
<path d="M85.9358 66.0803H91.9382V75.8187H85.9358V66.0803Z" fill="white"/>
</mask>
<g mask="url(#mask13_131_1893)">
<g opacity="0.289993">
<path d="M86.8688 75.819L85.9359 75.3065L91.0053 66.0805L91.9383 66.593L86.8688 75.819Z" fill="white"/>
</g>
</g>
<mask id="mask14_131_1893" style="mask-type:luminance" maskUnits="userSpaceOnUse" x="87" y="66" width="9" height="12">
<path d="M87.4908 66.9346H95.4282V77.7367H87.4908V66.9346Z" fill="white"/>
</mask>
<g mask="url(#mask14_131_1893)">
<g opacity="0.289993">
<path d="M90.3587 77.7367L87.4908 76.1609L92.5602 66.9346L95.4282 68.5107L90.3587 77.7367Z" fill="white"/>
</g>
</g>
<path d="M82.274 81.883C82.3155 81.9078 82.3566 81.9321 82.4014 81.9565C82.7694 82.1589 83.564 82.5957 84.4074 83.0591C84.1865 82.6368 84.2833 82.1888 84.47 81.8488C84.7357 81.365 85.4383 80.0867 85.4383 80.0867L83.4344 78.9852C83.4344 78.9852 82.6053 80.4943 82.3774 80.9089C82.2336 81.1703 82.1561 81.5514 82.274 81.883Z" fill="#74451E"/>
<path d="M92.516 83.2258C92.2314 83.7441 91.6235 83.4853 91.6235 83.4853L94.8372 85.2511C95.1539 85.4251 95.5554 85.3082 95.7294 84.9916C95.9037 84.6749 95.7869 84.2734 95.4702 84.0994L92.3027 82.3588C92.3027 82.3588 92.8007 82.7075 92.516 83.2258Z" fill="#452500"/>
<path d="M93.2558 80.0783C92.9712 80.5967 92.3633 80.3379 92.3633 80.3379L95.577 82.1036C95.8937 82.2776 96.2952 82.1608 96.4692 81.8441C96.6436 81.5274 96.5267 81.1259 96.21 80.9519L93.0425 79.2113C93.0425 79.2113 93.5408 79.56 93.2558 80.0783Z" fill="#452500"/>
<path d="M83.4344 78.9853C83.4344 78.9853 82.9058 78.6646 83.2094 78.112C83.5133 77.5591 84.0673 77.8336 84.0673 77.8336L86.5338 79.1888C86.5338 79.1888 85.8677 79.0326 85.6398 79.4472C85.412 79.8618 85.9008 80.3405 85.9008 80.3405L83.4344 78.9853Z" fill="#74451E"/>
<path d="M85.5678 76.6037C85.5678 76.6037 85.0389 76.2834 85.3428 75.7305C85.6468 75.1775 86.2008 75.452 86.2008 75.452L88.6673 76.8072C88.6673 76.8072 88.0011 76.651 87.7733 77.0656C87.5454 77.4806 88.0343 77.9592 88.0343 77.9592L85.5678 76.6037Z" fill="#74451E"/>
<path d="M95.6525 82.13L92.6393 80.4746C92.6364 80.4775 92.6313 80.4797 92.6283 80.4833C92.6283 80.4833 92.1329 81.386 92.1799 82.2913L95.4472 84.0865C95.4472 84.0865 95.0828 83.1667 95.6525 82.13Z" fill="#452500"/>
<path d="M86.3988 79.1147C86.7883 78.8934 87.2812 78.493 87.7424 77.7836L85.6363 76.6264C85.4703 76.9053 84.9985 77.5998 84.2538 77.9361L86.3988 79.1147Z" fill="#74451E"/>
<path d="M102.147 63.6022C103.039 64.0925 103.9 64.5654 104.287 64.7783C105.255 65.3101 105.492 65.8605 104.91 66.9201C104.327 67.9797 104.176 68.256 104.176 68.256L101.135 66.5852C101.135 66.5852 101.85 65.2839 102.192 64.6618C102.415 64.2556 102.273 63.8418 102.147 63.6022Z" fill="#452500"/>
<path d="M94.5968 59.4573C94.6397 59.4791 94.6827 59.5009 94.7271 59.5253C95.0951 59.7273 95.8897 60.1641 96.7331 60.6275C96.2584 60.6676 95.9323 60.9893 95.7452 61.3293C95.4795 61.8131 94.777 63.0914 94.777 63.0914L92.7728 61.9903C92.7728 61.9903 93.602 60.4816 93.8298 60.067C93.9736 59.8052 94.2535 59.5355 94.5968 59.4573Z" fill="#74451E"/>
<path d="M101.222 67.3827C101.506 66.8643 100.962 66.4901 100.962 66.4901L104.176 68.2563C104.493 68.4303 104.609 68.8317 104.435 69.1484C104.261 69.4651 103.86 69.5819 103.543 69.408L100.375 67.6673C100.375 67.6673 100.937 67.901 101.222 67.3827Z" fill="#452500"/>
<path d="M98.9615 69.6948C99.2461 69.1765 98.7019 68.8023 98.7019 68.8023L101.916 70.5684C102.232 70.7424 102.349 71.1439 102.175 71.4606C102.001 71.7772 101.599 71.8941 101.283 71.7201L98.1152 69.9794C98.1152 69.9794 98.6765 70.2131 98.9615 69.6948Z" fill="#452500"/>
<path d="M92.7729 61.9904C92.7729 61.9904 92.2188 61.716 91.9149 62.2689C91.6113 62.8218 92.1399 63.1421 92.1399 63.1421L94.6067 64.4977C94.6067 64.4977 94.1175 64.019 94.3453 63.6044C94.5732 63.1898 95.2393 63.346 95.2393 63.346L92.7729 61.9904Z" fill="#74451E"/>
<path d="M91.9063 65.0683C91.9063 65.0683 91.3523 64.7939 91.0484 65.3468C90.7448 65.8997 91.2733 66.22 91.2733 66.22L93.7402 67.5756C93.7402 67.5756 93.251 67.0969 93.4788 66.6823C93.7067 66.2677 94.3728 66.4239 94.3728 66.4239L91.9063 65.0683Z" fill="#74451E"/>
<path d="M101.978 70.6177L98.9651 68.9618C98.9662 68.9575 98.9655 68.952 98.967 68.948C98.967 68.948 99.4635 68.0457 100.253 67.6001L103.52 69.3954C103.52 69.3954 102.548 69.581 101.978 70.6177Z" fill="#452500"/>
<path d="M94.4716 64.4233C94.4934 64.8711 94.4199 65.5015 94.0683 66.2714L91.9622 65.1138C92.1085 64.8241 92.4423 64.0535 92.3265 63.2447L94.4716 64.4233Z" fill="#74451E"/>
<path d="M97.1705 79.3127L103.798 81.6616L104.711 79.9996L98.3444 77.176L97.1705 79.3127Z" fill="#452500"/>
<path d="M99.2939 75.4484L105.097 79.297L105.502 78.5599L100.003 74.1584L99.2939 75.4484Z" fill="#74451E"/>
<path d="M104.031 82.6023C104.347 82.7763 104.749 82.6599 104.923 82.3428L105.502 81.289C105.502 81.289 105.117 81.6621 104.679 81.4219C104.242 81.1813 104.35 80.656 104.35 80.656L103.771 81.7102C103.597 82.0269 103.714 82.4283 104.031 82.6023Z" fill="#452500"/>
<path d="M105.363 78.8132C105.363 78.8132 105.636 78.5886 106.097 78.8416C106.558 79.0949 106.515 79.4462 106.515 79.4462L107.002 78.5591C107.002 78.5591 106.932 78.2504 106.54 78.0353C106.148 77.8202 105.837 77.9494 105.837 77.9494L105.363 78.8132Z" fill="#74451E"/>
<path d="M132.417 96.821C133.228 97.2665 134.248 96.9884 134.728 96.2087C134.024 96.2626 133.135 95.9328 131.899 95.254C130.194 94.317 105.73 80.8741 105.73 80.8741L105.114 81.818L132.417 96.821Z" fill="#452500"/>
<path d="M133.371 93.9936L106.603 79.2847L106.072 80.2522L132.84 94.9607C133.715 95.4419 134.728 96.2085 134.728 96.2085C134.728 96.2085 134.984 94.8795 133.371 93.9936Z" fill="#74451E"/>
<path d="M97.4444 87.6468H88.0649H78.6849C77.74 87.6468 77.9151 89.2458 77.9151 89.2458H88.0649H98.2143C98.2143 89.2458 98.3894 87.6468 97.4444 87.6468Z" fill="#603813"/>
<path d="M99.4043 89.246H88.0647H76.725C75.535 89.246 75.1852 90.5389 75.1852 91.3234V95.6626H88.0647H100.944V91.3234C100.944 90.5389 100.594 89.246 99.4043 89.246Z" fill="#603813"/>
<path d="M101.182 95.6627H88.0648H74.9473C74.0526 95.6627 73.8044 96.3747 73.8044 97.0055H88.0648H102.325C102.325 96.3747 102.077 95.6627 101.182 95.6627Z" fill="#603813"/>
<path d="M95.1309 97.0056H102.325C102.325 96.3748 102.077 95.6628 101.182 95.6628H93.0853C93.0853 95.6628 94.787 95.8226 95.1309 97.0056Z" fill="#452500"/>
<path d="M94.4519 91.4333V95.6626H100.944V91.3234C100.944 90.5389 100.594 89.246 99.4045 89.246H91.9286C91.9286 89.246 94.4519 89.4619 94.4519 91.4333Z" fill="#452500"/>
<path d="M97.4444 87.6468H91.7827C92.1937 87.8565 92.7073 88.3038 92.8871 89.2458H98.2142C98.2142 89.2458 98.3893 87.6468 97.4444 87.6468Z" fill="#452500"/>
<path d="M76.5003 95.6627C75.9336 96.0376 75.804 96.6761 75.7774 97.0055H80.4796C80.5436 96.3041 80.9185 95.8891 81.2283 95.6627H76.5003Z" fill="#74451E"/>
<path d="M81.5526 91.3544C81.5526 90.2282 82.4088 89.5359 82.8674 89.2458H78.2402C77.6899 89.5442 77.0973 90.2282 77.0973 91.2165V95.6627H81.5526V91.3544Z" fill="#74451E"/>
<path d="M78.8419 89.246H82.8979C82.9944 88.4717 83.3118 87.9672 83.6336 87.6469H79.2572C78.9281 88.036 78.8524 88.7604 78.8419 89.246Z" fill="#74451E"/>
</g>
</g>
</svg>
