<svg width="28" height="28" viewBox="0 0 28 28" fill="none" xmlns="http://www.w3.org/2000/svg">
<path d="M14 21.5834L10.5 19.8334M10.5 19.8334L3.5 23.3334V8.16675L10.5 4.66675M10.5 19.8334V4.66675M10.5 4.66675L17.5 8.16675M17.5 8.16675L24.5 4.66675V13.4167M17.5 8.16675V14.5834M22.1667 21.0001V21.0117M24.6412 23.4746C25.1308 22.9851 25.4642 22.3615 25.5993 21.6825C25.7345 21.0036 25.6652 20.2998 25.4003 19.6602C25.1355 19.0206 24.6869 18.4739 24.1113 18.0893C23.5357 17.7046 22.8589 17.4993 22.1667 17.4993C21.4744 17.4993 20.7977 17.7046 20.2221 18.0893C19.6465 18.4739 19.1979 19.0206 18.933 19.6602C18.6681 20.2998 18.5989 21.0036 18.734 21.6825C18.8691 22.3615 19.2026 22.9851 19.6922 23.4746C20.1798 23.963 21.0047 24.6937 22.1667 25.6667C23.3932 24.6284 24.2181 23.8977 24.6412 23.4746Z" stroke="#E4E2D6" stroke-width="2" stroke-linecap="round" stroke-linejoin="round"/>
</svg>
