<svg width="296" height="33" viewBox="0 0 296 33" fill="none" xmlns="http://www.w3.org/2000/svg">
<path d="M259.082 9.01754C259.348 7.72287 259.042 6.24954 258.364 5.10554C257.696 3.95354 256.656 3.0962 255.541 2.9562C254.438 2.79487 253.2 3.36287 252.818 4.5122C252.403 5.63354 252.959 7.11487 253.814 8.0842C254.241 8.58154 254.746 8.9922 255.288 9.2562C255.822 9.50287 256.461 9.65354 257.065 9.7122C257.678 9.77487 258.29 9.75087 258.898 9.65887C258.971 9.44954 259.035 9.23754 259.082 9.01754ZM243.707 7.9522C243.632 7.6322 243.519 7.3322 243.412 7.03087C243.3 6.75087 243.163 6.48287 243.007 6.22554C242.699 5.70954 242.3 5.2562 241.859 4.8762C240.971 4.12687 239.871 3.6882 238.84 3.7642C237.822 3.8122 236.856 4.4402 236.309 5.40687C235.771 6.35087 235.791 7.4722 236.367 8.54554C237.564 10.7535 240.088 12.0175 242.446 12.9949C242.796 13.1322 243.149 13.2562 243.504 13.3735C244.023 11.5855 244.16 9.66154 243.707 7.9522ZM284.061 17.7429C284.061 17.6749 284.042 17.6255 284.023 17.5882C284.009 17.6375 284.01 17.6935 284.008 17.6522C284.021 17.5842 283.866 17.4855 283.67 17.4615L284.027 17.8789C284.022 17.8775 284.05 17.8722 284.061 17.7429ZM295.974 15.8482C295.783 19.1055 294.646 22.2602 292.801 24.6309C291.876 25.8162 290.769 26.7829 289.553 27.4722C288.339 28.1642 286.987 28.5522 285.63 28.4682C284.27 28.3842 282.931 27.7722 281.876 26.7069C280.818 25.6602 280.042 24.0949 279.967 22.3682C279.915 20.6655 280.469 18.9455 281.534 17.8015C282.069 17.2255 282.707 16.8242 283.463 16.7002C283.661 16.6842 283.863 16.6962 284.076 16.7855C284.281 16.8615 284.54 17.0895 284.616 17.4362C284.669 17.5615 284.661 17.9362 284.484 18.1055C284.328 18.2709 284.184 18.2949 284.055 18.3082C283.922 18.3095 283.803 18.3055 283.634 18.1882C283.556 18.1362 283.415 17.9775 283.417 17.7309C283.424 17.6095 283.449 17.5282 283.479 17.4655C282.942 17.5575 282.365 17.8789 281.929 18.3562C281.006 19.3175 280.49 20.8509 280.525 22.3389C280.575 23.8269 281.246 25.2562 282.206 26.2229C283.164 27.2122 284.397 27.8015 285.655 27.8882C288.204 28.0335 290.7 26.4655 292.462 24.2375C294.231 21.9709 295.33 18.9295 295.515 15.8082C295.605 14.2495 295.46 12.6642 295.03 11.1975C294.612 9.72554 293.877 8.4162 293.013 7.25087C291.293 4.90687 289.008 3.24287 286.573 2.21887C285.351 1.71754 284.082 1.3602 282.806 1.16954C281.526 0.993537 280.228 0.994871 278.938 1.12287C277.647 1.24687 276.363 1.49354 275.1 1.84954C273.829 2.19087 272.611 2.66554 271.45 3.35087C269.118 4.7042 267.015 6.61887 264.704 8.21887C263.545 9.01754 262.326 9.7122 261.039 10.2162C260.707 10.3415 260.371 10.4535 260.031 10.5495C259.56 11.8389 258.764 12.9269 257.851 13.6882C256.669 14.6842 255.346 15.3015 254.006 15.6949C252.651 16.0775 251.316 16.2455 249.959 16.3149C248.381 16.3829 246.799 16.2629 245.236 15.9695C245.03 16.4895 244.809 16.9989 244.557 17.4882C242.946 20.4909 240.613 22.6069 238.242 24.2375C233.483 27.4069 228.379 29.5735 223.106 30.9029C217.83 32.1842 212.403 32.5162 207.042 31.9215C201.677 31.3109 196.394 29.6549 191.435 27.2669C186.439 24.9495 181.743 21.9255 177.111 18.8975C172.501 15.8135 167.96 12.6495 163.324 9.76954C161.006 8.35487 158.661 7.03487 156.205 6.14687C153.762 5.24287 151.195 4.76687 148.633 5.08954L148.533 4.3122C151.165 3.63487 153.924 3.85087 156.541 4.55754C159.166 5.27887 161.684 6.42554 164.112 7.71754C168.958 10.3029 173.623 13.2775 178.297 16.1389C182.952 19.0335 187.641 21.7802 192.454 24.0069C194.86 25.1229 197.304 26.0815 199.787 26.8029C202.265 27.5482 204.777 28.0895 207.317 28.3975C212.398 28.9975 217.544 28.6629 222.565 27.5309C227.571 26.3549 232.484 24.3029 236.974 21.4402C239.176 20.0055 241.185 18.1909 242.499 15.8429C242.586 15.6829 242.663 15.5135 242.742 15.3482C242.467 15.2615 242.193 15.1722 241.919 15.0735C240.61 14.6055 239.354 14.0042 238.107 13.2655C236.848 12.4722 235.634 11.4615 234.724 9.87887C234.283 9.0882 233.937 8.09887 233.901 7.02154C233.851 5.9562 234.128 4.8642 234.593 4.01487C235.508 2.30554 237.101 1.2842 238.696 1.15754C240.291 1.01354 241.823 1.60687 243.104 2.6322C243.741 3.1562 244.326 3.7922 244.807 4.55487C245.048 4.93487 245.264 5.34287 245.448 5.7762C245.614 6.20154 245.777 6.6282 245.894 7.07354C246.391 8.8522 246.438 10.7509 246.17 12.5202C246.099 13.0215 245.995 13.5122 245.875 13.9949C247.211 14.2602 248.564 14.3895 249.919 14.3722C251.181 14.3469 252.469 14.2162 253.675 13.9122C254.886 13.5962 256.061 13.0735 257.056 12.2762C257.547 11.8855 257.978 11.4069 258.324 10.8642C257.883 10.9055 257.44 10.9229 256.993 10.8829C256.295 10.8215 255.628 10.6909 254.93 10.3882C254.249 10.0735 253.638 9.59354 253.109 8.99887C252.582 8.4042 252.132 7.68554 251.848 6.82687C251.564 5.98554 251.483 4.9282 251.805 3.99887C252.104 3.07487 252.749 2.36154 253.445 1.9842C254.147 1.59754 254.903 1.4602 255.655 1.54287C257.171 1.71087 258.5 2.7962 259.36 4.22154C260.216 5.62287 260.669 7.47887 260.366 9.30154C261.725 8.8682 263.054 8.15887 264.304 7.33487C266.574 5.83087 268.726 3.93754 271.158 2.5842C272.37 1.9002 273.671 1.4282 274.959 1.0882C276.254 0.736204 277.567 0.496204 278.891 0.378871C280.214 0.261537 281.549 0.270871 282.874 0.464204C284.199 0.674871 285.495 1.0522 286.753 1.58154C289.257 2.65887 291.61 4.39887 293.383 6.84954C294.266 8.05754 295.035 9.44554 295.47 11.0095C295.909 12.5615 296.068 14.2189 295.974 15.8482Z" fill="#091414"/>
<path d="M37.1007 9.65886C37.7106 9.75086 38.3227 9.77486 38.9337 9.71352C39.5392 9.65353 40.1776 9.50286 40.7109 9.25619C41.2531 8.99219 41.7592 8.58153 42.1865 8.08419C43.0413 7.11486 43.5966 5.63353 43.1812 4.51219C42.7997 3.36286 41.5624 2.79486 40.4585 2.95619C39.3436 3.09619 38.303 3.95353 37.6352 5.10553C36.9575 6.24953 36.6525 7.72286 36.9181 9.01753C36.964 9.23753 37.0296 9.44953 37.1007 9.65886ZM52.496 13.3735C52.8513 13.2562 53.2032 13.1322 53.5541 12.9949C55.9107 12.0175 58.4356 10.7535 59.6325 8.54553C60.2085 7.47219 60.2282 6.35086 59.6904 5.40819C59.1439 4.44019 58.1787 3.81219 57.1589 3.76419C56.1282 3.68819 55.0286 4.12686 54.14 4.87619C53.6995 5.25619 53.3005 5.70953 52.9923 6.22553C52.8371 6.48286 52.6993 6.75086 52.5868 7.03086C52.4807 7.33219 52.3671 7.63219 52.2916 7.95219C51.8391 9.66153 51.9758 11.5855 52.496 13.3735ZM11.9729 17.8789L12.3292 17.4615C12.1347 17.4855 11.9784 17.5842 11.9915 17.6522C11.9893 17.6935 11.9904 17.6375 11.9773 17.5882C11.9576 17.6255 11.9379 17.6749 11.9379 17.7429C11.9489 17.8722 11.9773 17.8775 11.9729 17.8789ZM0.529953 11.0095C0.963888 9.44553 1.73338 8.05753 2.61655 6.84953C4.39055 4.39886 6.74276 2.65886 9.2458 1.58153C10.505 1.05219 11.8002 0.67486 13.125 0.464193C14.4508 0.27086 15.7854 0.261526 17.108 0.380193C18.4317 0.496193 19.7455 0.736193 21.0396 1.08819C22.3283 1.42819 23.629 1.90019 24.8412 2.58419C27.2732 3.93753 29.4254 5.83086 31.6956 7.33486C32.946 8.15886 34.2741 8.86819 35.6327 9.30153C35.331 7.47886 35.7836 5.62286 36.6394 4.22153C37.4996 2.79753 38.8277 1.71086 40.3437 1.54286C41.0957 1.46019 41.8521 1.59753 42.5538 1.98419C43.2501 2.36153 43.895 3.07486 44.1944 3.99886C44.5158 4.92819 44.436 5.98553 44.1518 6.82686C43.8687 7.68553 43.4173 8.40419 42.8905 8.99886C42.3614 9.59353 41.7504 10.0735 41.0695 10.3882C40.371 10.6909 39.7054 10.8215 39.0058 10.8829C38.5599 10.9229 38.1172 10.9055 37.6756 10.8642C38.021 11.4082 38.4517 11.8855 38.9446 12.2762C39.9382 13.0735 41.1143 13.5962 42.3254 13.9122C43.5299 14.2162 44.8197 14.3469 46.0799 14.3722C47.4353 14.3895 48.7896 14.2602 50.1242 13.9949C50.0039 13.5122 49.9012 13.0215 49.829 12.5202C49.5612 10.7509 49.6082 8.85353 50.1056 7.07486C50.2225 6.62819 50.3854 6.20153 50.5515 5.77619C50.7352 5.34286 50.9527 4.93619 51.1931 4.55486C51.673 3.79219 52.2578 3.15619 52.895 2.63219C54.176 1.60686 55.7085 1.01353 57.3043 1.15753C58.8979 1.28419 60.4916 2.30553 61.4064 4.01486C61.871 4.86419 62.1497 5.95619 62.0994 7.02153C62.0623 8.09886 61.7169 9.08819 61.2753 9.87886C60.3648 11.4615 59.1526 12.4722 57.8934 13.2655C56.6452 14.0042 55.3893 14.6055 54.0798 15.0735C53.8066 15.1722 53.5322 15.2615 53.2568 15.3482C53.3377 15.5135 53.4131 15.6829 53.5005 15.8429C54.8144 18.1909 56.8234 20.0055 59.0258 21.4402C63.5149 24.3029 68.4281 26.3549 73.4342 27.5309C78.4556 28.6629 83.6016 28.9975 88.682 28.3975C91.2222 28.0895 93.734 27.5482 96.2119 26.8029C98.6953 26.0815 101.14 25.1229 103.545 24.0069C108.358 21.7802 113.047 19.0335 117.702 16.1389C122.376 13.2775 127.041 10.3029 131.887 7.71753C134.315 6.42553 136.833 5.27886 139.458 4.55753C142.076 3.85219 144.834 3.63486 147.468 4.31219L147.367 5.08953C144.804 4.76686 142.237 5.24286 139.794 6.14686C137.339 7.03486 134.993 8.35486 132.676 9.76953C128.039 12.6495 123.498 15.8135 118.889 18.8975C114.256 21.9255 109.56 24.9495 104.564 27.2669C99.6058 29.6549 94.3231 31.3109 88.9585 31.9215C83.5961 32.5162 78.1692 32.1855 72.8931 30.9029C67.6203 29.5735 62.5159 27.4082 57.7568 24.2375C55.3871 22.6069 53.0535 20.4922 51.4424 17.4882C51.191 16.9989 50.9691 16.4895 50.7636 15.9695C49.2005 16.2629 47.6178 16.3829 46.0406 16.3149C44.683 16.2455 43.3484 16.0775 41.9931 15.6949C40.653 15.3015 39.3305 14.6855 38.1489 13.6882C37.2351 12.9269 36.4405 11.8389 35.9694 10.5495C35.6283 10.4535 35.2917 10.3415 34.9605 10.2162C33.674 9.71219 32.4553 9.01753 31.2956 8.21886C28.9838 6.61886 26.8808 4.70419 24.5505 3.35086C23.3897 2.66553 22.1709 2.19086 20.8986 1.84953C19.6362 1.49353 18.3519 1.24686 17.0621 1.12286C15.7723 0.994859 14.4727 0.993526 13.1938 1.16953C11.9183 1.36019 10.6482 1.71753 9.42724 2.21886C6.99087 3.24286 4.70753 4.90686 2.986 7.25086C2.1236 8.41619 1.38798 9.72553 0.969353 11.1975C0.538698 12.6642 0.394417 14.2495 0.484046 15.8082C0.668769 18.9295 1.76836 21.9709 3.53689 24.2375C5.29995 26.4655 7.79535 28.0335 10.3443 27.8882C11.6024 27.8015 12.8353 27.2122 13.7928 26.2229C14.7536 25.2562 15.4247 23.8269 15.4739 22.3389C15.51 20.8509 14.993 19.3175 14.0704 18.3562C13.6343 17.8802 13.0572 17.5575 12.5205 17.4655C12.55 17.5282 12.5763 17.6095 12.5817 17.7309C12.5839 17.9775 12.4429 18.1362 12.3664 18.1882C12.1959 18.3055 12.0779 18.3095 11.9445 18.3082C11.8155 18.2949 11.6723 18.2709 11.5149 18.1055C11.3379 17.9362 11.3302 17.5615 11.3827 17.4362C11.4603 17.0895 11.7182 16.8615 11.9226 16.7855C12.1369 16.6962 12.338 16.6842 12.5358 16.7002C13.2922 16.8255 13.9305 17.2255 14.465 17.8015C15.5296 18.9455 16.0838 20.6655 16.0324 22.3682C15.957 24.0949 15.181 25.6602 14.1229 26.7069C13.0681 27.7722 11.7292 28.3842 10.3694 28.4682C9.01299 28.5522 7.65981 28.1642 6.44654 27.4722C5.23 26.7829 4.12275 25.8162 3.19805 24.6309C1.35301 22.2602 0.217347 19.1055 0.0260667 15.8482C-0.0679342 14.2189 0.090554 12.5615 0.529953 11.0095Z" fill="#091414"/>
</svg>
