<svg width="48" height="44" viewBox="0 0 48 44" fill="none" xmlns="http://www.w3.org/2000/svg">
<path d="M26.25 2.27586V6.06897H29.2051C30.1171 6.06897 31.0141 6.31172 31.8061 6.76993L35.6761 9.00331C35.7921 9.07007 35.9161 9.10345 36.0481 9.10345H42.7502C43.347 9.10345 43.9193 9.34323 44.3412 9.77003C44.7632 10.1968 45.0002 10.7757 45.0002 11.3793C45.0002 11.9829 44.7632 12.5618 44.3412 12.9886C43.9193 13.4154 43.347 13.6552 42.7502 13.6552H41.4692L47.8023 27.893C47.9894 28.3142 48.0455 28.783 47.9629 29.2372C47.8804 29.6914 47.6632 30.1095 47.3403 30.4359L45.7503 28.8276L47.3373 30.4389L47.3343 30.445L47.3283 30.451L47.3103 30.4692L47.2923 30.4844L47.2623 30.5148L47.1273 30.6361C46.4933 31.1722 45.8073 31.6274 45.0692 32.0017C43.6682 32.7117 41.6402 33.3793 39.0002 33.3793C36.8987 33.4042 34.8205 32.9324 32.9311 32.0017C32.1945 31.6297 31.5038 31.1713 30.8731 30.6361L30.7381 30.5148L30.6901 30.4692L30.6721 30.451L30.6601 30.4389V30.4359C30.3371 30.1095 30.1199 29.6914 30.0374 29.2372C29.9549 28.783 30.0109 28.3142 30.1981 27.893L36.5341 13.6552H36.0481C35.1331 13.6552 34.2361 13.4154 33.4441 12.9542L29.5741 10.7208C29.4608 10.6553 29.3326 10.6208 29.2021 10.6207H26.25V39.4483H33.7501C34.3469 39.4483 34.9192 39.6881 35.3411 40.1149C35.7631 40.5417 36.0001 41.1205 36.0001 41.7241C36.0001 42.3277 35.7631 42.9066 35.3411 43.3334C34.9192 43.7602 34.3469 44 33.7501 44H14.2499C13.6531 44 13.0808 43.7602 12.6589 43.3334C12.2369 42.9066 11.9999 42.3277 11.9999 41.7241C11.9999 41.1205 12.2369 40.5417 12.6589 40.1149C13.0808 39.6881 13.6531 39.4483 14.2499 39.4483H21.75V10.6207H18.7979C18.6674 10.6208 18.5392 10.6553 18.4259 10.7208L14.5589 12.9572C13.7639 13.4124 12.8669 13.6552 11.9519 13.6552H11.4659L17.8019 27.893C17.9891 28.3142 18.0451 28.783 17.9626 29.2372C17.8801 29.6914 17.6629 30.1095 17.3399 30.4359L15.7499 28.8276L17.3369 30.4389L17.3339 30.445L17.3279 30.451L17.3099 30.4692L17.2619 30.5148L17.1269 30.6361C16.4929 31.1722 15.8069 31.6274 15.0689 32.0017C13.6679 32.7117 11.6399 33.3793 8.99982 33.3793C6.89836 33.4042 4.82019 32.9324 2.93075 32.0017C2.19419 31.6297 1.50344 31.1713 0.87273 30.6361L0.737728 30.5148L0.689728 30.4692L0.671728 30.451L0.659728 30.4389V30.4359C0.336749 30.1095 0.119579 29.6914 0.0370591 29.2372C-0.0454609 28.783 0.0105741 28.3142 0.197722 27.893L6.5338 13.6552H5.24978C4.65304 13.6552 4.08073 13.4154 3.65877 12.9886C3.23681 12.5618 2.99975 11.9829 2.99975 11.3793C2.99975 10.7757 3.23681 10.1968 3.65877 9.77003C4.08073 9.34323 4.65304 9.10345 5.24978 9.10345H11.9519C12.0834 9.1039 12.2127 9.06937 12.3269 9.00331L16.1909 6.7669C16.9859 6.31172 17.8829 6.06897 18.7979 6.06897H21.75V2.27586C21.75 1.67227 21.987 1.09339 22.409 0.666585C22.831 0.239778 23.4033 0 24 0C24.5967 0 25.169 0.239778 25.591 0.666585C26.013 1.09339 26.25 1.67227 26.25 2.27586ZM35.0851 27.9992C35.9401 28.4088 37.2392 28.8276 39.0002 28.8276C40.7612 28.8276 42.0602 28.4088 42.9152 27.9992L39.0002 19.1992L35.0851 27.9992ZM5.08478 27.9992C5.93979 28.4088 7.2388 28.8276 8.99982 28.8276C10.7608 28.8276 12.0599 28.4088 12.9149 27.9992L8.99982 19.1992L5.08478 27.9992Z" fill="#E4E2D6"/>
</svg>
