<svg width="298" height="80" viewBox="0 0 298 80" fill="none" xmlns="http://www.w3.org/2000/svg">
<path d="M7.444 70.1312C7.444 72.1072 5.77733 73.7112 3.72133 73.7112C1.66667 73.7112 0 72.1072 0 70.1312C0 68.1552 1.66667 66.5512 3.72133 66.5512C5.77733 66.5512 7.444 68.1552 7.444 70.1312Z" fill="#0D1616"/>
<path d="M19.9998 70.1312C19.9998 73.1992 17.4132 75.6872 14.2225 75.6872C11.0305 75.6872 8.44385 73.1992 8.44385 70.1312C8.44385 67.0619 11.0305 64.5752 14.2225 64.5752C17.4132 64.5752 19.9998 67.0619 19.9998 70.1312Z" fill="#0D1616"/>
<path d="M277 70.5759H21V69.6865H277V70.5759Z" fill="#0D1616"/>
<path d="M278 70.1319C278 73.1999 280.587 75.6865 283.777 75.6865C286.969 75.6865 289.556 73.1999 289.556 70.1319C289.556 67.0625 286.969 64.5759 283.777 64.5759C280.587 64.5759 278 67.0625 278 70.1319Z" fill="#0D1616"/>
<path d="M290.556 70.1318C290.556 72.1078 292.223 73.7105 294.279 73.7105C296.333 73.7105 298 72.1078 298 70.1318C298 68.1558 296.333 66.5518 294.279 66.5518C292.223 66.5518 290.556 68.1558 290.556 70.1318Z" fill="#0D1616"/>
<path d="M200.802 64.2441C201.403 65.0585 201.888 65.974 202.128 66.9168C202.393 67.8661 202.425 68.8867 202.294 69.8658C202.134 70.8397 201.805 71.7889 201.258 72.5605C200.73 73.349 199.992 73.9494 199.188 74.2879C198.353 74.603 197.386 74.7107 196.471 74.5252C196.008 74.4526 195.573 74.2866 195.163 74.0934C194.751 73.8924 194.402 73.6187 194.084 73.3231C193.956 73.1545 193.787 73.0105 193.69 72.8238C193.636 72.7343 193.566 72.6513 193.521 72.5566L193.389 72.2713C193.213 71.8823 193.122 71.4297 193.082 70.9629C193.007 70.0201 193.168 68.9839 193.462 67.9517C194.034 65.8806 195.02 63.9134 196.339 62.2029C196.596 61.867 196.874 61.5493 197.154 61.2342C198.582 61.9811 199.857 62.9978 200.802 64.2441ZM265.39 62.3429C265.193 61.1408 264.782 59.9516 264.067 58.9362C263.358 57.926 262.381 57.1064 261.237 56.6382C260.666 56.4022 260.054 56.2583 259.434 56.2401C258.811 56.2168 258.18 56.3283 257.606 56.5514C256.461 57.0052 255.468 57.8949 255.007 59.0672C253.941 61.4806 256.259 64.4334 258.754 63.8952L258.691 63.5957C258.158 63.6942 257.606 63.6008 257.119 63.3661C256.629 63.1366 256.211 62.7579 255.894 62.3209C255.578 61.8813 255.354 61.369 255.291 60.8399C255.227 60.3147 255.323 59.7778 255.535 59.2889C255.742 58.7987 256.083 58.3695 256.481 58.0155C256.881 57.6627 257.346 57.38 257.846 57.2024C258.845 56.8393 259.958 56.9274 260.931 57.3709C261.907 57.8015 262.745 58.5472 263.335 59.4446C263.928 60.3394 264.266 61.4053 264.41 62.4882C264.548 63.5749 264.499 64.6954 264.29 65.7834C264.094 66.8714 263.738 67.9296 263.254 68.9204C262.774 69.9176 262.164 70.8474 261.453 71.693C260.746 72.5437 259.944 73.3114 259.071 73.9922C257.335 75.3604 255.322 76.3693 253.21 76.9827C252.152 77.2861 251.067 77.4845 249.979 77.574C248.892 77.6752 247.792 77.6155 246.697 77.5001C244.512 77.2407 242.363 76.6416 240.348 75.7196C238.33 74.8027 236.427 73.6148 234.675 72.2311C232.931 70.8345 231.332 69.2498 229.898 67.5289C228.458 65.8054 227.164 63.9004 225.719 62.046C224.277 60.1967 222.67 58.3669 220.677 56.9132C216.709 54.0213 211.661 52.7893 206.816 53.4416C205.601 53.5907 204.404 53.8968 203.245 54.2988C202.958 54.4077 202.663 54.4959 202.382 54.623L201.538 54.9913C200.992 55.2675 200.438 55.536 199.92 55.864C199.385 56.1675 198.89 56.5306 198.386 56.8769C197.904 57.2568 197.413 57.6251 196.965 58.044C196.84 58.1555 196.73 58.2774 196.607 58.3915C194.281 57.5305 191.844 57.2426 189.474 57.2413C188.281 57.2374 187.101 57.3087 185.933 57.4137C184.766 57.5266 183.611 57.6951 182.452 57.8352C177.833 58.5251 173.318 59.7234 168.92 61.1849C168.366 61.3587 167.82 61.5532 167.276 61.749L165.639 62.3313C164.556 62.7398 163.473 63.1457 162.398 63.5723C160.256 64.4412 158.127 65.336 156.02 66.2723C151.797 68.1254 147.644 70.1121 143.469 72.0327C141.378 72.9846 139.31 73.9909 137.18 74.7988C136.114 75.1983 135.036 75.5653 133.933 75.8402C132.83 76.1125 131.707 76.3018 130.569 76.3706L130.578 76.6753C132.901 76.6753 135.207 76.1786 137.409 75.4589C139.616 74.7379 141.743 73.8405 143.873 72.9742C148.13 71.2196 152.36 69.4171 156.609 67.6923C158.734 66.8273 160.871 66.0077 163.016 65.2167L166.244 64.069L167.869 63.5321C168.408 63.3532 168.951 63.1742 169.497 63.016C173.849 61.6764 178.279 60.6285 182.753 60.0035C183.876 59.8868 184.997 59.7376 186.118 59.6443C187.237 59.56 188.353 59.5081 189.456 59.5263C191.3 59.5483 193.119 59.7908 194.825 60.3069C194.706 60.4522 194.575 60.587 194.462 60.7349C192.958 62.6762 191.822 64.9171 191.155 67.3058C190.818 68.4937 190.584 69.7815 190.685 71.1548C190.741 71.8382 190.876 72.5411 191.167 73.2102C191.44 73.8988 191.877 74.5032 192.366 75.0349C193.392 76.0555 194.688 76.6896 196.028 76.9308C197.366 77.1966 198.773 77.0709 200.083 76.5742C200.402 76.4224 200.733 76.2993 201.03 76.0969C201.179 75.9997 201.338 75.9115 201.479 75.8078L201.885 75.4849C202.408 75.0349 202.884 74.5239 203.258 73.9533C204.039 72.8277 204.476 71.5296 204.682 70.2224C204.855 68.9113 204.801 67.5678 204.443 66.284C204.097 64.9807 203.47 63.8239 202.697 62.7864C201.654 61.4274 200.343 60.3575 198.912 59.5172C201.254 57.5292 204.102 56.1623 207.131 55.7383C211.379 55.121 215.903 56.1792 219.412 58.6963C221.164 59.9464 222.66 61.5986 224.067 63.3713C225.483 65.1402 226.821 67.0413 228.366 68.8426C229.913 70.6438 231.632 72.296 233.508 73.751C235.394 75.1931 237.441 76.4315 239.626 77.3847C241.805 78.3482 244.151 78.9499 246.53 79.1795C247.716 79.2793 248.923 79.3195 250.124 79.1834C251.32 79.0576 252.5 78.8138 253.646 78.4623C255.93 77.7439 258.08 76.6066 259.934 75.0828C260.864 74.3255 261.707 73.4605 262.452 72.5151C263.198 71.5711 263.836 70.5375 264.328 69.4326C264.827 68.3316 265.183 67.1632 265.363 65.9675C265.556 64.7745 265.576 63.549 265.39 62.3429Z" fill="#0D1616"/>
<path d="M100.366 61.2338C100.646 61.5489 100.924 61.8666 101.179 62.2025C102.499 63.913 103.485 65.8803 104.057 67.9526C104.35 68.9849 104.512 70.0197 104.437 70.9625C104.397 71.4293 104.305 71.8819 104.129 72.2723L103.997 72.5563C103.953 72.6522 103.883 72.7339 103.83 72.8247C103.731 73.0102 103.564 73.1541 103.434 73.3227C103.118 73.6184 102.767 73.8933 102.357 74.093C101.947 74.2862 101.51 74.4522 101.048 74.5248C100.132 74.7116 99.1666 74.6039 98.3311 74.2875C97.5278 73.9504 96.7887 73.3499 96.2605 72.5602C95.7129 71.7899 95.3851 70.8393 95.2258 69.8654C95.0934 68.8863 95.1268 67.8657 95.3903 66.9164C95.6306 65.9736 96.1152 65.0581 96.718 64.2437C97.6615 62.9975 98.9378 61.9808 100.366 61.2338ZM32.1568 65.9672C32.3354 67.1628 32.6927 68.3326 33.1902 69.4323C33.6837 70.5371 34.3213 71.572 35.0681 72.5148C35.811 73.4615 36.6554 74.3264 37.5847 75.0838C39.4382 76.6062 41.5886 77.7435 43.8739 78.462C45.0179 78.8147 46.1978 79.0572 47.3957 79.183C48.595 79.3192 49.8019 79.279 50.9895 79.1791C53.3687 78.9496 55.7132 78.3479 57.8931 77.3843C60.0769 76.4325 62.1257 75.194 64.0113 73.7506C65.8879 72.2956 67.6051 70.6435 69.1527 68.8422C70.6989 67.0422 72.0357 65.1411 73.4521 63.3709C74.8583 61.5982 76.3557 59.9461 78.1076 58.6959C81.6166 56.1801 86.1397 55.1206 90.3877 55.7392C93.416 56.1619 96.2656 57.5301 98.6075 59.5181C97.1769 60.3571 95.8659 61.427 94.8222 62.7861C94.0497 63.8235 93.4211 64.9816 93.0754 66.2849C92.7168 67.5674 92.6628 68.9109 92.8376 70.2233C93.042 71.5292 93.4803 72.8273 94.2605 73.9542C94.6358 74.5235 95.1101 75.0358 95.6332 75.4845L96.0407 75.8074C96.1808 75.9111 96.3389 76.0006 96.488 76.0966C96.7862 76.2989 97.1165 76.4221 97.4353 76.5738C98.7463 77.0705 100.152 77.1976 101.491 76.9304C102.831 76.6892 104.128 76.0564 105.154 75.0358C105.642 74.5028 106.079 73.8998 106.353 73.2099C106.642 72.542 106.778 71.8391 106.834 71.1544C106.935 69.7811 106.7 68.4947 106.365 67.3068C105.697 64.9167 104.56 62.6758 103.056 60.7345C102.943 60.5867 102.812 60.4518 102.695 60.3066C104.399 59.7917 106.218 59.5479 108.062 59.5272C109.167 59.5077 110.281 59.5596 111.4 59.6439C112.521 59.7386 113.643 59.8864 114.765 60.0044C119.241 60.6282 123.669 61.676 128.022 63.0156C128.569 63.1738 129.11 63.3528 129.651 63.5317L131.274 64.0699L134.503 65.2163C136.648 66.0087 138.786 66.827 140.909 67.6919C145.16 69.418 149.39 71.2193 153.646 72.9751C155.777 73.8414 157.903 74.7375 160.111 75.4598C162.311 76.1783 164.617 76.675 166.941 76.675L166.949 76.3702C165.813 76.3015 164.688 76.1134 163.587 75.8411C162.484 75.5662 161.405 75.1992 160.338 74.7985C158.21 73.9906 156.142 72.9855 154.051 72.0324C149.876 70.1131 145.723 68.1251 141.499 66.2732C139.393 65.3356 137.263 64.4421 135.121 63.5732C134.047 63.1466 132.963 62.7394 131.881 62.3322L130.244 61.7486C129.699 61.5528 129.152 61.3596 128.6 61.1845C124.201 59.723 119.687 58.5247 115.068 57.8348C113.907 57.6948 112.753 57.5275 111.587 57.4147C110.418 57.3096 109.237 57.237 108.044 57.2409C105.676 57.2422 103.237 57.5314 100.911 58.3925C100.79 58.2783 100.678 58.1552 100.553 58.0436C100.105 57.6261 99.6152 57.2578 99.1332 56.8778C98.6293 56.5302 98.1332 56.1684 97.5998 55.8637C97.0818 55.5356 96.5278 55.2671 95.9803 54.9922L95.1371 54.6226C94.8556 54.4968 94.5612 54.4074 94.2733 54.2984C93.114 53.8977 91.9173 53.5904 90.7039 53.4412C85.8569 52.7889 80.8094 54.0209 76.8416 56.9128C74.848 58.3665 73.2413 60.1963 71.7992 62.0456C70.3545 63.9013 69.0614 65.8051 67.6218 67.5285C66.1874 69.2507 64.5884 70.8341 62.8442 72.2308C61.091 73.6145 59.19 74.8024 57.172 75.7192C55.1553 76.6412 53.0062 77.2417 50.8225 77.4997C49.7273 77.6152 48.6271 77.6761 47.5397 77.575C46.451 77.4842 45.3662 77.2858 44.3084 76.9836C42.1965 76.3689 40.1837 75.3613 38.4472 73.9919C37.5757 73.311 36.7724 72.5446 36.0668 71.6926C35.356 70.8471 34.7441 69.9173 34.266 68.9213C33.7814 67.9292 33.4241 66.8723 33.2287 65.783C33.0205 64.695 32.9704 63.5758 33.1079 62.4878C33.2519 61.405 33.5912 60.3403 34.1837 59.4442C34.7737 58.5481 35.613 57.8024 36.5886 57.3706C37.5603 56.9284 38.6734 56.8389 39.6721 57.2033C40.1734 57.3797 40.6387 57.6624 41.0372 58.0164C41.4356 58.3691 41.7762 58.7984 41.9845 59.2886C42.1953 59.7775 42.2917 60.3143 42.2287 60.8396C42.1644 61.3687 41.9408 61.8809 41.6258 62.3205C41.3071 62.7588 40.8906 63.1375 40.3996 63.367C39.9138 63.6005 39.3611 63.6938 38.829 63.5953L38.7647 63.8961C41.2608 64.433 43.577 61.4802 42.5127 59.0668C42.05 57.8958 41.0577 57.0049 39.9125 56.5523C39.3379 56.3279 38.7068 56.2164 38.0847 56.2398C37.4639 56.2579 36.8521 56.4019 36.2827 56.6379C35.1375 57.106 34.1619 57.9256 33.4524 58.9371C32.7377 59.9525 32.3251 61.1417 32.1298 62.3426C31.9421 63.5486 31.964 64.7741 32.1568 65.9672Z" fill="#0D1616"/>
<path d="M115.069 35.5012L148.749 69.1814L182.429 35.5012L148.749 1.82102L115.069 35.5012ZM148.749 71L113.25 35.5012L148.749 0L184.25 35.5012L148.749 71Z" fill="#000202"/>
<path d="M120.53 35.5011L148.749 63.7183L176.966 35.5011L148.749 7.28397L120.53 35.5011ZM148.749 65.5393L118.711 35.5011L148.749 5.46295L178.787 35.5011L148.749 65.5393Z" fill="#000202"/>
</svg>
