<svg width="24" height="34" viewBox="0 0 24 34" fill="none" xmlns="http://www.w3.org/2000/svg">
<path fill-rule="evenodd" clip-rule="evenodd" d="M8.491 8H7.901C6.448 8 5.721 8 5.187 8.403C4.652 8.807 4.453 9.505 4.054 10.901L3.454 13H7.553L8.491 8ZM3.001 14.924L3.009 14.974C3.059 15.214 3.221 15.414 3.546 15.81L9.291 22.833L7.578 15H3.383C3.25158 15.0001 3.12243 14.9743 3.001 14.924ZM14.474 22.833L20.219 15.81C20.544 15.413 20.706 15.215 20.756 14.974L20.765 14.924C20.6439 14.9741 20.5141 14.9999 20.383 15H16.188L14.474 22.833ZM20.311 13L19.711 10.901C19.313 9.505 19.113 8.807 18.579 8.403C18.043 8 17.318 8 15.866 8H15.276L16.213 13H20.311ZM13.241 8H10.525L9.588 13H14.178L13.241 8ZM11.883 25.32L9.625 15H14.141L11.883 25.32Z" fill="#65090A"/>
</svg>
