<svg width="21" height="21" viewBox="0 0 21 21" fill="none" xmlns="http://www.w3.org/2000/svg">
<mask id="mask0_447_409" style="mask-type:luminance" maskUnits="userSpaceOnUse" x="0" y="0" width="21" height="21">
<path d="M20.2745 8.37818H10.7327V12.3345H16.225C15.713 14.848 13.572 16.2909 10.7327 16.2909C7.38141 16.2909 4.68177 13.5913 4.68177 10.24C4.68177 6.88873 7.38141 4.18909 10.7327 4.18909C12.1756 4.18909 13.4789 4.70109 14.5029 5.53891L17.4818 2.56C15.6665 0.977455 13.3392 0 10.7327 0C5.05413 0 0.492676 4.56146 0.492676 10.24C0.492676 15.9186 5.05413 20.48 10.7327 20.48C15.8527 20.48 20.5072 16.7564 20.5072 10.24C20.5072 9.63491 20.4141 8.98328 20.2745 8.37818Z" fill="white"/>
</mask>
<g mask="url(#mask0_447_409)">
<path d="M-0.438477 16.2908V4.18896L7.47425 10.2399L-0.438477 16.2908Z" fill="#FBBC05"/>
</g>
<mask id="mask1_447_409" style="mask-type:luminance" maskUnits="userSpaceOnUse" x="0" y="0" width="21" height="21">
<path d="M20.2745 8.37818H10.7327V12.3345H16.225C15.713 14.848 13.572 16.2909 10.7327 16.2909C7.38141 16.2909 4.68177 13.5913 4.68177 10.24C4.68177 6.88873 7.38141 4.18909 10.7327 4.18909C12.1756 4.18909 13.4789 4.70109 14.5029 5.53891L17.4818 2.56C15.6665 0.977455 13.3392 0 10.7327 0C5.05413 0 0.492676 4.56146 0.492676 10.24C0.492676 15.9186 5.05413 20.48 10.7327 20.48C15.8527 20.48 20.5072 16.7564 20.5072 10.24C20.5072 9.63491 20.4141 8.98328 20.2745 8.37818Z" fill="white"/>
</mask>
<g mask="url(#mask1_447_409)">
<path d="M-0.438477 4.18861L7.47425 10.2395L10.7324 7.40024L21.9033 5.58497V-0.931396H-0.438477V4.18861Z" fill="#EA4335"/>
</g>
<mask id="mask2_447_409" style="mask-type:luminance" maskUnits="userSpaceOnUse" x="0" y="0" width="21" height="21">
<path d="M20.2745 8.37818H10.7327V12.3345H16.225C15.713 14.848 13.572 16.2909 10.7327 16.2909C7.38141 16.2909 4.68177 13.5913 4.68177 10.24C4.68177 6.88873 7.38141 4.18909 10.7327 4.18909C12.1756 4.18909 13.4789 4.70109 14.5029 5.53891L17.4818 2.56C15.6665 0.977455 13.3392 0 10.7327 0C5.05413 0 0.492676 4.56146 0.492676 10.24C0.492676 15.9186 5.05413 20.48 10.7327 20.48C15.8527 20.48 20.5072 16.7564 20.5072 10.24C20.5072 9.63491 20.4141 8.98328 20.2745 8.37818Z" fill="white"/>
</mask>
<g mask="url(#mask2_447_409)">
<path d="M-0.438477 16.2904L13.5252 5.58497L17.2023 6.05042L21.9033 -0.931396V21.4104H-0.438477V16.2904Z" fill="#34A853"/>
</g>
<mask id="mask3_447_409" style="mask-type:luminance" maskUnits="userSpaceOnUse" x="0" y="0" width="21" height="21">
<path d="M20.2745 8.37818H10.7327V12.3345H16.225C15.713 14.848 13.572 16.2909 10.7327 16.2909C7.38141 16.2909 4.68177 13.5913 4.68177 10.24C4.68177 6.88873 7.38141 4.18909 10.7327 4.18909C12.1756 4.18909 13.4789 4.70109 14.5029 5.53891L17.4818 2.56C15.6665 0.977455 13.3392 0 10.7327 0C5.05413 0 0.492676 4.56146 0.492676 10.24C0.492676 15.9186 5.05413 20.48 10.7327 20.48C15.8527 20.48 20.5072 16.7564 20.5072 10.24C20.5072 9.63491 20.4141 8.98328 20.2745 8.37818Z" fill="white"/>
</mask>
<g mask="url(#mask3_447_409)">
<path d="M21.9037 21.4108L7.47461 10.2399L5.61279 8.84351L21.9037 4.18896V21.4108Z" fill="#4285F4"/>
</g>
</svg>
