<svg width="48" height="48" viewBox="0 0 48 48" fill="none" xmlns="http://www.w3.org/2000/svg">
<circle cx="24" cy="24" r="23.1" stroke="black" stroke-width="1.8"/>
<path d="M30.2786 13.8741C30.7675 13.0722 28.5888 12.102 27.0617 11.8066C25.5343 11.5111 23.8582 11.6661 23.7676 12.6146C23.6767 13.563 23.6899 14.9336 23.6899 14.9336C23.6899 14.9336 26.1216 16.1459 27.2866 16.1162C28.4517 16.0866 29.8824 14.5239 30.2786 13.8741Z" fill="#FBB872"/>
<path d="M29.5323 13.4978C29.6036 13.2489 27.9318 12.5428 26.8374 12.4471C25.7431 12.3513 24.5961 12.4076 24.5491 13.1289C24.5023 13.8502 24.4248 14.8901 24.4248 14.8901L28.5762 15.6237L29.5323 13.4978Z" fill="#F8A35E"/>
<path d="M22.531 7.41884C22.531 7.41884 21.9846 8.63283 18.9799 8.63283C15.9751 8.63283 15.4287 7.41884 15.4287 7.41884C16.4607 10.0897 16.7035 19.6506 16.7035 19.6506C16.7035 19.6506 16.4607 29.2112 15.4287 31.8821C15.4287 31.8821 15.9751 33.1569 18.9799 33.1569C21.9846 33.1569 22.531 31.8821 22.531 31.8821C21.4992 29.2112 21.2563 19.6506 21.2563 19.6506C21.2563 19.6506 21.4992 10.0897 22.531 7.41884Z" fill="#FFE7B4"/>
<path d="M22.5308 7.41885C22.8585 6.53874 20.5351 5.99994 18.9797 5.99994C17.4242 5.99994 15.808 6.47038 15.8989 7.41885C15.9901 8.36732 16.2632 9.71044 16.2632 9.71044C16.2632 9.71044 18.8811 10.4388 20.0193 10.1885C21.1573 9.93798 22.2653 8.13219 22.5308 7.41885Z" fill="#FBB872"/>
<path d="M22.531 31.8821C21.4992 29.2112 21.2563 19.6504 21.2563 19.6504C21.2563 19.6504 21.4992 10.0897 22.531 7.41884C22.531 7.41884 21.9846 8.63283 18.9799 8.63283C16.3851 8.63283 15.6243 7.72821 15.4648 7.48099C16.4901 9.33029 21.1109 9.07409 20.8466 10.1353C20.579 11.2086 20.4663 13.2072 20.2396 16.9636C20.0129 20.72 17.3155 19.2946 17.9798 20.6408C18.6441 21.987 20.1457 21.103 20.3691 22.1773C20.5926 23.2516 21.5026 31.5039 19.0707 32.2811C16.6387 33.0581 15.4287 31.8821 15.4287 31.8821C15.4287 31.8821 15.9751 33.1569 18.9799 33.1569C21.9846 33.1569 22.531 31.8821 22.531 31.8821Z" fill="#FFD898"/>
<path d="M19.0243 19.5281C17.955 19.5281 16.6841 19.1257 16.6706 19.1212C16.645 19.1131 16.6309 19.0858 16.639 19.0602C16.6473 19.0345 16.6747 19.0207 16.7001 19.0286C16.7146 19.0335 18.1525 19.4892 19.2396 19.4248C20.3271 19.3615 21.2474 18.9465 21.2564 18.9423C21.2809 18.9311 21.3097 18.9421 21.3208 18.9665C21.332 18.9907 21.3213 19.0195 21.2968 19.0307C21.2874 19.0349 20.3516 19.4575 19.2455 19.522C19.1732 19.5262 19.0991 19.5281 19.0243 19.5281Z" fill="#5A4A42"/>
<path d="M16.6727 20.6409C16.656 20.6409 16.6397 20.6321 16.6306 20.6167C16.6171 20.5936 16.6251 20.5639 16.6482 20.5504C16.6591 20.5438 17.7645 19.9106 19.2428 19.9106C20.7261 19.9106 21.2854 20.3721 21.3084 20.3918C21.3287 20.4092 21.3313 20.4397 21.3139 20.4601C21.2968 20.4807 21.2661 20.4836 21.2455 20.4658C21.2402 20.4612 20.6852 20.0076 19.2428 20.0076C17.7917 20.0076 16.7078 20.6279 16.697 20.6343C16.6893 20.6388 16.681 20.6409 16.6727 20.6409Z" fill="#5A4A42"/>
<path d="M16.6726 20.0077C16.6509 20.0077 16.631 19.9928 16.6255 19.9709C16.6189 19.9449 16.6348 19.9184 16.6609 19.912C16.6707 19.9096 17.6601 19.6676 19.1546 19.6676C20.6481 19.6676 21.2463 19.7852 21.271 19.79C21.2972 19.7953 21.3143 19.8209 21.309 19.8473C21.3036 19.8736 21.2786 19.8903 21.2518 19.8853C21.2458 19.8841 20.636 19.7648 19.1546 19.7648C17.6729 19.7648 16.694 20.0039 16.6844 20.0061C16.6804 20.0073 16.6764 20.0077 16.6726 20.0077Z" fill="#5A4A42"/>
<path d="M18.8762 17.6785C18.3647 17.6968 18.0784 18.2068 17.7694 18.4283C17.1386 18.8806 17.5597 19.5829 17.6026 19.8923C17.6532 20.2562 17.4956 20.5112 17.8288 20.7969C18.162 21.0824 18.5729 21.1544 19.0904 21.3801C19.5547 21.5824 20.114 21.1896 20.4472 20.8207C20.7806 20.4516 21.1733 20.3684 21.0304 19.7257C20.8876 19.0829 20.8519 18.833 20.7567 18.464C20.6614 18.0951 20.0664 18.0355 19.757 17.857C19.4474 17.6785 19.2094 17.6666 18.8762 17.6785Z" fill="#EC1C24"/>
<path d="M20.594 19.6065C20.594 20.3528 19.9891 20.9578 19.2428 20.9578C18.4965 20.9578 17.8914 20.3528 17.8914 19.6065C17.8914 18.8602 18.4965 18.2553 19.2428 18.2553C19.9891 18.2553 20.594 18.8602 20.594 19.6065Z" fill="#C5161D"/>
<path d="M20.5024 19.4222C20.5024 19.4222 20.6305 20.6056 19.4153 20.8822C19.4153 20.8822 20.3755 20.6283 20.5024 19.4222Z" fill="#EC1C24"/>
<path d="M17.5865 19.5551C17.5865 19.5551 17.404 19.0869 17.5865 18.7575C17.769 18.4282 18.0125 18.3842 18.1895 18.1306C18.1895 18.1306 18.0693 18.3689 17.8087 18.6068C17.548 18.8447 17.5229 19.2497 17.5865 19.5551Z" fill="#EF5038"/>
<path d="M30.2786 13.8741C30.2786 13.8741 29.5115 14.9623 26.5615 14.3915C23.6115 13.821 23.3055 12.5252 23.3055 12.5252C23.8115 15.3435 22.234 24.7762 22.234 24.7762C22.234 24.7762 20.1796 34.1169 18.6592 36.5432C18.6592 36.5432 18.9535 37.8986 21.9036 38.4691C24.8536 39.0399 25.6322 37.8922 25.6322 37.8922C25.1264 35.0739 26.7037 25.641 26.7037 25.641C26.7037 25.641 28.7581 16.3004 30.2786 13.8741Z" fill="#FFE7B4"/>
<path d="M24.5363 25.0968C23.4865 24.8936 22.3152 24.2571 22.3026 24.2504C22.2791 24.2374 22.2705 24.2079 22.2832 24.1844C22.2964 24.1608 22.3259 24.1523 22.3494 24.1651C22.3625 24.1725 23.6877 24.8929 24.7673 25.0364C25.847 25.1807 26.8293 24.948 26.839 24.9456C26.8652 24.9394 26.8915 24.9556 26.8977 24.9815C26.9041 25.0076 26.888 25.0338 26.8619 25.0402C26.8519 25.0424 25.8529 25.2797 24.7546 25.1329C24.6827 25.1232 24.6097 25.111 24.5363 25.0968Z" fill="#5A4A42"/>
<path d="M22.0161 25.7428C21.9995 25.7396 21.9853 25.7279 21.9793 25.7112C21.9705 25.6858 21.9838 25.658 22.0091 25.6492C22.0211 25.645 23.2266 25.2331 24.6781 25.5138C26.1343 25.7956 26.5958 26.3549 26.6146 26.3786C26.6313 26.3996 26.6281 26.4302 26.6072 26.4468C26.5865 26.4639 26.5557 26.4608 26.5388 26.4393C26.5345 26.4338 26.0758 25.8833 24.6596 25.6093C23.235 25.3336 22.053 25.7367 22.0411 25.7409C22.0328 25.7438 22.0242 25.7443 22.0161 25.7428Z" fill="#5A4A42"/>
<path d="M22.1364 25.1211C22.1149 25.1169 22.0982 25.0986 22.097 25.076C22.0956 25.0492 22.1162 25.0263 22.1429 25.0249C22.1531 25.0244 23.1705 24.9748 24.6377 25.2586C26.1041 25.5423 26.669 25.7712 26.6923 25.7807C26.7171 25.7909 26.729 25.8194 26.7188 25.8442C26.7087 25.8689 26.6807 25.8805 26.6553 25.8706C26.6498 25.8684 26.0737 25.6353 24.6192 25.3539C23.1646 25.0725 22.1581 25.1214 22.1483 25.1217C22.1441 25.1221 22.1401 25.1217 22.1364 25.1211Z" fill="#5A4A42"/>
<path d="M24.7418 23.2528C24.2361 23.1735 23.8582 23.6198 23.5126 23.7788C22.8074 24.1028 23.0875 24.8724 23.071 25.1844C23.0515 25.5512 22.8483 25.7715 23.1212 26.1154C23.3942 26.4591 23.7838 26.6078 24.2491 26.9275C24.6663 27.2144 25.2902 26.9349 25.6875 26.6361C26.0847 26.3371 26.4861 26.3298 26.468 25.6717C26.4498 25.0137 26.4623 24.7614 26.4388 24.3811C26.4155 24.0008 25.8425 23.8294 25.5725 23.5953C25.3027 23.3613 25.0712 23.3044 24.7418 23.2528Z" fill="#EC1C24"/>
<path d="M26.0621 25.472C25.9203 26.2047 25.2115 26.6838 24.4788 26.542C23.746 26.4003 23.2669 25.6915 23.4086 24.9588C23.5504 24.2259 24.2594 23.7469 24.9921 23.8886C25.7247 24.0305 26.2038 24.7394 26.0621 25.472Z" fill="#C5161D"/>
<path d="M23.4619 25.171C23.4619 25.171 23.5608 23.9848 24.8064 23.9441C24.8064 23.9441 23.8156 24.0111 23.4619 25.171Z" fill="#A40D12"/>
<path d="M26.0076 25.2737C26.0076 25.2737 25.9087 26.4599 24.6631 26.5006C24.6631 26.5006 25.6539 26.4336 26.0076 25.2737Z" fill="#EC1C24"/>
<path d="M23.1198 24.8503C23.1198 24.8503 23.0295 24.3559 23.2712 24.0673C23.5131 23.7788 23.7604 23.7817 23.9825 23.5664C23.9825 23.5664 23.8191 23.7774 23.5181 23.9614C23.2168 24.1456 23.1155 24.5386 23.1198 24.8503Z" fill="#EF5038"/>
<path d="M28.8593 31.9813L28.5798 32.2249L26.2383 29.5386L26.5178 29.295L28.8593 31.9813Z" fill="#929497"/>
<path d="M28.4632 32.3263L28.2614 32.5022L25.9199 29.816L26.1217 29.64L28.4632 32.3263Z" fill="#CCCECF"/>
<path d="M26.7082 28.5824L25.8619 29.3201L25.0156 30.0576C25.0156 30.0576 25.2154 30.9766 26.4033 29.9411C27.5912 28.9058 26.7082 28.5824 26.7082 28.5824Z" fill="#909295"/>
<path d="M25.8619 29.3201L25.0156 30.0578C25.0156 30.0578 25.026 30.1044 25.0552 30.1648C25.1926 30.1287 25.5237 30.0029 26.0739 29.5633C26.7266 29.042 26.7974 29.0074 26.9379 29.319C27.2204 28.7709 26.7082 28.5824 26.7082 28.5824L25.8619 29.3201Z" fill="#808184"/>
<path d="M26.3729 27.7496L25.3046 28.6808L24.2363 29.6119C24.2363 29.6119 24.2892 30.1124 24.6726 30.1971C25.0562 30.2819 25.5646 29.8933 26.0174 29.4986C26.4703 29.1038 26.9246 28.6532 26.893 28.2617C26.8616 27.8703 26.3729 27.7496 26.3729 27.7496Z" fill="#909295"/>
<path d="M26.893 28.2618C26.8615 27.8703 26.3729 27.7498 26.3729 27.7498L25.3046 28.6808L24.2363 29.612C24.2363 29.612 24.2432 29.6747 24.2686 29.7589C24.2686 29.7589 24.6526 29.8185 25.505 29.0936C26.3574 28.3689 26.5312 28.469 26.5968 28.9277C26.7855 28.7005 26.91 28.4726 26.893 28.2618Z" fill="#808184"/>
<path d="M26.0395 21.5508C27.9406 23.7319 27.7136 27.0412 25.5325 28.9423C23.3514 30.8434 20.0421 30.6163 18.141 28.4352C16.2399 26.2541 16.4669 22.9448 18.648 21.0438C20.8291 19.1427 24.1384 19.3697 26.0395 21.5508Z" fill="#9EA0A3"/>
<path d="M25.9308 21.6454C27.7796 23.7664 27.5588 26.9847 25.4378 28.8335C23.3168 30.6823 20.0986 30.4615 18.2498 28.3404C16.4011 26.2192 16.6217 23.0011 18.7427 21.1523C20.8639 19.3035 24.0821 19.5243 25.9308 21.6454Z" fill="#BBBDBF"/>
<path d="M25.6205 21.9162C27.3198 23.8658 27.1169 26.8237 25.1673 28.523C23.2177 30.2223 20.2598 30.0194 18.5605 28.0698C16.8612 26.1202 17.0641 23.1623 19.0137 21.463C20.9633 19.7637 23.9212 19.9666 25.6205 21.9162Z" fill="#8AD6F7"/>
<mask id="mask0_11_1972" style="mask-type:luminance" maskUnits="userSpaceOnUse" x="17" y="20" width="7" height="9">
<path d="M17.4077 20.3103H23.142V28.0698H17.4077V20.3103Z" fill="white"/>
</mask>
<g mask="url(#mask0_11_1972)">
<g opacity="0.389999">
<path d="M18.3033 23.0937C19.8475 20.6025 21.886 20.2681 22.8573 20.3738C21.5261 20.1537 20.1103 20.5076 19.0137 21.4635C17.0641 23.1627 16.8612 26.1207 18.5605 28.0703C18.5605 28.0703 16.6561 25.7509 18.3033 23.0937Z" fill="#231F20"/>
<path d="M23.0596 20.4118C23.0886 20.4205 23.1157 20.4263 23.1419 20.4307C23.1145 20.4244 23.087 20.4177 23.0596 20.4118Z" fill="#231F20"/>
</g>
</g>
<mask id="mask1_11_1972" style="mask-type:luminance" maskUnits="userSpaceOnUse" x="21" y="21" width="6" height="9">
<path d="M21.0391 21.9161H26.7734V29.6758H21.0391V21.9161Z" fill="white"/>
</mask>
<g mask="url(#mask1_11_1972)">
<g opacity="0.309998">
<path d="M25.8775 26.8926C24.3332 29.3838 22.2947 29.7182 21.3235 29.6126C22.6547 29.8327 24.0705 29.4788 25.1671 28.5229C27.1167 26.8236 27.3195 23.8656 25.6203 21.916C25.6203 21.916 27.5246 24.2354 25.8775 26.8926Z" fill="white"/>
<path d="M21.1209 29.5741C21.0919 29.5655 21.0648 29.5596 21.0386 29.5553C21.066 29.5615 21.0935 29.5682 21.1209 29.5741Z" fill="white"/>
</g>
</g>
<mask id="mask2_11_1972" style="mask-type:luminance" maskUnits="userSpaceOnUse" x="18" y="21" width="3" height="4">
<path d="M18.0676 21.511H20.3113V24.6095H18.0676V21.511Z" fill="white"/>
</mask>
<g mask="url(#mask2_11_1972)">
<g opacity="0.309998">
<path d="M20.2587 21.5293C20.4457 21.6598 20.1185 22.4511 19.5279 23.2965C18.9373 24.1421 18.3072 24.7217 18.1202 24.591C17.9333 24.4605 18.2604 23.6693 18.851 22.8237C19.4414 21.9783 20.0717 21.3987 20.2587 21.5293Z" fill="white"/>
</g>
</g>
<path d="M25.4219 29.7085C25.4495 29.7561 25.3321 29.8754 25.1598 29.9752C24.9875 30.0748 24.8254 30.1171 24.798 30.0696C24.7704 30.022 24.8877 29.9025 25.06 29.8029C25.2323 29.7031 25.3943 29.6608 25.4219 29.7085Z" fill="#AAACAF"/>
<path d="M26.0884 29.9923C26.116 30.0399 25.9986 30.1592 25.8263 30.259C25.654 30.3586 25.4919 30.4009 25.4645 30.3534C25.4369 30.3058 25.5542 30.1863 25.7265 30.0867C25.8988 29.9869 26.0608 29.9446 26.0884 29.9923Z" fill="#AAACAF"/>
<path d="M28.9943 31.8635C28.8287 32.0079 28.4848 32.3076 28.4848 32.3076L28.4741 32.3169L28.4634 32.3264C28.4634 32.3264 28.1195 32.6259 27.9539 32.7704C27.7882 32.9147 27.8265 33.2093 28.1333 33.5613C28.4401 33.9133 33.4388 39.6481 33.8178 40.083C34.1967 40.5177 34.7322 40.1603 35.0607 39.8738C35.3894 39.5874 35.8167 39.1057 35.4378 38.6708C35.0588 38.2361 30.0601 32.5011 29.7533 32.1493C29.4466 31.7973 29.1598 31.7192 28.9943 31.8635Z" fill="#67686B"/>
<path d="M35.4378 38.671C35.0589 38.2363 30.0602 32.5012 29.7534 32.1492C29.4466 31.7974 29.16 31.7192 28.9943 31.8637C28.8288 32.008 28.4849 32.3077 28.4849 32.3077C28.4849 32.3077 29.1901 32.2031 29.6051 32.6792C30.0201 33.1555 34.7571 38.5902 35.1181 39.0043C35.4791 39.4183 35.061 39.8739 35.061 39.8739C35.3897 39.5875 35.8168 39.1057 35.4378 38.671Z" fill="#58595B"/>
<path d="M34.0042 39.9205C33.6252 39.4856 28.6265 33.7508 28.3197 33.3988C28.013 33.0469 27.9461 32.7771 28.0737 32.6659C28.2013 32.5547 28.466 32.3241 28.466 32.3241C28.466 32.3241 28.3701 32.9176 28.7853 33.3938C29.2004 33.8701 33.9374 39.3047 34.2982 39.7189C34.6592 40.1328 35.0611 39.8737 35.0611 39.8737C34.808 40.0943 34.3831 40.3552 34.0042 39.9205Z" fill="#7E8081"/>
</svg>
