<svg width="107" height="146" viewBox="0 0 107 146" fill="none" xmlns="http://www.w3.org/2000/svg">
<mask id="mask0_1_1222" style="mask-type:luminance" maskUnits="userSpaceOnUse" x="27" y="112" width="65" height="5">
<path d="M27.4463 112.11H91.4744V116.097H27.4463V112.11Z" fill="white"/>
</mask>
<g mask="url(#mask0_1_1222)">
<g opacity="0.0899963">
<path d="M87.0936 113.272C88.0265 113.326 88.9765 113.39 89.8203 113.578C90.713 113.777 91.4707 114.149 91.4739 114.546C91.4872 116.269 85.2527 115.722 84.2544 115.747C81.1409 115.825 78.0273 115.89 74.913 115.943C68.6852 116.047 62.4563 116.098 56.2274 116.096C49.4382 116.094 42.6487 116.029 35.8602 115.901C33.7903 115.862 31.7033 115.816 29.6841 115.357C28.992 115.2 28.2647 114.966 27.8274 114.407C25.9064 111.954 31.8085 112.159 32.8746 112.132C35.5736 112.064 38.2719 112.171 40.971 112.151C46.1093 112.112 51.2613 112.128 56.4203 112.199C66.5817 112.34 76.7697 112.695 86.9283 113.263C86.9835 113.266 87.0384 113.269 87.0936 113.272Z" fill="#1C2229"/>
</g>
</g>
<path d="M75.9265 106.601L44.1413 112.866C38.9883 113.881 33.9876 110.527 32.9723 105.374L15.7071 17.7719C14.6917 12.6192 18.0454 7.61893 23.1985 6.60321L54.9836 0.338669C60.1367 -0.676704 65.137 2.67699 66.1527 7.83005L83.4179 95.4323C84.4287 100.564 81.0579 105.589 75.9265 106.601Z" fill="#292929"/>
<path d="M75.4764 104.998L43.9492 111.211C39.6001 112.068 35.3799 109.238 34.5229 104.889L17.2654 17.3245C16.408 12.9754 19.2388 8.75485 23.5876 7.89782L55.1151 1.6843C59.4639 0.827271 63.6848 3.65807 64.5418 8.00687L81.7993 95.571C82.6525 99.9023 79.8077 104.145 75.4764 104.998Z" fill="#F2F6F9"/>
<path d="M26.8213 6.20682L27.4365 8.2103C27.8384 9.52032 29.3186 10.2924 30.8496 9.99079L49.1902 6.37634C50.7208 6.0747 51.7977 4.79859 51.6725 3.43369L51.4813 1.34668L26.8213 6.20682Z" fill="#292929"/>
<mask id="mask1_1_1222" style="mask-type:luminance" maskUnits="userSpaceOnUse" x="17" y="1" width="65" height="111">
<path d="M55.1155 1.68445L23.5879 7.89796C19.2388 8.755 16.408 12.9752 17.2654 17.3247L34.5228 104.888C35.3799 109.238 39.6004 112.068 43.9492 111.211L75.4764 104.998C79.8077 104.144 82.6528 99.9021 81.7993 95.5712L64.5418 8.00701C63.7879 4.1818 60.4321 1.53136 56.6761 1.53136C56.1613 1.53136 55.6394 1.58099 55.1155 1.68445Z" fill="white"/>
</mask>
<g mask="url(#mask1_1_1222)">
<path d="M67.8728 23.8117L20.0389 33.2391L18.1406 23.608L65.9746 14.1809L67.8728 23.8117Z" fill="#E8324B"/>
<path d="M93.919 95.0509L80.7566 97.6451L78.0991 84.1614L91.2615 81.5676L93.919 95.0509Z" fill="#B8B8B8"/>
</g>
<path d="M39.4583 47.7546L26.2958 50.3488L23.7017 37.1863L36.8641 34.5922L39.4583 47.7546Z" fill="#B8B8B8"/>
<path d="M42.052 60.9169L28.8896 63.5111L26.5488 51.6328L39.7113 49.0386L42.052 60.9169Z" fill="#B8B8B8"/>
<path d="M45.2645 76.6254L32.1021 79.2196L29.2549 64.773L42.4173 62.1788L45.2645 76.6254Z" fill="#B8B8B8"/>
<path d="M50.5796 103.592L37.4172 106.187L34.7598 92.703L47.9218 90.1091L50.5796 103.592Z" fill="#B8B8B8"/>
<path d="M61.4948 101.441L51.8636 103.339L49.2065 89.8557L58.837 87.9578L61.4948 101.441Z" fill="#B8B8B8"/>
<path d="M79.4724 97.898L62.7787 101.188L60.1216 87.7048L76.8149 84.4147L79.4724 97.898Z" fill="#B8B8B8"/>
<path d="M33.481 84.4509L75.8438 76.1018" stroke="#B8B8B8" stroke-width="1.04858" stroke-miterlimit="10"/>
<path d="M32.9448 81.7348L75.3076 73.3857" stroke="#B8B8B8" stroke-width="1.04858" stroke-miterlimit="10"/>
<path d="M38.6123 36.1788L66.8634 30.6109" stroke="#B8B8B8" stroke-width="1.04858" stroke-miterlimit="10"/>
<path d="M39.1479 38.8946L67.399 33.3267" stroke="#B8B8B8" stroke-width="1.04858" stroke-miterlimit="10"/>
<path d="M39.6846 41.6106L67.9353 36.0427" stroke="#B8B8B8" stroke-width="1.04858" stroke-miterlimit="10"/>
<path d="M40.2207 44.3264L65.0768 39.4289" stroke="#B8B8B8" stroke-width="1.04858" stroke-miterlimit="10"/>
<path d="M41.3599 50.0977L69.6106 44.5297" stroke="#B8B8B8" stroke-width="1.04858" stroke-miterlimit="10"/>
<path d="M41.896 52.8135L66.7521 47.9159" stroke="#B8B8B8" stroke-width="1.04858" stroke-miterlimit="10"/>
<path d="M44.3755 65.3744L72.6266 59.8065" stroke="#B8B8B8" stroke-width="1.04858" stroke-miterlimit="10"/>
<path d="M44.9121 68.0902L73.1632 62.5223" stroke="#B8B8B8" stroke-width="1.04858" stroke-miterlimit="10"/>
<path d="M45.5151 71.1455L63.5814 67.5884" stroke="#B8B8B8" stroke-width="1.04858" stroke-miterlimit="10"/>
<path d="M33.8921 86.5374L66.6272 80.0858" stroke="#B8B8B8" stroke-width="1.04858" stroke-miterlimit="10"/>
<path d="M34.335 88.7847L67.0698 82.3332" stroke="#B8B8B8" stroke-width="1.04858" stroke-miterlimit="10"/>
<path d="M27.6612 30.3696L26.5855 30.5816L26.1526 28.385L24.1369 28.7822L24.5699 30.9789L23.4907 31.1916L22.4876 26.102L23.5668 25.8893L23.9599 27.884L25.9756 27.4868L25.5824 25.492L26.6581 25.28L27.6612 30.3696ZM33.066 26.6536C33.1433 27.0458 33.165 27.4128 33.1311 27.7546C33.0967 28.0941 33.0026 28.3995 32.8488 28.6709C32.6972 28.9419 32.4818 29.17 32.2025 29.3553C31.9227 29.5382 31.5751 29.6706 31.1597 29.7525C30.7442 29.8343 30.3724 29.8437 30.0441 29.7806C29.7154 29.7152 29.4284 29.5862 29.183 29.3934C28.94 29.2002 28.738 28.9519 28.5769 28.6485C28.4159 28.3451 28.2965 27.9962 28.2187 27.6016C28.1149 27.0748 28.1104 26.5995 28.2053 26.1758C28.3021 25.7493 28.5091 25.3926 28.8262 25.1059C29.1434 24.8192 29.5794 24.6211 30.134 24.5118C30.6864 24.4029 31.1614 24.4214 31.559 24.5673C31.959 24.7127 32.2835 24.9646 32.5325 25.323C32.7839 25.6809 32.9617 26.1244 33.066 26.6536ZM29.3515 27.3856C29.4215 27.7407 29.5259 28.0384 29.6649 28.2786C29.8057 28.516 29.985 28.6856 30.2028 28.7874C30.4201 28.8868 30.6796 28.9068 30.9813 28.8473C31.2876 28.787 31.5225 28.6695 31.6858 28.4951C31.8486 28.3184 31.9479 28.0939 31.9834 27.8217C32.0208 27.5467 32.0046 27.2316 31.9346 26.8765C31.8294 26.3427 31.6468 25.9423 31.3868 25.6753C31.1268 25.4083 30.7683 25.3199 30.3111 25.41C30.007 25.4699 29.7724 25.5885 29.6072 25.7657C29.4439 25.9401 29.3424 26.165 29.3026 26.4405C29.2648 26.7132 29.281 27.0282 29.3515 27.3856ZM36.5871 28.6105L35.5079 28.8231L34.6819 24.6317L33.2998 24.9041L33.1228 24.006L36.9661 23.2485L37.1431 24.1467L35.7611 24.419L36.5871 28.6105ZM45.1196 26.9288L43.748 27.1992L40.7751 23.7853L40.7438 23.7914C40.7847 23.9497 40.8246 24.1094 40.8635 24.2705C40.9025 24.4316 40.9415 24.5927 40.9805 24.7538C41.019 24.9125 41.0578 25.0725 41.0967 25.2336L41.5688 27.6287L40.6045 27.8187L39.6014 22.7291L40.9626 22.4609L43.9244 25.8371L43.9488 25.8323C43.9131 25.6754 43.8764 25.5199 43.8388 25.3658C43.8012 25.2117 43.7636 25.0576 43.7259 24.9034C43.6907 24.7489 43.6554 24.5943 43.6201 24.4397L43.1453 22.0307L44.1166 21.8393L45.1196 26.9288ZM49.3354 26.098L46.4042 26.6757L45.4011 21.5861L48.3324 21.0084L48.5066 21.8926L46.6546 22.2576L46.8748 23.3751L48.5981 23.0355L48.7723 23.9197L47.0491 24.2593L47.3078 25.5718L49.1598 25.2068L49.3354 26.098ZM55.6499 19.5662L55.358 24.911L54.1291 25.1532L52.9129 22.6155C52.8889 22.5672 52.855 22.4931 52.8112 22.3932C52.7674 22.2933 52.7206 22.1844 52.6709 22.0664C52.6206 21.9462 52.5743 21.8335 52.532 21.7286C52.4914 21.6208 52.4613 21.5351 52.4415 21.4715C52.4474 21.5379 52.4506 21.6277 52.4512 21.7409C52.4541 21.8536 52.455 21.974 52.4537 22.102C52.4547 22.2296 52.4541 22.3491 52.452 22.4604C52.4498 22.5717 52.4472 22.6566 52.4443 22.7151L52.284 25.5168L51.0586 25.7584L48.7571 20.9247L49.8188 20.7154L51.0173 23.3652C51.0524 23.4451 51.0929 23.5407 51.139 23.6522C51.1874 23.7632 51.2358 23.8802 51.2842 24.0033C51.3344 24.1236 51.3804 24.2411 51.4223 24.3558C51.4661 24.4677 51.5011 24.5657 51.5273 24.6498C51.5215 24.5593 51.5165 24.4542 51.5122 24.3345C51.5074 24.2125 51.5036 24.0891 51.5007 23.9643C51.4996 23.8367 51.5004 23.7184 51.5031 23.6094C51.5057 23.5004 51.5099 23.4115 51.5156 23.3429L51.6952 20.3456L52.7152 20.1446L54.0187 22.8496C54.0473 22.9091 54.0825 22.9901 54.1244 23.0927C54.1682 23.1926 54.2139 23.3018 54.2613 23.4202C54.3088 23.5386 54.3534 23.6552 54.3953 23.7699C54.4391 23.8818 54.4741 23.9798 54.5003 24.0638C54.4936 23.9446 54.488 23.7998 54.4834 23.6296C54.4806 23.4565 54.4793 23.2844 54.4793 23.1132C54.4816 22.9416 54.4846 22.7976 54.4881 22.6811L54.5881 19.7755L55.6499 19.5662ZM60.0193 22.5241C60.0788 22.8258 60.0573 23.1024 59.955 23.3541C59.8527 23.6057 59.6731 23.8195 59.416 23.9955C59.1613 24.1711 58.8344 24.2982 58.4352 24.3769C58.2588 24.4116 58.0836 24.4341 57.9096 24.4443C57.7379 24.454 57.57 24.4522 57.4058 24.4387C57.2435 24.4225 57.0861 24.3944 56.9336 24.3546L56.736 23.352C56.9984 23.4112 57.268 23.4581 57.5449 23.4927C57.8217 23.5274 58.0878 23.5195 58.3431 23.4692C58.5195 23.4345 58.6565 23.3833 58.7541 23.3159C58.854 23.248 58.9203 23.1686 58.9531 23.0778C58.9858 22.9869 58.9919 22.8893 58.9713 22.7849C58.9461 22.6572 58.8817 22.5566 58.778 22.483C58.6743 22.4094 58.5392 22.348 58.3728 22.2989C58.2087 22.2492 58.0238 22.1977 57.818 22.1442C57.6886 22.1118 57.5465 22.0699 57.3917 22.0185C57.2365 21.9647 57.0848 21.8921 56.9366 21.8008C56.7884 21.7094 56.6574 21.5894 56.5437 21.4406C56.4319 21.289 56.3531 21.0972 56.3073 20.8652C56.2474 20.5611 56.2658 20.2875 56.3625 20.0442C56.4592 19.8009 56.6252 19.597 56.8604 19.4325C57.0975 19.2653 57.3924 19.1469 57.7451 19.0773C58.0097 19.0252 58.2677 19.0069 58.5191 19.0224C58.7724 19.0352 59.0416 19.0738 59.3267 19.1381L59.1439 20.0457C58.8907 19.9968 58.6663 19.9651 58.4706 19.9506C58.2744 19.9338 58.08 19.9444 57.8873 19.9824C57.7527 20.0089 57.6422 20.0536 57.5557 20.1164C57.4688 20.177 57.4088 20.2515 57.3756 20.34C57.3419 20.4262 57.3352 20.5203 57.3553 20.6225C57.3791 20.7431 57.434 20.8384 57.5201 20.9082C57.6081 20.9753 57.7304 21.0331 57.887 21.0818C58.046 21.1301 58.2423 21.1842 58.476 21.2442C58.7602 21.316 59.0072 21.4011 59.2171 21.4996C59.4288 21.5953 59.6024 21.7238 59.7379 21.8852C59.8729 22.0442 59.9667 22.2572 60.0193 22.5241ZM61.6953 21.9081L60.8459 22.0755L59.998 18.7093L61.2025 18.4719L61.6953 21.9081ZM60.889 23.3038C60.846 23.0856 60.875 22.9208 60.976 22.8093C61.0793 22.6973 61.2157 22.6246 61.3851 22.5912C61.5499 22.5587 61.7001 22.5749 61.8359 22.6398C61.9739 22.7042 62.0645 22.8455 62.1075 23.0637C62.1486 23.2725 62.118 23.4353 62.0156 23.5519C61.9156 23.668 61.7831 23.7424 61.6184 23.7748C61.4489 23.8082 61.2947 23.7904 61.1558 23.7214C61.0191 23.6518 60.9302 23.5127 60.889 23.3038ZM63.7353 21.506L62.8859 21.6734L62.038 18.3072L63.2425 18.0698L63.7353 21.506ZM62.929 22.9017C62.886 22.6836 62.915 22.5187 63.016 22.4072C63.1193 22.2952 63.2557 22.2226 63.4251 22.1892C63.5899 22.1567 63.7401 22.1729 63.8759 22.2378C64.014 22.3022 64.1045 22.4434 64.1475 22.6616C64.1886 22.8705 64.158 23.0332 64.0556 23.1498C63.9556 23.266 63.8232 23.3403 63.6584 23.3728C63.489 23.4062 63.3348 23.3884 63.1958 23.3193C63.0591 23.2498 62.9702 23.1106 62.929 22.9017Z" fill="#F2F6F9"/>
<path d="M17.8047 137.663C17.8047 137.991 17.2422 138.155 16.1172 138.155H15.5547L14.9805 138.144C13.9336 138.144 13.2109 138.105 12.8125 138.026C12.4141 137.948 12.2148 137.78 12.2148 137.523C12.2148 137.452 12.3438 137.265 12.6016 136.96C12.8672 136.655 13.0664 136.249 13.1992 135.741C13.332 135.233 13.3984 134.339 13.3984 133.058C13.3984 131.776 13.2578 131.011 12.9766 130.761C12.7031 130.503 11.5898 130.374 9.63672 130.374C7.69141 130.374 6.55859 130.526 6.23828 130.831C6.02734 131.026 5.92188 131.804 5.92188 133.163C5.92188 134.523 5.96875 135.413 6.0625 135.835C6.16406 136.257 6.29688 136.585 6.46094 136.819L6.69531 137.089C6.9375 137.362 7.05859 137.523 7.05859 137.569C7.05859 137.851 6.8125 138.019 6.32031 138.073C6.10156 138.097 5.22266 138.108 3.68359 138.108C2.15234 138.108 1.38672 137.933 1.38672 137.581C1.38672 137.394 1.6875 137.101 2.28906 136.702C2.6875 136.437 2.92578 136.081 3.00391 135.636C3.08203 135.183 3.12109 133.3 3.12109 129.987C3.12109 126.675 3.0625 124.757 2.94531 124.233C2.82812 123.71 2.53516 123.315 2.06641 123.05C1.60547 122.776 1.375 122.526 1.375 122.3C1.375 121.995 2.35156 121.843 4.30469 121.843H5.44141C6.53516 121.843 7.08203 122.026 7.08203 122.394C7.08203 122.425 6.94922 122.608 6.68359 122.944C6.41797 123.273 6.23047 123.679 6.12109 124.163C6.01953 124.64 5.96875 125.425 5.96875 126.519C5.96875 127.612 6.09766 128.28 6.35547 128.523C6.61328 128.765 7.70703 128.886 9.63672 128.886C11.5742 128.886 12.6797 128.753 12.9531 128.487C13.1484 128.3 13.2461 127.608 13.2461 126.413C13.2461 125.21 13.2031 124.444 13.1172 124.116C13.0391 123.788 12.9141 123.511 12.7422 123.284L12.4961 123.015C12.2539 122.757 12.1328 122.585 12.1328 122.499C12.1328 122.202 12.3477 122.026 12.7773 121.972C13.207 121.917 14.1641 121.89 15.6484 121.89C17.1328 121.89 17.875 122.05 17.875 122.37C17.875 122.612 17.7344 122.831 17.4531 123.026C16.8203 123.456 16.4766 123.733 16.4219 123.858C16.2891 124.163 16.2227 125.64 16.2227 128.288L16.1406 134.077C16.1406 135.163 16.1992 135.862 16.3164 136.175C16.4336 136.487 16.6289 136.726 16.9023 136.89C17.5039 137.257 17.8047 137.515 17.8047 137.663ZM22.5039 132.062V132.495C22.5039 133.823 22.7617 134.925 23.2773 135.8C23.5195 136.214 23.8281 136.542 24.2031 136.784C24.5781 137.026 24.957 137.148 25.3398 137.148H25.5742C26.2852 137.148 26.8984 136.804 27.4141 136.116C27.9375 135.421 28.1992 134.437 28.1992 133.163V132.331C28.1992 131.073 27.9375 130.007 27.4141 129.132C26.8984 128.249 26.2422 127.808 25.4453 127.808H25.082C24.3633 127.808 23.7539 128.194 23.2539 128.968C22.7539 129.741 22.5039 130.773 22.5039 132.062ZM31.0234 132.108V132.694C31.0234 133.312 30.8984 133.987 30.6484 134.722C30.125 136.253 29.082 137.323 27.5195 137.933C26.8398 138.198 26.1836 138.331 25.5508 138.331H25.1641C23.6719 138.331 22.4258 137.831 21.4258 136.831C20.9727 136.378 20.6055 135.78 20.3242 135.038C20.043 134.296 19.9023 133.507 19.9023 132.671V132.472C19.9023 131.714 20.0352 130.948 20.3008 130.175C20.8164 128.667 21.8281 127.62 23.3359 127.034C24.0156 126.769 24.668 126.636 25.293 126.636H25.8789C26.5742 126.636 27.2578 126.792 27.9297 127.105C29.2031 127.698 30.0898 128.644 30.5898 129.94C30.8789 130.706 31.0234 131.429 31.0234 132.108ZM38.1016 136.55L39.8828 136.28C40.0859 136.28 40.1875 136.44 40.1875 136.761C40.1875 137.073 39.8867 137.398 39.2852 137.733C38.6836 138.069 38.0508 138.237 37.3867 138.237H37.1523C36.6289 138.237 36.1562 138.101 35.7344 137.827C35.3125 137.554 35.0039 137.218 34.8086 136.819C34.4727 136.124 34.3047 134.808 34.3047 132.87C34.3047 130.925 34.2344 129.71 34.0938 129.226C33.9609 128.741 33.7852 128.409 33.5664 128.23C33.1602 127.901 32.957 127.722 32.957 127.69C32.957 127.487 33.0625 127.315 33.2734 127.175C33.8125 126.815 34.1055 126.612 34.1523 126.565C34.207 126.511 34.5078 125.87 35.0547 124.644C35.3281 124.034 35.6367 123.73 35.9805 123.73C36.332 123.73 36.5664 123.855 36.6836 124.105C36.7148 124.167 36.7812 124.507 36.8828 125.124C36.9922 125.741 37.1445 126.14 37.3398 126.319C37.5352 126.491 37.9688 126.659 38.6406 126.823C39.3125 126.98 39.6484 127.206 39.6484 127.503C39.6484 127.8 39.2773 128.023 38.5352 128.171C37.793 128.319 37.3438 128.511 37.1875 128.745C36.9141 129.144 36.7773 130.269 36.7773 132.12C36.7773 133.972 36.8633 135.14 37.0352 135.624C37.2539 136.241 37.6094 136.55 38.1016 136.55ZM62.8398 135.214C62.8398 136.558 62.7969 137.343 62.7109 137.569C62.625 137.788 62.4336 137.898 62.1367 137.898C61.4961 137.898 60.6875 137.312 59.7109 136.14L59.3594 135.706C58.6172 134.761 57.8945 133.773 57.1914 132.741C56.4961 131.71 56.0195 131.011 55.7617 130.644C53.3555 127.292 52.0469 125.616 51.8359 125.616C51.6719 125.616 51.5898 126.987 51.5898 129.73C51.5898 132.472 51.7031 134.409 51.9297 135.542C52.0078 135.948 52.1758 136.347 52.4336 136.737C52.6992 137.12 52.832 137.378 52.832 137.511C52.832 137.847 52.0391 138.015 50.4531 138.015H49.9141C48.8047 138.015 48.25 137.874 48.25 137.593C48.25 137.312 48.4883 137.038 48.9648 136.773C49.4492 136.499 49.7539 136.132 49.8789 135.671C50.0039 135.202 50.0664 133.562 50.0664 130.749L50.1016 129.003L50.0898 127.292C50.0898 125.628 49.9883 124.538 49.7852 124.023C49.6914 123.78 49.4219 123.491 48.9766 123.155C48.5312 122.812 48.3086 122.608 48.3086 122.546C48.3086 122.132 48.7305 121.925 49.5742 121.925C50.4258 121.925 51.0977 122.026 51.5898 122.23C52.082 122.433 52.5156 122.714 52.8906 123.073C53.2734 123.433 54.0938 124.452 55.3516 126.132C56.6172 127.804 57.4922 128.98 57.9766 129.659L58.9727 131.019C60.168 132.651 60.8047 133.468 60.8828 133.468C61.1328 133.468 61.2578 132.105 61.2578 129.378C61.2578 126.651 61.2031 125.007 61.0938 124.444C60.9922 123.882 60.7695 123.417 60.4258 123.05C60.0898 122.675 59.9219 122.472 59.9219 122.44C59.9219 122.058 60.3398 121.866 61.1758 121.866H62.2891C63.2812 121.866 63.9375 121.94 64.2578 122.089C64.4453 122.175 64.5391 122.343 64.5391 122.593C64.5391 122.616 64.2422 122.921 63.6484 123.507C63.3281 123.819 63.1172 124.218 63.0156 124.702C62.9141 125.187 62.8633 126.874 62.8633 129.765L62.8398 132.05V135.214ZM73.8789 130.48V130.116C73.8789 129.538 73.6719 129.019 73.2578 128.558C72.8438 128.089 72.3359 127.855 71.7344 127.855H71.5117C71.4023 127.87 71.3281 127.878 71.2891 127.878C70.7422 127.878 70.2227 128.19 69.7305 128.815C69.2461 129.44 69.0039 130.108 69.0039 130.819V130.972C69.0039 131.222 69.1523 131.347 69.4492 131.347C69.5664 131.37 69.6289 131.382 69.6367 131.382L69.9062 131.394H69.9766L70.0586 131.382L72.3203 131.253L72.7422 131.206C73.5 131.206 73.8789 130.964 73.8789 130.48ZM69.0039 133.585C69.0039 134.476 69.3398 135.222 70.0117 135.823C70.6836 136.425 71.5352 136.726 72.5664 136.726C72.9805 136.726 73.3555 136.667 73.6914 136.55C74.0352 136.425 74.4062 136.276 74.8047 136.105C75.2109 135.933 75.4648 135.847 75.5664 135.847C75.8789 135.847 76.0352 136.015 76.0352 136.351C76.0352 136.804 75.457 137.288 74.3008 137.804C73.5508 138.14 72.7461 138.308 71.8867 138.308H71.6289C70.1602 138.308 68.9414 137.862 67.9727 136.972C67.4492 136.487 67.043 135.87 66.7539 135.12C66.4648 134.362 66.3203 133.55 66.3203 132.683L66.332 132.413V132.144C66.332 131.394 66.5039 130.655 66.8477 129.929C67.1992 129.202 67.6172 128.605 68.1016 128.136C69.125 127.151 70.3398 126.655 71.7461 126.648C73.8711 126.648 75.2852 127.476 75.9883 129.132C76.207 129.655 76.3164 130.136 76.3164 130.573V130.808C76.3164 131.347 76.0938 131.71 75.6484 131.898C75.2031 132.077 74.1523 132.226 72.4961 132.343C70.8398 132.46 69.9414 132.538 69.8008 132.577C69.2695 132.71 69.0039 133.046 69.0039 133.585ZM94.3398 126.976C95.0977 126.976 95.4766 127.187 95.4766 127.608C95.4766 127.694 95.375 127.898 95.1719 128.218C94.9766 128.53 94.7461 128.964 94.4805 129.519C94.2148 130.073 93.7227 131.39 93.0039 133.468C92.2852 135.546 91.8711 136.69 91.7617 136.901C91.4023 137.581 90.9062 137.921 90.2734 137.921C89.9844 137.921 89.6914 137.636 89.3945 137.065C89.0977 136.495 88.6289 135.398 87.9883 133.773C87.3555 132.14 86.9531 131.323 86.7812 131.323C86.7578 131.323 86.3984 132.179 85.7031 133.89C85.0078 135.593 84.5938 136.569 84.4609 136.819C84.0859 137.53 83.6289 137.886 83.0898 137.886C82.5586 137.886 81.9883 136.98 81.3789 135.167L81.0859 134.253C80.25 131.565 79.4727 129.722 78.7539 128.722C78.3164 128.112 78.0977 127.745 78.0977 127.62C78.0977 127.495 78.1602 127.378 78.2852 127.269C78.5508 127.034 79.0195 126.917 79.6914 126.917H80.1367C81.082 126.917 81.668 127.12 81.8945 127.526C81.9805 127.683 82.0469 128.03 82.0938 128.569C82.1484 129.101 82.2148 129.605 82.293 130.081C82.3789 130.55 82.6055 131.362 82.9727 132.519C83.3398 133.675 83.6875 134.253 84.0156 134.253C84.2734 134.253 84.5859 133.745 84.9531 132.73C85.3203 131.714 85.5039 130.78 85.5039 129.929C85.5039 129.726 85.4609 129.456 85.375 129.12C85.2969 128.784 85.2578 128.554 85.2578 128.429C85.2578 127.96 85.5469 127.597 86.125 127.339C86.4062 127.214 86.8281 127.151 87.3906 127.151C87.9609 127.151 88.4336 127.374 88.8086 127.819C89.0039 128.054 89.1016 128.39 89.1016 128.827L89.0781 129.167L89.0664 129.542C89.0664 129.761 89.2383 130.44 89.582 131.581C89.9258 132.714 90.1719 133.437 90.3203 133.749C90.4766 134.054 90.6367 134.206 90.8008 134.206C91.1367 134.206 91.5234 133.562 91.9609 132.273C92.4062 130.983 92.6289 129.878 92.6289 128.956L92.5352 127.773C92.5352 127.241 93.1367 126.976 94.3398 126.976ZM104.957 132.835C105.574 133.421 105.883 134.163 105.883 135.062C105.883 135.952 105.516 136.718 104.781 137.358C104.047 137.991 103.031 138.308 101.734 138.308H101.418C99.9414 138.308 98.8164 138.124 98.043 137.757C97.6133 137.554 97.3984 137.101 97.3984 136.398V136.105C97.3984 135.206 97.5664 134.757 97.9023 134.757C98.1836 134.757 98.5156 135.023 98.8984 135.554C99.2812 136.077 99.6016 136.429 99.8594 136.608C100.359 136.952 100.945 137.124 101.617 137.124C102.297 137.124 102.797 136.983 103.117 136.702C103.438 136.413 103.598 136.034 103.598 135.565C103.598 135.097 103.324 134.663 102.777 134.265C102.488 134.054 101.812 133.722 100.75 133.269C99.6953 132.815 98.9062 132.343 98.3828 131.851C97.8594 131.351 97.5977 130.648 97.5977 129.741C97.5977 128.835 97.9766 128.101 98.7344 127.538C99.4922 126.968 100.426 126.683 101.535 126.683H101.852C103.305 126.683 104.324 126.855 104.91 127.198C105.215 127.378 105.367 127.878 105.367 128.698C105.367 129.519 105.172 129.929 104.781 129.929C104.562 129.929 104.262 129.687 103.879 129.202C103.504 128.71 103.16 128.362 102.848 128.159C102.535 127.948 102.102 127.843 101.547 127.843C101 127.843 100.566 127.968 100.246 128.218C99.9258 128.468 99.7656 128.831 99.7656 129.308C99.7656 129.776 100.059 130.198 100.645 130.573C100.793 130.675 101.441 130.976 102.59 131.476C103.738 131.976 104.527 132.429 104.957 132.835Z" fill="#E4E2D6"/>
</svg>
