<svg width="77" height="117" viewBox="0 0 77 117" fill="none" xmlns="http://www.w3.org/2000/svg">
<mask id="mask0_131_2407" style="mask-type:luminance" maskUnits="userSpaceOnUse" x="12" y="112" width="65" height="5">
<path d="M12.446 112.11H76.4742V116.097H12.446V112.11Z" fill="white"/>
</mask>
<g mask="url(#mask0_131_2407)">
<g opacity="0.0899963">
<path d="M72.0934 113.272C73.0263 113.326 73.9763 113.39 74.8201 113.578C75.7128 113.777 76.4705 114.149 76.4737 114.546C76.487 116.269 70.2525 115.722 69.2542 115.747C66.1407 115.825 63.0271 115.89 59.9128 115.943C53.685 116.047 47.4561 116.098 41.2272 116.096C34.438 116.094 27.6485 116.029 20.86 115.901C18.7901 115.862 16.7031 115.816 14.6839 115.357C13.9918 115.2 13.2645 114.966 12.8272 114.407C10.9062 111.954 16.8083 112.159 17.8744 112.132C20.5734 112.064 23.2717 112.171 25.9708 112.151C31.1092 112.112 36.2612 112.128 41.4201 112.199C51.5815 112.34 61.7695 112.695 71.9281 113.263C71.9833 113.266 72.0382 113.269 72.0934 113.272Z" fill="#1C2229"/>
</g>
</g>
<path d="M60.9264 106.601L29.1413 112.865C23.9882 113.881 18.9876 110.527 17.9722 105.374L0.707051 17.7718C-0.30832 12.6191 3.04538 7.6188 8.19843 6.60309L39.9836 0.338547C45.1366 -0.676826 50.1369 2.67687 51.1526 7.82993L68.4178 95.4321C69.4286 100.564 66.0578 105.589 60.9264 106.601Z" fill="#292929"/>
<path d="M60.4762 104.998L28.949 111.211C24.5999 112.068 20.3797 109.238 19.5227 104.889L2.2652 17.3246C1.40782 12.9754 4.23862 8.75491 8.58742 7.89788L40.115 1.68436C44.4637 0.827332 48.6846 3.65813 49.5417 8.00693L66.7991 95.5711C67.6523 99.9024 64.8075 104.145 60.4762 104.998Z" fill="#F2F6F9"/>
<path d="M11.8214 6.20682L12.4365 8.2103C12.8385 9.52032 14.3187 10.2924 15.8496 9.99079L34.1903 6.37634C35.7208 6.0747 36.7977 4.79859 36.6726 3.43369L36.4814 1.34668L11.8214 6.20682Z" fill="#292929"/>
<mask id="mask1_131_2407" style="mask-type:luminance" maskUnits="userSpaceOnUse" x="2" y="1" width="65" height="111">
<path d="M40.1153 1.6846L8.58776 7.89812C4.23862 8.75515 1.40782 12.9753 2.2652 17.3248L19.5227 104.889C20.3797 109.238 24.6002 112.069 28.949 111.212L60.4762 104.998C64.8075 104.144 67.6526 99.9023 66.7991 95.5713L49.5416 8.00716C48.7877 4.18195 45.4319 1.53151 41.6759 1.53151C41.1611 1.53151 40.6392 1.58114 40.1153 1.6846Z" fill="white"/>
</mask>
<g mask="url(#mask1_131_2407)">
<path d="M52.8728 23.8119L5.03884 33.2393L3.14056 23.6081L50.9745 14.181L52.8728 23.8119Z" fill="#E8324B"/>
<path d="M78.9189 95.0511L65.7564 97.6453L63.099 84.1616L76.2614 81.5678L78.9189 95.0511Z" fill="#B8B8B8"/>
</g>
<path d="M24.4583 47.7547L11.2958 50.3489L8.70166 37.1865L21.8641 34.5923L24.4583 47.7547Z" fill="#B8B8B8"/>
<path d="M27.0522 60.9171L13.8898 63.5112L11.549 51.633L24.7114 49.0388L27.0522 60.9171Z" fill="#B8B8B8"/>
<path d="M30.2645 76.6255L17.1021 79.2197L14.2548 64.7731L27.4172 62.179L30.2645 76.6255Z" fill="#B8B8B8"/>
<path d="M35.5794 103.593L22.417 106.187L19.7596 92.7031L32.9217 90.1093L35.5794 103.593Z" fill="#B8B8B8"/>
<path d="M46.4946 101.441L36.8634 103.339L34.2063 89.8557L43.8368 87.9578L46.4946 101.441Z" fill="#B8B8B8"/>
<path d="M64.4723 97.8982L47.7786 101.188L45.1215 87.7049L61.8148 84.4149L64.4723 97.8982Z" fill="#B8B8B8"/>
<path d="M18.4808 84.4512L60.8436 76.1021" stroke="#B8B8B8" stroke-width="1.04858" stroke-miterlimit="10"/>
<path d="M17.9448 81.7351L60.3076 73.386" stroke="#B8B8B8" stroke-width="1.04858" stroke-miterlimit="10"/>
<path d="M23.6121 36.179L51.8632 30.611" stroke="#B8B8B8" stroke-width="1.04858" stroke-miterlimit="10"/>
<path d="M24.1481 38.8948L52.3992 33.3268" stroke="#B8B8B8" stroke-width="1.04858" stroke-miterlimit="10"/>
<path d="M24.6844 41.6108L52.9351 36.0429" stroke="#B8B8B8" stroke-width="1.04858" stroke-miterlimit="10"/>
<path d="M25.2205 44.3267L50.0766 39.4291" stroke="#B8B8B8" stroke-width="1.04858" stroke-miterlimit="10"/>
<path d="M26.36 50.0979L54.6107 44.53" stroke="#B8B8B8" stroke-width="1.04858" stroke-miterlimit="10"/>
<path d="M26.8959 52.8137L51.752 47.9162" stroke="#B8B8B8" stroke-width="1.04858" stroke-miterlimit="10"/>
<path d="M29.3757 65.3745L57.6268 59.8066" stroke="#B8B8B8" stroke-width="1.04858" stroke-miterlimit="10"/>
<path d="M29.9119 68.0903L58.163 62.5224" stroke="#B8B8B8" stroke-width="1.04858" stroke-miterlimit="10"/>
<path d="M30.5151 71.1455L48.5813 67.5884" stroke="#B8B8B8" stroke-width="1.04858" stroke-miterlimit="10"/>
<path d="M18.8922 86.5376L51.6273 80.0861" stroke="#B8B8B8" stroke-width="1.04858" stroke-miterlimit="10"/>
<path d="M19.335 88.7849L52.0698 82.3334" stroke="#B8B8B8" stroke-width="1.04858" stroke-miterlimit="10"/>
<path d="M12.6613 30.3696L11.5856 30.5816L11.1527 28.3849L9.13707 28.7822L9.56999 30.9788L8.49081 31.1915L7.48773 26.1019L8.56692 25.8893L8.96005 27.884L10.9757 27.4868L10.5826 25.492L11.6583 25.28L12.6613 30.3696ZM18.0661 26.6535C18.1434 27.0457 18.1651 27.4128 18.1312 27.7546C18.0968 28.094 18.0027 28.3995 17.8489 28.6709C17.6974 28.9419 17.4819 29.17 17.2026 29.3552C16.9228 29.5381 16.5752 29.6705 16.1598 29.7524C15.7444 29.8343 15.3725 29.8437 15.0442 29.7806C14.7155 29.7152 14.4285 29.5861 14.1831 29.3934C13.9401 29.2002 13.7381 28.9519 13.5771 28.6485C13.416 28.3451 13.2966 27.9961 13.2188 27.6016C13.115 27.0748 13.1105 26.5995 13.2054 26.1757C13.3022 25.7492 13.5092 25.3926 13.8264 25.1059C14.1436 24.8191 14.5795 24.6211 15.1342 24.5118C15.6865 24.4029 16.1615 24.4214 16.5591 24.5673C16.9591 24.7127 17.2836 24.9646 17.5326 25.3229C17.784 25.6808 17.9618 26.1244 18.0661 26.6535ZM14.3516 27.3856C14.4216 27.7407 14.5261 28.0383 14.665 28.2786C14.8059 28.516 14.9851 28.6856 15.2029 28.7874C15.4202 28.8868 15.6797 28.9068 15.9814 28.8473C16.2877 28.7869 16.5226 28.6695 16.6859 28.4951C16.8488 28.3183 16.948 28.0938 16.9835 27.8216C17.021 27.5466 17.0047 27.2316 16.9347 26.8765C16.8295 26.3427 16.6469 25.9423 16.3869 25.6753C16.127 25.4083 15.7684 25.3198 15.3112 25.4099C15.0072 25.4699 14.7725 25.5884 14.6074 25.7656C14.444 25.9401 14.3425 26.165 14.3028 26.4405C14.2649 26.7131 14.2812 27.0282 14.3516 27.3856ZM21.5872 28.6104L20.5081 28.8231L19.682 24.6317L18.2999 24.9041L18.1229 24.0059L21.9662 23.2485L22.1432 24.1466L20.7612 24.419L21.5872 28.6104ZM30.1198 26.9288L28.7482 27.1991L25.7753 23.7852L25.7439 23.7914C25.7848 23.9497 25.8247 24.1094 25.8637 24.2705C25.9026 24.4316 25.9416 24.5927 25.9806 24.7538C26.0191 24.9125 26.0579 25.0724 26.0969 25.2335L26.5689 27.6286L25.6046 27.8187L24.6015 22.7291L25.9627 22.4608L28.9246 25.8371L28.9489 25.8323C28.9132 25.6754 28.8765 25.5199 28.8389 25.3658C28.8013 25.2117 28.7637 25.0575 28.7261 24.9034C28.6908 24.7488 28.6555 24.5942 28.6202 24.4397L28.1454 22.0306L29.1167 21.8392L30.1198 26.9288ZM34.3355 26.0979L31.4043 26.6756L30.4013 21.5861L33.3325 21.0084L33.5067 21.8926L31.6547 22.2576L31.875 23.3751L33.5982 23.0355L33.7724 23.9197L32.0492 24.2593L32.3079 25.5717L34.1599 25.2067L34.3355 26.0979ZM40.65 19.5662L40.3581 24.911L39.1292 25.1532L37.913 22.6154C37.889 22.5671 37.8551 22.493 37.8113 22.3932C37.7676 22.2933 37.7208 22.1844 37.671 22.0664C37.6208 21.9461 37.5745 21.8335 37.5321 21.7285C37.4916 21.6208 37.4614 21.5351 37.4416 21.4715C37.4475 21.5379 37.4507 21.6276 37.4513 21.7408C37.4543 21.8536 37.4551 21.974 37.4538 22.102C37.4548 22.2296 37.4543 22.349 37.4521 22.4604C37.4499 22.5717 37.4474 22.6566 37.4444 22.715L37.2842 25.5168L36.0588 25.7583L33.7572 20.9247L34.819 20.7154L36.0175 23.3651C36.0525 23.445 36.0931 23.5407 36.1391 23.6522C36.1875 23.7632 36.2359 23.8802 36.2843 24.0033C36.3345 24.1236 36.3806 24.2411 36.4225 24.3558C36.4662 24.4677 36.5012 24.5657 36.5274 24.6497C36.5216 24.5593 36.5166 24.4542 36.5123 24.3345C36.5075 24.2124 36.5037 24.089 36.5008 23.9642C36.4998 23.8367 36.5006 23.7184 36.5032 23.6093C36.5058 23.5003 36.51 23.4115 36.5158 23.3429L36.6954 20.3456L37.7154 20.1446L39.0188 22.8496C39.0474 22.909 39.0826 22.9901 39.1246 23.0927C39.1684 23.1926 39.214 23.3017 39.2614 23.4202C39.3089 23.5386 39.3535 23.6552 39.3954 23.7699C39.4392 23.8818 39.4742 23.9798 39.5004 24.0638C39.4938 23.9446 39.4881 23.7998 39.4835 23.6295C39.4808 23.4565 39.4794 23.2844 39.4794 23.1132C39.4817 22.9416 39.4847 22.7975 39.4883 22.6811L39.5883 19.7754L40.65 19.5662ZM45.0194 22.524C45.0789 22.8257 45.0575 23.1024 44.9552 23.354C44.8529 23.6056 44.6732 23.8195 44.4162 23.9955C44.1614 24.1711 43.8345 24.2982 43.4353 24.3769C43.2589 24.4116 43.0837 24.4341 42.9097 24.4443C42.7381 24.454 42.5701 24.4521 42.406 24.4387C42.2436 24.4224 42.0862 24.3944 41.9337 24.3545L41.7361 23.3519C41.9985 23.4111 42.2681 23.4581 42.545 23.4927C42.8219 23.5273 43.0879 23.5195 43.3432 23.4692C43.5196 23.4344 43.6566 23.3833 43.7542 23.3159C43.8541 23.2479 43.9205 23.1686 43.9532 23.0777C43.9859 22.9869 43.992 22.8893 43.9714 22.7848C43.9463 22.6572 43.8818 22.5566 43.7781 22.483C43.6744 22.4094 43.5394 22.348 43.3729 22.2988C43.2089 22.2492 43.0239 22.1976 42.8181 22.1442C42.6887 22.1118 42.5467 22.0699 42.3919 22.0184C42.2366 21.9646 42.0849 21.8921 41.9367 21.8007C41.7885 21.7094 41.6575 21.5893 41.5438 21.4406C41.432 21.289 41.3532 21.0972 41.3075 20.8651C41.2476 20.5611 41.2659 20.2874 41.3627 20.0442C41.4594 19.8009 41.6253 19.597 41.8605 19.4325C42.0976 19.2652 42.3925 19.1468 42.7453 19.0773C43.0098 19.0252 43.2678 19.0069 43.5192 19.0224C43.7725 19.0352 44.0417 19.0738 44.3268 19.1381L44.144 20.0457C43.8909 19.9967 43.6664 19.965 43.4707 19.9506C43.2745 19.9338 43.0801 19.9444 42.8875 19.9823C42.7529 20.0089 42.6423 20.0535 42.5559 20.1164C42.4689 20.1769 42.4089 20.2514 42.3757 20.34C42.3421 20.4262 42.3353 20.5203 42.3554 20.6224C42.3792 20.7431 42.4341 20.8384 42.5202 20.9082C42.6082 20.9752 42.7305 21.0331 42.8872 21.0818C43.0462 21.13 43.2425 21.1842 43.4761 21.2442C43.7603 21.316 44.0073 21.4011 44.2172 21.4996C44.4289 21.5953 44.6025 21.7238 44.738 21.8851C44.873 22.0442 44.9668 22.2571 45.0194 22.524ZM46.6954 21.908L45.846 22.0754L44.9981 18.7093L46.2026 18.4719L46.6954 21.908ZM45.8892 23.3038C45.8462 23.0856 45.8752 22.9208 45.9761 22.8092C46.0794 22.6973 46.2158 22.6246 46.3852 22.5912C46.55 22.5587 46.7003 22.5749 46.836 22.6398C46.9741 22.7042 47.0646 22.8455 47.1076 23.0636C47.1488 23.2725 47.1181 23.4352 47.0158 23.5519C46.9157 23.668 46.7833 23.7423 46.6185 23.7748C46.4491 23.8082 46.2949 23.7904 46.1559 23.7213C46.0192 23.6518 45.9303 23.5126 45.8892 23.3038ZM48.7354 21.506L47.886 21.6734L47.0381 18.3072L48.2426 18.0698L48.7354 21.506ZM47.9292 22.9017C47.8862 22.6835 47.9152 22.5187 48.0161 22.4072C48.1194 22.2952 48.2558 22.2225 48.4252 22.1891C48.59 22.1567 48.7403 22.1729 48.876 22.2377C49.0141 22.3021 49.1046 22.4434 49.1476 22.6616C49.1888 22.8704 49.1582 23.0332 49.0558 23.1498C48.9557 23.266 48.8233 23.3403 48.6585 23.3728C48.4891 23.4061 48.3349 23.3883 48.1959 23.3193C48.0592 23.2498 47.9703 23.1106 47.9292 22.9017Z" fill="#F2F6F9"/>
</svg>
