<svg width="103" height="69" viewBox="0 0 103 69" fill="none" xmlns="http://www.w3.org/2000/svg">
<path d="M92.1565 20.7553C92.1565 20.7553 88.347 20.2986 85.7581 12.0349C83.1691 3.77125 86.037 1.22255 86.037 1.22255C79.5808 6.36212 53.4958 15.2675 53.4958 15.2675C53.4958 15.2675 26.9929 22.8377 18.7583 22.3007C18.7583 22.3007 15.7232 24.9017 18.3122 33.1654C20.9012 41.4291 24.8778 41.8334 24.8778 41.8334C31.3341 36.6943 57.4186 27.7886 57.4186 27.7886C57.4186 27.7886 83.922 20.2188 92.1565 20.7553Z" fill="#FFE7B4"/>
<path d="M92.1566 20.7553C94.8594 20.8981 94.3393 14.0442 92.9991 9.76635C91.6589 5.48852 88.9725 1.4489 86.4424 2.51634C83.9125 3.58425 80.454 5.49263 80.454 5.49263C80.454 5.49263 80.7065 13.3199 82.3756 16.2345C84.0451 19.1484 89.966 20.6397 92.1566 20.7553Z" fill="#FBB872"/>
<path d="M24.8778 41.8334C31.3341 36.6943 57.419 27.7885 57.419 27.7885C57.419 27.7885 83.922 20.2188 92.1565 20.7553C92.1565 20.7553 88.347 20.2986 85.7581 12.0349C83.5224 4.89887 85.3547 2.02704 85.8972 1.37533C81.6947 5.78849 86.3807 18.2759 83.2344 18.4634C80.0521 18.6522 74.4584 20.0642 63.9322 22.6775C53.406 25.2907 55.0021 16.6439 51.8721 19.6308C48.7421 22.6178 52.4673 25.9857 49.7052 27.5258C46.9432 29.0663 25.032 38.6792 20.799 32.6606C16.5666 26.6417 18.7583 22.3007 18.7583 22.3007C18.7583 22.3007 15.7232 24.9017 18.3122 33.1654C20.9012 41.4291 24.8778 41.8334 24.8778 41.8334Z" fill="#FFD898"/>
<path d="M55.8329 21.546C54.9116 18.6052 54.9232 14.7631 54.924 14.7222C54.9243 14.6449 54.9871 14.5825 55.0643 14.5828C55.1422 14.5834 55.2039 14.647 55.2039 14.7237C55.2031 14.7677 55.1886 19.1149 56.3023 22.0491C57.4136 24.9852 59.3479 27.1587 59.3671 27.1799C59.419 27.2376 59.4135 27.3264 59.3561 27.3778C59.2993 27.4295 59.2108 27.4249 59.1588 27.3671C59.1393 27.345 57.1707 25.1354 56.0401 22.149C55.9664 21.9537 55.8973 21.7516 55.8329 21.546Z" fill="#5A4A42"/>
<path d="M50.7459 16.0367C50.7315 15.9907 50.7417 15.9385 50.7761 15.9001C50.8281 15.8431 50.9166 15.8393 50.9736 15.8914C51.001 15.9156 53.695 18.4101 54.9687 22.4757C56.2467 26.555 55.4596 28.491 55.4252 28.5711C55.3948 28.6421 55.313 28.6756 55.242 28.6452C55.1708 28.6159 55.1362 28.5339 55.1674 28.462C55.1756 28.4433 55.9447 26.5261 54.7019 22.5593C53.4516 18.5687 50.8117 16.1219 50.7849 16.098C50.7659 16.0805 50.7531 16.0595 50.7459 16.0367Z" fill="#5A4A42"/>
<path d="M52.4873 15.4909C52.4685 15.431 52.4922 15.3636 52.5478 15.3296C52.6138 15.2891 52.7001 15.31 52.7402 15.3762C52.7553 15.4012 54.2734 17.9136 55.5611 22.0238C56.848 26.1312 57.0401 27.8777 57.048 27.9497C57.0559 28.0265 57.0004 28.0955 56.9231 28.1036C56.8463 28.1114 56.7787 28.057 56.7694 27.9791C56.7676 27.9615 56.5703 26.1817 55.2938 22.1076C54.0171 18.0325 52.5161 15.5465 52.5016 15.5218C52.4949 15.5119 52.4905 15.5013 52.4873 15.4909Z" fill="#5A4A42"/>
<path d="M60.7915 19.544C60.3004 18.1529 58.6513 17.8051 57.7759 17.1461C55.9884 15.801 54.4198 17.5641 53.606 17.9489C52.6487 18.4015 51.8116 18.1878 51.313 19.3503C50.8147 20.5126 50.9708 21.7047 50.7962 23.3225C50.6397 24.7735 52.2018 25.9734 53.5035 26.5719C54.8058 27.1707 55.3731 28.1791 57.0176 27.2322C58.6622 26.2858 59.3189 25.9721 60.2515 25.3926C61.184 24.8127 60.8351 23.1248 61.0595 22.1201C61.2837 21.115 61.1113 20.45 60.7915 19.544Z" fill="#EC1C24"/>
<path d="M56.9693 25.9302C54.9168 26.5732 52.7319 25.4308 52.0888 23.3783C51.4458 21.3257 52.5881 19.1404 54.6406 18.4974C56.6931 17.8543 58.8781 18.9972 59.5212 21.0497C60.1642 23.1022 59.0218 25.2871 56.9693 25.9302Z" fill="#C5161D"/>
<path d="M57.3975 25.5197C57.3975 25.5197 54.2532 26.8917 52.4456 23.788C52.4456 23.788 53.9713 26.2099 57.3975 25.5197Z" fill="#EC1C24"/>
<path d="M54.5195 17.6148C54.5195 17.6148 55.6499 16.7095 56.713 16.9275C57.7756 17.1457 58.1066 17.7777 58.9565 18.0459C58.9565 18.0459 58.1978 17.9207 57.3189 17.4087C56.44 16.8968 55.3046 17.1769 54.5195 17.6148Z" fill="#EF5038"/>
<path d="M81.0792 47.6252C81.0792 47.6252 77.4257 46.4533 76.4535 37.8483C75.4809 29.2436 78.781 27.2857 78.781 27.2857C71.4661 31.1057 44.165 34.8945 44.165 34.8945C44.165 34.8945 16.706 37.2928 8.72335 35.2018C8.72335 35.2018 5.24941 37.1792 6.22206 45.7839C7.19423 54.3889 11.0215 55.5413 11.0215 55.5413C18.3365 51.7218 45.638 47.9323 45.638 47.9323C45.638 47.9323 73.0965 45.5342 81.0792 47.6252Z" fill="#FFE7B4"/>
<path d="M45.2666 41.5025C44.9209 38.4403 45.6622 34.6704 45.6698 34.6299C45.6852 34.5542 45.759 34.505 45.8345 34.5199C45.9109 34.5357 45.9596 34.6096 45.9447 34.6851C45.9356 34.7276 45.0961 38.9928 45.6318 42.0857C46.1652 45.1794 47.6515 47.6804 47.6665 47.7049C47.7062 47.7717 47.6842 47.8579 47.6183 47.8973C47.5522 47.9373 47.4662 47.9158 47.4261 47.8496C47.4113 47.824 45.8982 45.2808 45.3554 42.1337C45.3201 41.9279 45.2909 41.7165 45.2666 41.5025Z" fill="#5A4A42"/>
<path d="M41.3186 35.1273C41.3129 35.079 41.333 35.03 41.3738 34.9989C41.436 34.9529 41.5239 34.9655 41.57 35.0277C41.5917 35.0569 43.7632 38.0174 44.2419 42.2513C44.7217 46.4989 43.581 48.2499 43.5322 48.322C43.4887 48.3862 43.4018 48.4035 43.3383 48.3604C43.2734 48.3181 43.2555 48.2309 43.2998 48.166C43.3112 48.1493 44.4301 46.4135 43.9634 42.2827C43.4942 38.1272 41.3671 35.2237 41.3454 35.1945C41.3302 35.1742 41.3213 35.1509 41.3186 35.1273Z" fill="#5A4A42"/>
<path d="M43.1319 34.9222C43.1248 34.8598 43.1607 34.7979 43.2219 34.7751C43.2943 34.7483 43.3751 34.785 43.402 34.8574C43.4122 34.885 44.425 37.6402 44.9087 41.9199C45.3921 46.1972 45.2492 47.9479 45.2432 48.0202C45.2366 48.0973 45.1685 48.1546 45.0914 48.148C45.0147 48.1413 44.9588 48.0744 44.964 47.9961C44.9654 47.979 45.11 46.1938 44.6307 41.9512C44.1512 37.7082 43.1496 34.9823 43.1402 34.9556C43.1357 34.9445 43.1332 34.9332 43.1319 34.9222Z" fill="#5A4A42"/>
<path d="M50.5152 40.4787C50.2974 39.0198 48.7445 38.365 48.0094 37.5515C46.5106 35.8912 44.6354 37.3249 43.7632 37.5481C42.7375 37.8105 41.9566 37.4415 41.246 38.4884C40.5358 39.5352 40.4628 40.7349 39.9844 42.2899C39.5548 43.6847 40.861 45.1598 42.0252 45.9948C43.1898 46.8296 43.5556 47.9272 45.3498 47.3104C47.1441 46.6935 47.8485 46.5103 48.8742 46.1181C49.9001 45.7263 49.8778 44.0028 50.289 43.0585C50.6998 42.1148 50.657 41.4291 50.5152 40.4787Z" fill="#EC1C24"/>
<path d="M45.5494 46.0226C43.4123 46.264 41.484 44.7273 41.2425 42.5902C41.0009 40.4526 42.5376 38.5243 44.6747 38.2828C46.8123 38.0412 48.7408 39.5784 48.9822 41.7155C49.2233 43.8528 47.6866 45.7811 45.5494 46.0226Z" fill="#C5161D"/>
<path d="M44.1367 38.6105C44.1367 38.6105 47.4842 37.8605 48.6695 41.251C48.6695 41.251 47.6316 38.5839 44.1367 38.6105Z" fill="#A40D12"/>
<path d="M46.048 45.701C46.048 45.701 42.7005 46.451 41.5152 43.0605C41.5152 43.0605 42.5531 45.7276 46.048 45.701Z" fill="#EC1C24"/>
<path d="M44.7237 37.3934C44.7237 37.3934 46.0057 36.7191 47.0078 37.1351C48.0096 37.5517 48.2146 38.2346 48.998 38.6597C48.998 38.6597 48.2771 38.3923 47.5115 37.7229C46.7454 37.0531 45.5774 37.1129 44.7237 37.3934Z" fill="#EF5038"/>
</svg>
