<svg width="167" height="144" viewBox="0 0 167 144" fill="none" xmlns="http://www.w3.org/2000/svg">
<path d="M113.079 55.6253C115.706 56.279 116.497 49.4512 115.993 44.9968C115.49 40.5417 113.62 36.0655 110.933 36.6335C108.246 37.201 104.488 38.418 104.488 38.418C104.488 38.418 103.25 46.1503 104.335 49.3286C105.42 52.5075 110.951 55.0956 113.079 55.6253Z" fill="#FBB872"/>
<path d="M113.471 53.2481C114.217 53.2297 114.718 48.0235 114.038 44.9314C113.359 41.8391 112.216 38.7332 110.192 39.2255C108.168 39.7183 105.241 40.4012 105.241 40.4012L106.8 52.4504L113.471 53.2481Z" fill="#F8A35E"/>
<path d="M124.157 28.7554C124.157 28.7554 120.347 28.2987 117.758 20.035C115.169 11.7714 118.037 9.22267 118.037 9.22267C111.581 14.3622 85.4958 23.2676 85.4958 23.2676C85.4958 23.2676 58.9929 30.8378 50.7583 30.3008C50.7583 30.3008 47.7232 32.9019 50.3122 41.1655C52.9012 49.4292 56.8778 49.8335 56.8778 49.8335C63.3341 44.6945 89.4186 35.7887 89.4186 35.7887C89.4186 35.7887 115.922 28.2189 124.157 28.7554Z" fill="#FFE7B4"/>
<path d="M124.157 28.7553C126.859 28.8981 126.339 22.0442 124.999 17.7663C123.659 13.4885 120.973 9.4489 118.442 10.5163C115.912 11.5843 112.454 13.4926 112.454 13.4926C112.454 13.4926 112.706 21.3199 114.376 24.2345C116.045 27.1484 121.966 28.6397 124.157 28.7553Z" fill="#FBB872"/>
<path d="M56.8778 49.8335C63.3341 44.6945 89.419 35.7886 89.419 35.7886C89.419 35.7886 115.922 28.2189 124.157 28.7554C124.157 28.7554 120.347 28.2987 117.758 20.035C115.522 12.899 117.355 10.0272 117.897 9.37545C113.695 13.7886 118.381 26.276 115.234 26.4635C112.052 26.6523 106.458 28.0644 95.9322 30.6776C85.406 33.2908 87.0021 24.644 83.8721 27.631C80.7421 30.6179 84.4673 33.9858 81.7052 35.5259C78.9432 37.0664 57.032 46.6793 52.799 40.6607C48.5666 34.6419 50.7583 30.3008 50.7583 30.3008C50.7583 30.3008 47.7232 32.9019 50.3122 41.1655C52.9012 49.4292 56.8778 49.8335 56.8778 49.8335Z" fill="#FFD898"/>
<path d="M87.8329 29.5459C86.9115 26.6051 86.9232 22.763 86.9239 22.7221C86.9242 22.6448 86.987 22.5824 87.0643 22.5827C87.1422 22.5833 87.2038 22.6469 87.2038 22.7235C87.203 22.7676 87.1885 27.1148 88.3023 30.049C89.4135 32.9851 91.3479 35.1586 91.367 35.1797C91.419 35.2375 91.4134 35.3263 91.356 35.3777C91.2992 35.4293 91.2107 35.4247 91.1587 35.367C91.1393 35.3449 89.1706 33.1352 88.04 30.1489C87.9663 29.9535 87.8973 29.7515 87.8329 29.5459Z" fill="#5A4A42"/>
<path d="M82.7458 24.0367C82.7314 23.9907 82.7416 23.9385 82.776 23.9001C82.828 23.8431 82.9165 23.8393 82.9735 23.8914C83.0009 23.9156 85.6948 26.4101 86.9686 30.4757C88.2466 34.555 87.4595 36.491 87.4251 36.5711C87.3947 36.6421 87.3129 36.6756 87.2419 36.6452C87.1706 36.6159 87.1361 36.5339 87.1673 36.462C87.1755 36.4433 87.9445 34.5261 86.7017 30.5593C85.4515 26.5687 82.8116 24.1219 82.7848 24.098C82.7658 24.0805 82.7529 24.0595 82.7458 24.0367Z" fill="#5A4A42"/>
<path d="M84.4872 23.4909C84.4685 23.431 84.4922 23.3636 84.5477 23.3296C84.6138 23.2891 84.7001 23.31 84.7401 23.3762C84.7552 23.4012 86.2734 25.9136 87.5611 30.0238C88.8479 34.1312 89.04 35.8777 89.048 35.9497C89.0559 36.0265 89.0003 36.0955 88.9231 36.1036C88.8463 36.1114 88.7787 36.057 88.7694 35.9791C88.7675 35.9615 88.5702 34.1817 87.2938 30.1076C86.0171 26.0325 84.5161 23.5465 84.5016 23.5218C84.4948 23.5119 84.4905 23.5013 84.4872 23.4909Z" fill="#5A4A42"/>
<path d="M92.7914 27.544C92.3003 26.1529 90.6512 25.8051 89.7757 25.1461C87.9883 23.801 86.4196 25.5641 85.6059 25.9489C84.6486 26.4015 83.8115 26.1878 83.3128 27.3503C82.8146 28.5126 82.9707 29.7047 82.7961 31.3225C82.6396 32.7735 84.2017 33.9734 85.5034 34.5719C86.8057 35.1707 87.373 36.1791 89.0174 35.2322C90.662 34.2858 91.3187 33.9721 92.2514 33.3926C93.1839 32.8127 92.835 31.1248 93.0594 30.1201C93.2836 29.115 93.1112 28.45 92.7914 27.544Z" fill="#EC1C24"/>
<path d="M88.9691 33.9302C86.9166 34.5732 84.7318 33.4308 84.0887 31.3783C83.4457 29.3257 84.588 27.1404 86.6405 26.4974C88.693 25.8543 90.878 26.9972 91.521 29.0497C92.1641 31.1022 91.0216 33.2871 88.9691 33.9302Z" fill="#C5161D"/>
<path d="M89.3975 33.5199C89.3975 33.5199 86.2532 34.8918 84.4456 31.7881C84.4456 31.7881 85.9713 34.21 89.3975 33.5199Z" fill="#EC1C24"/>
<path d="M86.5193 25.6149C86.5193 25.6149 87.6497 24.7096 88.7129 24.9277C89.7755 25.1459 90.1065 25.7779 90.9564 26.046C90.9564 26.046 90.1977 25.9208 89.3188 25.4089C88.4399 24.8969 87.3045 25.177 86.5193 25.6149Z" fill="#EF5038"/>
<path d="M113.079 55.6253C113.079 55.6253 109.426 54.4534 108.453 45.8485C107.481 37.2437 110.781 35.2859 110.781 35.2859C103.466 39.1058 76.1648 42.8947 76.1648 42.8947C76.1648 42.8947 48.7059 45.2929 40.7232 43.202C40.7232 43.202 37.2493 45.1793 38.2219 53.7841C39.1941 62.389 43.0213 63.5414 43.0213 63.5414C50.3364 59.7219 77.6379 55.9324 77.6379 55.9324C77.6379 55.9324 105.096 53.5344 113.079 55.6253Z" fill="#FFE7B4"/>
<path d="M77.2667 49.5027C76.9209 46.4404 77.6622 42.6705 77.6699 42.6301C77.6853 42.5543 77.759 42.5052 77.8346 42.5201C77.9109 42.5358 77.9596 42.6097 77.9447 42.6853C77.9356 42.7277 77.0961 46.9929 77.6319 50.0859C78.1652 53.1795 79.6516 55.6805 79.6666 55.7051C79.7063 55.7719 79.6843 55.858 79.6184 55.8974C79.5522 55.9374 79.4662 55.9159 79.4262 55.8497C79.4114 55.8241 77.8982 53.2809 77.3554 50.1339C77.3202 49.928 77.2909 49.7166 77.2667 49.5027Z" fill="#5A4A42"/>
<path d="M73.3186 43.1273C73.3128 43.079 73.3329 43.03 73.3738 42.9989C73.436 42.9529 73.5239 42.9655 73.5699 43.0277C73.5916 43.0569 75.7632 46.0174 76.2418 50.2513C76.7217 54.4989 75.581 56.2499 75.5321 56.322C75.4886 56.3862 75.4018 56.4035 75.3382 56.3604C75.2733 56.3181 75.2554 56.2309 75.2997 56.166C75.3112 56.1493 76.4301 54.4135 75.9634 50.2827C75.4941 46.1272 73.367 43.2237 73.3453 43.1945C73.3301 43.1742 73.3213 43.1509 73.3186 43.1273Z" fill="#5A4A42"/>
<path d="M75.1317 42.9222C75.1247 42.8598 75.1606 42.7979 75.2217 42.7751C75.2941 42.7483 75.375 42.785 75.4018 42.8574C75.412 42.885 76.4249 45.6402 76.9085 49.9199C77.3919 54.1972 77.2491 55.9479 77.2431 56.0202C77.2365 56.0973 77.1684 56.1546 77.0912 56.148C77.0146 56.1413 76.9587 56.0744 76.9639 55.9961C76.9653 55.979 77.1099 54.1938 76.6306 49.9512C76.1511 45.7082 75.1495 42.9823 75.1401 42.9556C75.1356 42.9445 75.1331 42.9332 75.1317 42.9222Z" fill="#5A4A42"/>
<path d="M82.5151 48.4788C82.2974 47.0199 80.7444 46.3651 80.0094 45.5516C78.5106 43.8913 76.6354 45.325 75.7632 45.5482C74.7374 45.8106 73.9565 45.4416 73.2459 46.4885C72.5358 47.5353 72.4627 48.735 71.9843 50.29C71.5547 51.6848 72.861 53.1599 74.0251 53.9949C75.1897 54.8297 75.5555 55.9274 77.3498 55.3105C79.144 54.6936 79.8484 54.5105 80.8741 54.1182C81.9 53.7264 81.8778 52.0029 82.2889 51.0586C82.6998 50.115 82.657 49.4292 82.5151 48.4788Z" fill="#EC1C24"/>
<path d="M77.5494 54.0226C75.4123 54.264 73.484 52.7273 73.2425 50.5902C73.0009 48.4526 74.5376 46.5243 76.6747 46.2828C78.8123 46.0412 80.7408 47.5784 80.9822 49.7155C81.2233 51.8528 79.6866 53.7811 77.5494 54.0226Z" fill="#C5161D"/>
<path d="M76.1367 46.6106C76.1367 46.6106 79.4842 45.8606 80.6695 49.2511C80.6695 49.2511 79.6316 46.584 76.1367 46.6106Z" fill="#A40D12"/>
<path d="M78.0479 53.701C78.0479 53.701 74.7004 54.451 73.5151 51.0605C73.5151 51.0605 74.553 53.7276 78.0479 53.701Z" fill="#EC1C24"/>
<path d="M76.7237 45.3933C76.7237 45.3933 78.0057 44.719 79.0078 45.135C80.0096 45.5516 80.2146 46.2345 80.998 46.6596C80.998 46.6596 80.2771 46.3922 79.5115 45.7227C78.7454 45.0529 77.5774 45.1128 76.7237 45.3933Z" fill="#EF5038"/>
<path d="M29.4062 91.7991C28.7812 91.7991 28.4688 92.6936 28.4688 94.4827C28.4688 95.4202 28.5391 96.1506 28.6797 96.6741C28.8203 97.1897 28.9375 97.5295 29.0312 97.6936L29.2422 97.9749C29.4297 98.2327 29.5234 98.3967 29.5234 98.467C29.5234 98.7327 29.3281 98.9124 28.9375 99.0061C28.5469 99.0999 27.6211 99.1467 26.1602 99.1467C24.6992 99.1467 23.9688 98.9944 23.9688 98.6897C23.9688 98.4866 24.1953 98.2288 24.6484 97.9163C25.1016 97.6038 25.3789 97.1428 25.4805 96.5334C25.5898 95.9163 25.6445 94.0725 25.6445 91.0022C25.6445 87.9319 25.582 86.0999 25.457 85.5061C25.3398 84.9045 25.1328 84.4514 24.8359 84.1467L24.5547 83.8889C24.2266 83.592 24.0625 83.4163 24.0625 83.3616C24.0625 82.9553 24.7969 82.7522 26.2656 82.7522L26.793 82.7639H27.3438C28.875 82.7639 29.6406 82.928 29.6406 83.2561C29.6406 83.4124 29.5156 83.6467 29.2656 83.9592C29.0234 84.2717 28.875 84.5334 28.8203 84.7444C28.6172 85.4866 28.5156 86.8616 28.5156 88.8694C28.5156 89.6975 28.6719 90.1116 28.9844 90.1116C29.1094 90.1116 29.3398 89.9788 29.6758 89.7131C30.4414 89.1116 31.3438 88.1858 32.3828 86.9358C33.4219 85.678 33.9414 84.8069 33.9414 84.3225L33.918 84.0061L33.8477 83.7131L33.7891 83.4319C33.7891 83.1819 33.9336 83.0178 34.2227 82.9397C34.5117 82.8616 35.1055 82.8225 36.0039 82.8225C37.3789 82.8225 38.0664 83.0178 38.0664 83.4084C38.0664 83.5022 37.668 83.8342 36.8711 84.4045C36.082 84.967 35.3359 85.6233 34.6328 86.3733C32.9375 88.178 32.0898 89.3655 32.0898 89.9358C32.0898 90.2483 33.3633 92.0647 35.9102 95.385C36.543 96.2053 37.2188 96.928 37.9375 97.553C38.6562 98.1702 39.0156 98.5256 39.0156 98.6194C39.0156 98.9788 38.2812 99.1584 36.8125 99.1584H36.2969C35.4922 99.1584 34.957 99.0374 34.6914 98.7952C34.4258 98.5452 34.207 98.1975 34.0352 97.7522C33.668 96.7991 32.9336 95.5686 31.832 94.0608C30.7305 92.553 29.9219 91.7991 29.4062 91.7991ZM42.3906 99.053C41.2891 99.053 40.7383 98.8967 40.7383 98.5842C40.7383 98.3264 40.8828 98.1155 41.1719 97.9514C41.6953 97.6545 42 97.3889 42.0859 97.1545C42.1719 96.9124 42.2148 95.7834 42.2148 93.7678C42.2148 91.7444 42.1523 90.5608 42.0273 90.217C41.9102 89.8655 41.6914 89.5764 41.3711 89.3499C41.0508 89.1233 40.8906 88.9397 40.8906 88.7991C40.8906 88.6584 40.9961 88.5256 41.207 88.4006C41.6992 88.1116 42.4805 87.967 43.5508 87.967C43.8711 87.967 44.1211 88.0764 44.3008 88.2952C44.3633 88.3733 44.4492 88.5452 44.5586 88.8108C44.6758 89.0686 44.7539 89.1975 44.793 89.1975C44.9414 89.1897 45.1719 89.0842 45.4844 88.8811C46.5625 88.1545 47.5391 87.7913 48.4141 87.7913H48.4375H48.8125C49.4453 87.7913 50.0156 87.9475 50.5234 88.26C51.0312 88.5725 51.4219 89.0413 51.6953 89.6663C51.9766 90.2913 52.1172 91.6545 52.1172 93.7561C52.1172 95.8499 52.1602 97.0217 52.2461 97.2717C52.3398 97.5139 52.5938 97.7405 53.0078 97.9514C53.4297 98.1624 53.6406 98.3694 53.6406 98.5725C53.6406 98.9241 52.5312 99.0999 50.3125 99.0999H49.9609C49.2578 99.0999 48.9062 98.9319 48.9062 98.5959C48.9062 98.5256 48.9922 98.3577 49.1641 98.092C49.3359 97.8186 49.4531 97.5178 49.5156 97.1897C49.5781 96.8616 49.6094 95.7834 49.6094 93.9553C49.6094 92.1194 49.4961 90.9397 49.2695 90.4163C48.957 89.6975 48.4375 89.3381 47.7109 89.3381C47.1797 89.3381 46.6641 89.4631 46.1641 89.7131C45.6719 89.9553 45.3125 90.303 45.0859 90.7561C44.8672 91.2014 44.7578 92.2756 44.7578 93.9788C44.7578 95.6741 44.8047 96.7014 44.8984 97.0608C44.9922 97.4124 45.1055 97.6975 45.2383 97.9163L45.6719 98.6194C45.6719 98.9241 45.0586 99.0764 43.832 99.0764L43.1172 99.053H42.3906ZM57.8945 93.1116V93.5452C57.8945 94.8733 58.1523 95.9749 58.668 96.8499C58.9102 97.2639 59.2188 97.592 59.5938 97.8342C59.9688 98.0764 60.3477 98.1975 60.7305 98.1975H60.9648C61.6758 98.1975 62.2891 97.8538 62.8047 97.1663C63.3281 96.4709 63.5898 95.4866 63.5898 94.2131V93.3811C63.5898 92.1233 63.3281 91.0569 62.8047 90.1819C62.2891 89.2991 61.6328 88.8577 60.8359 88.8577H60.4727C59.7539 88.8577 59.1445 89.2444 58.6445 90.0178C58.1445 90.7913 57.8945 91.8225 57.8945 93.1116ZM66.4141 93.1584V93.7444C66.4141 94.3616 66.2891 95.0374 66.0391 95.7717C65.5156 97.303 64.4727 98.3733 62.9102 98.9827C62.2305 99.2483 61.5742 99.3811 60.9414 99.3811H60.5547C59.0625 99.3811 57.8164 98.8811 56.8164 97.8811C56.3633 97.428 55.9961 96.8303 55.7148 96.0881C55.4336 95.3459 55.293 94.5569 55.293 93.7209V93.5217C55.293 92.7639 55.4258 91.9983 55.6914 91.2249C56.207 89.717 57.2188 88.6702 58.7266 88.0842C59.4062 87.8186 60.0586 87.6858 60.6836 87.6858H61.2695C61.9648 87.6858 62.6484 87.842 63.3203 88.1545C64.5938 88.7483 65.4805 89.6936 65.9805 90.9905C66.2695 91.7561 66.4141 92.4788 66.4141 93.1584ZM84.332 88.0256C85.0898 88.0256 85.4688 88.2366 85.4688 88.6584C85.4688 88.7444 85.3672 88.9475 85.1641 89.2678C84.9688 89.5803 84.7383 90.0139 84.4727 90.5686C84.207 91.1233 83.7148 92.4397 82.9961 94.5178C82.2773 96.5959 81.8633 97.7405 81.7539 97.9514C81.3945 98.6311 80.8984 98.9709 80.2656 98.9709C79.9766 98.9709 79.6836 98.6858 79.3867 98.1155C79.0898 97.5452 78.6211 96.4475 77.9805 94.8225C77.3477 93.1897 76.9453 92.3733 76.7734 92.3733C76.75 92.3733 76.3906 93.2288 75.6953 94.9397C75 96.6428 74.5859 97.6194 74.4531 97.8694C74.0781 98.5803 73.6211 98.9358 73.082 98.9358C72.5508 98.9358 71.9805 98.0295 71.3711 96.217L71.0781 95.303C70.2422 92.6155 69.4648 90.7717 68.7461 89.7717C68.3086 89.1624 68.0898 88.7952 68.0898 88.6702C68.0898 88.5452 68.1523 88.428 68.2773 88.3186C68.543 88.0842 69.0117 87.967 69.6836 87.967H70.1289C71.0742 87.967 71.6602 88.1702 71.8867 88.5764C71.9727 88.7327 72.0391 89.0803 72.0859 89.6194C72.1406 90.1506 72.207 90.6545 72.2852 91.1311C72.3711 91.5999 72.5977 92.4124 72.9648 93.5686C73.332 94.7249 73.6797 95.303 74.0078 95.303C74.2656 95.303 74.5781 94.7952 74.9453 93.7795C75.3125 92.7639 75.4961 91.8303 75.4961 90.9788C75.4961 90.7756 75.4531 90.5061 75.3672 90.1702C75.2891 89.8342 75.25 89.6038 75.25 89.4788C75.25 89.01 75.5391 88.6467 76.1172 88.3889C76.3984 88.2639 76.8203 88.2014 77.3828 88.2014C77.9531 88.2014 78.4258 88.4241 78.8008 88.8694C78.9961 89.1038 79.0938 89.4397 79.0938 89.8772L79.0703 90.217L79.0586 90.592C79.0586 90.8108 79.2305 91.4905 79.5742 92.6311C79.918 93.7639 80.1641 94.4866 80.3125 94.7991C80.4688 95.1038 80.6289 95.2561 80.793 95.2561C81.1289 95.2561 81.5156 94.6116 81.9531 93.3225C82.3984 92.0334 82.6211 90.928 82.6211 90.0061L82.5273 88.8225C82.5273 88.2913 83.1289 88.0256 84.332 88.0256ZM87.2734 98.7366C87.2734 98.5725 87.4492 98.3616 87.8008 98.1038C88.1602 97.8459 88.4023 97.4436 88.5273 96.8967C88.6523 96.342 88.7148 94.2483 88.7148 90.6155C88.7148 86.9827 88.6719 84.9241 88.5859 84.4397C88.5078 83.9553 88.3086 83.6077 87.9883 83.3967C87.4727 83.0608 87.2148 82.8538 87.2148 82.7756V82.635C87.2148 82.5022 87.3281 82.385 87.5547 82.2834C88.2578 81.9788 89.1953 81.8264 90.3672 81.8264H90.6016C91 81.8264 91.2305 82.0959 91.293 82.635C91.3008 82.7053 91.3047 83.2952 91.3047 84.4045V86.9241L91.293 87.4045V88.1428L91.2812 88.6233C91.2812 88.6233 91.2812 89.8616 91.2812 92.3381C91.2812 94.6506 91.3164 96.0842 91.3867 96.6389C91.4648 97.1858 91.6406 97.5842 91.9141 97.8342C91.9453 97.8577 92.1094 97.9592 92.4062 98.1389C92.7031 98.3186 92.8516 98.5022 92.8516 98.6897C92.8516 98.9631 92.3672 99.0999 91.3984 99.0999L90.918 99.1233H90.4375L88.5156 99.1584H88.2695C87.6055 99.1584 87.2734 99.0178 87.2734 98.7366ZM102.051 91.5295V91.1663C102.051 90.5881 101.844 90.0686 101.43 89.6077C101.016 89.1389 100.508 88.9045 99.9062 88.9045H99.6836C99.5742 88.9202 99.5 88.928 99.4609 88.928C98.9141 88.928 98.3945 89.2405 97.9023 89.8655C97.418 90.4905 97.1758 91.1584 97.1758 91.8694V92.0217C97.1758 92.2717 97.3242 92.3967 97.6211 92.3967C97.7383 92.4202 97.8008 92.4319 97.8086 92.4319L98.0781 92.4436H98.1484L98.2305 92.4319L100.492 92.303L100.914 92.2561C101.672 92.2561 102.051 92.0139 102.051 91.5295ZM97.1758 94.635C97.1758 95.5256 97.5117 96.2717 98.1836 96.8733C98.8555 97.4749 99.707 97.7756 100.738 97.7756C101.152 97.7756 101.527 97.717 101.863 97.5999C102.207 97.4749 102.578 97.3264 102.977 97.1545C103.383 96.9827 103.637 96.8967 103.738 96.8967C104.051 96.8967 104.207 97.0647 104.207 97.4006C104.207 97.8538 103.629 98.3381 102.473 98.8538C101.723 99.1897 100.918 99.3577 100.059 99.3577H99.8008C98.332 99.3577 97.1133 98.9124 96.1445 98.0217C95.6211 97.5374 95.2148 96.9202 94.9258 96.1702C94.6367 95.4124 94.4922 94.5999 94.4922 93.7327L94.5039 93.4631V93.1936C94.5039 92.4436 94.6758 91.7053 95.0195 90.9788C95.3711 90.2522 95.7891 89.6545 96.2734 89.1858C97.2969 88.2014 98.5117 87.7053 99.918 87.6975C102.043 87.6975 103.457 88.5256 104.16 90.1819C104.379 90.7053 104.488 91.1858 104.488 91.6233V91.8577C104.488 92.3967 104.266 92.76 103.82 92.9475C103.375 93.1272 102.324 93.2756 100.668 93.3928C99.0117 93.51 98.1133 93.5881 97.9727 93.6272C97.4414 93.76 97.1758 94.0959 97.1758 94.635ZM114.391 91.1194C114.391 90.4866 114.188 89.9827 113.781 89.6077C113.375 89.2249 112.836 89.0334 112.164 89.0334H111.941C111.59 89.0334 111.215 89.1389 110.816 89.3499C110.418 89.5608 110.09 89.8655 109.832 90.2639C109.316 91.0608 109.059 92.0491 109.059 93.2288V93.9202C109.059 95.092 109.32 96.0608 109.844 96.8264C110.375 97.592 111.02 97.9749 111.777 97.9749H112.117C112.781 97.9749 113.324 97.7483 113.746 97.2952C114.168 96.842 114.379 96.2639 114.379 95.5608L114.402 95.3147V95.0686L114.426 94.4592C114.426 94.0842 114.426 93.7092 114.426 93.3342L114.438 92.9592V92.5959L114.426 92.467V91.8459L114.414 91.7288V91.4827C114.398 91.3264 114.391 91.2053 114.391 91.1194ZM114.449 87.803C114.52 87.6311 114.555 87.1155 114.555 86.2561C114.555 85.3967 114.488 84.7678 114.355 84.3694C114.223 83.9631 113.988 83.6311 113.652 83.3733C113.324 83.1077 113.16 82.9084 113.16 82.7756C113.16 82.6428 113.25 82.5256 113.43 82.4241C113.914 82.1428 114.703 82.0022 115.797 82.0022H116.078C116.625 82.0022 116.938 82.2952 117.016 82.8811C117.039 83.0608 117.051 85.2952 117.051 89.5842C117.051 93.8655 117.082 96.217 117.145 96.6389C117.207 97.053 117.355 97.3772 117.59 97.6116C117.637 97.6584 117.785 97.7795 118.035 97.9749C118.293 98.1624 118.422 98.3303 118.422 98.4788C118.422 98.6194 118.312 98.7483 118.094 98.8655C117.648 99.1077 116.922 99.2288 115.914 99.2288C115.562 99.2288 115.281 99.1233 115.07 98.9124C114.656 98.4983 114.43 98.2913 114.391 98.2913C114.359 98.2913 114.184 98.3811 113.863 98.5608C113.543 98.7405 113.156 98.9241 112.703 99.1116C112.258 99.2913 111.703 99.3811 111.039 99.3811C110.375 99.3811 109.762 99.2366 109.199 98.9475C108.16 98.4163 107.43 97.5374 107.008 96.3108C106.758 95.5764 106.633 94.7717 106.633 93.8967C106.633 92.1311 107.137 90.6936 108.145 89.5842C109.16 88.4749 110.559 87.9202 112.34 87.9202L113.875 88.0608C114.188 88.0608 114.379 87.9749 114.449 87.803ZM125.441 88.4475H125.137C124.723 88.4475 124.32 88.6858 123.93 89.1624C123.539 89.6389 123.344 90.1936 123.344 90.8264L123.32 91.0139L123.309 91.3069V91.6116L123.32 91.7053C123.32 92.5178 123.496 93.1741 123.848 93.6741C124.199 94.1741 124.723 94.4241 125.418 94.4241H125.5C126.039 94.4241 126.5 94.2131 126.883 93.7913C127.266 93.3694 127.457 92.8108 127.457 92.1155V91.6584C127.434 91.4709 127.422 91.3186 127.422 91.2014C127.422 90.4592 127.215 89.8147 126.801 89.2678C126.395 88.7209 125.941 88.4475 125.441 88.4475ZM124.398 98.8655C123.852 98.8655 123.387 99.0569 123.004 99.4397C122.621 99.8225 122.43 100.303 122.43 100.881V100.975C122.43 101.639 122.691 102.162 123.215 102.545C123.738 102.928 124.453 103.119 125.359 103.119H125.664C126.758 103.119 127.637 102.869 128.301 102.369C128.965 101.869 129.297 101.283 129.297 100.612L129.285 100.518C129.285 100.073 129.102 99.7131 128.734 99.4397C128.367 99.1741 127.934 99.0413 127.434 99.0413C127.121 99.0022 126.895 98.9827 126.754 98.9827L126.355 98.9475H126.156L125.453 98.9006L124.973 98.8655H124.398ZM131.605 88.3186C131.605 88.7639 131.324 89.0491 130.762 89.1741C130.199 89.2913 129.918 89.5217 129.918 89.8655L129.953 90.1116L130 90.3928L130.059 90.6975C130.098 90.9553 130.117 91.3186 130.117 91.7874C130.117 92.2561 129.984 92.7405 129.719 93.2405C128.977 94.6233 127.547 95.3811 125.43 95.5139C124.75 95.5608 124.316 95.6194 124.129 95.6897C123.723 95.8459 123.52 96.1077 123.52 96.4749C123.52 96.842 123.82 97.0999 124.422 97.2483C124.508 97.2717 125.285 97.3459 126.754 97.4709C128.223 97.5881 129.203 97.7717 129.695 98.0217C130.734 98.5374 131.254 99.2834 131.254 100.26C131.254 101.541 130.68 102.584 129.531 103.389C128.391 104.194 126.895 104.596 125.043 104.596C123.738 104.596 122.652 104.346 121.785 103.846C121.387 103.619 121.062 103.323 120.812 102.955C120.57 102.596 120.449 102.221 120.449 101.83C120.449 101.135 120.656 100.557 121.07 100.096C121.734 99.3616 122.066 98.9709 122.066 98.9241C122.066 98.8772 121.922 98.6702 121.633 98.303C121.344 97.9358 121.199 97.553 121.199 97.1545C121.199 96.7561 121.387 96.3264 121.762 95.8655C122.145 95.3967 122.336 95.135 122.336 95.0803C122.336 95.0256 122.102 94.6272 121.633 93.885C121.164 93.135 120.93 92.4241 120.93 91.7522C120.93 91.0803 121.074 90.4827 121.363 89.9592C122.184 88.467 123.711 87.7209 125.945 87.7209H126.285L127.914 87.8264L128.512 87.8499C128.715 87.8577 128.922 87.8616 129.133 87.8616L130.375 87.7795C131.195 87.7795 131.605 87.9592 131.605 88.3186ZM140.77 91.5295V91.1663C140.77 90.5881 140.562 90.0686 140.148 89.6077C139.734 89.1389 139.227 88.9045 138.625 88.9045H138.402C138.293 88.9202 138.219 88.928 138.18 88.928C137.633 88.928 137.113 89.2405 136.621 89.8655C136.137 90.4905 135.895 91.1584 135.895 91.8694V92.0217C135.895 92.2717 136.043 92.3967 136.34 92.3967C136.457 92.4202 136.52 92.4319 136.527 92.4319L136.797 92.4436H136.867L136.949 92.4319L139.211 92.303L139.633 92.2561C140.391 92.2561 140.77 92.0139 140.77 91.5295ZM135.895 94.635C135.895 95.5256 136.23 96.2717 136.902 96.8733C137.574 97.4749 138.426 97.7756 139.457 97.7756C139.871 97.7756 140.246 97.717 140.582 97.5999C140.926 97.4749 141.297 97.3264 141.695 97.1545C142.102 96.9827 142.355 96.8967 142.457 96.8967C142.77 96.8967 142.926 97.0647 142.926 97.4006C142.926 97.8538 142.348 98.3381 141.191 98.8538C140.441 99.1897 139.637 99.3577 138.777 99.3577H138.52C137.051 99.3577 135.832 98.9124 134.863 98.0217C134.34 97.5374 133.934 96.9202 133.645 96.1702C133.355 95.4124 133.211 94.5999 133.211 93.7327L133.223 93.4631V93.1936C133.223 92.4436 133.395 91.7053 133.738 90.9788C134.09 90.2522 134.508 89.6545 134.992 89.1858C136.016 88.2014 137.23 87.7053 138.637 87.6975C140.762 87.6975 142.176 88.5256 142.879 90.1819C143.098 90.7053 143.207 91.1858 143.207 91.6233V91.8577C143.207 92.3967 142.984 92.76 142.539 92.9475C142.094 93.1272 141.043 93.2756 139.387 93.3928C137.73 93.51 136.832 93.5881 136.691 93.6272C136.16 93.76 135.895 94.0959 135.895 94.635ZM77.8516 127.713C77.8516 128.041 77.2891 128.205 76.1641 128.205H75.6016L75.0273 128.194C73.9805 128.194 73.2578 128.155 72.8594 128.076C72.4609 127.998 72.2617 127.83 72.2617 127.573C72.2617 127.502 72.3906 127.315 72.6484 127.01C72.9141 126.705 73.1133 126.299 73.2461 125.791C73.3789 125.283 73.4453 124.389 73.4453 123.108C73.4453 121.826 73.3047 121.061 73.0234 120.811C72.75 120.553 71.6367 120.424 69.6836 120.424C67.7383 120.424 66.6055 120.576 66.2852 120.881C66.0742 121.076 65.9688 121.854 65.9688 123.213C65.9688 124.573 66.0156 125.463 66.1094 125.885C66.2109 126.307 66.3438 126.635 66.5078 126.869L66.7422 127.139C66.9844 127.412 67.1055 127.573 67.1055 127.619C67.1055 127.901 66.8594 128.069 66.3672 128.123C66.1484 128.147 65.2695 128.158 63.7305 128.158C62.1992 128.158 61.4336 127.983 61.4336 127.631C61.4336 127.444 61.7344 127.151 62.3359 126.752C62.7344 126.487 62.9727 126.131 63.0508 125.686C63.1289 125.233 63.168 123.35 63.168 120.037C63.168 116.725 63.1094 114.807 62.9922 114.283C62.875 113.76 62.582 113.365 62.1133 113.1C61.6523 112.826 61.4219 112.576 61.4219 112.35C61.4219 112.045 62.3984 111.893 64.3516 111.893H65.4883C66.582 111.893 67.1289 112.076 67.1289 112.444C67.1289 112.475 66.9961 112.658 66.7305 112.994C66.4648 113.323 66.2773 113.729 66.168 114.213C66.0664 114.69 66.0156 115.475 66.0156 116.569C66.0156 117.662 66.1445 118.33 66.4023 118.573C66.6602 118.815 67.7539 118.936 69.6836 118.936C71.6211 118.936 72.7266 118.803 73 118.537C73.1953 118.35 73.293 117.658 73.293 116.463C73.293 115.26 73.25 114.494 73.1641 114.166C73.0859 113.838 72.9609 113.561 72.7891 113.334L72.543 113.065C72.3008 112.807 72.1797 112.635 72.1797 112.549C72.1797 112.252 72.3945 112.076 72.8242 112.022C73.2539 111.967 74.2109 111.94 75.6953 111.94C77.1797 111.94 77.9219 112.1 77.9219 112.42C77.9219 112.662 77.7812 112.881 77.5 113.076C76.8672 113.506 76.5234 113.783 76.4688 113.908C76.3359 114.213 76.2695 115.69 76.2695 118.338L76.1875 124.127C76.1875 125.213 76.2461 125.912 76.3633 126.225C76.4805 126.537 76.6758 126.776 76.9492 126.94C77.5508 127.307 77.8516 127.565 77.8516 127.713ZM91.7617 126.869C92.1055 127.135 92.2773 127.326 92.2773 127.444C92.2773 127.553 92.2188 127.658 92.1016 127.76C91.7656 128.065 91.0469 128.217 89.9453 128.217C89.5859 128.217 89.3047 128.158 89.1016 128.041C88.9062 127.916 88.7305 127.694 88.5742 127.373C88.4258 127.053 88.3008 126.893 88.1992 126.893C88.0977 126.901 87.8711 127.03 87.5195 127.28C86.5352 127.99 85.5938 128.346 84.6953 128.346C84.6875 128.346 84.6758 128.346 84.6602 128.346H84.3086C83.0195 128.346 82.0859 127.799 81.5078 126.705C81.2109 126.135 81.0586 124.74 81.0508 122.522C81.0508 120.295 81.0156 119.073 80.9453 118.854C80.875 118.627 80.625 118.416 80.1953 118.221C79.7734 118.018 79.5625 117.862 79.5625 117.752C79.5625 117.463 79.6992 117.276 79.9727 117.19C80.582 116.994 81.3594 116.897 82.3047 116.897C82.8516 116.897 83.1992 117.119 83.3477 117.565C83.543 118.135 83.6406 119.498 83.6406 121.655C83.6406 123.803 83.7344 125.108 83.9219 125.569C84.2422 126.358 84.8242 126.752 85.668 126.752C86.1055 126.752 86.5391 126.639 86.9688 126.412C87.4062 126.186 87.7461 125.881 87.9883 125.498C88.2305 125.115 88.3516 124.065 88.3516 122.346C88.3516 120.619 88.293 119.533 88.1758 119.088C88.0664 118.643 87.8945 118.295 87.6602 118.045C87.4258 117.787 87.3086 117.584 87.3086 117.436C87.3086 117.092 88.2266 116.92 90.0625 116.92C90.4453 116.92 90.6953 117.006 90.8125 117.178C90.9297 117.342 90.9883 117.647 90.9883 118.092L90.9531 118.783L90.8945 121.901C90.8945 123.932 90.9531 125.201 91.0703 125.709C91.1875 126.209 91.418 126.596 91.7617 126.869ZM100.387 118.162H100.047C99.6328 118.162 99.2266 118.28 98.8281 118.514C98.4375 118.74 98.1328 119.022 97.9141 119.358C97.7031 119.694 97.5977 120.655 97.5977 122.24V124.104C97.5977 125.26 97.7734 126.061 98.125 126.506C98.4766 126.944 99.082 127.162 99.9414 127.162H100.188C101.016 127.162 101.684 126.772 102.191 125.99C102.699 125.201 102.953 124.307 102.953 123.307L102.977 123.037V122.205C102.977 121.057 102.727 120.096 102.227 119.323C101.727 118.549 101.113 118.162 100.387 118.162ZM94.9258 126.752C94.9258 126.666 94.9688 126.272 95.0547 125.569C95.1484 124.865 95.1953 124.014 95.1953 123.014V119.639L95.207 119.065V116.721L95.1953 116.147V115.573L95.1836 115.291C95.1758 115.096 95.1719 114.772 95.1719 114.319C95.1719 113.389 94.9219 112.807 94.4219 112.573C93.9297 112.338 93.6836 112.112 93.6836 111.893C93.6836 111.729 93.7969 111.592 94.0234 111.483C94.5859 111.209 95.4492 111.073 96.6133 111.073C97.082 111.073 97.3828 111.338 97.5156 111.869C97.5938 112.174 97.6328 113.233 97.6328 115.045C97.6328 116.858 97.7773 117.764 98.0664 117.764C98.2461 117.764 98.6445 117.639 99.2617 117.389C99.8789 117.139 100.523 117.014 101.195 117.014C102.484 117.014 103.551 117.506 104.395 118.49C105.246 119.475 105.672 120.76 105.672 122.346V122.651C105.672 123.416 105.535 124.158 105.262 124.877C104.723 126.283 103.812 127.272 102.531 127.842C101.844 128.147 101.137 128.299 100.41 128.299H100.129C99.8242 128.299 99.3594 128.225 98.7344 128.076C98.1094 127.928 97.4883 127.854 96.8711 127.854L95.9102 127.936C95.2539 127.936 94.9258 127.541 94.9258 126.752Z" fill="#E4E2D6"/>
</svg>
