<svg width="28" height="22" viewBox="0 0 28 22" fill="none" xmlns="http://www.w3.org/2000/svg">
<g clip-path="url(#clip0_618_4301)">
<path d="M4.5 0.328125V11.4438C4.725 12.0625 5.125 12.325 5.80625 12.5063C6.51875 12.6875 7.5 12.7 8.55 12.7C9.6 12.7 10.7125 12.6938 11.7625 12.925C12.3562 13.0563 12.9312 13.2812 13.4375 13.625V1.46438C12.9875 0.845625 12.4437 0.60875 11.7312 0.52125C10.9688 0.428125 10.025 0.555625 9.05 0.698125C8.06875 0.840625 7.05625 0.99875 6.06875 0.878125C5.525 0.81125 4.9875 0.63625 4.5 0.328125ZM23.5 0.328125C23.0125 0.63625 22.475 0.81125 21.9312 0.878125C20.9438 0.99875 19.9313 0.840625 18.95 0.698125C17.975 0.555625 17.0312 0.428125 16.2687 0.52125C15.5562 0.60875 15.0125 0.845625 14.5625 1.46438V13.625C15.0688 13.2812 15.6437 13.0563 16.2375 12.925C17.2875 12.6938 18.4 12.7 19.45 12.7C20.5 12.7 21.4813 12.6875 22.1938 12.5063C22.875 12.325 23.275 12.0625 23.5 11.4438V0.328125ZM6.175 3.00187H11.7625V4.12687H6.175V3.00187ZM16.2375 3.00187H21.825V4.12687H16.2375V3.00187ZM6.175 5.78125H11.7625V6.90625H6.175V5.78125ZM16.2375 5.78125H21.825V6.90625H16.2375V5.78125ZM6.175 8.70625H11.7625V9.83125H6.175V8.70625ZM16.2375 8.70625H21.825V9.83125H16.2375V8.70625ZM4 13.5625C2.91875 13.5625 2.17562 14.0187 1.63937 14.7437C1.10375 15.4625 0.8125 16.4813 0.8125 17.5C0.8125 18.5187 1.10375 19.5375 1.63937 20.2563C2.17562 20.9813 2.91875 21.4375 4 21.4375C5.375 21.4375 6.23125 20.9937 6.775 20.5625C7.3125 20.1313 7.49375 19.75 7.49375 19.75L7.65 19.4375H20.35L20.5063 19.75C20.5063 19.75 20.6875 20.1313 21.225 20.5625C21.7688 20.9937 22.625 21.4375 24 21.4375C25.0812 21.4375 25.825 20.9813 26.3625 20.2563C26.8937 19.5375 27.1875 18.5187 27.1875 17.5C27.1875 16.4813 26.8937 15.4625 26.3625 14.7437C25.825 14.0187 25.0812 13.5625 24 13.5625C22.625 13.5625 21.7688 14.0063 21.225 14.4375C20.6875 14.8687 20.5063 15.25 20.5063 15.25L20.35 15.5625H7.65L7.49375 15.25C7.49375 15.25 7.3125 14.8687 6.775 14.4375C6.23125 14.0063 5.375 13.5625 4 13.5625ZM4.2875 14.9312C4.34375 14.9312 4.40625 14.9312 4.46875 14.9375C5.3125 15.0125 6.23125 15.4937 7.225 16.4375H20.775C21.7687 15.4937 22.6875 15.0125 23.5312 14.9375C24.4188 14.8625 25.1938 15.3 25.6 15.95C26.4188 17.2563 26.0375 19.3188 24.3125 20.4688L23.6875 19.5312C24.9625 18.6812 25.0812 17.2437 24.65 16.55C24.4312 16.2 24.1437 16.0125 23.625 16.0625C23.1125 16.1062 22.3375 16.4562 21.4 17.4L21.2313 17.5625H6.76875L6.6 17.4C5.6625 16.4562 4.8875 16.1062 4.375 16.0625C3.85875 16.0125 3.56875 16.2 3.35187 16.55C2.91937 17.2437 3.04 18.6812 4.3125 19.5312L3.68813 20.4688C1.96 19.3188 1.58063 17.2563 2.39813 15.95C2.75563 15.3813 3.39188 14.975 4.14313 14.9312H4.2875Z" fill="#E4E2D6"/>
</g>
<defs>
<clipPath id="clip0_618_4301">
<rect width="28" height="22" fill="white"/>
</clipPath>
</defs>
</svg>
