<svg width="298" height="12" viewBox="0 0 298 12" fill="none" xmlns="http://www.w3.org/2000/svg">
<path d="M7.44595 5.82668C7.44595 7.80268 5.77929 9.40668 3.72329 9.40668C1.66862 9.40668 0.00195312 7.80268 0.00195312 5.82668C0.00195312 3.85068 1.66862 2.24668 3.72329 2.24668C5.77929 2.24668 7.44595 3.85068 7.44595 5.82668Z" fill="#0D1616"/>
<path d="M20.0018 5.82669C20.0018 8.89469 17.4151 11.3827 14.2245 11.3827C11.0325 11.3827 8.4458 8.89469 8.4458 5.82669C8.4458 2.75736 11.0325 0.270691 14.2245 0.270691C17.4151 0.270691 20.0018 2.75736 20.0018 5.82669Z" fill="#0D1616"/>
<path d="M277.002 6.27136H21.002V5.38203H277.002V6.27136Z" fill="#0D1616"/>
<path d="M278.002 5.82735C278.002 8.89535 280.589 11.382 283.779 11.382C286.971 11.382 289.558 8.89535 289.558 5.82735C289.558 2.75802 286.971 0.271353 283.779 0.271353C280.589 0.271353 278.002 2.75802 278.002 5.82735Z" fill="#0D1616"/>
<path d="M290.558 5.82737C290.558 7.80337 292.225 9.40604 294.281 9.40604C296.335 9.40604 298.002 7.80337 298.002 5.82737C298.002 3.85137 296.335 2.24737 294.281 2.24737C292.225 2.24737 290.558 3.85137 290.558 5.82737Z" fill="#0D1616"/>
</svg>
