<svg width="28" height="25" viewBox="0 0 28 25" fill="none" xmlns="http://www.w3.org/2000/svg">
<path d="M18.7146 7.7854C19.3338 8.40447 19.8251 9.13948 20.1602 9.94842C20.4953 10.7574 20.6678 11.6244 20.6678 12.5C20.6678 13.3757 20.4953 14.2427 20.1602 15.0517C19.8251 15.8606 19.3338 16.5956 18.7146 17.2147M22.4852 4.01475C23.5996 5.12905 24.4835 6.45192 25.0865 7.90783C25.6896 9.36374 26 10.9242 26 12.5C26 14.0759 25.6896 15.6363 25.0865 17.0923C24.4835 18.5482 23.5996 19.871 22.4852 20.9853M5.44798 16.5H3.33333C2.97971 16.5 2.64057 16.3596 2.39052 16.1095C2.14048 15.8595 2 15.5203 2 15.1667V9.83339C2 9.47977 2.14048 9.14063 2.39052 8.89058C2.64057 8.64054 2.97971 8.50006 3.33333 8.50006H5.44798L11.724 2.22409C12.564 1.38409 13.9999 1.97876 13.9999 3.16675V21.8333C13.9999 23.0213 12.564 23.616 11.724 22.776L5.44798 16.5Z" stroke="#4F4722" stroke-width="3" stroke-linecap="round" stroke-linejoin="round"/>
</svg>
