<svg width="16" height="22" viewBox="0 0 16 22" fill="none" xmlns="http://www.w3.org/2000/svg">
<path d="M8.22217 0.5C4.08686 0.5 0.722168 3.71797 0.722168 7.67188C0.722168 9.55484 1.58045 12.0589 3.27311 15.1147C4.63248 17.5681 6.20514 19.7867 7.02311 20.8906C7.16132 21.0792 7.34204 21.2326 7.55061 21.3384C7.75918 21.4441 7.98973 21.4992 8.22357 21.4992C8.45742 21.4992 8.68797 21.4441 8.89654 21.3384C9.10511 21.2326 9.28583 21.0792 9.42404 20.8906C10.2406 19.7867 11.8147 17.5681 13.174 15.1147C14.8639 12.0598 15.7222 9.55578 15.7222 7.67188C15.7222 3.71797 12.3575 0.5 8.22217 0.5ZM8.22217 11C7.62882 11 7.04881 10.8241 6.55546 10.4944C6.06211 10.1648 5.67759 9.69623 5.45053 9.14805C5.22347 8.59987 5.16406 7.99667 5.27981 7.41473C5.39557 6.83279 5.68129 6.29824 6.10085 5.87868C6.5204 5.45912 7.05495 5.1734 7.6369 5.05764C8.21884 4.94189 8.82204 5.0013 9.37022 5.22836C9.9184 5.45542 10.3869 5.83994 10.7166 6.33329C11.0462 6.82664 11.2222 7.40666 11.2222 8C11.2213 8.79538 10.905 9.55794 10.3425 10.1204C9.78011 10.6828 9.01755 10.9991 8.22217 11Z" fill="#E4E2D6"/>
</svg>
