<svg width="451" height="315" viewBox="0 0 451 315" fill="none" xmlns="http://www.w3.org/2000/svg">
<path d="M158.556 292.676C42.8173 292.676 33.3333 296.349 15.2133 280.203C7.09999 272.972 0 261.912 0 245.347C0 206.693 43.3867 202.749 56.0067 231.935C41.4147 165.279 85.9827 153.841 114.381 169.617C80.4613 108.089 139.624 73.38 175.911 109.667C184.587 39.46 265.837 60.7586 257.949 115.188C286.741 86.396 332.1 114.4 318.689 161.729C357.343 123.077 425.183 153.052 401.517 210.637C448.059 190.128 480.717 292.676 406.409 292.676H158.556Z" fill="#9B905F"/>
<path d="M415.358 195.095C418.394 176.05 436.611 159.765 433.851 148.449C431.091 137.131 412.046 135.199 402.938 176.05C395.21 141.549 375.538 116.081 365.951 125.667C356.365 135.253 356.291 143.481 375.059 184.607C362.639 166.114 341.386 183.227 359.879 201.719C378.373 220.213 390.241 261.063 390.241 261.063H406.529C410.946 227.665 430.263 206.963 438.819 194.267C447.377 181.57 432.747 163.629 415.358 195.095Z" fill="#B8B8B8"/>
<path d="M418.789 259.531H378.485L384.142 299.622H413.132L418.789 259.531Z" fill="black"/>
<path d="M40.9487 135.207C36.1727 105.25 7.51934 79.6351 11.8607 61.8338C16.202 44.0338 46.1593 40.9951 60.486 105.25C72.6433 50.9804 103.585 10.9204 118.663 25.9991C133.742 41.0777 133.858 54.0191 104.337 118.708C123.873 89.6204 157.303 116.538 128.214 145.626C99.126 174.715 80.4567 238.97 80.4567 238.97H54.838C47.8887 186.438 17.5047 153.875 4.04601 133.903C-9.41266 113.932 13.5967 85.7124 40.9487 135.207Z" fill="#B8B8B8"/>
<path d="M35.5532 236.56H98.9465L90.0506 299.623H44.4506L35.5532 236.56Z" fill="black"/>
<path d="M219.988 292.815H265.012L258.693 248.027H226.308L219.988 292.815Z" fill="black"/>
<path d="M366.909 60.7046H118.092C112.661 60.7046 108.218 65.1486 108.218 70.5779V227.373H376.782V70.5779C376.782 65.1486 372.338 60.7046 366.909 60.7046Z" fill="black"/>
<path d="M108.218 241.196C108.218 246.626 112.66 251.069 118.091 251.069H366.908C372.338 251.069 376.782 246.626 376.782 241.196V227.373H108.218V241.196Z" fill="black"/>
<path d="M366.068 218.407H118.93V70.0654H366.068V218.407Z" fill="#E4E2D6"/>
<path d="M254.375 139.884H130.652V79.6798H254.375V139.884Z" fill="#C3B8FD"/>
<path d="M254.375 209.48H130.652V149.276H254.375V209.48Z" fill="#C3B8FD"/>
<path d="M354.347 209.48H265.422V79.6813H354.347V209.48Z" fill="#C3B8FD"/>
<path d="M353.999 87.5093H265.422V79.6799H353.999V87.5093Z" fill="#E4E2D6"/>
<path d="M254.375 87.5093H130.652V79.6799H254.375V87.5093Z" fill="#E4E2D6"/>
<path d="M172.703 154.98H133.679V153.059H172.703V154.98Z" fill="white"/>
<path d="M172.703 159.596H133.679V157.673H172.703V159.596Z" fill="white"/>
<path d="M172.703 164.213H133.679V162.291H172.703V164.213Z" fill="white"/>
<path d="M172.703 168.829H133.679V166.908H172.703V168.829Z" fill="white"/>
<path d="M172.703 173.447H133.679V171.524H172.703V173.447Z" fill="white"/>
<path d="M172.703 178.064H133.679V176.141H172.703V178.064Z" fill="white"/>
<path d="M172.703 182.68H133.679V180.759H172.703V182.68Z" fill="white"/>
<path d="M172.703 187.297H133.679V185.375H172.703V187.297Z" fill="white"/>
<path d="M172.703 191.915H133.679V189.992H172.703V191.915Z" fill="white"/>
<path d="M172.703 196.531H133.679V194.609H172.703V196.531Z" fill="white"/>
<path d="M172.703 201.148H133.679V199.225H172.703V201.148Z" fill="white"/>
<path d="M172.703 205.764H133.679V203.841H172.703V205.764Z" fill="white"/>
<path d="M250.708 92.7397H211.683V90.8171H250.708V92.7397Z" fill="white"/>
<path d="M250.708 97.356H211.683V95.4346H250.708V97.356Z" fill="white"/>
<path d="M250.708 101.973H211.683V100.05H250.708V101.973Z" fill="white"/>
<path d="M250.708 106.591H211.683V104.668H250.708V106.591Z" fill="white"/>
<path d="M250.708 111.207H211.683V109.285H250.708V111.207Z" fill="white"/>
<path d="M250.708 115.823H211.683V113.9H250.708V115.823Z" fill="white"/>
<path d="M250.708 120.44H211.683V118.517H250.708V120.44Z" fill="white"/>
<path d="M250.708 125.056H211.683V123.135H250.708V125.056Z" fill="white"/>
<path d="M250.708 129.673H211.683V127.751H250.708V129.673Z" fill="white"/>
<path d="M250.708 134.291H211.683V132.368H250.708V134.291Z" fill="white"/>
<path d="M205.663 134.291H135.582V90.8172H205.663V134.291Z" fill="#766C40"/>
<path d="M250.708 206.756H176.643V152.639H250.708V206.756Z" fill="#766C40"/>
<path d="M346.743 143.885H272.679V94.3386H346.743V143.885Z" fill="#766C40"/>
<path d="M346.743 199.656H272.679V150.108H346.743V199.656Z" fill="#766C40"/>
<path d="M243.578 198.403H183.772V200.047H243.578V198.403Z" fill="#E4E2D6"/>
<path d="M184.596 164.776H182.951V200.047H184.596V164.776Z" fill="#E4E2D6"/>
<path d="M197.222 191.915H186.205V198.403H197.222V191.915Z" fill="#B8B8B8"/>
<path d="M208.239 183.5H197.222V198.403H208.239V183.5Z" fill="black"/>
<path d="M219.114 188.233H208.097V198.403H219.114V188.233Z" fill="#766C40"/>
<path d="M230.13 173.447H219.112V198.403H230.13V173.447Z" fill="black"/>
<path d="M241.147 179.697H230.13V198.403H241.147V179.697Z" fill="#B8B8B8"/>
<path d="M227.623 161.208H199.584V156.092H227.623V161.208Z" fill="#E4E2D6"/>
<path d="M309.71 119.112V136.607C314.542 136.607 318.916 134.648 322.082 131.483L309.71 119.112Z" fill="#9B905F"/>
<path d="M292.215 119.112C292.215 128.774 300.048 136.607 309.711 136.607V119.478V119.112V101.616C300.048 101.616 292.215 109.45 292.215 119.112Z" fill="#E4E2D6"/>
<path d="M309.71 101.616V119.112L322.082 131.483C325.248 128.316 327.206 123.943 327.206 119.112C327.206 109.449 319.373 101.616 309.71 101.616Z" fill="#B8B8B8"/>
<path d="M171.939 80.6826H158.582C152.943 80.6826 148.33 76.0693 148.33 70.4306V66.9826C148.33 61.344 152.943 56.7293 158.582 56.7293H171.939C177.578 56.7293 182.191 61.344 182.191 66.9826V70.4306C182.191 76.0693 177.578 80.6826 171.939 80.6826Z" fill="#452500"/>
<path d="M168.649 8.191C166.696 7.047 164.225 7.25767 162.326 8.491C161.032 9.331 159.814 10.6803 159.814 12.7803C159.814 17.2577 154.797 16.0523 156.161 11.1203C150.496 10.019 152.121 4.915 157.368 5.16166C153.473 -1.92767 168.788 -1.63567 172.082 5.55367C175.15 12.819 172.788 16.8577 171.713 16.8577C170.638 16.8577 168.996 13.3283 170.638 10.5963C170.276 9.44567 169.498 8.68833 168.649 8.191Z" fill="#E4E2D6"/>
<path d="M153.474 26.4559H177.047V56.7292H153.474V26.4559Z" fill="black"/>
<path d="M176.845 26.4558C176.845 26.4558 185.31 29.4038 185.992 47.5105C185.992 60.6518 185.257 62.6958 182.022 62.6958C178.789 62.6958 169.885 62.2091 161.196 59.3865V55.7851H178.984L176.845 42.4478V26.4558Z" fill="#FFBEBC"/>
<path d="M169.883 15.0081C169.883 16.0841 170.755 16.9561 171.831 16.9561C172.907 16.9561 173.779 16.0841 173.779 15.0081C173.779 13.9321 172.907 13.0601 171.831 13.0601C170.755 13.0601 169.883 13.9321 169.883 15.0081Z" fill="#FFBEBC"/>
<path d="M171.831 13.9396C171.242 13.9396 170.763 14.4169 170.763 15.0076C170.763 15.1062 170.794 15.1956 170.819 15.2876C170.887 15.2529 170.947 15.2009 171.029 15.2009C171.307 15.2009 171.534 15.4276 171.534 15.7062C171.534 15.8182 171.478 15.9089 171.415 15.9929C171.545 16.0462 171.685 16.0769 171.831 16.0769C172.422 16.0769 172.899 15.5982 172.899 15.0076C172.899 14.4169 172.422 13.9396 171.831 13.9396Z" fill="#FFA09A"/>
<path d="M160.711 15.0081C160.711 16.0841 159.839 16.9561 158.763 16.9561C157.687 16.9561 156.815 16.0841 156.815 15.0081C156.815 13.9321 157.687 13.0601 158.763 13.0601C159.839 13.0601 160.711 13.9321 160.711 15.0081Z" fill="#FFBEBC"/>
<path d="M158.763 13.9396C159.352 13.9396 159.831 14.4169 159.831 15.0076C159.831 15.1062 159.8 15.1956 159.775 15.2876C159.707 15.2529 159.647 15.2009 159.565 15.2009C159.287 15.2009 159.06 15.4276 159.06 15.7062C159.06 15.8182 159.117 15.9089 159.179 15.9929C159.051 16.0462 158.909 16.0769 158.763 16.0769C158.172 16.0769 157.695 15.5982 157.695 15.0076C157.695 14.4169 158.172 13.9396 158.763 13.9396Z" fill="#FFA09A"/>
<path d="M153.473 26.4558C153.473 26.4558 145.008 29.4038 144.327 47.5105C144.327 60.6518 145.061 62.6958 148.296 62.6958C151.529 62.6958 160.433 62.2091 169.123 59.3865V55.7851H151.335L153.473 42.4478V26.4558Z" fill="#FFBEBC"/>
<path d="M145.771 34.8635C158.763 40.5768 172.11 40.1062 184.692 35.6968C184.692 35.6968 183.842 25.5888 173.78 25.6902C154.348 25.8862 146.572 24.4582 145.771 34.8635Z" fill="black"/>
<path d="M161.47 20.2151V27.3764C161.47 29.4684 163.166 31.1658 165.261 31.1658C167.354 31.1658 169.05 29.4684 169.05 27.3764V20.2151H161.47Z" fill="#FFA09A"/>
<path d="M165.261 22.3804C168.834 22.3804 171.758 19.4564 171.758 15.883V12.051C171.758 8.47771 168.834 5.55371 165.261 5.55371C161.687 5.55371 158.763 8.47771 158.763 12.051V15.883C158.763 19.4564 161.687 22.3804 165.261 22.3804Z" fill="#FFBEBC"/>
<path d="M179.552 65.1562H150.969C150.24 65.1562 149.644 64.5602 149.644 63.8309V42.9176C149.644 42.1882 150.24 41.5923 150.969 41.5923H179.552C180.28 41.5923 180.876 42.1882 180.876 42.9176V63.8309C180.876 64.5602 180.28 65.1562 179.552 65.1562Z" fill="#FBEFEA"/>
<path d="M162.212 13.4239C162.212 13.6839 162.423 13.8945 162.683 13.8945C162.941 13.8945 163.153 13.6839 163.153 13.4239C163.153 13.1639 162.941 12.9532 162.683 12.9532C162.423 12.9532 162.212 13.1639 162.212 13.4239Z" fill="#E4E2D6"/>
<path d="M167.314 13.4239C167.314 13.6839 167.525 13.8945 167.785 13.8945C168.045 13.8945 168.256 13.6839 168.256 13.4239C168.256 13.1639 168.045 12.9532 167.785 12.9532C167.525 12.9532 167.314 13.1639 167.314 13.4239Z" fill="#E4E2D6"/>
<path d="M165.234 13.424C165.234 13.424 163.628 16.592 165.234 16.592C166.839 16.592 165.234 13.424 165.234 13.424Z" fill="#452500"/>
<path d="M163.661 17.521H166.806C166.806 17.521 166.293 18.457 165.234 18.457C164.117 18.457 163.661 17.521 163.661 17.521Z" fill="white"/>
<path d="M162.068 12.0215C162.068 12.0215 162.736 11.3562 163.403 12.0215" stroke="#452500" stroke-width="0.426667" stroke-miterlimit="10"/>
<path d="M167.064 12.0215C167.064 12.0215 167.732 11.3562 168.399 12.0215" stroke="#452500" stroke-width="0.426667" stroke-miterlimit="10"/>
<path d="M160.916 15.157C160.916 15.645 161.312 16.041 161.8 16.041C162.288 16.041 162.682 15.645 162.682 15.157C162.682 14.669 162.288 14.273 161.8 14.273C161.312 14.273 160.916 14.669 160.916 15.157Z" fill="#452500"/>
<path d="M167.785 15.157C167.785 15.645 168.18 16.041 168.669 16.041C169.156 16.041 169.552 15.645 169.552 15.157C169.552 14.669 169.156 14.273 168.669 14.273C168.18 14.273 167.785 14.669 167.785 15.157Z" fill="#452500"/>
<path d="M157.004 10.5824C157.004 10.5824 161.043 11.2237 165.199 7.90907C165.719 11.2771 170.524 10.6371 171.756 7.32107C172.991 4.0064 158.475 -0.297598 157.004 10.5824Z" fill="#E4E2D6"/>
<path d="M170.441 96.2084C168.081 83.0524 162.957 60.1951 155.982 61.3524C146.218 62.9751 150.974 82.0737 161.95 106.831C162.162 108.106 162.532 109.384 162.997 110.643L172.704 106.61C171.822 103.174 171.068 99.7044 170.441 96.2084Z" fill="#452500"/>
<path d="M172.704 106.61L162.997 110.643C165.66 117.846 171.882 124.259 175.034 123.736C177.204 123.376 175.75 117.071 174.176 111.91C173.64 110.154 173.16 108.386 172.704 106.61Z" fill="#E4E2D6"/>
<path d="M158.883 112.982C157.853 118.281 157.062 124.702 159.257 124.835C161.914 124.997 166.193 120.139 168.647 114.213L159.234 111.006C159.117 111.665 159.011 112.326 158.883 112.982Z" fill="#E4E2D6"/>
<path d="M171.728 60.8106C164.671 60.3826 161.948 83.6493 160.967 96.9786C160.621 101.683 160.056 106.364 159.233 111.005L168.648 114.212C169.653 111.785 170.363 109.181 170.515 106.663C178.86 80.8999 181.607 61.4093 171.728 60.8106Z" fill="#452500"/>
<path d="M106.556 169.513C106.556 169.513 106.131 176.747 108.805 180.089C111.479 183.431 111.661 187.601 106.86 188.708C102.059 189.813 99.6293 187.381 101.232 180.515C102.836 173.647 101.9 168.541 101.9 168.541L106.556 169.513Z" fill="black"/>
<path d="M86.6113 228.688V187.029H105.375C109.97 187.029 113.694 191.49 113.694 196.993V228.688H86.6113Z" fill="#766C40"/>
<path d="M94.6226 180.932V187.299C94.6226 189.544 96.4426 191.364 98.6879 191.364C100.933 191.364 102.755 189.544 102.755 187.299V180.932H94.6226Z" fill="#FFA09A"/>
<path d="M98.688 165.205C94.8546 165.205 91.7173 168.342 91.7173 172.177V176.286C91.7173 180.121 95.9933 183.161 99.8266 183.161C103.66 183.161 105.659 180.121 105.659 176.286V172.177C105.659 168.342 102.521 165.205 98.688 165.205Z" fill="#FFBEBC"/>
<path d="M86.6115 227.307C86.6115 227.307 85.1555 261.081 82.9889 274.394C81.3742 284.315 72.9502 308.778 72.9502 308.778L81.7209 311.597C81.7209 311.597 97.1355 285.317 100.757 242.662C100.757 228.687 102.309 227.307 102.309 227.307H86.6115Z" fill="#E4E2D6"/>
<path d="M113.695 227.308C113.695 227.308 117.145 251.113 116.283 272.677C115.42 294.241 111.971 313.381 111.971 313.381L102.451 312.181C102.451 312.181 106.903 277.878 100.693 244.585L100.757 227.308H113.695Z" fill="#E4E2D6"/>
<path d="M83.0083 190.449C82.087 192.78 82.3083 195.959 83.2683 199.28L93.7097 196.623C89.2657 186.777 85.2417 184.8 83.0083 190.449Z" fill="#766C40"/>
<path d="M116.726 203.971C116.726 203.971 106.893 205.727 98.2864 209.241C96.749 204.135 93.9877 200.245 92.493 196.933L83.269 199.279C85.421 206.723 91.309 214.891 96.5304 215.863C104.082 217.269 117.998 205.969 117.998 205.969L116.726 203.971Z" fill="#FFBEBC"/>
<path d="M115.602 204.175C115.602 204.175 116.75 202.084 120.506 202.201C121.645 199.525 122.777 200.652 122.114 203.724C120.655 205.94 117.998 205.969 117.998 205.969L115.602 204.175Z" fill="#FFBEBC"/>
<path d="M102.849 174.491C102.849 174.751 102.638 174.963 102.378 174.963C102.12 174.963 101.908 174.751 101.908 174.491C101.908 174.232 102.12 174.02 102.378 174.02C102.638 174.02 102.849 174.232 102.849 174.491Z" fill="#E4E2D6"/>
<path d="M97.7462 174.491C97.7462 174.751 97.5355 174.963 97.2755 174.963C97.0168 174.963 96.8062 174.751 96.8062 174.491C96.8062 174.232 97.0168 174.02 97.2755 174.02C97.5355 174.02 97.7462 174.232 97.7462 174.491Z" fill="#E4E2D6"/>
<path d="M99.8274 174.491C99.8274 174.491 101.433 177.659 99.8274 177.659C98.2207 177.659 99.8274 174.491 99.8274 174.491Z" fill="#452500"/>
<path d="M101.401 178.589H98.2539C98.2539 178.589 98.7686 179.525 99.8272 179.525C100.945 179.525 101.401 178.589 101.401 178.589Z" fill="white"/>
<path d="M102.993 173.09C102.993 173.09 102.325 172.423 101.658 173.09" stroke="#452500" stroke-width="0.426667" stroke-miterlimit="10"/>
<path d="M97.9968 173.09C97.9968 173.09 97.3288 172.423 96.6621 173.09" stroke="#452500" stroke-width="0.426667" stroke-miterlimit="10"/>
<path d="M104.146 176.224C104.146 176.712 103.75 177.108 103.262 177.108C102.774 177.108 102.379 176.712 102.379 176.224C102.379 175.737 102.774 175.341 103.262 175.341C103.75 175.341 104.146 175.737 104.146 176.224Z" fill="#452500"/>
<path d="M97.2759 176.224C97.2759 176.712 96.8799 177.108 96.3919 177.108C95.9053 177.108 95.5093 176.712 95.5093 176.224C95.5093 175.737 95.9053 175.341 96.3919 175.341C96.8799 175.341 97.2759 175.737 97.2759 176.224Z" fill="#452500"/>
<path d="M98.7466 163.861C98.7466 163.861 88.3359 163.861 88.3359 172.734C88.3359 181.244 83.7466 182.34 83.7466 187.029C83.7466 191.718 97.2759 193.309 97.2759 187.536C97.2759 181.761 93.1986 180.732 93.1986 173.542C93.1986 173.47 93.1986 173.4 93.1999 173.329C93.2599 169.465 96.8532 167.877 99.9959 170.198C101.056 170.982 103.101 171.845 105.003 171.845C110.276 171.845 107.091 163.861 98.7466 163.861Z" fill="black"/>
<path d="M95.5093 176.076C95.5093 177.152 94.6373 178.024 93.5613 178.024C92.4853 178.024 91.6133 177.152 91.6133 176.076C91.6133 175 92.4853 174.128 93.5613 174.128C94.6373 174.128 95.5093 175 95.5093 176.076Z" fill="#FFBEBC"/>
<path d="M93.5612 175.007C94.1505 175.007 94.6292 175.485 94.6292 176.076C94.6292 176.175 94.5985 176.263 94.5732 176.355C94.5052 176.32 94.4452 176.268 94.3638 176.268C94.0852 176.268 93.8585 176.495 93.8585 176.773C93.8585 176.885 93.9145 176.977 93.9772 177.06C93.8478 177.113 93.7078 177.144 93.5612 177.144C92.9705 177.144 92.4932 176.665 92.4932 176.076C92.4932 175.485 92.9705 175.007 93.5612 175.007Z" fill="#FFA09A"/>
<path d="M102.451 312.181H111.808C111.808 312.181 113.951 312.08 113.951 314.581H102.31L102.451 312.181Z" fill="black"/>
<path d="M72.9504 308.778L81.8584 311.64C81.8584 311.64 83.9291 312.199 83.1637 314.582C79.1451 313.29 72.0811 311.019 72.0811 311.019L72.9504 308.778Z" fill="black"/>
<path d="M337.181 197.748C337.181 197.748 285.093 200.905 251.908 210.45V218.405H353.096C353.096 218.405 355.814 218.536 358.772 216.005C362.394 212.909 362.142 200.005 362.142 200.005" fill="#E4E2D6"/>
<path d="M358.772 216.005L335.171 201.009L342.931 165.368C345.371 154.855 354.831 154.703 352.643 155.06C367.223 152.681 371.875 185.012 358.772 216.005Z" fill="black"/>
<path d="M337.85 204.469C337.85 204.469 312.65 170.648 299.883 170.648C287.118 170.648 280.68 216.098 280.68 216.098H289.3L302.039 187.558C302.039 187.558 318.452 218.396 331.052 218.396C343.652 218.396 337.85 204.469 337.85 204.469Z" fill="#E4E2D6"/>
<path d="M325.563 179.887C325.563 179.887 324.274 177.538 320.054 177.668C318.774 174.663 317.502 175.93 318.246 179.38C319.886 181.87 322.871 181.904 322.871 181.904L325.563 179.887Z" fill="#FFBEBC"/>
<path d="M322.346 181.922C322.346 181.922 336.001 194.922 344.486 193.343C352.972 191.765 363.036 171.638 359.68 163.154C356.325 154.669 346.657 159.602 342.513 184.267C332.845 180.321 321.794 178.346 321.794 178.346L322.346 181.922Z" fill="#FFBEBC"/>
<path d="M253.107 218.396V208.897C253.107 208.897 253.208 206.756 250.708 206.756V218.396H253.107Z" fill="#E4E2D6"/>
<path d="M288.997 216.005H279.499C279.499 216.005 277.357 215.905 277.357 218.405H288.997V216.005Z" fill="#E4E2D6"/>
<path d="M357.109 148.22L357.107 153.248C357.207 156.276 354.835 158.811 351.808 158.912C350.347 158.96 349.121 157.814 349.073 156.352L348.903 148.767L357.109 148.22Z" fill="#FFA09A"/>
<path d="M351.687 152.339C347.854 152.339 344.716 149.202 344.716 145.368V141.258C344.716 137.424 347.854 134.288 351.687 134.288C355.52 134.288 358.658 137.424 358.658 141.258V145.368C358.658 149.202 355.52 152.339 351.687 152.339Z" fill="#FFBEBC"/>
<path d="M355.116 144.537C355.116 144.537 354.413 142.97 354.413 140.214C354.413 137.821 350.226 137.383 346.941 138.341C345.365 138.799 343.59 138.003 343.18 136.413C342.432 133.522 344.634 129.333 352.94 130.702C364.804 132.661 360.85 150.479 357.252 150.479C355.333 150.479 356.452 144.969 356.452 144.969L355.116 144.537Z" fill="#452500"/>
<path d="M346.66 142.448C346.66 142.707 346.87 142.919 347.13 142.919C347.389 142.919 347.601 142.707 347.601 142.448C347.601 142.188 347.389 141.976 347.13 141.976C346.87 141.976 346.66 142.188 346.66 142.448Z" fill="#E4E2D6"/>
<path d="M351.762 142.448C351.762 142.707 351.973 142.919 352.233 142.919C352.492 142.919 352.704 142.707 352.704 142.448C352.704 142.188 352.492 141.976 352.233 141.976C351.973 141.976 351.762 142.188 351.762 142.448Z" fill="#E4E2D6"/>
<path d="M349.681 142.448C349.681 142.448 348.075 145.616 349.681 145.616C351.287 145.616 349.681 142.448 349.681 142.448Z" fill="#452500"/>
<path d="M348.108 146.544H351.255C351.255 146.544 350.74 147.48 349.681 147.48C348.564 147.48 348.108 146.544 348.108 146.544Z" fill="white"/>
<path d="M346.516 141.046C346.516 141.046 347.185 140.381 347.85 141.046" stroke="#452500" stroke-width="0.426667" stroke-miterlimit="10"/>
<path d="M351.512 141.046C351.512 141.046 352.18 140.381 352.846 141.046" stroke="#452500" stroke-width="0.426667" stroke-miterlimit="10"/>
<path d="M345.362 144.181C345.362 144.669 345.758 145.064 346.246 145.064C346.734 145.064 347.129 144.669 347.129 144.181C347.129 143.693 346.734 143.297 346.246 143.297C345.758 143.297 345.362 143.693 345.362 144.181Z" fill="#452500"/>
<path d="M352.232 144.181C352.232 144.669 352.628 145.064 353.116 145.064C353.604 145.064 353.999 144.669 353.999 144.181C353.999 143.693 353.604 143.297 353.116 143.297C352.628 143.297 352.232 143.693 352.232 144.181Z" fill="#452500"/>
<path d="M354.457 144.031C354.457 145.109 355.329 145.979 356.405 145.979C357.481 145.979 358.353 145.109 358.353 144.031C358.353 142.955 357.481 142.083 356.405 142.083C355.329 142.083 354.457 142.955 354.457 144.031Z" fill="#FFBEBC"/>
<path d="M356.405 142.964C355.816 142.964 355.337 143.441 355.337 144.032C355.337 144.13 355.368 144.22 355.393 144.312C355.461 144.276 355.521 144.224 355.602 144.224C355.881 144.224 356.108 144.45 356.108 144.73C356.108 144.842 356.05 144.933 355.989 145.016C356.117 145.07 356.258 145.101 356.405 145.101C356.994 145.101 357.473 144.621 357.473 144.032C357.473 143.441 356.994 142.964 356.405 142.964Z" fill="#FFA09A"/>
</svg>
