<svg width="95" height="81" viewBox="0 0 95 81" fill="none" xmlns="http://www.w3.org/2000/svg">
<path d="M61.5264 70.2646H11.6894C9.70651 70.2646 8.0993 68.6574 8.0993 66.6745V3.72574L4.52118 0.146759H57.695C59.8114 0.146759 61.5264 1.86179 61.5264 3.9782V70.2646Z" fill="white"/>
<path d="M8.1638 7.03955L8.09961 3.72587C8.09961 1.74896 6.49754 0.146889 4.52063 0.146889C2.54457 0.146889 0.942505 1.74896 0.942505 3.72587L1.00583 7.03955H8.1638Z" fill="#6C9BAA"/>
<path d="M15.2573 59.1817V66.6863C15.2573 68.6598 13.6578 70.2601 11.6843 70.2635C11.686 70.2635 11.6877 70.2644 11.6894 70.2644H65.1054C67.0814 70.2644 68.6835 68.6615 68.6835 66.6863V59.1817H15.2573Z" fill="#6C9BAA"/>
<path d="M12.7325 16.1022C12.7325 15.7779 12.9952 15.516 13.3187 15.516H56.0508C56.3743 15.516 56.6362 15.7779 56.6362 16.1022C56.6362 16.4257 56.3743 16.6885 56.0508 16.6885H13.3187C12.9952 16.6885 12.7325 16.4257 12.7325 16.1022Z" fill="#B4D7DC"/>
<path d="M12.7325 25.3491C12.7325 25.0256 12.9952 24.7628 13.3187 24.7628H56.0508C56.3743 24.7628 56.6362 25.0256 56.6362 25.3491C56.6362 25.6726 56.3743 25.9353 56.0508 25.9353H13.3187C12.9952 25.9353 12.7325 25.6726 12.7325 25.3491Z" fill="#B4D7DC"/>
<path d="M12.7325 34.5957C12.7325 34.2722 12.9952 34.0094 13.3187 34.0094H56.0508C56.3743 34.0094 56.6362 34.2722 56.6362 34.5957C56.6362 34.9192 56.3743 35.1819 56.0508 35.1819H13.3187C12.9952 35.1819 12.7325 34.9192 12.7325 34.5957Z" fill="#B4D7DC"/>
<path d="M12.7325 43.8425C12.7325 43.519 12.9952 43.2563 13.3187 43.2563H56.0508C56.3743 43.2563 56.6362 43.519 56.6362 43.8425C56.6362 44.1668 56.3743 44.4287 56.0508 44.4287H13.3187C12.9952 44.4287 12.7325 44.1668 12.7325 43.8425Z" fill="#B4D7DC"/>
<path d="M56.0506 53.6758H37.2289C36.9054 53.6758 36.6435 53.413 36.6435 53.0896C36.6435 52.7661 36.9054 52.5042 37.2289 52.5042H56.0506C56.3741 52.5042 56.6368 52.7661 56.6368 53.0896C56.6368 53.413 56.3741 53.6758 56.0506 53.6758Z" fill="#B4D7DC"/>
<path d="M45.3907 11.179H26.569C26.2455 11.179 25.9836 10.9162 25.9836 10.5927C25.9836 10.2701 26.2455 10.0074 26.569 10.0074H45.3907C45.7142 10.0074 45.9769 10.2701 45.9769 10.5927C45.9769 10.9162 45.7142 11.179 45.3907 11.179Z" fill="#B4D7DC"/>
<path d="M51.6935 39.8049H13.3414C13.0179 39.8049 12.7552 39.5422 12.7552 39.2187C12.7552 38.8961 13.0179 38.6333 13.3414 38.6333H51.6935C52.017 38.6333 52.2797 38.8961 52.2797 39.2187C52.2797 39.5422 52.017 39.8049 51.6935 39.8049Z" fill="#B4D7DC"/>
<path d="M41.3883 30.5583H13.3409C13.0174 30.5583 12.7547 30.2956 12.7547 29.9721V29.9507C12.7547 29.6272 13.0174 29.3645 13.3409 29.3645H41.3883C41.7118 29.3645 41.9745 29.6272 41.9745 29.9507V29.9721C41.9745 30.2956 41.7118 30.5583 41.3883 30.5583Z" fill="#B4D7DC"/>
<path d="M48.7885 21.3115H13.341C13.0175 21.3115 12.7556 21.0488 12.7556 20.7253C12.7556 20.4027 13.0175 20.1399 13.341 20.1399H48.7885C49.112 20.1399 49.3747 20.4027 49.3747 20.7253C49.3747 21.0488 49.112 21.3115 48.7885 21.3115Z" fill="#B4D7DC"/>
<path d="M44.7877 80.1575L40.8921 76.3645L37.1659 80.1575V66.0504H44.7877V80.1575Z" fill="#C8462D"/>
<path d="M44.7877 65.5562H37.1659V67.9893C37.9079 69.3389 39.3268 70.2649 40.9768 70.2649C42.6268 70.2649 44.0449 69.3389 44.7877 67.9893V65.5562Z" fill="#872D1E"/>
<path d="M45.3429 63.9089C45.3429 66.3198 43.3883 68.2761 40.9766 68.2761C38.565 68.2761 36.6094 66.3198 36.6094 63.9089C36.6094 61.4973 38.565 59.5418 40.9766 59.5418C43.3883 59.5418 45.3429 61.4973 45.3429 63.9089Z" fill="#FAD72A"/>
<path d="M45.0438 63.9088C45.0438 66.1553 43.2226 67.9756 40.977 67.9756C38.7305 67.9756 36.9094 66.1553 36.9094 63.9088C36.9094 61.6623 38.7305 59.8412 40.977 59.8412C43.2226 59.8412 45.0438 61.6623 45.0438 63.9088Z" fill="#EA9D00"/>
<path d="M44.5937 63.9089C44.5937 65.9063 42.9746 67.5264 40.9763 67.5264C38.9788 67.5264 37.3596 65.9063 37.3596 63.9089C37.3596 61.9114 38.9788 60.2914 40.9763 60.2914C42.9746 60.2914 44.5937 61.9114 44.5937 63.9089Z" fill="#FAD72A"/>
<path d="M40.4426 63.0354C40.0575 63.4838 39.1152 62.3927 38.7943 62.907C38.4734 63.4205 37.7673 63.4975 38.4092 63.9092C39.0511 64.3191 39.8392 64.4843 40.1841 64.7231C40.5282 64.9618 40.1841 65.5558 40.1841 65.5558C40.1841 65.5558 39.6287 66.1813 40.464 66.2455C41.2984 66.3097 41.5551 66.9524 41.6844 66.2455C41.8127 65.5395 41.2342 64.9986 41.6844 64.7231C42.1337 64.4475 43.0323 64.9618 43.289 64.4475C43.5457 63.934 43.4816 64.2549 43.289 63.5489C43.0964 62.842 42.1551 62.9712 41.5774 62.907C40.9989 62.842 41.8769 61.4941 41.8127 61.1723C41.7477 60.8514 40.3228 60.9301 40.1841 61.1158C39.8196 61.6002 40.8277 62.5861 40.4426 63.0354Z" fill="#FAD72A"/>
<path d="M0.941895 59.5422H5.52388V20.3968H0.941895V59.5422Z" fill="#50555A"/>
<path d="M0.9422 60.0561L2.78389 66.2085H3.68335L5.52418 60.0561H0.9422Z" fill="#FAD72A"/>
<path d="M5.52418 19.3694V18.9791C5.52418 17.7134 4.49807 16.6881 3.23319 16.6881C1.96746 16.6881 0.9422 17.7134 0.9422 18.9791V19.3694H5.52418Z" fill="#50555A"/>
<path d="M5.52388 48.8567H0.941895V47.4506H5.52388V48.8567Z" fill="#373C41"/>
<path d="M5.52388 60.0557H0.941895V59.353H5.52388V60.0557Z" fill="#EA9D00"/>
<path d="M5.52388 48.344H0.941895V46.9379H5.52388V48.344Z" fill="#FAD72A"/>
<path d="M5.52388 20.1399H0.941895V18.7338H5.52388V20.1399Z" fill="#FAD72A"/>
<path d="M1.5155 32.4847V19.9994C1.5155 19.6887 1.76711 19.4371 2.07777 19.4371C2.38842 19.4371 2.64003 19.6887 2.64003 19.9994V32.4847C2.64003 32.7945 2.38842 33.0461 2.07777 33.0461C1.76711 33.0461 1.5155 32.7945 1.5155 32.4847Z" fill="#FAD72A"/>
<path d="M44.8111 72.5506C44.8111 73.0772 55.8351 73.5042 69.4346 73.5042C83.0341 73.5042 94.0581 73.0772 94.0581 72.5506C94.0581 72.024 83.0341 71.5971 69.4346 71.5971C55.8351 71.5971 44.8111 72.024 44.8111 72.5506Z" fill="#3C5A73"/>
<path d="M53.0524 68.7639H85.8165V67.3366C85.8165 66.2359 84.9251 65.344 83.8245 65.344H55.0445C53.9444 65.344 53.0524 66.2359 53.0524 67.3366V68.7639Z" fill="#B48255"/>
<path d="M53.0524 68.7639H85.8165V67.3366H53.0524V68.7639Z" fill="#965028"/>
<path d="M50.7256 72.1836H88.1435V70.5891C88.1435 69.5811 87.326 68.7636 86.318 68.7636H52.5511C51.5431 68.7636 50.7256 69.5811 50.7256 70.5891V72.1836Z" fill="#B48255"/>
<path d="M50.7255 72.1838H88.1433V70.5894H50.7255V72.1838Z" fill="#965028"/>
<path d="M85.8165 24.2108H53.0524V25.6381C53.0524 26.7382 53.9438 27.6301 55.0445 27.6301H83.8245C84.9246 27.6301 85.8165 26.7382 85.8165 25.6381V24.2108Z" fill="#B48255"/>
<path d="M88.1432 20.7912H50.7253V22.3857C50.7253 23.3937 51.5428 24.2112 52.5514 24.2112H86.3182C87.3257 24.2112 88.1432 23.3937 88.1432 22.3857V20.7912Z" fill="#B48255"/>
<path d="M50.7256 22.3854V22.118H88.1435V22.3854C88.1435 23.3935 87.326 24.2109 86.318 24.2109H52.5511C51.5431 24.2109 50.7256 23.3935 50.7256 22.3854Z" fill="#965028"/>
<path d="M69.4347 46.4485C73.8651 46.4485 77.4568 42.8567 77.4568 38.4269V27.6305H61.4126V38.4269C61.4126 42.8567 65.0038 46.4485 69.4347 46.4485Z" fill="#6AB7FB"/>
<path d="M76.6835 28.5368V38.293C76.6835 42.2964 73.4383 45.5422 69.4348 45.5422C65.4314 45.5422 62.185 42.2964 62.185 38.293V28.5368H76.6835Z" fill="#B9E1F9"/>
<path d="M76.6835 37.6735V38.2933C76.6835 42.2968 73.4383 45.542 69.4348 45.542C65.4314 45.542 62.185 42.2968 62.185 38.2933V37.6735H76.6835Z" fill="#FAD72A"/>
<path d="M69.4347 46.4485C73.8651 46.4485 77.4568 50.0403 77.4568 54.4706V65.3445H61.4126V54.4706C61.4126 50.0403 65.0038 46.4485 69.4347 46.4485Z" fill="#6AB7FB"/>
<path d="M69.4346 47.3588C73.4381 47.3588 76.6833 50.604 76.6833 54.6075V64.4346H62.1854V54.6075C62.1854 50.604 65.4312 47.3588 69.4346 47.3588Z" fill="#B9E1F9"/>
<path d="M69.4346 55.0273C73.4381 55.0273 76.6833 56.8153 76.6833 59.0208V64.4346H62.1854V59.0208C62.1854 56.8153 65.4312 55.0273 69.4346 55.0273Z" fill="#FAD72A"/>
<path d="M81.2782 65.344H83.5664V27.5526H81.2782V65.344Z" fill="#B48255"/>
<path d="M68.9571 55.3215H69.9124V44.1457H68.9571V55.3215Z" fill="#FAD72A"/>
<path d="M74.4398 39.373C74.7729 39.373 75.0432 39.1033 75.0432 38.7702V30.1148C75.0432 29.7817 74.7729 29.5119 74.4398 29.5119C74.1073 29.5119 73.837 29.7817 73.837 30.1148V38.7702C73.837 39.1033 74.1073 39.373 74.4398 39.373Z" fill="#EEF9FF"/>
<path d="M74.4398 63.0598C74.7729 63.0598 75.0432 62.7901 75.0432 62.457V56.7359C75.0432 56.4029 74.7729 56.1331 74.4398 56.1331C74.1073 56.1331 73.837 56.4029 73.837 56.7359V62.457C73.837 62.7901 74.1073 63.0598 74.4398 63.0598Z" fill="#EEF9FF"/>
<path d="M74.4398 54.4761C74.7729 54.4761 75.0432 54.2063 75.0432 53.8727V53.2405C75.0432 52.9074 74.7729 52.6377 74.4398 52.6377C74.1073 52.6377 73.837 52.9074 73.837 53.2405V53.8727C73.837 54.2063 74.1073 54.4761 74.4398 54.4761Z" fill="#EEF9FF"/>
<path d="M80.0783 60.1227C80.0783 61.4175 81.1274 62.4666 82.4222 62.4666C83.717 62.4666 84.7661 61.4175 84.7661 60.1227C84.7661 58.8279 83.717 57.7782 82.4222 57.7782C81.1274 57.7782 80.0783 58.8279 80.0783 60.1227Z" fill="#B48255"/>
<path d="M83.5664 35.516C83.2269 35.7077 82.8404 35.8262 82.4223 35.8262C82.0042 35.8262 81.6178 35.7077 81.2782 35.516V31.448C81.6178 31.2563 82.0042 31.1384 82.4223 31.1384C82.8404 31.1384 83.2269 31.2563 83.5664 31.448V35.516Z" fill="#965028"/>
<path d="M83.5664 28.8813H81.2782V25.9205H83.5664V28.8813Z" fill="#965028"/>
<path d="M80.0783 32.2341C80.0783 33.5289 81.1274 34.5786 82.4222 34.5786C83.717 34.5786 84.7661 33.5289 84.7661 32.2341C84.7661 30.9399 83.717 29.8902 82.4222 29.8902C81.1274 29.8902 80.0783 30.9399 80.0783 32.2341Z" fill="#B48255"/>
<path d="M80.0783 46.1786C80.0783 47.4734 81.1274 48.5225 82.4222 48.5225C83.717 48.5225 84.7661 47.4734 84.7661 46.1786C84.7661 44.8838 83.717 43.8341 82.4222 43.8341C81.1274 43.8341 80.0783 44.8838 80.0783 46.1786Z" fill="#B48255"/>
<path d="M55.3025 65.344H57.5913V27.5526H55.3025V65.344Z" fill="#B48255"/>
<path d="M54.1026 60.1227C54.1026 61.4175 55.1523 62.4666 56.4465 62.4666C57.7413 62.4666 58.7904 61.4175 58.7904 60.1227C58.7904 58.8279 57.7413 57.7782 56.4465 57.7782C55.1523 57.7782 54.1026 58.8279 54.1026 60.1227Z" fill="#B48255"/>
<path d="M57.5913 35.516C57.2512 35.7077 56.8647 35.8262 56.4466 35.8262C56.0291 35.8262 55.6421 35.7077 55.3025 35.516V31.448C55.6421 31.2563 56.0291 31.1384 56.4466 31.1384C56.8647 31.1384 57.2512 31.2563 57.5913 31.448V35.516Z" fill="#965028"/>
<path d="M57.5913 28.8813H55.3025V25.9205H57.5913V28.8813Z" fill="#965028"/>
<path d="M54.1026 32.2341C54.1026 33.5289 55.1523 34.5786 56.4465 34.5786C57.7413 34.5786 58.7904 33.5289 58.7904 32.2341C58.7904 30.9399 57.7413 29.8902 56.4465 29.8902C55.1523 29.8902 54.1026 30.9399 54.1026 32.2341Z" fill="#B48255"/>
<path d="M54.1026 46.1786C54.1026 47.4734 55.1523 48.5225 56.4465 48.5225C57.7413 48.5225 58.7904 47.4734 58.7904 46.1786C58.7904 44.8838 57.7413 43.8341 56.4465 43.8341C55.1523 43.8341 54.1026 44.8838 54.1026 46.1786Z" fill="#B48255"/>
</svg>
