<svg width="26" height="27" viewBox="0 0 26 27" fill="none" xmlns="http://www.w3.org/2000/svg">
<g clip-path="url(#clip0_618_4314)">
<path d="M2.94114 18.7945H20.2222V0.675537H2.89345C2.12682 0.677976 1.39229 0.98035 0.850194 1.51666C0.308101 2.05296 0.00246487 2.77965 0 3.5381V20.2219C0 20.229 0 20.236 0 20.2433C0 21.9136 1.32503 23.3244 2.89345 23.3244H20.2222V21.8144H2.89345C2.1779 21.8144 1.52621 21.0655 1.52621 20.2431C1.52621 19.458 2.17413 18.7945 2.94114 18.7945ZM15.2621 2.20117V10.3555L12.9537 8.35058L10.6834 10.3437V2.20117H15.2621ZM9.15723 2.18545V12.3774H10.6663L12.9592 10.3645L15.2766 12.3774H16.7883V2.18545H18.696V17.2846H4.58243L4.57862 2.18545H9.15723ZM2.89345 2.18545H3.05241L3.05604 17.2846H2.94095C2.44469 17.2847 1.95705 17.4129 1.52621 17.6566V3.5499C1.52504 3.18971 1.66833 2.84378 1.92465 2.58798C2.18097 2.33219 2.52938 2.18743 2.89345 2.18545Z" fill="#E4E2D6"/>
<ellipse cx="17" cy="15.5" rx="9" ry="11.5" fill="#766C40"/>
<path d="M16.9867 22.4779C20.5606 22.4779 23.4578 19.6196 23.4578 16.0937C23.4578 12.5678 20.5606 9.70947 16.9867 9.70947C13.4128 9.70947 10.5156 12.5678 10.5156 16.0937C10.5156 19.6196 13.4128 22.4779 16.9867 22.4779Z" stroke="#E4E2D6" stroke-width="2"/>
<path d="M18.6045 6.51733H15.3689M16.9867 6.51733V9.70945M21.4356 11.3055L22.6489 10.1085M16.9867 13.6996V16.0937H14.5601" stroke="#E4E2D6" stroke-width="2" stroke-linecap="round" stroke-linejoin="round"/>
</g>
<defs>
<clipPath id="clip0_618_4314">
<rect width="26" height="27" fill="white"/>
</clipPath>
</defs>
</svg>
