<svg width="21" height="28" viewBox="0 0 21 28" fill="none" xmlns="http://www.w3.org/2000/svg">
<path d="M10.3125 17.5C13.2469 17.5 15.625 15.15 15.625 12.25V5.25C15.625 2.35 13.2469 0 10.3125 0C7.37813 0 5 2.35 5 5.25V12.25C5 15.15 7.37813 17.5 10.3125 17.5ZM20.625 12.1875C20.625 12.05 20.5125 11.9375 20.375 11.9375H18.5C18.3625 11.9375 18.25 12.05 18.25 12.1875C18.25 16.5719 14.6969 20.125 10.3125 20.125C5.92812 20.125 2.375 16.5719 2.375 12.1875C2.375 12.05 2.2625 11.9375 2.125 11.9375H0.25C0.1125 11.9375 0 12.05 0 12.1875C0 17.4594 3.95625 21.8094 9.0625 22.425V25.625H4.52188C4.09375 25.625 3.75 26.0719 3.75 26.625V27.75C3.75 27.8875 3.8375 28 3.94375 28H16.6812C16.7875 28 16.875 27.8875 16.875 27.75V26.625C16.875 26.0719 16.5312 25.625 16.1031 25.625H11.4375V22.4406C16.6031 21.8781 20.625 17.5031 20.625 12.1875Z" fill="black"/>
</svg>
