<svg width="21" height="28" viewBox="0 0 21 28" fill="none" xmlns="http://www.w3.org/2000/svg">
<path d="M10.0625 22.425V21.5383L9.1822 21.4322C4.81706 20.9059 1.38188 17.3549 1.02977 12.9375H1.40601C1.78686 17.5231 5.62843 21.125 10.3125 21.125C14.9966 21.125 18.8381 17.5231 19.219 12.9375H19.5952C19.2401 17.3931 15.748 20.9653 11.3292 21.4465L10.4375 21.5436V22.4406V25.625V26.625H11.4375H15.875V27H4.75V26.625H9.0625H10.0625V25.625V22.425ZM14.625 12.25C14.625 14.5866 12.7058 16.5 10.3125 16.5C7.9192 16.5 6 14.5866 6 12.25V5.25C6 2.91343 7.9192 1 10.3125 1C12.7058 1 14.625 2.91343 14.625 5.25V12.25Z" stroke="black" stroke-width="2"/>
</svg>
