<svg width="26" height="26" viewBox="0 0 26 26" fill="none" xmlns="http://www.w3.org/2000/svg">
<path d="M26 6.5V17.875C26 18.3236 25.9154 18.7425 25.7461 19.1318C25.5768 19.5212 25.3441 19.8639 25.0479 20.1602C24.7516 20.4564 24.4046 20.6891 24.0068 20.8584C23.609 21.0277 23.1901 21.1165 22.75 21.125H3.16113C2.72949 21.125 2.32324 21.0404 1.94238 20.8711C1.56152 20.7018 1.22721 20.4775 0.939453 20.1982C0.651693 19.9189 0.423177 19.5846 0.253906 19.1953C0.0846354 18.806 0 18.3955 0 17.9639V3.25H22.75V6.5H26ZM24.375 8.125H22.75V17.0625C22.75 17.2826 22.6696 17.473 22.5088 17.6338C22.348 17.7946 22.1576 17.875 21.9375 17.875C21.7174 17.875 21.527 17.7946 21.3662 17.6338C21.2054 17.473 21.125 17.2826 21.125 17.0625V4.875H1.625V17.9639C1.625 18.1755 1.66309 18.3743 1.73926 18.5605C1.81543 18.7467 1.92546 18.9076 2.06934 19.043C2.21322 19.1784 2.37826 19.2884 2.56445 19.373C2.75065 19.4577 2.94954 19.5 3.16113 19.5H22.75C22.9785 19.5 23.1901 19.4577 23.3848 19.373C23.5794 19.2884 23.7487 19.1742 23.8926 19.0303C24.0365 18.8864 24.1549 18.7129 24.248 18.5098C24.3411 18.3066 24.3835 18.0951 24.375 17.875V8.125ZM19.5 8.125H3.25V6.5H19.5V8.125ZM19.5 17.875H13V16.25H19.5V17.875ZM19.5 14.625H13V13H19.5V14.625ZM19.5 11.375H13V9.75H19.5V11.375ZM11.375 17.875H3.25V9.71191H11.375V17.875ZM4.875 16.25H9.75V11.3369H4.875V16.25Z" fill="#E4E2D6"/>
</svg>
