<svg width="32" height="21" viewBox="0 0 32 21" fill="none" xmlns="http://www.w3.org/2000/svg">
<path d="M14.1349 8.37401L5.9706 2.92942C5.58564 2.67258 5.13813 2.52517 4.67589 2.50295C4.21365 2.48072 3.75406 2.58452 3.34624 2.80325C2.93842 3.02198 2.5977 3.34741 2.3605 3.74477C2.1233 4.14213 1.99852 4.59647 1.99952 5.05924V15.9459C1.99945 16.4082 2.12489 16.8619 2.36247 17.2585C2.60005 17.6551 2.94084 17.9798 3.3485 18.198C3.75615 18.4161 4.21537 18.5194 4.67716 18.497C5.13896 18.4746 5.586 18.3272 5.9706 18.0706L14.1349 12.626C14.4847 12.3928 14.7715 12.0768 14.9698 11.7062C15.1681 11.3355 15.2719 10.9217 15.2719 10.5013C15.2719 10.0809 15.1681 9.66702 14.9698 9.29637C14.7715 8.92573 14.4847 8.60722 14.1349 8.37401Z" stroke="black" stroke-width="4" stroke-linecap="round" stroke-linejoin="round"/>
<path d="M28.1349 8.37401L19.9706 2.92942C19.5856 2.67258 19.1381 2.52517 18.6759 2.50295C18.2136 2.48072 17.7541 2.58452 17.3462 2.80325C16.9384 3.02198 16.5977 3.34741 16.3605 3.74477C16.1233 4.14213 15.9985 4.59647 15.9995 5.05924V15.9459C15.9994 16.4082 16.1249 16.8619 16.3625 17.2585C16.6 17.6551 16.9408 17.9798 17.3485 18.198C17.7561 18.4161 18.2154 18.5194 18.6772 18.497C19.139 18.4746 19.586 18.3272 19.9706 18.0706L28.1349 12.626C28.4847 12.3928 28.7715 12.0768 28.9698 11.7062C29.1681 11.3355 29.2719 10.9217 29.2719 10.5013C29.2719 10.0809 29.1681 9.66702 28.9698 9.29637C28.7715 8.92573 28.4847 8.60722 28.1349 8.37401Z" stroke="black" stroke-width="4" stroke-linecap="round" stroke-linejoin="round"/>
</svg>
