<svg width="62" height="33" viewBox="0 0 62 33" fill="none" xmlns="http://www.w3.org/2000/svg">
<path d="M16.0477 2.26205C8.11173 2.26205 1.65706 8.71805 1.65706 16.6527C1.65706 24.5901 8.11173 31.0447 16.0477 31.0447H45.9557C53.8904 31.0447 60.3464 24.5901 60.3464 16.6527C60.3464 8.71805 53.8904 2.26205 45.9557 2.26205H16.0477ZM45.9557 32.3781H16.0477C7.37706 32.3781 0.32373 25.3234 0.32373 16.6527C0.32373 7.98339 7.37706 0.928719 16.0477 0.928719H45.9557C54.6264 0.928719 61.6797 7.98339 61.6797 16.6527C61.6797 25.3234 54.6264 32.3781 45.9557 32.3781Z" fill="#091414"/>
<path d="M16.0477 6.26205C10.3184 6.26205 5.65706 10.9234 5.65706 16.6527C5.65706 22.3834 10.3184 27.0447 16.0477 27.0447H45.9557C51.6851 27.0447 56.3464 22.3834 56.3464 16.6527C56.3464 10.9234 51.6851 6.26205 45.9557 6.26205H16.0477ZM45.9557 28.3781H16.0477C9.5824 28.3781 4.32373 23.1181 4.32373 16.6527C4.32373 10.1887 9.5824 4.92872 16.0477 4.92872H45.9557C52.4197 4.92872 57.6797 10.1887 57.6797 16.6527C57.6797 23.1181 52.4197 28.3781 45.9557 28.3781Z" fill="#091414"/>
<path d="M32.3823 16.9795V16.9092C32.3823 16.1748 31.7534 14.3389 30.4956 11.4014C30.2769 10.8936 30.1636 10.6396 30.1558 10.6396L29.8159 11.4248C28.519 14.4482 27.8706 16.2842 27.8706 16.9326C27.8706 17.042 27.937 17.1006 28.0698 17.1084C28.2104 17.1162 28.3159 17.1201 28.3862 17.1201L29.3003 17.1436H30.1323L30.2144 17.1318C31.6597 17.1318 32.3823 17.0811 32.3823 16.9795ZM22.6089 23.2256C22.6089 23.0303 22.8315 22.8037 23.2769 22.5459C23.7222 22.2881 24.0503 21.96 24.2612 21.5615C24.4722 21.1631 24.769 20.4443 25.1519 19.4053C25.5347 18.3584 26.0542 17.042 26.7104 15.4561C27.3745 13.8701 27.8979 12.4482 28.2808 11.1904C28.6714 9.9248 28.937 9.12402 29.0776 8.78809C29.3979 8.02246 29.8511 7.63965 30.437 7.63965H30.7651C30.9136 7.63965 31.0972 7.72168 31.3159 7.88574C31.7612 8.22168 32.2261 8.94043 32.7104 10.042C32.8745 10.417 33.1206 11.0615 33.4487 11.9756C33.7769 12.8818 34.4331 14.6592 35.4175 17.3076C36.4019 19.9561 36.9526 21.3975 37.0698 21.6318C37.2651 22.0381 37.5972 22.3662 38.0659 22.6162C38.5347 22.8584 38.769 23.0537 38.769 23.2021C38.769 23.5303 38.5737 23.7334 38.1831 23.8115C37.9175 23.8662 37.2456 23.8936 36.1675 23.8936L35.4878 23.9053C34.0425 23.9053 33.3198 23.71 33.3198 23.3193C33.3198 23.249 33.4097 23.0811 33.5894 22.8154C33.7769 22.5498 33.8706 22.2139 33.8706 21.8076C33.8706 21.4014 33.7222 20.8193 33.4253 20.0615C33.1362 19.3037 32.8901 18.835 32.687 18.6553C32.4917 18.4756 31.644 18.3857 30.144 18.3857C28.644 18.3857 27.769 18.4678 27.519 18.6318C27.269 18.7959 26.9995 19.2373 26.7104 19.9561C26.4214 20.6748 26.2769 21.2607 26.2769 21.7139C26.2769 22.1592 26.4136 22.5537 26.687 22.8975C26.9683 23.2412 27.1089 23.4209 27.1089 23.4365C27.1089 23.7178 26.6284 23.8584 25.6675 23.8584C24.7144 23.8584 23.9644 23.8232 23.4175 23.7529C22.8784 23.6748 22.6089 23.499 22.6089 23.2256Z" fill="#65090A"/>
</svg>
