<svg width="62" height="32" viewBox="0 0 62 32" fill="none" xmlns="http://www.w3.org/2000/svg">
<path d="M16.0477 1.64474C8.11173 1.64474 1.65706 8.10074 1.65706 16.0354C1.65706 23.9727 8.11173 30.4274 16.0477 30.4274H45.9557C53.8904 30.4274 60.3464 23.9727 60.3464 16.0354C60.3464 8.10074 53.8904 1.64474 45.9557 1.64474H16.0477ZM45.9557 31.7607H16.0477C7.37706 31.7607 0.32373 24.7061 0.32373 16.0354C0.32373 7.36608 7.37706 0.311409 16.0477 0.311409H45.9557C54.6264 0.311409 61.6797 7.36608 61.6797 16.0354C61.6797 24.7061 54.6264 31.7607 45.9557 31.7607Z" fill="#091414"/>
<path d="M16.0477 5.64474C10.3184 5.64474 5.65706 10.3061 5.65706 16.0354C5.65706 21.7661 10.3184 26.4274 16.0477 26.4274H45.9557C51.6851 26.4274 56.3464 21.7661 56.3464 16.0354C56.3464 10.3061 51.6851 5.64474 45.9557 5.64474H16.0477ZM45.9557 27.7607H16.0477C9.5824 27.7607 4.32373 22.5007 4.32373 16.0354C4.32373 9.57141 9.5824 4.31141 16.0477 4.31141H45.9557C52.4197 4.31141 57.6797 9.57141 57.6797 16.0354C57.6797 22.5007 52.4197 27.7607 45.9557 27.7607Z" fill="#091414"/>
<path d="M29.3823 8.29968C29.0308 8.29968 28.8159 8.4325 28.7378 8.69812C28.6909 8.86218 28.6675 9.60046 28.6675 10.913V13.1864C28.6675 13.6708 28.7104 13.9716 28.7964 14.0887C28.8823 14.1981 29.1479 14.2528 29.5933 14.2528H30.0854L30.1909 14.2411L30.894 14.2059C30.9644 14.1981 31.0308 14.1942 31.0933 14.1942C31.8433 14.1942 32.4722 13.9169 32.98 13.3622C33.4878 12.8075 33.7417 12.1356 33.7417 11.3466V11.0302C33.7417 10.2255 33.4644 9.57312 32.9097 9.07312C32.3628 8.56531 31.6909 8.3114 30.894 8.3114L30.6831 8.28796L30.3784 8.27625H29.6753C29.5503 8.29187 29.4526 8.29968 29.3823 8.29968ZM30.7886 15.4598H29.7808C29.1792 15.4598 28.8394 15.5419 28.7612 15.7059C28.6909 15.87 28.6558 16.3661 28.6558 17.1942V20.5575C28.6558 21.2841 28.7417 21.7294 28.9136 21.8934C29.0933 22.0497 29.5854 22.1278 30.3901 22.1278H31.0815C32.1128 22.1278 32.9487 21.8583 33.5894 21.3192C34.23 20.7723 34.5503 20.0536 34.5503 19.163V18.5536C34.5503 17.5927 34.1987 16.8387 33.4956 16.2919C32.7925 15.7372 31.8901 15.4598 30.7886 15.4598ZM30.519 7.02234C33.3003 7.02234 35.0854 7.75281 35.8745 9.21375C36.1558 9.72937 36.2964 10.3231 36.2964 10.995C36.2964 11.6591 36.1362 12.245 35.8159 12.7528C35.5034 13.2606 35.2222 13.6161 34.9722 13.8192C34.73 14.0145 34.48 14.1903 34.2222 14.3466C33.9722 14.495 33.8472 14.5927 33.8472 14.6395C33.8472 14.6864 34.1597 14.87 34.7847 15.1903C35.4175 15.5028 35.9175 15.8739 36.2847 16.3036C36.9409 17.0848 37.269 17.8895 37.269 18.7177V19.0223C37.269 20.3973 36.7065 21.4911 35.5815 22.3036C35.1753 22.6005 34.605 22.8622 33.8706 23.0887C33.144 23.3075 32.2769 23.4169 31.269 23.4169H30.0269L29.7222 23.4052C29.519 23.3973 29.312 23.3934 29.1011 23.3934L28.7964 23.3817C28.5933 23.3739 28.3901 23.37 28.187 23.37L27.8823 23.3583C27.6792 23.3505 27.4761 23.3466 27.2729 23.3466H26.3706C25.0112 23.3466 24.3315 23.2177 24.3315 22.9598C24.3315 22.6942 24.5386 22.4481 24.9526 22.2216C25.3745 21.9872 25.6479 21.5927 25.7729 21.038C25.9058 20.4755 25.9722 19.1708 25.9722 17.1239V13.2684L25.9487 12.0497C25.9409 11.8466 25.937 11.3622 25.937 10.5966C25.937 9.83093 25.8628 9.29578 25.7144 8.99109C25.5737 8.67859 25.2886 8.42078 24.8589 8.21765C24.4292 8.01453 24.2144 7.83484 24.2144 7.67859C24.2144 7.45203 24.3237 7.29968 24.5425 7.22156C24.7612 7.13562 25.4331 7.09265 26.5581 7.09265L29.2769 7.02234H30.519Z" fill="#65090A"/>
</svg>
