<svg width="184" height="68" viewBox="0 0 184 68" fill="none" xmlns="http://www.w3.org/2000/svg">
<path d="M31.8594 34.5624V34.7186C31.8594 34.8436 32.3438 34.9061 33.3125 34.9061H35.1094C36.5365 34.9061 37.25 34.8228 37.25 34.6561C37.25 34.2082 36.8073 32.8332 35.9219 30.5311C35.0365 28.229 34.5781 27.078 34.5469 27.078C34.526 27.078 34.0729 28.2343 33.1875 30.5468C32.3021 32.8488 31.8594 34.1874 31.8594 34.5624ZM34.9375 22.2811H35.3906C36.1615 22.2811 37.026 23.104 37.9844 24.7499C38.3177 25.3228 38.8177 26.5103 39.4844 28.3124C40.151 30.1145 40.724 31.6093 41.2031 32.7968C41.6823 33.9843 42.2031 35.4009 42.7656 37.0468C43.3385 38.6822 43.75 39.7707 44 40.3124C44.2604 40.8436 44.7188 41.354 45.375 41.8436C46.0312 42.3332 46.3594 42.7603 46.3594 43.1249C46.3594 43.479 46.1354 43.7134 45.6875 43.828C44.9583 44.0051 43.151 44.0936 40.2656 44.0936C38.9531 44.0936 38.2969 43.8124 38.2969 43.2499C38.2969 43.104 38.401 42.7499 38.6094 42.1874C38.8177 41.6145 38.9219 41.1926 38.9219 40.9218C38.9219 39.6405 38.6146 38.5624 38 37.6874C37.75 37.3332 36.9635 37.1561 35.6406 37.1561C33.2135 37.1561 31.8385 37.2343 31.5156 37.3905C31.2031 37.5468 30.8802 37.9426 30.5469 38.578C30.224 39.2134 30.0625 39.802 30.0625 40.3436C30.0625 40.8853 30.2083 41.4686 30.5 42.0936C30.8021 42.7186 30.9531 43.2082 30.9531 43.5624C30.9531 43.9999 30.4844 44.2186 29.5469 44.2186C27.3177 44.2186 25.8281 44.1145 25.0781 43.9061C24.599 43.7707 24.3594 43.4322 24.3594 42.8905C24.3594 42.8176 24.8333 42.3645 25.7812 41.5311C26.3021 41.0728 26.7188 40.4738 27.0312 39.7343C29.2812 34.3697 30.7083 30.4843 31.3125 28.078C31.9271 25.6613 32.4479 24.0936 32.875 23.3749C33.3021 22.6457 33.9896 22.2811 34.9375 22.2811ZM55.6719 30.3593C56.8802 29.5259 57.9115 29.1093 58.7656 29.1093C59.6198 29.1093 60.1979 29.2915 60.5 29.6561C60.8125 30.0207 60.9688 30.4582 60.9688 30.9686C60.9688 31.479 60.8281 31.9374 60.5469 32.3436C60.276 32.7395 59.9635 32.9374 59.6094 32.9374C59.2656 32.9374 58.7865 32.802 58.1719 32.5311C57.5573 32.2603 57.0833 32.1249 56.75 32.1249C56.4167 32.1249 56.0417 32.302 55.625 32.6561C55.2083 33.0103 54.9167 33.5155 54.75 34.1718C54.5938 34.828 54.5156 35.8593 54.5156 37.2655C54.5156 38.6613 54.6146 39.5676 54.8125 39.9843C55.0104 40.3905 55.4167 40.927 56.0312 41.5936C56.6458 42.2603 56.9531 42.8072 56.9531 43.2343C56.9531 43.7343 55.7448 43.9843 53.3281 43.9843H51.9844L51.6562 43.9686C51.4375 43.9582 51.2135 43.953 50.9844 43.953L50.6562 43.9374C50.4375 43.927 50.2083 43.9218 49.9688 43.9218C48.875 43.9218 48.3281 43.6874 48.3281 43.2186C48.3281 42.7499 48.599 42.2759 49.1406 41.7968C49.6927 41.3176 50.026 40.8853 50.1406 40.4999C50.2656 40.1145 50.3281 38.7915 50.3281 36.5311C50.3281 34.2707 50.2552 32.9165 50.1094 32.4686C49.974 32.0207 49.6354 31.6405 49.0938 31.328C48.5625 31.0051 48.2969 30.6718 48.2969 30.328C48.2969 29.8488 48.6562 29.5103 49.375 29.3124C50.4583 29.0207 51.4375 28.8749 52.3125 28.8749C53.1875 28.8749 53.776 28.9738 54.0781 29.1718C54.2031 29.2551 54.3438 29.5207 54.5 29.9686C54.6667 30.4165 54.8594 30.6405 55.0781 30.6405C55.1719 30.6405 55.3698 30.5468 55.6719 30.3593ZM64.6719 23.7343C64.6719 23.1301 64.9062 22.6197 65.375 22.203C65.8542 21.7863 66.3698 21.578 66.9219 21.578H67.4219C67.5781 21.6093 67.7083 21.6249 67.8125 21.6249C68.3125 21.6249 68.7552 21.8488 69.1406 22.2968C69.526 22.7447 69.7188 23.1718 69.7188 23.578V23.9843C69.6979 24.0884 69.6875 24.1665 69.6875 24.2186C69.6875 24.6561 69.4427 25.0832 68.9531 25.4999C68.4635 25.9165 67.9219 26.1249 67.3281 26.1249H66.8438C66.2604 26.1249 65.7552 25.9426 65.3281 25.578C64.9115 25.203 64.7031 24.7759 64.7031 24.2968L64.6719 24.1405V23.7343ZM67.6406 44.0624H66.1562C64.7708 44.0624 63.9375 44.0259 63.6562 43.953C63.3854 43.8697 63.25 43.6457 63.25 43.2811C63.25 42.9061 63.5104 42.4582 64.0312 41.9374C64.5521 41.4165 64.8802 40.8957 65.0156 40.3749C65.151 39.8436 65.2188 38.4738 65.2188 36.2655C65.2188 34.0468 65.1615 32.7395 65.0469 32.3436C64.9323 31.9478 64.5729 31.6093 63.9688 31.328C63.375 31.0363 63.0781 30.6926 63.0781 30.2968C63.0781 29.8905 63.3542 29.5936 63.9062 29.4061C65.1562 28.9895 66.5365 28.7811 68.0469 28.7811H68.2812C68.8854 28.7811 69.2344 29.0363 69.3281 29.5468C69.3802 29.8384 69.4062 31.5884 69.4062 34.7968C69.4062 37.9947 69.474 39.8697 69.6094 40.4218C69.7552 40.9634 70.1198 41.5415 70.7031 42.1561C71.2865 42.7707 71.5781 43.1561 71.5781 43.3124V43.4999C71.5781 43.8749 70.2656 44.0624 67.6406 44.0624ZM74.2188 31.0311C73.7604 30.7186 73.5312 30.4165 73.5312 30.1249C73.5312 29.8228 73.8073 29.5259 74.3594 29.2343C74.9115 28.9426 75.2552 28.7082 75.3906 28.5311C75.526 28.354 75.7396 27.8645 76.0312 27.0624C76.3333 26.2603 76.651 25.6457 76.9844 25.2186C77.3177 24.7811 77.7552 24.5624 78.2969 24.5624C78.8385 24.5624 79.2292 24.7811 79.4688 25.2186C79.5729 25.4165 79.7083 25.8853 79.875 26.6249C80.0521 27.3645 80.2604 27.8384 80.5 28.0468C80.7396 28.2551 81.1979 28.4895 81.875 28.7499C82.5521 28.9999 82.901 29.1301 82.9219 29.1405C83.276 29.4218 83.4531 29.7551 83.4531 30.1405C83.4531 30.4738 82.9583 30.7707 81.9688 31.0311C80.9896 31.2915 80.3594 31.6874 80.0781 32.2186C79.8073 32.7499 79.6719 34.078 79.6719 36.203C79.6719 38.328 79.8333 39.7082 80.1562 40.3436C80.4896 40.979 81.0312 41.2968 81.7812 41.2968L82.3438 41.2499C82.5938 41.229 82.8646 41.2186 83.1562 41.2186C83.7917 41.2186 84.1094 41.4582 84.1094 41.9374C84.1094 42.552 83.724 43.0415 82.9531 43.4061C81.849 43.927 80.6823 44.1874 79.4531 44.1874C78.8802 44.1874 78.3073 44.0311 77.7344 43.7186C77.1615 43.4061 76.724 43.0259 76.4219 42.578C75.8281 41.703 75.5312 40.453 75.5312 38.828L75.5156 38.4999C75.5052 38.2707 75.5 38.0155 75.5 37.7343V36.8124C75.5 35.0103 75.3542 33.4738 75.0625 32.203C74.9583 31.7343 74.6771 31.3436 74.2188 31.0311ZM98.9375 40.6718C99.3438 40.6718 99.5469 40.953 99.5469 41.5155C99.5469 42.0676 98.8906 42.6718 97.5781 43.328C96.2656 43.9843 94.9844 44.3124 93.7344 44.3124H93.375C92.3438 44.3124 91.3646 44.1093 90.4375 43.703C88.625 42.9113 87.375 41.5624 86.6875 39.6561C86.3542 38.7186 86.1875 37.7863 86.1875 36.8593V36.4843C86.1875 34.3801 86.8802 32.5572 88.2656 31.0155C88.9635 30.2447 89.8073 29.6561 90.7969 29.2499C91.7969 28.8332 92.8229 28.6249 93.875 28.6249C95.8542 28.6249 97.3802 28.9218 98.4531 29.5155C99.0885 29.8697 99.4062 30.4478 99.4062 31.2499C99.4062 32.6978 98.9479 33.4218 98.0312 33.4218C97.4688 33.4218 96.8021 33.0103 96.0312 32.1874C95.2708 31.3645 94.4635 30.953 93.6094 30.953C92.5781 30.953 91.7292 31.5936 91.0625 32.8749C90.6875 33.604 90.4948 34.7551 90.4844 36.328C90.4844 36.3488 90.4844 36.3697 90.4844 36.3905C90.4844 37.9009 90.875 39.1457 91.6562 40.1249C92.4479 41.1145 93.4531 41.6093 94.6719 41.6093C95.349 41.6093 96.1771 41.453 97.1562 41.1405C98.1458 40.828 98.7396 40.6718 98.9375 40.6718ZM101.828 22.328C101.828 21.953 102.099 21.6822 102.641 21.5155C104.109 21.0676 105.516 20.8436 106.859 20.8436C107.651 20.8436 108.089 21.1874 108.172 21.8749C108.193 22.0415 108.203 24.8332 108.203 30.2499C108.203 35.6665 108.292 38.8697 108.469 39.8593C108.656 40.8384 108.906 41.5051 109.219 41.8593C110.01 42.7551 110.406 43.2238 110.406 43.2655C110.406 43.7655 109.01 44.0155 106.219 44.0155H105.906L105.578 43.9999C103.911 43.9999 102.911 43.9582 102.578 43.8749C102.255 43.7915 102.094 43.5988 102.094 43.2968C102.094 42.9843 102.349 42.5155 102.859 41.8905C103.37 41.2551 103.693 40.5884 103.828 39.8905C103.964 39.1822 104.031 36.578 104.031 32.078C104.031 27.578 103.958 25.0832 103.812 24.5936C103.667 24.0936 103.297 23.6561 102.703 23.2811C102.12 22.8957 101.828 22.578 101.828 22.328ZM120.141 30.6718H119.688C119.031 30.6718 118.401 31.0155 117.797 31.703C117.203 32.3801 116.906 33.1926 116.906 34.1405V34.3905C116.906 34.7759 117.12 34.9686 117.547 34.9686L117.703 34.9999H118.812L118.891 34.9843L121.5 34.828C121.656 34.7968 121.76 34.7811 121.812 34.7811C122.344 34.7811 122.609 34.5051 122.609 33.953V33.4374C122.609 32.7395 122.359 32.104 121.859 31.5311C121.359 30.9582 120.786 30.6718 120.141 30.6718ZM117.094 38.1093C117.094 39.1509 117.583 40.052 118.562 40.8124C119.292 41.3853 120.219 41.6718 121.344 41.6718C121.854 41.6718 122.609 41.5259 123.609 41.2343C124.62 40.9426 125.203 40.7968 125.359 40.7968C125.828 40.7968 126.062 41.052 126.062 41.5624C126.062 42.1665 125.438 42.7811 124.188 43.4061C122.948 44.0207 121.661 44.328 120.328 44.328H119.641C119.62 44.328 119.594 44.328 119.562 44.328C118.719 44.328 117.859 44.1561 116.984 43.8124C115.255 43.1457 114.026 41.979 113.297 40.3124C112.797 39.1665 112.547 38.078 112.547 37.0468V36.328C112.547 35.2759 112.729 34.2603 113.094 33.2811C113.781 31.4374 114.995 30.1093 116.734 29.2968C117.776 28.8176 118.87 28.578 120.016 28.578H120.375C122.073 28.578 123.505 29.104 124.672 30.1561C125.286 30.7186 125.755 31.3957 126.078 32.1874C126.411 32.979 126.578 33.7863 126.578 34.6093C126.578 35.4218 126.177 35.9582 125.375 36.2186C124.25 36.5832 122.167 36.7655 119.125 36.7655C118.312 36.7655 117.771 36.8697 117.5 37.078C117.229 37.2759 117.094 37.6197 117.094 38.1093ZM133.125 28.6093C133.802 28.6093 134.375 28.8436 134.844 29.3124C135.312 29.7811 135.547 30.3124 135.547 30.9061V31.2343C135.526 31.3384 135.516 31.4165 135.516 31.4686C135.516 31.9478 135.26 32.4113 134.75 32.8593C134.24 33.3072 133.667 33.5311 133.031 33.5311H132.766C132.099 33.5311 131.526 33.2968 131.047 32.828C130.578 32.3488 130.344 31.7968 130.344 31.1718V30.9999C130.344 30.4582 130.568 29.9322 131.016 29.4218C131.464 28.9113 131.974 28.6561 132.547 28.6561L132.969 28.6093H133.125ZM132.875 39.1249H133.125C133.792 39.1249 134.359 39.3645 134.828 39.8436C135.307 40.3124 135.547 40.8072 135.547 41.328V41.7499C135.547 42.302 135.307 42.8176 134.828 43.2968C134.349 43.7759 133.833 44.0155 133.281 44.0155L133.109 44.0468H132.766C132.089 44.0468 131.516 43.8124 131.047 43.3436C130.578 42.8749 130.344 42.3488 130.344 41.7655V41.4374C130.344 40.8749 130.589 40.3488 131.078 39.8593C131.568 39.3697 132.167 39.1249 132.875 39.1249ZM155.375 33.6249C155.375 37.4686 155.432 39.5728 155.547 39.9374C155.745 40.5624 156.214 41.0936 156.953 41.5311C157.703 41.9582 158.078 42.4843 158.078 43.1093C158.078 43.5259 157.844 43.7707 157.375 43.8436C156.688 43.9478 155.266 43.9999 153.109 43.9999H152.438L151.094 44.0155H150.75C149.615 44.0155 148.911 43.9426 148.641 43.7968C148.38 43.6509 148.25 43.3801 148.25 42.9843C148.25 42.5884 148.63 42.1561 149.391 41.6874C150.161 41.2082 150.651 40.6249 150.859 39.9374C150.984 39.5311 151.047 37.5363 151.047 33.953C151.047 30.3593 150.932 28.3124 150.703 27.8124C150.484 27.3124 149.932 27.0207 149.047 26.9374C148.161 26.854 147.719 26.6197 147.719 26.2343C147.719 25.7134 148.099 25.2707 148.859 24.9061C151.453 23.6457 153.297 23.0155 154.391 23.0155C154.943 23.0155 155.286 23.2343 155.422 23.6718C155.464 23.8072 155.484 24.6613 155.484 26.2343L155.391 29.8905C155.391 30.1197 155.391 30.3488 155.391 30.578L155.375 30.9061V33.6249Z" fill="#65090A"/>
<path d="M47.1504 2.87884C23.3533 2.87884 3.99817 16.8184 3.99817 33.9507C3.99817 51.0887 23.3533 65.0254 47.1504 65.0254H136.833C160.627 65.0254 179.986 51.0887 179.986 33.9507C179.986 16.8184 160.627 2.87884 136.833 2.87884H47.1504ZM136.833 67.9043H47.1504C21.1503 67.9043 0 52.6721 0 33.9507C0 15.2321 21.1503 -5.34058e-05 47.1504 -5.34058e-05H136.833C162.834 -5.34058e-05 183.984 15.2321 183.984 33.9507C183.984 52.6721 162.834 67.9043 136.833 67.9043Z" fill="#091414"/>
<path d="M47.1506 11.5154C29.9704 11.5154 15.9928 21.58 15.9928 33.9506C15.9928 46.3241 29.9704 56.3887 47.1506 56.3887H136.834C154.014 56.3887 167.991 46.3241 167.991 33.9506C167.991 21.58 154.014 11.5154 136.834 11.5154H47.1506ZM136.834 59.2676H47.1506C27.7634 59.2676 11.9946 47.9104 11.9946 33.9506C11.9946 19.9938 27.7634 8.63655 47.1506 8.63655H136.834C156.217 8.63655 171.989 19.9938 171.989 33.9506C171.989 47.9104 156.217 59.2676 136.834 59.2676Z" fill="#091414"/>
</svg>
