<svg width="49" height="48" viewBox="0 0 49 48" fill="none" xmlns="http://www.w3.org/2000/svg">
<path fill-rule="evenodd" clip-rule="evenodd" d="M24.5 48C30.8652 48 36.9697 45.4714 41.4706 40.9706C45.9714 36.4697 48.5 30.3652 48.5 24C48.5 17.6348 45.9714 11.5303 41.4706 7.02944C36.9697 2.52856 30.8652 0 24.5 0C18.1348 0 12.0303 2.52856 7.52944 7.02944C3.02856 11.5303 0.5 17.6348 0.5 24C0.5 30.3652 3.02856 36.4697 7.52944 40.9706C12.0303 45.4714 18.1348 48 24.5 48ZM23.165 15.504C22.7132 15.2026 22.188 15.0294 21.6455 15.0031C21.1031 14.9767 20.5636 15.0981 20.0847 15.3544C19.6058 15.6106 19.2055 15.992 18.9264 16.458C18.6473 16.9239 18.4999 17.4569 18.5 18V30C18.4999 30.5431 18.6473 31.0761 18.9264 31.542C19.2055 32.008 19.6058 32.3894 20.0847 32.6456C20.5636 32.9019 21.1031 33.0233 21.6455 32.9969C22.188 32.9706 22.7132 32.7974 23.165 32.496L32.165 26.496C32.5759 26.222 32.9128 25.8509 33.1458 25.4155C33.3788 24.98 33.5007 24.4938 33.5007 24C33.5007 23.5062 33.3788 23.02 33.1458 22.5845C32.9128 22.1491 32.5759 21.778 32.165 21.504L23.165 15.504Z" fill="black"/>
</svg>
