<svg width="14" height="15" viewBox="0 0 14 15" fill="none" xmlns="http://www.w3.org/2000/svg">
<path d="M6 8.5H1C0.71667 8.5 0.479337 8.404 0.288004 8.212C0.0966702 8.02 0.000670115 7.78267 3.44827e-06 7.5C-0.000663218 7.21734 0.0953369 6.98 0.288004 6.788C0.48067 6.596 0.718003 6.5 1 6.5H6V1.5C6 1.21667 6.096 0.979337 6.288 0.788004C6.48 0.59667 6.71734 0.50067 7 0.500003C7.28267 0.499337 7.52034 0.595337 7.713 0.788004C7.90567 0.98067 8.00134 1.218 8 1.5V6.5H13C13.2833 6.5 13.521 6.596 13.713 6.788C13.905 6.98 14.0007 7.21734 14 7.5C13.9993 7.78267 13.9033 8.02034 13.712 8.213C13.5207 8.40567 13.2833 8.50134 13 8.5H8V13.5C8 13.7833 7.904 14.021 7.712 14.213C7.52 14.405 7.28267 14.5007 7 14.5C6.71734 14.4993 6.48 14.4033 6.288 14.212C6.096 14.0207 6 13.7833 6 13.5V8.5Z" fill="#E4E2D6"/>
</svg>
