<svg width="20" height="23" viewBox="0 0 20 23" fill="none" xmlns="http://www.w3.org/2000/svg">
<path d="M18.6601 5.50001C15.8991 0.717009 9.78311 -0.919991 5.00011 1.84001C3.10474 2.93358 1.62039 4.61866 0.774681 6.63685C-0.0710316 8.65503 -0.231419 10.8949 0.318113 13.013C0.535112 13.845 1.54011 14.087 2.12611 13.544L2.21011 13.457L4.46211 10.87C5.14711 10.083 4.45411 8.89801 3.46511 9.06001L3.35511 9.08301L2.07311 9.41801C2.31944 7.61766 3.17134 5.95481 4.48862 4.70313C5.80589 3.45144 7.51003 2.68549 9.3206 2.53134C11.1312 2.37719 12.9403 2.84402 14.4502 3.855C15.9601 4.86598 17.0809 6.36088 17.628 8.09367C18.1751 9.82646 18.1161 11.6939 17.4605 13.3886C16.805 15.0834 15.592 16.5045 14.0212 17.418C12.4504 18.3315 10.6154 18.6831 8.81818 18.4148C7.02098 18.1466 5.36864 17.2744 4.13311 15.942C4.04452 15.8435 3.93722 15.7635 3.81745 15.7068C3.69768 15.6501 3.56783 15.6177 3.43545 15.6116C3.30307 15.6055 3.1708 15.6258 3.04632 15.6713C2.92185 15.7167 2.80765 15.7865 2.71037 15.8765C2.61309 15.9665 2.53466 16.0749 2.47966 16.1955C2.42465 16.316 2.39415 16.4463 2.38994 16.5788C2.38573 16.7112 2.40789 16.8432 2.45513 16.967C2.50237 17.0908 2.57375 17.204 2.66511 17.3C5.76711 20.651 10.8771 21.54 15.0001 19.16C19.7831 16.4 21.4201 10.283 18.6601 5.50001ZM10.0001 4.50001C9.75518 4.50004 9.51877 4.58996 9.33574 4.75272C9.15271 4.91548 9.03577 5.13976 9.00711 5.38301L9.00011 5.50001V10.086L6.29311 12.793C6.11376 12.973 6.00964 13.2144 6.00188 13.4684C5.99413 13.7223 6.08333 13.9697 6.25136 14.1603C6.41939 14.3509 6.65366 14.4703 6.90659 14.4944C7.15951 14.5185 7.41212 14.4454 7.61311 14.29L7.70711 14.207L10.7071 11.207C10.8625 11.0515 10.9623 10.849 10.9911 10.631L11.0001 10.5V5.50001C11.0001 5.23479 10.8948 4.98044 10.7072 4.7929C10.5197 4.60537 10.2653 4.50001 10.0001 4.50001Z" fill="black"/>
</svg>
