<svg width="121" height="110" viewBox="0 0 121 110" fill="none" xmlns="http://www.w3.org/2000/svg">
<path d="M74.5262 70.2646H24.6892C22.7063 70.2646 21.0991 68.6574 21.0991 66.6745V3.72574L17.521 0.146759H70.6948C72.8112 0.146759 74.5262 1.86179 74.5262 3.9782V70.2646Z" fill="white"/>
<path d="M21.1637 7.03955L21.0995 3.72587C21.0995 1.74896 19.4974 0.146889 17.5205 0.146889C15.5445 0.146889 13.9424 1.74896 13.9424 3.72587L14.0057 7.03955H21.1637Z" fill="#6C9BAA"/>
<path d="M28.2571 59.1818V66.6864C28.2571 68.6599 26.6576 70.2602 24.6841 70.2637C24.6858 70.2637 24.6875 70.2645 24.6892 70.2645H78.1052C80.0813 70.2645 81.6833 68.6616 81.6833 66.6864V59.1818H28.2571Z" fill="#6C9BAA"/>
<path d="M25.7324 16.1024C25.7324 15.778 25.9952 15.5161 26.3186 15.5161H69.0508C69.3742 15.5161 69.6361 15.778 69.6361 16.1024C69.6361 16.4259 69.3742 16.6886 69.0508 16.6886H26.3186C25.9952 16.6886 25.7324 16.4259 25.7324 16.1024Z" fill="#B4D7DC"/>
<path d="M25.7324 25.3491C25.7324 25.0256 25.9952 24.7628 26.3186 24.7628H69.0508C69.3742 24.7628 69.6361 25.0256 69.6361 25.3491C69.6361 25.6726 69.3742 25.9353 69.0508 25.9353H26.3186C25.9952 25.9353 25.7324 25.6726 25.7324 25.3491Z" fill="#B4D7DC"/>
<path d="M25.7324 34.5957C25.7324 34.2722 25.9952 34.0094 26.3186 34.0094H69.0508C69.3742 34.0094 69.6361 34.2722 69.6361 34.5957C69.6361 34.9192 69.3742 35.1819 69.0508 35.1819H26.3186C25.9952 35.1819 25.7324 34.9192 25.7324 34.5957Z" fill="#B4D7DC"/>
<path d="M25.7324 43.8426C25.7324 43.5191 25.9952 43.2564 26.3186 43.2564H69.0508C69.3742 43.2564 69.6361 43.5191 69.6361 43.8426C69.6361 44.167 69.3742 44.4288 69.0508 44.4288H26.3186C25.9952 44.4288 25.7324 44.167 25.7324 43.8426Z" fill="#B4D7DC"/>
<path d="M69.0507 53.6758H50.2289C49.9054 53.6758 49.6436 53.4131 49.6436 53.0896C49.6436 52.7661 49.9054 52.5042 50.2289 52.5042H69.0507C69.3742 52.5042 69.6369 52.7661 69.6369 53.0896C69.6369 53.4131 69.3742 53.6758 69.0507 53.6758Z" fill="#B4D7DC"/>
<path d="M58.3905 11.179H39.5688C39.2453 11.179 38.9834 10.9162 38.9834 10.5927C38.9834 10.2701 39.2453 10.0074 39.5688 10.0074H58.3905C58.714 10.0074 58.9767 10.2701 58.9767 10.5927C58.9767 10.9162 58.714 11.179 58.3905 11.179Z" fill="#B4D7DC"/>
<path d="M64.6937 39.805H26.3416C26.0181 39.805 25.7554 39.5423 25.7554 39.2188C25.7554 38.8961 26.0181 38.6334 26.3416 38.6334H64.6937C65.0172 38.6334 65.2799 38.8961 65.2799 39.2188C65.2799 39.5423 65.0172 39.805 64.6937 39.805Z" fill="#B4D7DC"/>
<path d="M54.3884 30.5584H26.3411C26.0176 30.5584 25.7549 30.2957 25.7549 29.9722V29.9508C25.7549 29.6273 26.0176 29.3646 26.3411 29.3646H54.3884C54.7119 29.3646 54.9747 29.6273 54.9747 29.9508V29.9722C54.9747 30.2957 54.7119 30.5584 54.3884 30.5584Z" fill="#B4D7DC"/>
<path d="M61.7887 21.3115H26.3412C26.0177 21.3115 25.7559 21.0487 25.7559 20.7252C25.7559 20.4026 26.0177 20.1399 26.3412 20.1399H61.7887C62.1122 20.1399 62.3749 20.4026 62.3749 20.7252C62.3749 21.0487 62.1122 21.3115 61.7887 21.3115Z" fill="#B4D7DC"/>
<path d="M57.7878 80.1575L53.8922 76.3645L50.166 80.1575V66.0504H57.7878V80.1575Z" fill="#C8462D"/>
<path d="M57.7878 65.5562H50.166V67.9892C50.908 69.3388 52.3269 70.2648 53.9769 70.2648C55.6269 70.2648 57.045 69.3388 57.7878 67.9892V65.5562Z" fill="#872D1E"/>
<path d="M58.3429 63.9088C58.3429 66.3196 56.3882 68.276 53.9766 68.276C51.5649 68.276 49.6094 66.3196 49.6094 63.9088C49.6094 61.4972 51.5649 59.5416 53.9766 59.5416C56.3882 59.5416 58.3429 61.4972 58.3429 63.9088Z" fill="#FAD72A"/>
<path d="M58.0436 63.9089C58.0436 66.1553 56.2225 67.9756 53.9768 67.9756C51.7303 67.9756 49.9092 66.1553 49.9092 63.9089C49.9092 61.6624 51.7303 59.8412 53.9768 59.8412C56.2225 59.8412 58.0436 61.6624 58.0436 63.9089Z" fill="#EA9D00"/>
<path d="M57.594 63.9089C57.594 65.9064 55.9748 67.5264 53.9765 67.5264C51.979 67.5264 50.3599 65.9064 50.3599 63.9089C50.3599 61.9115 51.979 60.2914 53.9765 60.2914C55.9748 60.2914 57.594 61.9115 57.594 63.9089Z" fill="#FAD72A"/>
<path d="M53.4425 63.0355C53.0574 63.4839 52.1151 62.3928 51.7942 62.9071C51.4733 63.4206 50.7672 63.4976 51.4091 63.9092C52.0509 64.3192 52.8391 64.4843 53.184 64.7231C53.528 64.9619 53.184 65.5558 53.184 65.5558C53.184 65.5558 52.6286 66.1814 53.4639 66.2456C54.2983 66.3098 54.555 66.9525 54.6842 66.2456C54.8126 65.5396 54.2341 64.9987 54.6842 64.7231C55.1335 64.4475 56.0321 64.9619 56.2889 64.4475C56.5456 63.9341 56.4814 64.255 56.2889 63.5489C56.0963 62.8421 55.1549 62.9713 54.5773 62.9071C53.9987 62.8421 54.8768 61.4942 54.8126 61.1724C54.7476 60.8514 53.3227 60.9302 53.184 61.1159C52.8194 61.6003 53.8276 62.5862 53.4425 63.0355Z" fill="#FAD72A"/>
<path d="M13.9419 59.5422H18.5239V20.3968H13.9419V59.5422Z" fill="#50555A"/>
<path d="M13.9424 60.056L15.7841 66.2084H16.6835L18.5244 60.056H13.9424Z" fill="#FAD72A"/>
<path d="M18.5244 19.3693V18.9791C18.5244 17.7133 17.4983 16.6881 16.2334 16.6881C14.9676 16.6881 13.9424 17.7133 13.9424 18.9791V19.3693H18.5244Z" fill="#50555A"/>
<path d="M18.5239 48.8567H13.9419V47.4506H18.5239V48.8567Z" fill="#373C41"/>
<path d="M18.5239 60.0557H13.9419V59.3531H18.5239V60.0557Z" fill="#EA9D00"/>
<path d="M18.5239 48.3441H13.9419V46.938H18.5239V48.3441Z" fill="#FAD72A"/>
<path d="M18.5239 20.14H13.9419V18.7339H18.5239V20.14Z" fill="#FAD72A"/>
<path d="M14.5156 32.4847V19.9994C14.5156 19.6887 14.7672 19.4371 15.0779 19.4371C15.3885 19.4371 15.6402 19.6887 15.6402 19.9994V32.4847C15.6402 32.7945 15.3885 33.0461 15.0779 33.0461C14.7672 33.0461 14.5156 32.7945 14.5156 32.4847Z" fill="#FAD72A"/>
<path d="M57.8111 72.5507C57.8111 73.0773 68.8351 73.5042 82.4346 73.5042C96.0341 73.5042 107.058 73.0773 107.058 72.5507C107.058 72.0241 96.0341 71.5972 82.4346 71.5972C68.8351 71.5972 57.8111 72.0241 57.8111 72.5507Z" fill="#3C5A73"/>
<path d="M66.0523 68.764H98.8164V67.3367C98.8164 66.236 97.9251 65.3441 96.8244 65.3441H68.0444C66.9443 65.3441 66.0523 66.236 66.0523 67.3367V68.764Z" fill="#B48255"/>
<path d="M66.0523 68.764H98.8164V67.3367H66.0523V68.764Z" fill="#965028"/>
<path d="M63.7257 72.1838H101.144V70.5893C101.144 69.5813 100.326 68.7638 99.3181 68.7638H65.5512C64.5432 68.7638 63.7257 69.5813 63.7257 70.5893V72.1838Z" fill="#B48255"/>
<path d="M63.7257 72.1839H101.144V70.5894H63.7257V72.1839Z" fill="#965028"/>
<path d="M98.8164 24.2109H66.0523V25.6383C66.0523 26.7384 66.9437 27.6303 68.0444 27.6303H96.8244C97.9245 27.6303 98.8164 26.7384 98.8164 25.6383V24.2109Z" fill="#B48255"/>
<path d="M101.143 20.7912H63.7252V22.3857C63.7252 23.3937 64.5427 24.2112 65.5513 24.2112H99.3181C100.326 24.2112 101.143 23.3937 101.143 22.3857V20.7912Z" fill="#B48255"/>
<path d="M63.7257 22.3856V22.1182H101.144V22.3856C101.144 23.3936 100.326 24.2111 99.3181 24.2111H65.5512C64.5432 24.2111 63.7257 23.3936 63.7257 22.3856Z" fill="#965028"/>
<path d="M82.4349 46.4485C86.8653 46.4485 90.457 42.8568 90.457 38.427V27.6306H74.4128V38.427C74.4128 42.8568 78.004 46.4485 82.4349 46.4485Z" fill="#6AB7FB"/>
<path d="M89.6836 28.5369V38.2931C89.6836 42.2965 86.4384 45.5423 82.4349 45.5423C78.4315 45.5423 75.1851 42.2965 75.1851 38.2931V28.5369H89.6836Z" fill="#B9E1F9"/>
<path d="M89.6836 37.6736V38.2935C89.6836 42.2969 86.4384 45.5421 82.4349 45.5421C78.4315 45.5421 75.1851 42.2969 75.1851 38.2935V37.6736H89.6836Z" fill="#FAD72A"/>
<path d="M82.4349 46.4485C86.8653 46.4485 90.457 50.0403 90.457 54.4706V65.3445H74.4128V54.4706C74.4128 50.0403 78.004 46.4485 82.4349 46.4485Z" fill="#6AB7FB"/>
<path d="M82.4345 47.3588C86.4379 47.3588 89.6831 50.604 89.6831 54.6075V64.4346H75.1852V54.6075C75.1852 50.604 78.431 47.3588 82.4345 47.3588Z" fill="#B9E1F9"/>
<path d="M82.4345 55.0273C86.4379 55.0273 89.6831 56.8153 89.6831 59.0208V64.4346H75.1852V59.0208C75.1852 56.8153 78.431 55.0273 82.4345 55.0273Z" fill="#FAD72A"/>
<path d="M94.2782 65.344H96.5664V27.5526H94.2782V65.344Z" fill="#B48255"/>
<path d="M81.9573 55.3217H82.9126V44.1459H81.9573V55.3217Z" fill="#FAD72A"/>
<path d="M87.44 39.3732C87.7731 39.3732 88.0435 39.1034 88.0435 38.7703V30.1149C88.0435 29.7818 87.7731 29.512 87.44 29.512C87.1075 29.512 86.8372 29.7818 86.8372 30.1149V38.7703C86.8372 39.1034 87.1075 39.3732 87.44 39.3732Z" fill="#EEF9FF"/>
<path d="M87.44 63.0599C87.7731 63.0599 88.0435 62.7901 88.0435 62.457V56.736C88.0435 56.4029 87.7731 56.1332 87.44 56.1332C87.1075 56.1332 86.8372 56.4029 86.8372 56.736V62.457C86.8372 62.7901 87.1075 63.0599 87.44 63.0599Z" fill="#EEF9FF"/>
<path d="M87.44 54.4762C87.7731 54.4762 88.0435 54.2064 88.0435 53.8728V53.2406C88.0435 52.9075 87.7731 52.6378 87.44 52.6378C87.1075 52.6378 86.8372 52.9075 86.8372 53.2406V53.8728C86.8372 54.2064 87.1075 54.4762 87.44 54.4762Z" fill="#EEF9FF"/>
<path d="M93.0783 60.1227C93.0783 61.4175 94.1274 62.4666 95.4222 62.4666C96.717 62.4666 97.7661 61.4175 97.7661 60.1227C97.7661 58.8279 96.717 57.7782 95.4222 57.7782C94.1274 57.7782 93.0783 58.8279 93.0783 60.1227Z" fill="#B48255"/>
<path d="M96.5664 35.516C96.2269 35.7077 95.8404 35.8262 95.4223 35.8262C95.0042 35.8262 94.6178 35.7077 94.2782 35.516V31.448C94.6178 31.2563 95.0042 31.1384 95.4223 31.1384C95.8404 31.1384 96.2269 31.2563 96.5664 31.448V35.516Z" fill="#965028"/>
<path d="M96.5664 28.8815H94.2782V25.9207H96.5664V28.8815Z" fill="#965028"/>
<path d="M93.0783 32.2341C93.0783 33.5289 94.1274 34.5786 95.4222 34.5786C96.717 34.5786 97.7661 33.5289 97.7661 32.2341C97.7661 30.9399 96.717 29.8902 95.4222 29.8902C94.1274 29.8902 93.0783 30.9399 93.0783 32.2341Z" fill="#B48255"/>
<path d="M93.0783 46.1785C93.0783 47.4733 94.1274 48.5224 95.4222 48.5224C96.717 48.5224 97.7661 47.4733 97.7661 46.1785C97.7661 44.8837 96.717 43.834 95.4222 43.834C94.1274 43.834 93.0783 44.8837 93.0783 46.1785Z" fill="#B48255"/>
<path d="M68.3025 65.344H70.5913V27.5526H68.3025V65.344Z" fill="#B48255"/>
<path d="M67.1027 60.1227C67.1027 61.4175 68.1524 62.4666 69.4466 62.4666C70.7414 62.4666 71.7905 61.4175 71.7905 60.1227C71.7905 58.8279 70.7414 57.7782 69.4466 57.7782C68.1524 57.7782 67.1027 58.8279 67.1027 60.1227Z" fill="#B48255"/>
<path d="M70.5913 35.516C70.2512 35.7077 69.8647 35.8262 69.4466 35.8262C69.0291 35.8262 68.6421 35.7077 68.3025 35.516V31.448C68.6421 31.2563 69.0291 31.1384 69.4466 31.1384C69.8647 31.1384 70.2512 31.2563 70.5913 31.448V35.516Z" fill="#965028"/>
<path d="M70.5913 28.8815H68.3025V25.9207H70.5913V28.8815Z" fill="#965028"/>
<path d="M67.1027 32.2341C67.1027 33.5289 68.1524 34.5786 69.4466 34.5786C70.7414 34.5786 71.7905 33.5289 71.7905 32.2341C71.7905 30.9399 70.7414 29.8902 69.4466 29.8902C68.1524 29.8902 67.1027 30.9399 67.1027 32.2341Z" fill="#B48255"/>
<path d="M67.1027 46.1785C67.1027 47.4733 68.1524 48.5224 69.4466 48.5224C70.7414 48.5224 71.7905 47.4733 71.7905 46.1785C71.7905 44.8837 70.7414 43.834 69.4466 43.834C68.1524 43.834 67.1027 44.8837 67.1027 46.1785Z" fill="#B48255"/>
<path d="M11.1758 97.1418C11.2852 97.1418 12.043 95.6262 13.4492 92.595C14.8555 89.5559 15.7227 87.7864 16.0508 87.2864C16.3789 86.7864 16.7578 86.4504 17.1875 86.2786C17.6172 86.0989 18.3008 86.009 19.2383 86.009C20.1836 86.009 20.6562 86.2278 20.6562 86.6653L20.375 87.0168L20.0117 87.4036C19.7773 87.7083 19.6094 88.0637 19.5078 88.47C19.4141 88.8684 19.3672 89.5286 19.3672 90.4504C19.3672 94.3723 19.4688 97.2317 19.6719 99.0286C19.75 99.7317 20.0039 100.286 20.4336 100.693C20.8633 101.091 21.0781 101.357 21.0781 101.49L20.7852 101.7C20.4102 101.872 19.6719 101.958 18.5703 101.958C17.4688 101.958 16.7773 101.814 16.4961 101.525L16.3789 101.267C16.3789 101.04 16.4648 100.575 16.6367 99.8723C16.8086 99.1614 16.8945 98.4543 16.8945 97.7512C16.8945 92.6262 16.7305 90.0637 16.4023 90.0637C16.2383 90.0637 15.4922 91.6497 14.1641 94.8215C12.8359 97.9934 12.0195 99.8567 11.7148 100.411C11.418 100.958 11.0234 101.232 10.5312 101.232C10.1875 101.232 9.24609 99.3567 7.70703 95.6067C6.17578 91.8489 5.27734 89.97 5.01172 89.97C4.79297 89.97 4.68359 91.8879 4.68359 95.7239C4.68359 97.427 4.71094 98.4739 4.76562 98.8645C4.82031 99.2551 4.91016 99.7239 5.03516 100.271C5.16797 100.818 5.23438 101.181 5.23438 101.361C5.23438 101.54 5.11328 101.689 4.87109 101.806C4.62891 101.923 4.31641 101.982 3.93359 101.982H3.28906C2 101.982 1.35547 101.818 1.35547 101.49C1.35547 101.325 1.57422 101.056 2.01172 100.681C2.45703 100.298 2.71484 99.97 2.78516 99.6965C2.86328 99.4153 2.96484 98.009 3.08984 95.4778C3.21484 92.9387 3.27734 91.2161 3.27734 90.3098C3.27734 89.4036 3.22266 88.7747 3.11328 88.4231C3.00391 88.0637 2.75 87.6887 2.35156 87.2981C1.96094 86.9075 1.76562 86.6106 1.76562 86.4075C1.76562 86.1575 2.48828 86.0325 3.93359 86.0325C4.48828 86.0325 4.96875 86.1106 5.375 86.2668C5.78125 86.4153 6.17969 86.7786 6.57031 87.3567C6.96875 87.927 7.79688 89.7004 9.05469 92.677C10.3125 95.6536 11.0195 97.1418 11.1758 97.1418ZM30.7461 94.5403V94.177C30.7461 93.5989 30.5391 93.0793 30.125 92.6184C29.7109 92.1497 29.2031 91.9153 28.6016 91.9153H28.3789C28.2695 91.9309 28.1953 91.9387 28.1562 91.9387C27.6094 91.9387 27.0898 92.2512 26.5977 92.8762C26.1133 93.5012 25.8711 94.1692 25.8711 94.8801V95.0325C25.8711 95.2825 26.0195 95.4075 26.3164 95.4075C26.4336 95.4309 26.4961 95.4426 26.5039 95.4426L26.7734 95.4543H26.8438L26.9258 95.4426L29.1875 95.3137L29.6094 95.2668C30.3672 95.2668 30.7461 95.0247 30.7461 94.5403ZM25.8711 97.6458C25.8711 98.5364 26.207 99.2825 26.8789 99.884C27.5508 100.486 28.4023 100.786 29.4336 100.786C29.8477 100.786 30.2227 100.728 30.5586 100.611C30.9023 100.486 31.2734 100.337 31.6719 100.165C32.0781 99.9934 32.332 99.9075 32.4336 99.9075C32.7461 99.9075 32.9023 100.075 32.9023 100.411C32.9023 100.865 32.3242 101.349 31.168 101.865C30.418 102.2 29.6133 102.368 28.7539 102.368H28.4961C27.0273 102.368 25.8086 101.923 24.8398 101.032C24.3164 100.548 23.9102 99.9309 23.6211 99.1809C23.332 98.4231 23.1875 97.6106 23.1875 96.7434L23.1992 96.4739V96.2043C23.1992 95.4543 23.3711 94.7161 23.7148 93.9895C24.0664 93.2629 24.4844 92.6653 24.9688 92.1965C25.9922 91.2122 27.207 90.7161 28.6133 90.7083C30.7383 90.7083 32.1523 91.5364 32.8555 93.1926C33.0742 93.7161 33.1836 94.1965 33.1836 94.634V94.8684C33.1836 95.4075 32.9609 95.7708 32.5156 95.9583C32.0703 96.1379 31.0195 96.2864 29.3633 96.4036C27.707 96.5208 26.8086 96.5989 26.668 96.6379C26.1367 96.7708 25.8711 97.1067 25.8711 97.6458ZM40.2148 91.4583H39.9102C39.4961 91.4583 39.0938 91.6965 38.7031 92.1731C38.3125 92.6497 38.1172 93.2043 38.1172 93.8372L38.0938 94.0247L38.082 94.3176V94.6223L38.0938 94.7161C38.0938 95.5286 38.2695 96.1848 38.6211 96.6848C38.9727 97.1848 39.4961 97.4348 40.1914 97.4348H40.2734C40.8125 97.4348 41.2734 97.2239 41.6562 96.802C42.0391 96.3801 42.2305 95.8215 42.2305 95.1262V94.6692C42.207 94.4817 42.1953 94.3293 42.1953 94.2122C42.1953 93.47 41.9883 92.8254 41.5742 92.2786C41.168 91.7317 40.7148 91.4583 40.2148 91.4583ZM39.1719 101.876C38.625 101.876 38.1602 102.068 37.7773 102.45C37.3945 102.833 37.2031 103.314 37.2031 103.892V103.986C37.2031 104.65 37.4648 105.173 37.9883 105.556C38.5117 105.939 39.2266 106.13 40.1328 106.13H40.4375C41.5312 106.13 42.4102 105.88 43.0742 105.38C43.7383 104.88 44.0703 104.294 44.0703 103.622L44.0586 103.529C44.0586 103.083 43.875 102.724 43.5078 102.45C43.1406 102.185 42.707 102.052 42.207 102.052C41.8945 102.013 41.668 101.993 41.5273 101.993L41.1289 101.958H40.9297L40.2266 101.911L39.7461 101.876H39.1719ZM46.3789 91.3293C46.3789 91.7747 46.0977 92.0598 45.5352 92.1848C44.9727 92.302 44.6914 92.5325 44.6914 92.8762L44.7266 93.1223L44.7734 93.4036L44.832 93.7083C44.8711 93.9661 44.8906 94.3293 44.8906 94.7981C44.8906 95.2668 44.7578 95.7512 44.4922 96.2512C43.75 97.634 42.3203 98.3918 40.2031 98.5247C39.5234 98.5715 39.0898 98.6301 38.9023 98.7004C38.4961 98.8567 38.293 99.1184 38.293 99.4856C38.293 99.8528 38.5938 100.111 39.1953 100.259C39.2812 100.282 40.0586 100.357 41.5273 100.482C42.9961 100.599 43.9766 100.782 44.4688 101.032C45.5078 101.548 46.0273 102.294 46.0273 103.271C46.0273 104.552 45.4531 105.595 44.3047 106.4C43.1641 107.204 41.668 107.607 39.8164 107.607C38.5117 107.607 37.4258 107.357 36.5586 106.857C36.1602 106.63 35.8359 106.333 35.5859 105.966C35.3438 105.607 35.2227 105.232 35.2227 104.841C35.2227 104.146 35.4297 103.568 35.8438 103.107C36.5078 102.372 36.8398 101.982 36.8398 101.935C36.8398 101.888 36.6953 101.681 36.4062 101.314C36.1172 100.947 35.9727 100.564 35.9727 100.165C35.9727 99.7668 36.1602 99.3372 36.5352 98.8762C36.918 98.4075 37.1094 98.1458 37.1094 98.0911C37.1094 98.0364 36.875 97.6379 36.4062 96.8958C35.9375 96.1458 35.7031 95.4348 35.7031 94.7629C35.7031 94.0911 35.8477 93.4934 36.1367 92.97C36.957 91.4778 38.4844 90.7317 40.7188 90.7317H41.0586L42.6875 90.8372L43.2852 90.8606C43.4883 90.8684 43.6953 90.8723 43.9062 90.8723L45.1484 90.7903C45.9688 90.7903 46.3789 90.97 46.3789 91.3293ZM54.3008 96.7317H54.1016C53.0781 96.7317 52.2227 96.9622 51.5352 97.4231C50.8555 97.8762 50.5156 98.4426 50.5156 99.1223V99.3567C50.5156 99.7551 50.6367 100.115 50.8789 100.435C51.1289 100.747 51.4492 100.904 51.8398 100.904L51.9805 100.927H52.332C53.1445 100.927 53.8086 100.595 54.3242 99.9309C54.5508 99.6418 54.6641 99.0481 54.6641 98.1497C54.6641 98.0793 54.6641 98.009 54.6641 97.9387L54.6758 97.6575V97.3762C54.6758 96.9465 54.5508 96.7317 54.3008 96.7317ZM48.6055 92.9465C48.6055 92.3684 49.0625 91.8528 49.9766 91.3997C50.8984 90.9387 51.8516 90.7083 52.8359 90.7083C52.8672 90.7083 52.8984 90.7083 52.9297 90.7083C53.8672 90.7083 54.6172 90.8215 55.1797 91.0481C56.3203 91.5012 56.9727 92.4622 57.1367 93.9309C57.1523 94.0793 57.1602 95.0637 57.1602 96.884C57.1602 98.6965 57.207 99.759 57.3008 100.072C57.4023 100.384 57.668 100.615 58.0977 100.763C58.5352 100.911 58.7539 101.052 58.7539 101.185C58.7539 101.466 58.6133 101.681 58.332 101.829C57.7695 102.126 57.2148 102.275 56.668 102.275C56.1289 102.275 55.7266 102.15 55.4609 101.9C54.9844 101.454 54.7305 101.232 54.6992 101.232C54.668 101.232 54.2266 101.431 53.375 101.829C52.5234 102.22 51.7773 102.415 51.1367 102.415C50.1758 102.415 49.4219 102.15 48.875 101.618C48.3281 101.087 48.0547 100.443 48.0547 99.6848V99.3918C48.0547 98.5793 48.4062 97.8645 49.1094 97.2473C49.8125 96.6301 51.0781 96.1497 52.9062 95.8059C53.5703 95.6809 53.9883 95.5637 54.1602 95.4543C54.5039 95.2356 54.6758 94.7903 54.6758 94.1184C54.6758 93.4465 54.4961 92.9309 54.1367 92.5715C53.7773 92.2122 53.2969 92.0325 52.6953 92.0325C52.0938 92.0325 51.5117 92.384 50.9492 93.0872C50.3945 93.7825 49.8867 94.1301 49.4258 94.1301C48.8789 94.1301 48.6055 93.7356 48.6055 92.9465ZM68.0352 95.1262V95.5598C68.0352 96.052 67.8906 96.3333 67.6016 96.4036C67.3125 96.4661 66.1953 96.4973 64.25 96.4973H63.9805L63.7109 96.509H63.2773L63.1016 96.5208H62.5742L62.4922 96.5325H62.1406L61.8828 96.5442H61.2969C61.0234 96.5442 60.8867 96.4036 60.8867 96.1223V95.677C60.8867 95.1848 61.0469 94.9036 61.3672 94.8333C61.5703 94.7864 62.6719 94.7629 64.6719 94.7629L66.9453 94.7161H67.543C67.8711 94.7161 68.0352 94.8528 68.0352 95.1262ZM73.0742 93.3801V94.2356C73.0742 96.1653 73.6055 97.8372 74.668 99.2512C75.082 99.7903 75.5938 100.224 76.2031 100.552C76.8125 100.88 77.4688 101.044 78.1719 101.044C79.6406 101.044 80.8555 100.38 81.8164 99.052C82.6836 97.8645 83.1172 96.3254 83.1172 94.4348V93.7903C83.1172 92.8059 82.9844 91.8684 82.7188 90.9778C82.1562 89.1028 81.2227 87.8528 79.918 87.2278C79.3164 86.9387 78.6562 86.7942 77.9375 86.7942C77.2188 86.7942 76.5547 86.9583 75.9453 87.2864C74.7656 87.9192 73.9375 89.0715 73.4609 90.7434C73.2031 91.6575 73.0742 92.5364 73.0742 93.3801ZM82.5781 102.31C82.5781 102.583 82.9102 102.888 83.5742 103.224C84.2461 103.568 85.0391 103.841 85.9531 104.044C86.875 104.255 87.3359 104.493 87.3359 104.759C87.3359 105.025 87.1367 105.251 86.7383 105.439C86.3477 105.634 85.8594 105.732 85.2734 105.732H84.9453C84.1094 105.732 82.9531 105.411 81.4766 104.771C77.0781 102.865 74.3711 101.517 73.3555 100.728C72.3477 99.9309 71.5625 98.9114 71 97.6692C70.4375 96.427 70.1562 95.1653 70.1562 93.884C70.1562 91.3606 70.8633 89.3372 72.2773 87.8137C72.9727 87.0715 73.8008 86.5012 74.7617 86.1028C75.7305 85.6965 76.7461 85.4934 77.8086 85.4934H78.1602C79.1602 85.4934 80.1523 85.7083 81.1367 86.1379C82.1211 86.5598 82.9648 87.1497 83.668 87.9075C85.0039 89.345 85.6719 91.2317 85.6719 93.5676C85.6719 95.3098 85.457 96.8528 85.0273 98.1965C84.6445 99.3762 83.9922 100.478 83.0703 101.501C82.7422 101.868 82.5781 102.138 82.5781 102.31ZM100.473 100.88C100.816 101.146 100.988 101.337 100.988 101.454C100.988 101.564 100.93 101.669 100.812 101.771C100.477 102.075 99.7578 102.228 98.6562 102.228C98.2969 102.228 98.0156 102.169 97.8125 102.052C97.6172 101.927 97.4414 101.704 97.2852 101.384C97.1367 101.064 97.0117 100.904 96.9102 100.904C96.8086 100.911 96.582 101.04 96.2305 101.29C95.2461 102.001 94.3047 102.357 93.4062 102.357C93.3984 102.357 93.3867 102.357 93.3711 102.357H93.0195C91.7305 102.357 90.7969 101.81 90.2188 100.716C89.9219 100.146 89.7695 98.7512 89.7617 96.5325C89.7617 94.3059 89.7266 93.0833 89.6562 92.8645C89.5859 92.6379 89.3359 92.427 88.9062 92.2317C88.4844 92.0286 88.2734 91.8723 88.2734 91.7629C88.2734 91.4739 88.4102 91.2864 88.6836 91.2004C89.293 91.0051 90.0703 90.9075 91.0156 90.9075C91.5625 90.9075 91.9102 91.1301 92.0586 91.5754C92.2539 92.1458 92.3516 93.509 92.3516 95.6653C92.3516 97.8137 92.4453 99.1184 92.6328 99.5793C92.9531 100.368 93.5352 100.763 94.3789 100.763C94.8164 100.763 95.25 100.65 95.6797 100.423C96.1172 100.197 96.457 99.8918 96.6992 99.509C96.9414 99.1262 97.0625 98.0754 97.0625 96.3567C97.0625 94.6301 97.0039 93.5442 96.8867 93.0989C96.7773 92.6536 96.6055 92.3059 96.3711 92.0559C96.1367 91.7981 96.0195 91.595 96.0195 91.4465C96.0195 91.1028 96.9375 90.9309 98.7734 90.9309C99.1562 90.9309 99.4062 91.0168 99.5234 91.1887C99.6406 91.3528 99.6992 91.6575 99.6992 92.1028L99.6641 92.7942L99.6055 95.9114C99.6055 97.9426 99.6641 99.2122 99.7812 99.72C99.8984 100.22 100.129 100.607 100.473 100.88ZM107.223 87.1106C107.223 87.4543 107.074 87.7747 106.777 88.0715C106.488 88.3606 106.199 88.5051 105.91 88.5051C105.848 88.5208 105.797 88.5286 105.758 88.5286L105.5 88.552C105.109 88.552 104.758 88.4231 104.445 88.1653C104.141 87.9075 103.988 87.5754 103.988 87.1692V86.9583C103.988 86.552 104.148 86.2122 104.469 85.9387C104.797 85.6575 105.172 85.5168 105.594 85.5168H105.652L106.051 85.5637C106.293 85.5637 106.543 85.6965 106.801 85.9622C107.066 86.22 107.199 86.4817 107.199 86.7473L107.223 86.8528V87.1106ZM103.496 92.3372C103.09 92.1418 102.887 91.9583 102.887 91.7864C102.887 91.6145 102.969 91.4778 103.133 91.3762C103.703 91.0325 104.605 90.8606 105.84 90.8606H106.18C106.602 90.8606 106.84 91.0559 106.895 91.4465C106.926 91.6575 106.941 93.0793 106.941 95.7122C106.941 98.3372 106.996 99.845 107.105 100.236C107.215 100.618 107.477 100.915 107.891 101.126C108.305 101.329 108.512 101.536 108.512 101.747C108.512 102.044 107.543 102.193 105.605 102.193L105.254 102.204H103.824C103.254 102.204 102.969 102.064 102.969 101.782C102.969 101.548 103.141 101.322 103.484 101.103C103.836 100.884 104.078 100.642 104.211 100.376C104.359 100.087 104.434 99.4114 104.434 98.3489L104.445 97.9739V97.6106L104.457 97.0598V96.6965L104.469 96.3333C104.469 94.4817 104.406 93.4036 104.281 93.0989C104.164 92.7864 103.902 92.5325 103.496 92.3372ZM110.457 101.677V101.431C110.457 101.157 111.461 99.6223 113.469 96.8254C115.477 94.0286 116.48 92.5559 116.48 92.4075C116.48 92.2512 115.988 92.1731 115.004 92.1731C114.02 92.1731 113.332 92.2551 112.941 92.4192C112.551 92.5833 112.195 92.8958 111.875 93.3567C111.555 93.8176 111.242 94.0481 110.938 94.0481C110.719 94.0481 110.609 93.6887 110.609 92.97C110.609 91.6106 110.855 90.9309 111.348 90.9309H111.629L112.25 90.9543C112.68 90.97 113.004 90.9778 113.223 90.9778L116.832 91.0129L118.801 90.9778C119.371 90.9778 119.656 91.1965 119.656 91.634C119.656 91.9543 118.648 93.5168 116.633 96.3215C114.625 99.1262 113.621 100.568 113.621 100.646C113.621 100.841 114.199 100.939 115.355 100.939C116.512 100.939 117.285 100.833 117.676 100.622C118.066 100.404 118.426 100.056 118.754 99.5793C119.09 99.1028 119.398 98.8645 119.68 98.8645C119.906 98.8645 120.02 99.0403 120.02 99.3918V99.6965C120.02 100.743 119.941 101.419 119.785 101.724C119.629 102.029 119.297 102.181 118.789 102.181H118.156L117.828 102.169L115.871 102.134L114.898 102.122H112.285L111.629 102.134C111.238 102.134 111.023 102.13 110.984 102.122C110.633 102.06 110.457 101.911 110.457 101.677Z" fill="#E4E2D6"/>
</svg>
