<svg width="28" height="32" viewBox="0 0 28 32" fill="none" xmlns="http://www.w3.org/2000/svg">
<path d="M15.7134 31.1166L15.6943 31.1198L15.5815 31.1754L15.5497 31.1818L15.5275 31.1754L15.4147 31.1182C15.3977 31.114 15.385 31.1172 15.3766 31.1277L15.3702 31.1436L15.3432 31.8237L15.3511 31.8554L15.367 31.8761L15.5323 31.9937L15.5561 32L15.5752 31.9937L15.7404 31.8761L15.7595 31.8507L15.7658 31.8237L15.7388 31.1452C15.7346 31.1283 15.7261 31.1187 15.7134 31.1166ZM16.1328 30.9371L16.1106 30.9403L15.8183 31.088L15.8024 31.1039L15.7976 31.1214L15.8262 31.8046L15.8341 31.8237L15.8469 31.8364L16.1662 31.9825C16.1863 31.9878 16.2017 31.9836 16.2123 31.9698L16.2186 31.9476L16.1646 30.972C16.1593 30.9519 16.1487 30.9403 16.1328 30.9371ZM14.9968 30.9403C14.9898 30.936 14.9815 30.9347 14.9735 30.9364C14.9655 30.9382 14.9585 30.943 14.9539 30.9498L14.9444 30.972L14.8904 31.9476C14.8914 31.9666 14.9004 31.9794 14.9174 31.9857L14.9412 31.9825L15.2606 31.8348L15.2765 31.8221L15.2812 31.8046L15.3098 31.1214L15.3051 31.1023L15.2892 31.0864L14.9968 30.9403Z" fill="#E4E2D6"/>
<path d="M27.8534 3.1979C28.5397 1.29926 26.6999 -0.540595 24.8012 0.147363L1.59654 8.53951C-0.308449 9.22905 -0.538828 11.8284 1.21364 12.8436L8.62071 17.1318L15.235 10.5176C15.5346 10.2282 15.936 10.068 16.3525 10.0716C16.7691 10.0753 17.1676 10.2424 17.4622 10.5369C17.7568 10.8315 17.9239 11.23 17.9275 11.6466C17.9311 12.0632 17.771 12.4645 17.4816 12.7642L10.8673 19.3784L15.1571 26.7855C16.1708 28.538 18.7701 28.306 19.4596 26.4026L27.8534 3.1979Z" fill="#E4E2D6"/>
</svg>
