<svg width="9" height="12" viewBox="0 0 9 12" fill="none" xmlns="http://www.w3.org/2000/svg">
<path d="M3.87954 1.03297L4.22754 2.10397C4.33547 2.42973 4.5181 2.72572 4.76084 2.96829C5.00359 3.21086 5.29971 3.39328 5.62554 3.50097L6.69754 3.84897L6.71854 3.85497C6.80115 3.88405 6.87269 3.93805 6.9233 4.00952C6.97391 4.08099 7.00109 4.1664 7.00109 4.25397C7.00109 4.34155 6.97391 4.42696 6.9233 4.49843C6.87269 4.5699 6.80115 4.62389 6.71854 4.65297L5.64754 5.00097C5.32152 5.10853 5.0252 5.29089 4.78227 5.53347C4.53935 5.77604 4.35657 6.07211 4.24854 6.39797L3.90054 7.46797C3.87147 7.55058 3.81747 7.62212 3.746 7.67273C3.67453 7.72334 3.58912 7.75052 3.50154 7.75052C3.41397 7.75052 3.32856 7.72334 3.25709 7.67273C3.18562 7.62212 3.13162 7.55058 3.10254 7.46797L2.75454 6.39797C2.62949 6.01912 2.40377 5.68141 2.10154 5.42097C1.88299 5.23122 1.62914 5.08645 1.35454 4.99497L0.282544 4.64697C0.19994 4.61789 0.128397 4.56389 0.0777884 4.49243C0.0271797 4.42096 0 4.33554 0 4.24797C0 4.1604 0.0271797 4.07499 0.0777884 4.00352C0.128397 3.93205 0.19994 3.87805 0.282544 3.84897L1.35454 3.50097C1.67649 3.39051 1.96842 3.20684 2.20736 2.96444C2.4463 2.72203 2.62573 2.42748 2.73154 2.10397L3.07954 1.03397C3.10841 0.951021 3.16238 0.879113 3.23397 0.828227C3.30556 0.77734 3.39121 0.75 3.47904 0.75C3.56687 0.75 3.65253 0.77734 3.72411 0.828227C3.7957 0.879113 3.84968 0.951021 3.87854 1.03397M8.78354 8.96497L8.01854 8.71697C7.78585 8.63963 7.57435 8.50919 7.40078 8.33597C7.22722 8.16275 7.09635 7.95151 7.01854 7.71897L6.77054 6.95397C6.74984 6.8949 6.71129 6.84373 6.66024 6.80752C6.60918 6.77132 6.54814 6.75187 6.48554 6.75187C6.42295 6.75187 6.36191 6.77132 6.31085 6.80752C6.25979 6.84373 6.22125 6.8949 6.20054 6.95397L5.95054 7.71897C5.87445 7.9497 5.74618 8.15978 5.57569 8.33287C5.4052 8.50595 5.19709 8.6374 4.96754 8.71697L4.20254 8.96497C4.15852 8.98065 4.11872 9.0063 4.08625 9.03992C4.05379 9.07353 4.02954 9.1142 4.0154 9.15874C4.00127 9.20329 3.99762 9.2505 4.00476 9.29668C4.0119 9.34287 4.02962 9.38678 4.05654 9.42497C4.09254 9.47497 4.14354 9.51497 4.20254 9.53497L4.96754 9.78397C5.20067 9.86172 5.41245 9.99277 5.58604 10.1667C5.75964 10.3407 5.89026 10.5527 5.96754 10.786L6.21554 11.55C6.23625 11.609 6.27479 11.6602 6.32585 11.6964C6.37691 11.7326 6.43795 11.7521 6.50054 11.7521C6.56313 11.7521 6.62418 11.7326 6.67524 11.6964C6.72629 11.6602 6.76484 11.609 6.78554 11.55L7.03454 10.786C7.11212 10.5534 7.24277 10.342 7.41616 10.1686C7.58956 9.9952 7.80092 9.86455 8.03354 9.78697L8.79854 9.53897C8.85761 9.51827 8.90879 9.47972 8.94499 9.42867C8.9812 9.37761 9.00065 9.31656 9.00065 9.25397C9.00065 9.19138 8.9812 9.13034 8.94499 9.07928C8.90879 9.02822 8.85761 8.98968 8.79854 8.96897L8.78354 8.96497Z" fill="#65090A"/>
</svg>
