<svg width="296" height="44" viewBox="0 0 296 44" fill="none" xmlns="http://www.w3.org/2000/svg">
<path d="M259.082 34.3884C259.348 35.6831 259.042 37.1564 258.364 38.3004C257.696 39.4524 256.656 40.3097 255.541 40.4497C254.438 40.6111 253.2 40.0431 252.818 38.8937C252.403 37.7724 252.959 36.2911 253.814 35.3217C254.241 34.8244 254.746 34.4137 255.288 34.1497C255.822 33.9031 256.461 33.7524 257.065 33.6937C257.678 33.6311 258.29 33.6551 258.898 33.7471C258.971 33.9564 259.035 34.1684 259.082 34.3884ZM243.707 35.4537C243.632 35.7737 243.519 36.0737 243.412 36.3751C243.3 36.6551 243.163 36.9231 243.007 37.1804C242.699 37.6964 242.3 38.1497 241.859 38.5297C240.971 39.2791 239.871 39.7177 238.84 39.6417C237.822 39.5937 236.856 38.9657 236.309 37.9991C235.771 37.0551 235.791 35.9337 236.367 34.8604C237.564 32.6524 240.088 31.3884 242.446 30.4111C242.796 30.2737 243.149 30.1497 243.504 30.0324C244.023 31.8204 244.16 33.7444 243.707 35.4537ZM284.061 25.6631C284.061 25.7311 284.042 25.7804 284.023 25.8177C284.009 25.7684 284.01 25.7124 284.008 25.7537C284.021 25.8217 283.866 25.9204 283.67 25.9444L284.027 25.5271C284.022 25.5284 284.05 25.5337 284.061 25.6631ZM295.974 27.5577C295.783 24.3004 294.646 21.1457 292.801 18.7751C291.876 17.5897 290.769 16.6231 289.553 15.9337C288.339 15.2417 286.987 14.8537 285.63 14.9377C284.27 15.0217 282.931 15.6337 281.876 16.6991C280.818 17.7457 280.042 19.3111 279.967 21.0377C279.915 22.7404 280.469 24.4604 281.534 25.6044C282.069 26.1804 282.707 26.5817 283.463 26.7057C283.661 26.7217 283.863 26.7097 284.076 26.6204C284.281 26.5444 284.54 26.3164 284.616 25.9697C284.669 25.8444 284.661 25.4697 284.484 25.3004C284.328 25.1351 284.184 25.1111 284.055 25.0977C283.922 25.0964 283.803 25.1004 283.634 25.2177C283.556 25.2697 283.415 25.4284 283.417 25.6751C283.424 25.7964 283.449 25.8777 283.479 25.9404C282.942 25.8484 282.365 25.5271 281.929 25.0497C281.006 24.0884 280.49 22.5551 280.525 21.0671C280.575 19.5791 281.246 18.1497 282.206 17.1831C283.164 16.1937 284.397 15.6044 285.655 15.5177C288.204 15.3724 290.7 16.9404 292.462 19.1684C294.231 21.4351 295.33 24.4764 295.515 27.5977C295.605 29.1564 295.46 30.7417 295.03 32.2084C294.612 33.6804 293.877 34.9897 293.013 36.1551C291.293 38.4991 289.008 40.1631 286.573 41.1871C285.351 41.6884 284.082 42.0457 282.806 42.2364C281.526 42.4124 280.228 42.4111 278.938 42.2831C277.647 42.1591 276.363 41.9124 275.1 41.5564C273.829 41.2151 272.611 40.7404 271.45 40.0551C269.118 38.7017 267.015 36.7871 264.704 35.1871C263.545 34.3884 262.326 33.6937 261.039 33.1897C260.707 33.0644 260.371 32.9524 260.031 32.8564C259.56 31.5671 258.764 30.4791 257.851 29.7177C256.669 28.7217 255.346 28.1044 254.006 27.7111C252.651 27.3284 251.316 27.1604 249.959 27.0911C248.381 27.0231 246.799 27.1431 245.236 27.4364C245.03 26.9164 244.809 26.4071 244.557 25.9177C242.946 22.9151 240.613 20.7991 238.242 19.1684C233.483 15.9991 228.379 13.8324 223.106 12.5031C217.83 11.2217 212.403 10.8897 207.042 11.4844C201.677 12.0951 196.394 13.7511 191.435 16.1391C186.439 18.4564 181.743 21.4804 177.111 24.5084C172.501 27.5924 167.96 30.7564 163.324 33.6364C161.006 35.0511 158.661 36.3711 156.205 37.2591C153.762 38.1631 151.195 38.6391 148.633 38.3164L148.533 39.0937C151.165 39.7711 153.924 39.5551 156.541 38.8484C159.166 38.1271 161.684 36.9804 164.112 35.6884C168.958 33.1031 173.623 30.1284 178.297 27.2671C182.952 24.3724 187.641 21.6257 192.454 19.3991C194.86 18.2831 197.304 17.3244 199.787 16.6031C202.265 15.8577 204.777 15.3164 207.317 15.0084C212.398 14.4084 217.544 14.7431 222.565 15.8751C227.571 17.0511 232.484 19.1031 236.974 21.9657C239.176 23.4004 241.185 25.2151 242.499 27.5631C242.586 27.7231 242.663 27.8924 242.742 28.0577C242.467 28.1444 242.193 28.2337 241.919 28.3324C240.61 28.8004 239.354 29.4017 238.107 30.1404C236.848 30.9337 235.634 31.9444 234.724 33.5271C234.283 34.3177 233.937 35.3071 233.901 36.3844C233.851 37.4497 234.128 38.5417 234.593 39.3911C235.508 41.1004 237.101 42.1217 238.696 42.2484C240.291 42.3924 241.823 41.7991 243.104 40.7737C243.741 40.2497 244.326 39.6137 244.807 38.8511C245.048 38.4711 245.264 38.0631 245.448 37.6297C245.614 37.2044 245.777 36.7777 245.894 36.3324C246.391 34.5537 246.438 32.6551 246.17 30.8857C246.099 30.3844 245.995 29.8937 245.875 29.4111C247.211 29.1457 248.564 29.0164 249.919 29.0337C251.181 29.0591 252.469 29.1897 253.675 29.4937C254.886 29.8097 256.061 30.3324 257.056 31.1297C257.547 31.5204 257.978 31.9991 258.324 32.5417C257.883 32.5004 257.44 32.4831 256.993 32.5231C256.295 32.5844 255.628 32.7151 254.93 33.0177C254.249 33.3324 253.638 33.8124 253.109 34.4071C252.582 35.0017 252.132 35.7204 251.848 36.5791C251.564 37.4204 251.483 38.4777 251.805 39.4071C252.104 40.3311 252.749 41.0444 253.445 41.4217C254.147 41.8084 254.903 41.9457 255.655 41.8631C257.171 41.6951 258.5 40.6097 259.36 39.1844C260.216 37.7831 260.669 35.9271 260.366 34.1044C261.725 34.5377 263.054 35.2471 264.304 36.0711C266.574 37.5751 268.726 39.4684 271.158 40.8217C272.37 41.5057 273.671 41.9777 274.959 42.3177C276.254 42.6697 277.567 42.9097 278.891 43.0271C280.214 43.1444 281.549 43.1351 282.874 42.9417C284.199 42.7311 285.495 42.3537 286.753 41.8244C289.257 40.7471 291.61 39.0071 293.383 36.5564C294.266 35.3484 295.035 33.9604 295.47 32.3964C295.909 30.8444 296.068 29.1871 295.974 27.5577Z" fill="#091414"/>
<path d="M37.1007 33.7471C37.7106 33.6551 38.3227 33.6311 38.9337 33.6925C39.5392 33.7525 40.1776 33.9031 40.7109 34.1498C41.2531 34.4138 41.7592 34.8245 42.1865 35.3218C43.0413 36.2911 43.5966 37.7725 43.1812 38.8938C42.7997 40.0431 41.5624 40.6111 40.4585 40.4498C39.3436 40.3098 38.303 39.4525 37.6352 38.3005C36.9575 37.1565 36.6525 35.6831 36.9181 34.3885C36.964 34.1685 37.0296 33.9565 37.1007 33.7471ZM52.496 30.0325C52.8513 30.1498 53.2032 30.2738 53.5541 30.4111C55.9107 31.3885 58.4356 32.6525 59.6325 34.8605C60.2085 35.9338 60.2282 37.0551 59.6904 37.9978C59.1439 38.9658 58.1787 39.5938 57.1589 39.6418C56.1282 39.7178 55.0286 39.2791 54.14 38.5298C53.6995 38.1498 53.3005 37.6965 52.9923 37.1805C52.8371 36.9231 52.6993 36.6551 52.5868 36.3751C52.4807 36.0738 52.3671 35.7738 52.2916 35.4538C51.8391 33.7445 51.9758 31.8205 52.496 30.0325ZM11.9729 25.5271L12.3292 25.9445C12.1347 25.9205 11.9784 25.8218 11.9915 25.7538C11.9893 25.7125 11.9904 25.7685 11.9773 25.8178C11.9576 25.7805 11.9379 25.7311 11.9379 25.6631C11.9489 25.5338 11.9773 25.5285 11.9729 25.5271ZM0.529953 32.3965C0.963888 33.9605 1.73338 35.3485 2.61655 36.5565C4.39055 39.0071 6.74276 40.7471 9.2458 41.8245C10.505 42.3538 11.8002 42.7311 13.125 42.9418C14.4508 43.1351 15.7854 43.1445 17.108 43.0258C18.4317 42.9098 19.7455 42.6698 21.0396 42.3178C22.3283 41.9778 23.629 41.5058 24.8412 40.8218C27.2732 39.4685 29.4254 37.5751 31.6956 36.0711C32.946 35.2471 34.2741 34.5378 35.6327 34.1045C35.331 35.9271 35.7836 37.7831 36.6394 39.1845C37.4996 40.6085 38.8277 41.6951 40.3437 41.8631C41.0957 41.9458 41.8521 41.8085 42.5538 41.4218C43.2501 41.0445 43.895 40.3311 44.1944 39.4071C44.5158 38.4778 44.436 37.4205 44.1518 36.5791C43.8687 35.7205 43.4173 35.0018 42.8905 34.4071C42.3614 33.8125 41.7504 33.3325 41.0695 33.0178C40.371 32.7151 39.7054 32.5845 39.0058 32.5231C38.5599 32.4831 38.1172 32.5005 37.6756 32.5418C38.021 31.9978 38.4517 31.5205 38.9446 31.1298C39.9382 30.3325 41.1143 29.8098 42.3254 29.4938C43.5299 29.1898 44.8197 29.0591 46.0799 29.0338C47.4353 29.0165 48.7896 29.1458 50.1242 29.4111C50.0039 29.8938 49.9012 30.3845 49.829 30.8858C49.5612 32.6551 49.6082 34.5525 50.1056 36.3311C50.2225 36.7778 50.3854 37.2045 50.5515 37.6298C50.7352 38.0631 50.9527 38.4698 51.1931 38.8511C51.673 39.6138 52.2578 40.2498 52.895 40.7738C54.176 41.7991 55.7085 42.3925 57.3043 42.2485C58.8979 42.1218 60.4916 41.1005 61.4064 39.3911C61.871 38.5418 62.1497 37.4498 62.0994 36.3845C62.0623 35.3071 61.7169 34.3178 61.2753 33.5271C60.3648 31.9445 59.1526 30.9338 57.8934 30.1405C56.6452 29.4018 55.3893 28.8005 54.0798 28.3325C53.8066 28.2338 53.5322 28.1445 53.2568 28.0578C53.3377 27.8925 53.4131 27.7231 53.5005 27.5631C54.8144 25.2151 56.8234 23.4005 59.0258 21.9658C63.5149 19.1031 68.4281 17.0511 73.4342 15.8751C78.4556 14.7431 83.6016 14.4085 88.682 15.0085C91.2222 15.3165 93.734 15.8578 96.2119 16.6031C98.6953 17.3245 101.14 18.2831 103.545 19.3991C108.358 21.6258 113.047 24.3725 117.702 27.2671C122.376 30.1285 127.041 33.1031 131.887 35.6885C134.315 36.9805 136.833 38.1271 139.458 38.8485C142.076 39.5538 144.834 39.7711 147.468 39.0938L147.367 38.3165C144.804 38.6391 142.237 38.1631 139.794 37.2591C137.339 36.3711 134.993 35.0511 132.676 33.6365C128.039 30.7565 123.498 27.5925 118.889 24.5085C114.256 21.4805 109.56 18.4565 104.564 16.1391C99.6058 13.7511 94.3231 12.0951 88.9585 11.4845C83.5961 10.8898 78.1692 11.2205 72.8931 12.5031C67.6203 13.8325 62.5159 15.9978 57.7568 19.1685C55.3871 20.7991 53.0535 22.9138 51.4424 25.9178C51.191 26.4071 50.9691 26.9165 50.7636 27.4365C49.2005 27.1431 47.6178 27.0231 46.0406 27.0911C44.683 27.1605 43.3484 27.3285 41.9931 27.7111C40.653 28.1045 39.3305 28.7205 38.1489 29.7178C37.2351 30.4791 36.4405 31.5671 35.9694 32.8565C35.6283 32.9525 35.2917 33.0645 34.9605 33.1898C33.674 33.6938 32.4553 34.3885 31.2956 35.1871C28.9838 36.7871 26.8808 38.7018 24.5505 40.0551C23.3897 40.7405 22.1709 41.2151 20.8986 41.5565C19.6362 41.9125 18.3519 42.1591 17.0621 42.2831C15.7723 42.4111 14.4727 42.4125 13.1938 42.2365C11.9183 42.0458 10.6482 41.6885 9.42724 41.1871C6.99087 40.1631 4.70753 38.4991 2.986 36.1551C2.1236 34.9898 1.38798 33.6805 0.969353 32.2085C0.538698 30.7418 0.394417 29.1565 0.484046 27.5978C0.668769 24.4765 1.76836 21.4351 3.53689 19.1685C5.29995 16.9405 7.79535 15.3725 10.3443 15.5178C11.6024 15.6045 12.8353 16.1938 13.7928 17.1831C14.7536 18.1498 15.4247 19.5791 15.4739 21.0671C15.51 22.5551 14.993 24.0885 14.0704 25.0498C13.6343 25.5258 13.0572 25.8485 12.5205 25.9405C12.55 25.8778 12.5763 25.7965 12.5817 25.6751C12.5839 25.4285 12.4429 25.2698 12.3664 25.2178C12.1959 25.1005 12.0779 25.0965 11.9445 25.0978C11.8155 25.1111 11.6723 25.1351 11.5149 25.3005C11.3379 25.4698 11.3302 25.8445 11.3827 25.9698C11.4603 26.3165 11.7182 26.5445 11.9226 26.6205C12.1369 26.7098 12.338 26.7218 12.5358 26.7058C13.2922 26.5805 13.9305 26.1805 14.465 25.6045C15.5296 24.4605 16.0838 22.7405 16.0324 21.0378C15.957 19.3111 15.181 17.7458 14.1229 16.6991C13.0681 15.6338 11.7292 15.0218 10.3694 14.9378C9.01299 14.8538 7.65981 15.2418 6.44654 15.9338C5.23 16.6231 4.12275 17.5898 3.19805 18.7751C1.35301 21.1458 0.217347 24.3005 0.0260667 27.5578C-0.0679342 29.1871 0.090554 30.8445 0.529953 32.3965Z" fill="#091414"/>
<path d="M150.326 16.4187C150.326 25.3773 148.022 32.6387 148.022 32.6387C148.022 32.6387 145.717 25.3773 145.717 16.4187C145.717 7.46134 146.749 0.198673 148.022 0.198673C149.294 0.198673 150.326 7.46134 150.326 16.4187Z" fill="#091414"/>
<path d="M166.378 26.8621C166.762 27.8541 163.49 30.1514 159.071 31.9941C154.653 33.8367 150.374 33.5354 150.374 33.5354C150.374 33.5354 153.262 30.2474 157.681 28.4034C162.101 26.5607 165.994 25.8714 166.378 26.8621Z" fill="#091414"/>
<path d="M161.931 14.6727C162.94 15.4433 160.976 19.994 157.543 24.838C154.11 29.682 149.499 32.2153 149.499 32.2153C149.499 32.2153 150.454 26.894 153.887 22.05C157.32 17.2047 160.922 13.902 161.931 14.6727Z" fill="#091414"/>
<path d="M129.018 28.0443C128.717 29.0656 132.166 31.063 136.722 32.5056C141.278 33.947 145.516 33.267 145.516 33.267C145.516 33.267 142.366 30.247 137.81 28.8043C133.256 27.363 129.318 27.0216 129.018 28.0443Z" fill="#091414"/>
<path d="M132.439 15.5032C131.496 16.3606 133.831 20.7192 137.654 25.2392C141.474 29.7592 146.278 31.8726 146.278 31.8726C146.278 31.8726 144.886 26.6552 141.064 22.1352C137.243 17.6152 133.382 14.6459 132.439 15.5032Z" fill="#091414"/>
</svg>
