<svg width="33" height="32" viewBox="0 0 33 32" fill="none" xmlns="http://www.w3.org/2000/svg">
<path fill-rule="evenodd" clip-rule="evenodd" d="M9.35734 29.3333C7.58923 29.3333 5.89354 28.6309 4.6433 27.3807C3.39305 26.1304 2.69067 24.4348 2.69067 22.6666V18.6666C2.69067 18.313 2.83115 17.9739 3.0812 17.7238C3.33125 17.4738 3.67039 17.3333 4.02401 17.3333C4.37763 17.3333 4.71677 17.4738 4.96682 17.7238C5.21686 17.9739 5.35734 18.313 5.35734 18.6666V22.6666C5.35734 23.7275 5.77877 24.7449 6.52891 25.4951C7.27906 26.2452 8.29647 26.6666 9.35734 26.6666H22.6907C23.7515 26.6666 24.769 26.2452 25.5191 25.4951C26.2692 24.7449 26.6907 23.7275 26.6907 22.6666V18.6666C26.6907 18.313 26.8311 17.9739 27.0812 17.7238C27.3312 17.4738 27.6704 17.3333 28.024 17.3333C28.3776 17.3333 28.7168 17.4738 28.9668 17.7238C29.2169 17.9739 29.3573 18.313 29.3573 18.6666V22.6666C29.3573 24.4348 28.655 26.1304 27.4047 27.3807C26.1545 28.6309 24.4588 29.3333 22.6907 29.3333H9.35734Z" fill="black"/>
<path fill-rule="evenodd" clip-rule="evenodd" d="M9.73744 13.4667C9.61486 13.3414 9.51817 13.1933 9.45289 13.0307C9.38762 12.868 9.35504 12.6941 9.35702 12.5189C9.359 12.3437 9.3955 12.1706 9.46444 12.0095C9.53337 11.8484 9.63339 11.7024 9.75877 11.58L15.7588 5.71333C16.0079 5.46983 16.3424 5.3335 16.6908 5.3335C17.0391 5.3335 17.3737 5.46983 17.6228 5.71333L23.6228 11.58C23.7506 11.7018 23.8531 11.8477 23.9241 12.0094C23.9951 12.171 24.0333 12.3452 24.0365 12.5217C24.0396 12.6983 24.0077 12.8737 23.9425 13.0378C23.8773 13.2019 23.7802 13.3514 23.6568 13.4777C23.5333 13.604 23.386 13.7045 23.2234 13.7733C23.0609 13.8422 22.8862 13.8781 22.7096 13.8789C22.5331 13.8798 22.3581 13.8455 22.1949 13.7782C22.0316 13.7109 21.8834 13.6118 21.7588 13.4867L18.0241 9.83467V21.3333C18.0241 21.687 17.8836 22.0261 17.6336 22.2761C17.3835 22.5262 17.0444 22.6667 16.6908 22.6667C16.3371 22.6667 15.998 22.5262 15.748 22.2761C15.4979 22.0261 15.3574 21.687 15.3574 21.3333V9.83467L11.6241 13.4867C11.4989 13.6092 11.3507 13.7059 11.1881 13.7712C11.0255 13.8365 10.8516 13.8691 10.6763 13.8671C10.5011 13.8651 10.328 13.8286 10.1669 13.7597C10.0058 13.6907 9.85986 13.5907 9.73744 13.4653V13.4667Z" fill="black"/>
</svg>
