<svg width="25" height="28" viewBox="0 0 25 28" fill="none" xmlns="http://www.w3.org/2000/svg">
<path d="M12.0239 0C12.3505 4.30807e-05 12.6657 0.119942 12.9098 0.336954C13.1538 0.553966 13.3097 0.852998 13.3479 1.17733L13.3573 1.33333V22.6667C13.3569 23.0065 13.2268 23.3334 12.9935 23.5805C12.7602 23.8276 12.4413 23.9763 12.1021 23.9962C11.7628 24.0161 11.4288 23.9058 11.1681 23.6876C10.9075 23.4695 10.7401 23.1601 10.6999 22.8227L10.6906 22.6667V1.33333C10.6906 0.979711 10.8311 0.640573 11.0811 0.390524C11.3312 0.140476 11.6703 0 12.0239 0ZM6.69059 4C7.04421 4 7.38335 4.14048 7.6334 4.39052C7.88345 4.64057 8.02393 4.97971 8.02393 5.33333V18.6667C8.02393 19.0203 7.88345 19.3594 7.6334 19.6095C7.38335 19.8595 7.04421 20 6.69059 20C6.33697 20 5.99783 19.8595 5.74778 19.6095C5.49774 19.3594 5.35726 19.0203 5.35726 18.6667V5.33333C5.35726 4.97971 5.49774 4.64057 5.74778 4.39052C5.99783 4.14048 6.33697 4 6.69059 4ZM17.3573 4C17.7109 4 18.05 4.14048 18.3001 4.39052C18.5501 4.64057 18.6906 4.97971 18.6906 5.33333V18.6667C18.6906 19.0203 18.5501 19.3594 18.3001 19.6095C18.05 19.8595 17.7109 20 17.3573 20C17.0036 20 16.6645 19.8595 16.4145 19.6095C16.1644 19.3594 16.0239 19.0203 16.0239 18.6667V5.33333C16.0239 4.97971 16.1644 4.64057 16.4145 4.39052C16.6645 4.14048 17.0036 4 17.3573 4ZM1.35726 8C1.71088 8 2.05002 8.14048 2.30007 8.39052C2.55012 8.64057 2.69059 8.97971 2.69059 9.33333V14.6667C2.69059 15.0203 2.55012 15.3594 2.30007 15.6095C2.05002 15.8595 1.71088 16 1.35726 16C1.00364 16 0.664499 15.8595 0.41445 15.6095C0.164402 15.3594 0.0239258 15.0203 0.0239258 14.6667V9.33333C0.0239258 8.97971 0.164402 8.64057 0.41445 8.39052C0.664499 8.14048 1.00364 8 1.35726 8ZM22.6906 8C23.0172 8.00004 23.3324 8.11994 23.5764 8.33695C23.8205 8.55397 23.9764 8.853 24.0146 9.17733L24.0239 9.33333V14.6667C24.0236 15.0065 23.8934 15.3334 23.6601 15.5805C23.4268 15.8276 23.108 15.9763 22.7687 15.9962C22.4295 16.0161 22.0954 15.9058 21.8348 15.6876C21.5742 15.4695 21.4067 15.1601 21.3666 14.8227L21.3573 14.6667V9.33333C21.3573 8.97971 21.4977 8.64057 21.7478 8.39052C21.9978 8.14048 22.337 8 22.6906 8Z" fill="black"/>
</svg>
