<svg width="24" height="25" viewBox="0 0 24 25" fill="none" xmlns="http://www.w3.org/2000/svg">
<path fill-rule="evenodd" clip-rule="evenodd" d="M12.0001 14.6221L17.3031 19.9251C17.5845 20.2065 17.9661 20.3646 18.3641 20.3646C18.762 20.3646 19.1437 20.2065 19.4251 19.9251C19.7065 19.6437 19.8646 19.2621 19.8646 18.8641C19.8646 18.4662 19.7065 18.0845 19.4251 17.8031L14.1201 12.5001L19.4241 7.19711C19.5634 7.05778 19.6738 6.89238 19.7492 6.71036C19.8245 6.52834 19.8633 6.33326 19.8632 6.13626C19.8632 5.93926 19.8243 5.7442 19.7489 5.56221C19.6735 5.38022 19.5629 5.21488 19.4236 5.07561C19.2843 4.93634 19.1189 4.82588 18.9368 4.75054C18.7548 4.67519 18.5597 4.63644 18.3627 4.63648C18.1657 4.63653 17.9707 4.67538 17.7887 4.75081C17.6067 4.82624 17.4414 4.93678 17.3021 5.07611L12.0001 10.3791L6.69709 5.07611C6.55879 4.93278 6.39333 4.81843 6.21036 4.73973C6.02739 4.66103 5.83058 4.61956 5.63141 4.61774C5.43224 4.61591 5.23471 4.65377 5.05033 4.72911C4.86595 4.80444 4.69842 4.91574 4.55752 5.05652C4.41661 5.19729 4.30515 5.36471 4.22964 5.54902C4.15414 5.73333 4.11609 5.93083 4.11773 6.13C4.11936 6.32917 4.16065 6.52602 4.23917 6.70906C4.3177 6.8921 4.43189 7.05767 4.57509 7.19611L9.88009 12.5001L4.57609 17.8041C4.43289 17.9425 4.3187 18.1081 4.24017 18.2912C4.16165 18.4742 4.12036 18.6711 4.11873 18.8702C4.11709 19.0694 4.15514 19.2669 4.23064 19.4512C4.30615 19.6355 4.41761 19.8029 4.55852 19.9437C4.69942 20.0845 4.86695 20.1958 5.05133 20.2711C5.23571 20.3464 5.43324 20.3843 5.63241 20.3825C5.83158 20.3807 6.02839 20.3392 6.21136 20.2605C6.39433 20.1818 6.55979 20.0674 6.69809 19.9241L12.0001 14.6221Z" fill="#65090A"/>
</svg>
